<svg xmlns="http://www.w3.org/2000/svg" width="26.03" height="26" viewBox="0 0 26.03 26">
  <defs>
    <style>
      .cls-1 {
        fill: #fff;
        fill-rule: evenodd;
      }
    </style>
  </defs>
  <path id="howto.svg" class="cls-1" d="M1059.75,300.22l-2.53,2.525a0.855,0.855,0,0,1-.61.255,0.878,0.878,0,0,1-.62-0.255l-5.17-5.174-2.14,3.691a0.856,0.856,0,0,1-.81.433,0.888,0.888,0,0,1-.75-0.546l-6.56-16.462a0.859,0.859,0,0,1,.19-0.937,0.872,0.872,0,0,1,.94-0.193l16.46,6.566a0.873,0.873,0,0,1,.11,1.561l-3.69,2.132,5.18,5.175A0.868,0.868,0,0,1,1059.75,300.22Zm-13.24-17.871a0.87,0.87,0,1,1-1.23-1.23l1.93-1.932a0.87,0.87,0,0,1,1.23,1.23Zm-3.91-.877a0.871,0.871,0,0,1-.87-0.87v-2.733a0.87,0.87,0,0,1,1.74,0V280.6A0.871,0.871,0,0,1,1042.6,281.472ZM1039.13,283a0.859,0.859,0,0,1-.61-0.254l-1.93-1.932a0.87,0.87,0,0,1,1.23-1.23l1.93,1.932A0.869,0.869,0,0,1,1039.13,283Zm-0.66,2.6a0.871,0.871,0,0,1-.87.87h-2.73a0.87,0.87,0,0,1,0-1.74h2.73A0.871,0.871,0,0,1,1038.47,285.6Zm-0.35,2.683a0.87,0.87,0,0,1,1.23,1.23l-1.93,1.932a0.883,0.883,0,0,1-.62.255,0.87,0.87,0,0,1-.61-1.484Z" transform="translate(-1034 -277)"/>
</svg>
