<svg xmlns="http://www.w3.org/2000/svg" width="22" height="16" viewBox="0 0 22 16">
  <defs>
    <style>
      .cls-1 {
        fill: #298d3f;
        fill-rule: evenodd;
      }
    </style>
  </defs>
  <path id="mail.svg" class="cls-1" d="M972,165H954a2,2,0,0,1-2-2V151a2,2,0,0,1,2-2h18a2,2,0,0,1,2,2v12A2,2,0,0,1,972,165Zm-18-3.177,5.515-4.736L954,152.478v9.345ZM955.412,151l7.577,6.349L963,160l-1.9-1.587L955.751,163h14.5l-5.352-4.588L963,160l0.011-2.651L970.588,151H955.412Zm11.073,6.087L972,161.823v-9.345Z" transform="translate(-952 -149)"/>
</svg>
