<svg width="47" height="45" viewBox="0 0 47 45" fill="none" xmlns="http://www.w3.org/2000/svg">
<path d="M23.5007 0.541504C11.0057 0.541504 0.833984 9.43817 0.833984 20.3748C0.833984 31.3115 11.0057 40.2082 23.5007 40.2082C25.8384 40.2055 28.1646 39.8813 30.414 39.2448L38.2482 44.2315C38.462 44.3687 38.7089 44.4459 38.9628 44.4549C39.2168 44.4639 39.4685 44.4045 39.6915 44.2828C39.9146 44.1611 40.1008 43.9817 40.2307 43.7633C40.3606 43.5449 40.4294 43.2956 40.4298 43.0415V33.5073C42.2024 31.8069 43.6169 29.769 44.5901 27.5137C45.5633 25.2583 46.0755 22.8311 46.0965 20.3748C46.1673 9.43817 35.9957 0.541504 23.5007 0.541504ZM38.0782 31.864C37.9357 31.9961 37.822 32.1561 37.744 32.334C37.666 32.5119 37.6254 32.7039 37.6248 32.8982V40.4632L31.4198 36.5107C31.2467 36.4013 31.052 36.3307 30.849 36.3038C30.646 36.2769 30.4396 36.2943 30.244 36.3548C28.0605 37.033 25.787 37.3769 23.5007 37.3748C12.564 37.3748 3.66732 29.7532 3.66732 20.3748C3.66732 10.9965 12.564 3.37484 23.5007 3.37484C34.4373 3.37484 43.334 10.9965 43.334 20.3748C43.3017 22.5495 42.8178 24.6938 41.9131 26.6716C41.0083 28.6494 39.7024 30.4176 38.0782 31.864Z" fill="#298D3F"/>
<path d="M23.5009 26.2263C23.8767 26.2263 24.237 26.0771 24.5027 25.8114C24.7683 25.5457 24.9176 25.1854 24.9176 24.8097V9.01383C24.9176 8.63811 24.7683 8.27778 24.5027 8.0121C24.237 7.74642 23.8767 7.59717 23.5009 7.59717C23.1252 7.59717 22.7649 7.74642 22.4992 8.0121C22.2335 8.27778 22.0843 8.63811 22.0843 9.01383V24.7813C22.0805 24.9697 22.1144 25.157 22.1839 25.3322C22.2534 25.5073 22.3571 25.6669 22.489 25.8014C22.621 25.936 22.7784 26.0429 22.9522 26.1159C23.1259 26.1888 23.3125 26.2264 23.5009 26.2263Z" fill="#298D3F"/>
<path d="M23.5014 32.9407C24.5419 32.9407 25.3855 32.0971 25.3855 31.0565C25.3855 30.0159 24.5419 29.1724 23.5014 29.1724C22.4608 29.1724 21.6172 30.0159 21.6172 31.0565C21.6172 32.0971 22.4608 32.9407 23.5014 32.9407Z" fill="#298D3F"/>
</svg>
