<svg class="svg-icon" style="width: 1em;height: 1em;vertical-align: middle;fill: #298D3F;overflow: hidden;" viewBox="0 0 1024 1024" version="1.1"
    xmlns="http://www.w3.org/2000/svg">
    <path d="M511.780571 950.857143c23.588571 0 35.584-15.853714 59.574858-48.420572l255.853714-341.577142c11.574857-15.853714 18.432-31.725714 18.432-48.859429 0-17.572571-6.857143-33.005714-18.432-48.859429L571.355429 121.142857C547.364571 88.996571 535.350857 73.142857 511.780571 73.142857c-23.131429 0-35.145143 15.853714-59.136 48L196.790857 463.140571c-11.574857 15.853714-18.432 31.286857-18.432 48.859429 0 17.152 6.857143 33.005714 18.432 48.859429l255.853714 341.577142C476.635429 934.985143 488.649143 950.857143 511.780571 950.857143z m0-90.422857c-1.700571 0-2.998857-1.28-3.84-3.437715L259.766857 523.574857c-3.84-4.717714-4.278857-8.137143-4.278857-11.574857s0.420571-6.857143 4.278857-11.574857L507.922286 166.582857c0.859429-1.700571 2.139429-2.998857 3.858285-2.998857 2.139429 0 3.437714 1.28 4.297143 2.998857l248.137143 333.860572c3.84 4.717714 4.278857 8.137143 4.278857 11.574857s-0.420571 6.857143-4.278857 11.574857l-248.137143 333.421714c-0.859429 2.139429-2.139429 3.437714-4.297143 3.437714z" />
</svg>