<svg width="66" height="63" viewBox="0 0 66 63" fill="none" xmlns="http://www.w3.org/2000/svg">
<path d="M3.17096 23.5902L6.26665 21.6391V29H59.9252V21.7057L62.9796 23.5902C63.4513 23.8553 64 23.9143 64.5112 23.755C65.0224 23.5957 65.4566 23.2303 65.723 22.7352C65.9894 22.2401 66.0674 21.6536 65.9407 21.0982C65.8141 20.5427 65.4926 20.0614 65.0434 19.7546L33.0959 0L1.10717 19.7546C0.860539 19.8932 0.642552 20.084 0.466326 20.3154C0.290099 20.5469 0.159275 20.8142 0.0817237 21.1014C0.0041721 21.3886 -0.0185041 21.6897 0.0150591 21.9865C0.0486222 22.2833 0.137731 22.5698 0.277026 22.8287C0.41632 23.0876 0.60292 23.3135 0.825601 23.4929C1.04828 23.6723 1.30244 23.8015 1.57279 23.8726C1.84314 23.9438 2.12409 23.9554 2.39874 23.9069C2.67339 23.8583 2.93607 23.7506 3.17096 23.5902ZM32.7863 9.28976C33.0373 9.13408 33.322 9.05212 33.6119 9.05212C33.9017 9.05212 34.1864 9.13408 34.4374 9.28976L48.306 17.9144H41.6606L33.6119 12.948L25.5631 17.9144H18.9383L32.7863 9.28976Z" fill="#298D3F"/>
<path d="M63.6281 54.0247H61.875V52.1174C61.875 51.4331 61.6251 50.7767 61.1803 50.2928C60.7355 49.8089 60.1322 49.537 59.5031 49.537H53.625V33H45.375V49.537H37.125V33H28.875V49.537H20.625V33H12.375V49.537H6.49688C5.86782 49.537 5.26452 49.8089 4.81971 50.2928C4.37489 50.7767 4.125 51.4331 4.125 52.1174V54.0247H2.37188C1.74281 54.0247 1.13952 54.2965 0.694706 54.7805C0.249893 55.2644 0 55.9207 0 56.6051V63H66V56.6051C66 55.9207 65.7501 55.2644 65.3053 54.7805C64.8605 54.2965 64.2572 54.0247 63.6281 54.0247Z" fill="#298D3F"/>
</svg>
