<svg width="93" height="103" viewBox="0 0 93 103" fill="none" xmlns="http://www.w3.org/2000/svg">
<path d="M78.9336 36.4128H84.9688V66.5885H78.9336V36.4128Z" fill="#BDF0FF"/>
<path d="M49.6523 15.8676L52.6699 10.6411L78.8022 25.729L75.7846 30.9554L49.6523 15.8676Z" fill="#BDF0FF"/>
<path d="M17.2148 30.954L14.1973 25.7276L40.3295 10.6397L43.3471 15.8661L17.2148 30.954Z" fill="#BDF0FF"/>
<path d="M14.0625 66.5875H8.02734V36.4117H14.0625V66.5875Z" fill="#BDF0FF"/>
<path d="M43.3477 87.1338L40.3301 92.3602L14.1979 77.2723L17.2154 72.0459L43.3477 87.1338Z" fill="#BDF0FF"/>
<path d="M75.7852 72.0452L78.8027 77.2717L52.6705 92.3596L49.6529 87.1331L75.7852 72.0452Z" fill="#BDF0FF"/>
<path d="M46.5 1.50879V19.6143C51.4997 19.6143 55.5527 15.5612 55.5527 10.5615C55.5527 5.5618 51.4997 1.50879 46.5 1.50879Z" fill="#FFBC7E"/>
<path d="M49.5195 10.5615C49.5195 5.5618 48.1685 1.50879 46.502 1.50879C41.5022 1.50879 37.4492 5.5618 37.4492 10.5615C37.4492 15.5612 41.5022 19.6143 46.502 19.6143C48.1685 19.6143 49.5195 15.5612 49.5195 10.5615Z" fill="#F09300"/>
<path d="M11.0469 21.978V40.0835C16.0466 40.0835 20.0996 36.0305 20.0996 31.0308C20.0996 26.031 16.0466 21.978 11.0469 21.978Z" fill="#FFBC7E"/>
<path d="M14.0625 31.0308C14.0625 26.031 12.7114 21.978 11.0449 21.978C6.0452 21.978 1.99219 26.031 1.99219 31.0308C1.99219 36.0305 6.0452 40.0835 11.0449 40.0835C12.7114 40.0835 14.0625 36.0305 14.0625 31.0308Z" fill="#F09300"/>
<path d="M81.9531 21.978V40.0835C86.9528 40.0835 91.0059 36.0305 91.0059 31.0308C91.0059 26.031 86.9528 21.978 81.9531 21.978Z" fill="#FFBC7E"/>
<path d="M84.9688 31.0308C84.9688 26.031 83.6177 21.978 81.9512 21.978C76.9514 21.978 72.8984 26.031 72.8984 31.0308C72.8984 36.0305 76.9514 40.0835 81.9512 40.0835C83.6177 40.0835 84.9688 36.0305 84.9688 31.0308Z" fill="#F09300"/>
<path d="M81.9531 62.9165V81.022C86.9528 81.022 91.0059 76.969 91.0059 71.9692C91.0059 66.9695 86.9528 62.9165 81.9531 62.9165Z" fill="#FFBC7E"/>
<path d="M84.9688 71.9692C84.9688 66.9695 83.6177 62.9165 81.9512 62.9165C76.9514 62.9165 72.8984 66.9695 72.8984 71.9692C72.8984 76.969 76.9514 81.022 81.9512 81.022C83.6177 81.022 84.9688 76.969 84.9688 71.9692Z" fill="#F09300"/>
<path d="M11.0469 62.9165V81.022C16.0466 81.022 20.0996 76.969 20.0996 71.9692C20.0996 66.9695 16.0466 62.9165 11.0469 62.9165Z" fill="#FFBC7E"/>
<path d="M14.0625 71.9692C14.0625 66.9695 12.7114 62.9165 11.0449 62.9165C6.0452 62.9165 1.99219 66.9695 1.99219 71.9692C1.99219 76.969 6.0452 81.022 11.0449 81.022C12.7114 81.022 14.0625 76.969 14.0625 71.9692Z" fill="#F09300"/>
<path d="M46.5 83.3857V101.491C51.4997 101.491 55.5527 97.4382 55.5527 92.4385C55.5527 87.4388 51.4997 83.3857 46.5 83.3857Z" fill="#FFBC7E"/>
<path d="M49.5195 92.4385C49.5195 87.4388 48.1685 83.3857 46.502 83.3857C41.5022 83.3857 37.4492 87.4388 37.4492 92.4385C37.4492 97.4382 41.5022 101.491 46.502 101.491C48.1685 101.491 49.5195 97.4382 49.5195 92.4385Z" fill="#F09300"/>
<path d="M62.8509 38.5747L46.4997 77.3506L24.1133 64.4253V38.5747H62.8509Z" fill="#AD7B64"/>
<path d="M68.8864 38.5747V64.4253L62.8512 67.9096L46.5 38.5747H68.8864Z" fill="#AD7B64"/>
<path d="M62.8512 42.059V53.9722L59.8337 57.4565L62.8512 60.941V67.9096L46.5 77.3506V38.5747L62.8512 42.059Z" fill="#BDBDBD"/>
<path d="M62.8521 53.9722L52.5352 59.9285V66.8975L62.8521 60.941V53.9722Z" fill="white"/>
<path d="M57.6911 45.0384H38.3223L35.3047 32.1111L46.4979 25.6494L68.8843 38.5747L57.6911 45.0384Z" fill="#AD7B64"/>
<path d="M57.6929 45.0383L46.4997 51.4999L24.1133 38.5746L35.3065 32.111L57.6929 45.0383Z" fill="#D0CFCE"/>
<path d="M23.356 65.7319L45.7432 78.6572C45.9765 78.792 46.237 78.8594 46.4976 78.8594C46.7581 78.8594 47.0186 78.792 47.252 78.6572L69.6392 65.7319C70.1059 65.4623 70.3936 64.9644 70.3936 64.4253V38.5747C70.3936 38.0356 70.1059 37.5377 69.6392 37.2681L47.252 24.3428C46.7852 24.0732 46.2099 24.0732 45.7432 24.3428L23.356 37.2681C22.8892 37.5377 22.6016 38.0356 22.6016 38.5747V64.4253C22.6016 64.9644 22.8892 65.4623 23.356 65.7319ZM25.6191 41.1879L44.9888 52.3711V74.7374L25.6191 63.5542V41.1879ZM46.4976 49.7579L27.1279 38.5747L35.304 33.8542L54.6736 45.0374L46.4976 49.7579ZM48.0064 74.7374V52.3711L67.376 41.1879V63.5542L48.0064 74.7374ZM46.4976 27.3916L65.8672 38.5747L57.6912 43.2952L38.3215 32.1121L46.4976 27.3916Z" fill="#298D3F"/>
<path d="M63.6074 52.6653C63.1407 52.3957 62.5654 52.3957 62.0986 52.6653L51.7817 58.6218C51.315 58.8914 51.0273 59.3893 51.0273 59.9284V66.8972C51.0273 67.4364 51.315 67.9342 51.7817 68.2038C52.0151 68.3386 52.2756 68.406 52.5361 68.406C52.7966 68.406 53.0572 68.3386 53.2905 68.2038L63.6074 62.2473C64.0741 61.9778 64.3618 61.4799 64.3618 60.9407V53.9719C64.3618 53.433 64.0741 52.9349 63.6074 52.6653ZM61.3442 60.0698L54.0449 64.284V60.7995L61.3442 56.5851V60.0698Z" fill="#298D3F"/>
<path d="M86.4797 62.4289V40.5711C90.0447 38.873 92.5149 35.2355 92.5149 31.0308C92.5149 25.207 87.7771 20.4692 81.9533 20.4692C79.728 20.4692 77.6624 21.1629 75.9578 22.3428L57.0239 11.4113C57.0465 11.1306 57.0611 10.848 57.0611 10.5617C57.0611 4.7378 52.3233 0 46.4996 0C40.6759 0 35.9381 4.7378 35.9381 10.5615C35.9381 10.8478 35.9528 11.1306 35.9753 11.4111L17.0414 22.3426C15.3369 21.1627 13.2713 20.469 11.0459 20.469C5.22217 20.469 0.484375 25.2068 0.484375 31.0306C0.484375 35.2353 2.95456 38.8728 6.51953 40.5709V62.4287C2.95456 64.1268 0.484375 67.7643 0.484375 71.969C0.484375 77.7928 5.22217 82.5306 11.0459 82.5306C13.2713 82.5306 15.3369 81.8369 17.0414 80.6571L35.9753 91.5885C35.9528 91.8692 35.9381 92.1518 35.9381 92.4381C35.9381 98.2618 40.6759 103 46.4996 103C52.3233 103 57.0611 98.2618 57.0611 92.4381C57.0611 92.1518 57.0465 91.869 57.0239 91.5885L75.9578 80.6571C77.6624 81.8369 79.728 82.5306 81.9533 82.5306C87.7771 82.5306 92.5149 77.7928 92.5149 71.969C92.5149 67.7645 90.0447 64.127 86.4797 62.4289ZM83.4621 61.5172C82.9691 61.4463 82.4657 61.4077 81.9533 61.4077C81.441 61.4077 80.9376 61.4463 80.4446 61.5172V41.4828C80.9376 41.5537 81.441 41.5923 81.9533 41.5923C82.4657 41.5923 82.9691 41.5537 83.4621 41.4828V61.5172ZM89.4973 31.0308C89.4973 35.1906 86.1132 38.5747 81.9533 38.5747C77.7935 38.5747 74.4094 35.1906 74.4094 31.0308C74.4094 26.8709 77.7935 23.4868 81.9533 23.4868C86.1132 23.4868 89.4973 26.8709 89.4973 31.0308ZM73.6614 24.5011C73.0396 25.2891 72.5278 26.1668 72.1486 27.1121L54.7915 17.091C55.4133 16.303 55.9251 15.4253 56.3043 14.4799L73.6614 24.5011ZM46.4996 3.01758C50.6595 3.01758 54.0436 6.40169 54.0436 10.5615C54.0436 14.7214 50.6595 18.1055 46.4996 18.1055C42.3398 18.1055 38.9557 14.7214 38.9557 10.5615C38.9557 6.40169 42.3398 3.01758 46.4996 3.01758ZM38.2083 17.092L20.851 27.1133C20.4718 26.1674 19.9598 25.2893 19.3378 24.5011L36.6949 14.4799C37.0743 15.4259 37.5863 16.304 38.2083 17.092ZM3.50195 31.0308C3.50195 26.8709 6.88607 23.4868 11.0459 23.4868C15.2057 23.4868 18.5898 26.8709 18.5898 31.0308C18.5898 35.1906 15.2057 38.5747 11.0459 38.5747C6.88607 38.5747 3.50195 35.1906 3.50195 31.0308ZM9.53711 41.4828C10.0302 41.5537 10.5335 41.5923 11.0459 41.5923C11.5583 41.5923 12.0616 41.5537 12.5547 41.4828V48.4824C12.5547 49.3157 13.2302 49.9912 14.0635 49.9912C14.8967 49.9912 15.5723 49.3157 15.5723 48.4824V40.5711C19.1372 38.873 21.6074 35.2355 21.6074 31.0308C21.6074 30.7449 21.5927 30.4627 21.5704 30.1826L40.5053 19.2503C42.2094 20.4298 44.2747 21.123 46.4996 21.123C48.725 21.123 50.7906 20.4294 52.4952 19.2495L71.429 30.181C71.4065 30.4616 71.3918 30.7443 71.3918 31.0306C71.3918 35.2353 73.862 38.8728 77.427 40.5709V62.4287C73.862 64.1268 71.3918 67.7643 71.3918 71.969C71.3918 72.2553 71.4065 72.5379 71.429 72.8186L52.4949 83.7501C50.7906 82.5706 48.725 81.877 46.4996 81.877C44.2743 81.877 42.2086 82.5706 40.5041 83.7505L21.5702 72.819C21.5927 72.5384 21.6074 72.2557 21.6074 71.9694C21.6074 67.7647 19.1372 64.1272 15.5723 62.4291V54.5176C15.5723 53.6843 14.8967 53.0088 14.0635 53.0088C13.2302 53.0088 12.5547 53.6843 12.5547 54.5176V61.5172C12.0616 61.4463 11.5583 61.4077 11.0459 61.4077C10.5335 61.4077 10.0302 61.4463 9.53711 61.5172V41.4828ZM3.50195 71.9692C3.50195 67.8094 6.88607 64.4253 11.0459 64.4253C15.2057 64.4253 18.5898 67.8094 18.5898 71.9692C18.5898 76.1291 15.2057 79.5132 11.0459 79.5132C6.88607 79.5132 3.50195 76.1291 3.50195 71.9692ZM19.3378 78.4989C19.9596 77.7109 20.4714 76.8332 20.8506 75.8879L38.2077 85.909C37.5859 86.697 37.0741 87.5747 36.6949 88.5201L19.3378 78.4989ZM46.4996 99.9824C42.3398 99.9824 38.9557 96.5983 38.9557 92.4385C38.9557 88.2786 42.3398 84.8945 46.4996 84.8945C50.6595 84.8945 54.0436 88.2786 54.0436 92.4385C54.0436 96.5983 50.6595 99.9824 46.4996 99.9824ZM54.7915 85.9088L72.1486 75.8877C72.5278 76.833 73.0396 77.7109 73.6614 78.4987L56.3043 88.5199C55.9251 87.5745 55.4133 86.6968 54.7915 85.9088ZM81.9533 79.5132C77.7935 79.5132 74.4094 76.1291 74.4094 71.9692C74.4094 67.8094 77.7935 64.4253 81.9533 64.4253C86.1132 64.4253 89.4973 67.8094 89.4973 71.9692C89.4973 76.1291 86.1132 79.5132 81.9533 79.5132Z" fill="#298D3F"/>
<path d="M23.356 65.7319L45.7432 78.6572C45.9765 78.792 46.237 78.8594 46.4976 78.8594C46.7581 78.8594 47.0186 78.792 47.252 78.6572L69.6392 65.7319C70.1059 65.4623 70.3936 64.9644 70.3936 64.4253V38.5747C70.3936 38.0356 70.1059 37.5377 69.6392 37.2681L47.252 24.3428C46.7852 24.0732 46.2099 24.0732 45.7432 24.3428L23.356 37.2681C22.8892 37.5377 22.6016 38.0356 22.6016 38.5747V64.4253C22.6016 64.9644 22.8892 65.4623 23.356 65.7319ZM25.6191 41.1879L44.9888 52.3711V74.7374L25.6191 63.5542V41.1879ZM46.4976 49.7579L27.1279 38.5747L35.304 33.8542L54.6736 45.0374L46.4976 49.7579ZM48.0064 74.7374V52.3711L67.376 41.1879V63.5542L48.0064 74.7374ZM46.4976 27.3916L65.8672 38.5747L57.6912 43.2952L38.3215 32.1121L46.4976 27.3916Z" fill="#298D3F"/>
<path d="M63.6074 52.6653C63.1407 52.3957 62.5654 52.3957 62.0986 52.6653L51.7817 58.6218C51.315 58.8914 51.0273 59.3893 51.0273 59.9284V66.8972C51.0273 67.4364 51.315 67.9342 51.7817 68.2038C52.0151 68.3386 52.2756 68.406 52.5361 68.406C52.7966 68.406 53.0572 68.3386 53.2905 68.2038L63.6074 62.2473C64.0741 61.9778 64.3618 61.4799 64.3618 60.9407V53.9719C64.3618 53.433 64.0741 52.9349 63.6074 52.6653ZM61.3442 60.0698L54.0449 64.284V60.7995L61.3442 56.5851V60.0698Z" fill="#298D3F"/>
<path d="M86.4797 62.4289V40.5711C90.0447 38.873 92.5149 35.2355 92.5149 31.0308C92.5149 25.207 87.7771 20.4692 81.9533 20.4692C79.728 20.4692 77.6624 21.1629 75.9578 22.3428L57.0239 11.4113C57.0465 11.1306 57.0611 10.848 57.0611 10.5617C57.0611 4.7378 52.3233 0 46.4996 0C40.6759 0 35.9381 4.7378 35.9381 10.5615C35.9381 10.8478 35.9528 11.1306 35.9753 11.4111L17.0414 22.3426C15.3369 21.1627 13.2713 20.469 11.0459 20.469C5.22217 20.469 0.484375 25.2068 0.484375 31.0306C0.484375 35.2353 2.95456 38.8728 6.51953 40.5709V62.4287C2.95456 64.1268 0.484375 67.7643 0.484375 71.969C0.484375 77.7928 5.22217 82.5306 11.0459 82.5306C13.2713 82.5306 15.3369 81.8369 17.0414 80.6571L35.9753 91.5885C35.9528 91.8692 35.9381 92.1518 35.9381 92.4381C35.9381 98.2618 40.6759 103 46.4996 103C52.3233 103 57.0611 98.2618 57.0611 92.4381C57.0611 92.1518 57.0465 91.869 57.0239 91.5885L75.9578 80.6571C77.6624 81.8369 79.728 82.5306 81.9533 82.5306C87.7771 82.5306 92.5149 77.7928 92.5149 71.969C92.5149 67.7645 90.0447 64.127 86.4797 62.4289ZM83.4621 61.5172C82.9691 61.4463 82.4657 61.4077 81.9533 61.4077C81.441 61.4077 80.9376 61.4463 80.4446 61.5172V41.4828C80.9376 41.5537 81.441 41.5923 81.9533 41.5923C82.4657 41.5923 82.9691 41.5537 83.4621 41.4828V61.5172ZM89.4973 31.0308C89.4973 35.1906 86.1132 38.5747 81.9533 38.5747C77.7935 38.5747 74.4094 35.1906 74.4094 31.0308C74.4094 26.8709 77.7935 23.4868 81.9533 23.4868C86.1132 23.4868 89.4973 26.8709 89.4973 31.0308ZM73.6614 24.5011C73.0396 25.2891 72.5278 26.1668 72.1486 27.1121L54.7915 17.091C55.4133 16.303 55.9251 15.4253 56.3043 14.4799L73.6614 24.5011ZM46.4996 3.01758C50.6595 3.01758 54.0436 6.40169 54.0436 10.5615C54.0436 14.7214 50.6595 18.1055 46.4996 18.1055C42.3398 18.1055 38.9557 14.7214 38.9557 10.5615C38.9557 6.40169 42.3398 3.01758 46.4996 3.01758ZM38.2083 17.092L20.851 27.1133C20.4718 26.1674 19.9598 25.2893 19.3378 24.5011L36.6949 14.4799C37.0743 15.4259 37.5863 16.304 38.2083 17.092ZM3.50195 31.0308C3.50195 26.8709 6.88607 23.4868 11.0459 23.4868C15.2057 23.4868 18.5898 26.8709 18.5898 31.0308C18.5898 35.1906 15.2057 38.5747 11.0459 38.5747C6.88607 38.5747 3.50195 35.1906 3.50195 31.0308ZM9.53711 41.4828C10.0302 41.5537 10.5335 41.5923 11.0459 41.5923C11.5583 41.5923 12.0616 41.5537 12.5547 41.4828V48.4824C12.5547 49.3157 13.2302 49.9912 14.0635 49.9912C14.8967 49.9912 15.5723 49.3157 15.5723 48.4824V40.5711C19.1372 38.873 21.6074 35.2355 21.6074 31.0308C21.6074 30.7449 21.5927 30.4627 21.5704 30.1826L40.5053 19.2503C42.2094 20.4298 44.2747 21.123 46.4996 21.123C48.725 21.123 50.7906 20.4294 52.4952 19.2495L71.429 30.181C71.4065 30.4616 71.3918 30.7443 71.3918 31.0306C71.3918 35.2353 73.862 38.8728 77.427 40.5709V62.4287C73.862 64.1268 71.3918 67.7643 71.3918 71.969C71.3918 72.2553 71.4065 72.5379 71.429 72.8186L52.4949 83.7501C50.7906 82.5706 48.725 81.877 46.4996 81.877C44.2743 81.877 42.2086 82.5706 40.5041 83.7505L21.5702 72.819C21.5927 72.5384 21.6074 72.2557 21.6074 71.9694C21.6074 67.7647 19.1372 64.1272 15.5723 62.4291V54.5176C15.5723 53.6843 14.8967 53.0088 14.0635 53.0088C13.2302 53.0088 12.5547 53.6843 12.5547 54.5176V61.5172C12.0616 61.4463 11.5583 61.4077 11.0459 61.4077C10.5335 61.4077 10.0302 61.4463 9.53711 61.5172V41.4828ZM3.50195 71.9692C3.50195 67.8094 6.88607 64.4253 11.0459 64.4253C15.2057 64.4253 18.5898 67.8094 18.5898 71.9692C18.5898 76.1291 15.2057 79.5132 11.0459 79.5132C6.88607 79.5132 3.50195 76.1291 3.50195 71.9692ZM19.3378 78.4989C19.9596 77.7109 20.4714 76.8332 20.8506 75.8879L38.2077 85.909C37.5859 86.697 37.0741 87.5747 36.6949 88.5201L19.3378 78.4989ZM46.4996 99.9824C42.3398 99.9824 38.9557 96.5983 38.9557 92.4385C38.9557 88.2786 42.3398 84.8945 46.4996 84.8945C50.6595 84.8945 54.0436 88.2786 54.0436 92.4385C54.0436 96.5983 50.6595 99.9824 46.4996 99.9824ZM54.7915 85.9088L72.1486 75.8877C72.5278 76.833 73.0396 77.7109 73.6614 78.4987L56.3043 88.5199C55.9251 87.5745 55.4133 86.6968 54.7915 85.9088ZM81.9533 79.5132C77.7935 79.5132 74.4094 76.1291 74.4094 71.9692C74.4094 67.8094 77.7935 64.4253 81.9533 64.4253C86.1132 64.4253 89.4973 67.8094 89.4973 71.9692C89.4973 76.1291 86.1132 79.5132 81.9533 79.5132Z" fill="#298D3F"/>
</svg>
