<svg width="69" height="87" viewBox="0 0 69 87" fill="none" xmlns="http://www.w3.org/2000/svg">
<path d="M27.738 59.0992L19.4515 55.7836L6.43588 78.7442C6.07973 79.3726 6.56581 80.1448 7.28648 80.0952L13.4796 79.6694C14.2729 79.6148 15.0478 79.9249 15.5845 80.5117L19.7745 85.092C20.2621 85.6249 21.1467 85.4012 21.3223 84.7007L27.738 59.0992Z" fill="#E28086"/>
<path d="M23.0043 57.204L16.8242 81.8644L19.7764 85.0917C20.2639 85.6246 21.1485 85.4009 21.3242 84.7002L27.74 59.0989L23.0043 57.204Z" fill="#FFBC7E"/>
<path d="M42.2227 59.0992L50.5091 55.7836L63.5246 78.7442C63.8807 79.3726 63.3946 80.1448 62.674 80.0952L56.4809 79.6694C55.6875 79.6148 54.9126 79.9249 54.376 80.5117L50.186 85.092C49.6984 85.6249 48.8138 85.4012 48.6381 84.7007L42.2227 59.0992Z" fill="#E28086"/>
<path d="M63.5279 78.7438L50.5125 55.7832L45.7109 57.7046L58.2299 79.7893L62.6773 80.095C63.3982 80.1444 63.8842 79.3722 63.5279 78.7438Z" fill="#FFBC7E"/>
<path d="M67.7137 35.6902C67.7137 36.48 66.5221 37.2219 66.4678 37.9978C66.4127 38.7848 67.4887 39.6885 67.3799 40.4592C67.2697 41.2395 65.9856 41.8036 65.8222 42.5653C65.6569 43.3348 66.5939 44.3842 66.3764 45.1326C66.1571 45.8876 64.8061 46.2603 64.5356 46.9917C64.2631 47.7283 65.0412 48.9022 64.7191 49.6127C64.3951 50.327 63.0053 50.5009 62.6333 51.1868C62.2597 51.8755 62.8637 53.1497 62.4437 53.8074C62.0226 54.4671 60.6223 54.4396 60.1568 55.0659C59.6905 55.6933 60.1089 57.0412 59.6003 57.6327C59.0911 58.2248 57.709 57.9977 57.1597 58.5516C56.6104 59.1057 56.8357 60.4996 56.2486 61.0132C55.6621 61.5262 54.3257 61.1041 53.7037 61.5744C53.0828 62.0439 53.1099 63.4561 52.4559 63.8809C51.8039 64.3044 50.5406 63.6952 49.8577 64.0721C49.1778 64.4474 49.0053 65.8492 48.2972 66.1759C47.5928 66.5009 46.4289 65.7159 45.6987 65.9907C44.9735 66.2636 44.604 67.6261 43.8555 67.8474C43.1134 68.0668 42.0731 67.1217 41.3101 67.2883C40.5549 67.4533 39.9957 68.7482 39.2221 68.8594C38.4579 68.9693 37.5619 67.8841 36.7817 67.9395C36.0124 67.9943 35.2769 69.1963 34.4938 69.1963C33.7108 69.1963 32.9751 67.9943 32.2059 67.9395C31.4256 67.8841 30.5298 68.9693 29.7656 68.8594C28.992 68.7482 28.4326 67.4533 27.6776 67.2883C26.9146 67.1217 25.8743 68.0668 25.1322 67.8473C24.3837 67.6259 24.014 66.2634 23.2888 65.9905C22.5586 65.7157 21.3946 66.5005 20.6901 66.1755C19.9819 65.8487 19.8094 64.4469 19.1294 64.0716C18.4466 63.6947 17.1833 64.3039 16.5313 63.8804C15.8772 63.4556 15.9044 62.0433 15.2835 61.5738C14.6615 61.1033 13.3251 61.5254 12.7386 61.0123C12.1515 60.4988 12.3767 59.1047 11.8275 58.5508C11.2783 57.9967 9.89611 58.2239 9.38692 57.6319C8.87824 57.0403 9.29684 55.6924 8.83035 55.065C8.36487 54.4388 6.96473 54.4663 6.54345 53.8065C6.12351 53.1488 6.72747 51.8746 6.35391 51.1859C5.98186 50.5001 4.5921 50.3261 4.26811 49.6118C3.94595 48.9014 4.72405 47.7275 4.45162 46.9909C4.18104 46.2595 2.8303 45.8866 2.61078 45.1318C2.39328 44.3833 3.33027 43.334 3.16501 42.5644C3.00159 41.8027 1.71749 41.2388 1.60731 40.4585C1.49848 39.6878 2.57428 38.7841 2.51936 37.9972C2.46511 37.2212 1.27344 36.4793 1.27344 35.6897C1.27344 34.8998 2.46511 34.1579 2.51936 33.382C2.57445 32.595 1.49848 31.6914 1.60731 30.9206C1.71749 30.1404 3.00159 29.5762 3.16501 28.8146C3.33027 28.045 2.39328 26.9957 2.61078 26.2472C2.8303 25.4922 4.18104 25.1195 4.45162 24.3879C4.72405 23.6514 3.94595 22.4774 4.26811 21.767C4.5921 21.0527 5.98186 20.8787 6.35391 20.1929C6.72747 19.5042 6.12351 18.23 6.54345 17.5723C6.96457 16.9126 8.36487 16.94 8.83035 16.3138C9.29667 15.6864 8.87824 14.3385 9.38692 13.7469C9.89611 13.1549 11.2782 13.3819 11.8275 12.828C12.3767 12.2741 12.1515 10.88 12.7386 10.3665C13.3251 9.85346 14.6615 10.2756 15.2835 9.80523C15.9044 9.33573 15.8772 7.92354 16.5313 7.49874C17.1833 7.07529 18.4466 7.68443 19.1294 7.30753C19.8094 6.93229 19.9819 5.53048 20.69 5.20381C21.3944 4.8788 22.5583 5.66376 23.2885 5.38899C24.0137 5.11607 24.3832 3.7536 25.1317 3.53225C25.8738 3.3129 26.9141 4.25794 27.6771 4.09133C28.4323 3.9264 28.9915 2.63142 29.7651 2.52024C30.5293 2.4104 31.4253 3.49558 32.2055 3.44016C32.9747 3.3854 33.7103 2.18335 34.4934 2.18335C35.2764 2.18335 36.0121 3.3854 36.7813 3.44016C37.5616 3.49558 38.4574 2.4104 39.2216 2.52024C39.9952 2.63142 40.5546 3.9264 41.3096 4.09133C42.0726 4.25794 43.1129 3.3129 43.855 3.53242C44.6035 3.75377 44.9732 5.11623 45.6984 5.38916C46.4286 5.66393 47.5926 4.87914 48.297 5.20414C49.0053 5.53098 49.1778 6.93279 49.8577 7.30803C50.5406 7.68494 51.8039 7.07579 52.4559 7.49924C53.1099 7.92404 53.0828 9.3364 53.7037 9.8059C54.3257 10.2764 55.6621 9.85429 56.2486 10.3673C56.8357 10.8809 56.6104 12.275 57.1597 12.8289C57.7089 13.3829 59.0911 13.1557 59.6003 13.7478C60.1089 14.3393 59.6903 15.6872 60.1568 16.3146C60.6223 16.9409 62.0224 16.9134 62.4437 17.5731C62.8637 18.2308 62.2597 19.5049 62.6333 20.1936C63.0053 20.8794 64.3951 21.0534 64.7191 21.7677C65.0412 22.4781 64.2631 23.652 64.5356 24.3886C64.8061 25.12 66.1569 25.4929 66.3764 26.2477C66.5939 26.9962 65.6569 28.0455 65.8222 28.8151C65.9856 29.5768 67.2697 30.1407 67.3799 30.921C67.4887 31.6917 66.4129 32.5954 66.4678 33.3823C66.5219 34.1584 67.7137 34.9003 67.7137 35.6902Z" fill="#FFBC7E"/>
<path d="M67.7087 35.6902C67.7087 34.9003 66.5168 34.1584 66.4627 33.3827C66.4077 32.5957 67.4836 31.692 67.3748 30.9213C67.2646 30.141 65.9805 29.5769 65.8171 28.8154C65.6518 28.0458 66.5888 26.9965 66.3713 26.248C66.152 25.493 64.8011 25.1203 64.5305 24.3889C64.2581 23.6525 65.0362 22.4784 64.714 21.768C64.39 21.0537 63.0003 20.8797 62.6282 20.1939C62.2546 19.5052 62.8586 18.2311 62.4387 17.5733C62.0175 16.9137 60.6172 16.941 60.1518 16.3148C59.6853 15.6874 60.1039 14.3395 59.5952 13.7479C59.3465 13.4588 58.8893 13.365 58.4228 13.2803C58.4894 13.3528 58.5448 13.431 58.584 13.5174C58.9062 14.2278 58.1281 15.4019 58.4005 16.1383C58.6711 16.8697 60.0218 17.2426 60.2413 17.9974C60.4588 18.7459 59.5218 19.7952 59.6871 20.5648C59.8505 21.3263 61.1346 21.8904 61.2448 22.6707C61.3536 23.4414 60.2778 24.3451 60.3328 25.132C60.387 25.908 61.5787 26.6499 61.5787 27.4395C61.5787 28.2293 60.3868 28.9713 60.3328 29.7472C60.2777 30.5342 61.3536 31.4378 61.2448 32.2086C61.1345 32.9888 59.8505 33.5529 59.6871 34.3146C59.5218 35.0842 60.4588 36.1335 60.2413 36.882C60.022 37.637 58.6711 38.0099 58.4005 38.7412C58.1281 39.4778 58.9062 40.6517 58.584 41.3622C58.26 42.0767 56.8703 42.2505 56.4982 42.9363C56.1246 43.625 56.7286 44.8992 56.3087 45.5569C55.8876 46.2166 54.4872 46.1892 54.0218 46.8154C53.5554 47.4428 53.9739 48.7907 53.4652 49.3822C52.956 49.9743 51.574 49.7473 51.0246 50.3012C50.4754 50.855 50.7006 52.2492 50.1135 52.7627C49.527 53.2757 48.1907 52.8536 47.5686 53.324C46.9478 53.7935 46.9749 55.2058 46.3209 55.6306C45.6688 56.0541 44.4055 55.4449 43.7227 55.8218C43.0427 56.1971 42.8702 57.5989 42.1621 57.9256C41.4577 58.2506 40.2938 57.4656 39.5636 57.7404C38.8384 58.0133 38.4689 59.3758 37.7204 59.5971C36.9784 59.8165 35.938 58.8714 35.175 59.038C34.4199 59.203 33.8606 60.4979 33.087 60.6091C32.3228 60.719 31.4269 59.6338 30.6466 59.6892C29.8774 59.744 29.1418 60.9458 28.3589 60.9458C27.5759 60.9458 26.8402 59.7438 26.071 59.6892C25.2907 59.6338 24.3947 60.719 23.6307 60.6091C22.8571 60.4979 22.2979 59.203 21.5427 59.0379C20.7797 58.8713 19.7394 59.8163 18.9973 59.5969C18.2488 59.3756 17.8791 58.0131 17.1539 57.7402C16.4237 57.4654 15.2597 58.2502 14.5554 57.9252C13.8471 57.5985 13.6747 56.1966 12.9947 55.8213C12.3119 55.4444 11.0485 56.0536 10.3965 55.6301C9.74251 55.2053 9.76964 53.793 9.14877 53.3235C8.52673 52.8531 7.19038 53.2751 6.60384 52.762C6.53251 52.6996 6.47357 52.6237 6.42334 52.5385C6.37294 53.0149 6.33309 53.4847 6.53854 53.8067C6.95965 54.4664 8.35996 54.4389 8.82544 55.0652C9.29176 55.6926 8.87333 57.0405 9.38201 57.632C9.8912 58.2243 11.2733 57.997 11.8226 58.5511C12.3718 59.105 12.1466 60.4991 12.7337 61.0126C13.3202 61.5257 14.6565 61.1036 15.2786 61.5741C15.8995 62.0436 15.8723 63.4559 16.5264 63.8807C17.1784 64.3042 18.4417 63.6952 19.1245 64.072C19.8045 64.4472 19.977 65.849 20.6852 66.1758C21.3897 66.5008 22.5535 65.7159 23.2839 65.9908C24.0091 66.2637 24.3786 67.6262 25.1273 67.8476C25.8694 68.0669 26.9097 67.1219 27.6727 67.2885C28.4278 67.4534 28.9871 68.7484 29.7607 68.8597C30.5249 68.9696 31.4207 67.8844 32.2009 67.9398C32.9702 67.9946 33.7057 69.1965 34.4889 69.1965C35.2718 69.1965 36.0075 67.9944 36.7766 67.9398C37.5569 67.8844 38.4528 68.9696 39.217 68.8597C39.9906 68.7486 40.5499 67.4536 41.305 67.2887C42.068 67.122 43.1083 68.0671 43.8504 67.8477C44.5989 67.6264 44.9686 66.2639 45.6936 65.991C46.4238 65.7162 47.5879 66.501 48.2921 66.1762C49.0004 65.8495 49.1729 64.4477 49.8527 64.0725C50.5355 63.6955 51.7987 64.3049 52.4508 63.8812C53.1049 63.4564 53.0777 62.0443 53.6986 61.5746C54.3206 61.1042 55.657 61.5264 56.2435 61.0133C56.8306 60.4998 56.6054 59.1057 57.1546 58.5518C57.7038 57.9977 59.086 58.2249 59.5952 57.6329C60.1039 57.0413 59.6854 55.6934 60.1518 55.066C60.6172 54.4398 62.0175 54.4672 62.4387 53.8075C62.8586 53.1498 62.2546 51.8756 62.6282 51.1869C63.0003 50.5011 64.39 50.3271 64.714 49.6128C65.0362 48.9024 64.2581 47.7283 64.5305 46.9919C64.8011 46.2605 66.152 45.8876 66.3713 45.1326C66.5888 44.3842 65.6518 43.3348 65.8171 42.5653C65.9805 41.8036 67.2646 41.2395 67.3748 40.4592C67.4836 39.6885 66.4078 38.7848 66.4627 37.9978C66.5168 37.2219 67.7087 36.48 67.7087 35.6902Z" fill="#F09300"/>
<path d="M62.8766 35.69C62.8766 38.627 59.6962 41.0214 58.8429 43.6717C57.9587 46.4184 59.1058 50.235 57.4562 52.5214C55.79 54.8306 51.8257 54.9016 49.5362 56.5822C47.2694 58.246 45.9865 62.0364 43.2633 62.9281C40.6356 63.7886 37.401 61.5109 34.4891 61.5109C31.5771 61.5109 28.3423 63.7886 25.7149 62.9281C22.9916 62.0364 21.7087 58.246 19.4419 56.5822C17.1525 54.9016 13.188 54.8306 11.5219 52.5214C9.87232 50.2352 11.0195 46.4185 10.1352 43.6717C9.28209 41.0214 6.10156 38.627 6.10156 35.69C6.10156 32.7529 9.28192 30.3585 10.1352 27.7083C11.0195 24.9616 9.87232 21.1449 11.5219 18.8585C13.1881 16.5494 17.1525 16.4784 19.4419 14.7978C21.7087 13.1339 22.9916 9.34356 25.7149 8.45178C28.3425 7.5913 31.5771 9.86899 34.4891 9.86899C37.401 9.86899 40.6358 7.5913 43.2633 8.45178C45.9865 9.34356 47.2694 13.1339 49.5362 14.7978C51.8257 16.4784 55.7901 16.5494 57.4562 18.8585C59.1058 21.1448 57.9587 24.9614 58.8429 27.7083C59.6962 30.3585 62.8766 32.7527 62.8766 35.69Z" fill="#F9F5F5"/>
<path d="M58.8434 27.7084C57.9591 24.9617 59.1062 21.145 57.4566 18.8586C56.3858 17.3746 54.3662 16.8149 52.4517 16.1583C52.4716 17.25 52.5355 18.321 52.8396 19.2653C53.6927 21.9156 56.8733 24.3098 56.8733 27.2471C56.8733 30.1841 53.6929 32.5785 52.8396 35.2288C51.9554 37.9755 53.1025 41.7921 51.4529 44.0785C49.7867 46.3877 45.8224 46.4587 43.533 48.1393C41.2661 49.8031 39.9834 53.5935 37.26 54.4852C34.6323 55.3457 31.3977 53.068 28.4858 53.068C25.5738 53.068 22.3392 55.3457 19.7116 54.4852C16.9883 53.5935 15.7054 49.8031 13.4386 48.1393C12.6205 47.5386 11.5882 47.1438 10.5234 46.7788C10.5616 48.8623 10.4399 51.0212 11.5224 52.5215C13.1886 54.8307 17.1529 54.9017 19.4423 56.5823C21.7091 58.2461 22.992 62.0365 25.7153 62.9284C28.3428 63.7889 31.5776 61.5112 34.4895 61.5112C37.4015 61.5112 40.6362 63.7889 43.2637 62.9284C45.987 62.0366 47.2699 58.2463 49.5367 56.5824C51.8261 54.9018 55.7904 54.8308 57.4566 52.5218C59.1062 50.2354 57.9591 46.4188 58.8434 43.6721C59.6965 41.0219 62.877 38.6275 62.877 35.6904C62.877 32.7533 59.6965 30.3586 58.8434 27.7084Z" fill="#EEDFDA"/>
<path d="M34.4889 57.203C46.2684 57.203 55.8176 47.5714 55.8176 35.6902C55.8176 23.8091 46.2684 14.1775 34.4889 14.1775C22.7093 14.1775 13.1602 23.8091 13.1602 35.6902C13.1602 47.5714 22.7093 57.203 34.4889 57.203Z" fill="#FFBC7E"/>
<path d="M47.919 18.9794C50.9602 22.6975 52.7871 27.4639 52.7871 32.6606C52.7871 44.5416 43.238 54.1733 31.4584 54.1733C26.3675 54.1733 21.6943 52.3733 18.0273 49.3713C21.9394 54.1541 27.8606 57.2026 34.4879 57.2026C46.2673 57.2026 55.8166 47.5711 55.8166 35.6899C55.8166 28.9436 52.7369 22.9236 47.919 18.9794Z" fill="#F09300"/>
<path d="M35.4841 26.5784L37.8001 31.2713C37.9148 31.5037 38.1365 31.6648 38.393 31.7021L43.5719 32.4546C44.2179 32.5485 44.4758 33.3424 44.0084 33.798L40.261 37.4508C40.0753 37.6318 39.9907 37.8924 40.0344 38.1479L40.919 43.3059C41.0293 43.9492 40.3541 44.4398 39.7764 44.1361L35.1443 41.7008C34.9149 41.5802 34.6408 41.5802 34.4114 41.7008L29.7794 44.1361C29.2015 44.4398 28.5264 43.9492 28.6367 43.3059L29.5213 38.1479C29.5652 37.8924 29.4805 37.6317 29.2948 37.4508L25.5473 33.798C25.0798 33.3424 25.3378 32.5485 25.9838 32.4546L31.1628 31.7021C31.4193 31.6648 31.641 31.5037 31.7557 31.2713L34.0717 26.5784C34.3605 25.9931 35.1952 25.9931 35.4841 26.5784Z" fill="#FFE541"/>
<path d="M44.0078 33.7978C44.4753 33.3422 44.2173 32.5484 43.5713 32.4544L40.6511 32.0302C40.6869 32.2649 40.6201 32.5172 40.4229 32.7095L36.6754 36.3623C36.4897 36.5433 36.405 36.8039 36.4489 37.0594L37.3335 42.2174C37.3705 42.433 37.3179 42.6306 37.2116 42.7879L39.7757 44.1359C40.3536 44.4397 41.0287 43.9491 40.9183 43.3057L40.0336 38.1477C39.9897 37.8922 40.0744 37.6315 40.2601 37.4507L44.0078 33.7978Z" fill="#FFC50D"/>
<path d="M67.7576 38.0917C67.8317 37.9745 67.9724 37.7986 68.0729 37.6731C68.4762 37.1686 68.9785 36.541 68.9785 35.6901C68.9785 34.8391 68.4762 34.2114 68.0727 33.7067C67.9724 33.5813 67.8317 33.4057 67.7576 33.2885C67.8148 33.1592 67.9329 32.9596 68.0171 32.8173C68.3434 32.2649 68.75 31.5772 68.6321 30.7435C68.5131 29.9008 67.9274 29.3508 67.4568 28.9089C67.3398 28.7991 67.1759 28.645 67.0858 28.5397C67.1245 28.4037 67.2127 28.1894 67.2757 28.0369C67.521 27.4426 67.826 26.7029 67.5908 25.8933C67.3532 25.0762 66.6953 24.6166 66.1665 24.2472C66.0353 24.1554 65.8516 24.027 65.7475 23.9358C65.7665 23.7956 65.8231 23.5717 65.8637 23.4123C66.022 22.7883 66.219 22.0117 65.8705 21.2437C65.5191 20.4689 64.8026 20.1086 64.2268 19.8192C64.0843 19.7477 63.8852 19.6474 63.7691 19.5723C63.7681 19.431 63.7926 19.2027 63.81 19.0398C63.8783 18.399 63.9634 17.6015 63.5091 16.8899C63.0517 16.1732 62.2913 15.9197 61.6805 15.716C61.53 15.6657 61.3195 15.5956 61.1939 15.538C61.1735 15.3983 61.1654 15.1704 61.1599 15.0073C61.1373 14.3627 61.1092 13.5607 60.5585 12.92C60.0041 12.2754 59.2158 12.1331 58.5823 12.0185C58.427 11.9906 58.21 11.9512 58.0773 11.9124C58.0378 11.7773 57.9983 11.5544 57.97 11.3952C57.8572 10.7596 57.7167 9.9684 57.0801 9.41149C56.4404 8.85207 55.6399 8.82344 54.9964 8.8005C54.8392 8.79481 54.6197 8.78711 54.4829 8.76768C54.4253 8.63959 54.3553 8.42661 54.3054 8.27424C54.104 7.66006 53.8533 6.89587 53.1432 6.43474C52.4306 5.9716 51.6339 6.05816 50.9939 6.12765C50.8379 6.14473 50.6201 6.16817 50.4817 6.16867C50.4071 6.05029 50.3088 5.85137 50.2383 5.70872C49.9516 5.1287 49.5951 4.40703 48.8249 4.05173C48.0539 3.69592 47.2779 3.89601 46.6544 4.05708C46.5024 4.09627 46.2904 4.15102 46.1532 4.17145C46.063 4.06529 45.9386 3.88412 45.8493 3.75418C45.4828 3.22072 45.0265 2.55665 44.2109 2.31537C43.3975 2.07493 42.6593 2.38519 42.0659 2.63418C41.9207 2.69512 41.7184 2.78018 41.5853 2.8202C41.4815 2.72828 41.334 2.56854 41.228 2.45384C40.7886 1.97764 40.2418 1.38541 39.3982 1.26401C38.561 1.14463 37.8752 1.55603 37.324 1.88756C37.1885 1.9691 36.9996 2.08263 36.8729 2.14173C36.7578 2.06572 36.5909 1.92992 36.4707 1.83214C35.968 1.42291 35.3426 0.914062 34.4892 0.914062C33.6357 0.914062 33.0104 1.42308 32.5079 1.83197C32.3878 1.92959 32.2209 2.06555 32.1058 2.14157C31.9791 2.08246 31.7902 1.96894 31.6546 1.88739C31.1034 1.55603 30.4177 1.14329 29.5802 1.26385C28.7368 1.38524 28.1901 1.97748 27.7507 2.45351C27.6447 2.56837 27.4972 2.72828 27.3934 2.82004C27.2601 2.77968 27.0577 2.69479 26.9127 2.63401C26.3191 2.38486 25.5805 2.07543 24.7678 2.3152C23.9522 2.55632 23.4959 3.22055 23.1294 3.75418C23.0401 3.88412 22.9157 4.06529 22.8255 4.17128C22.6883 4.15085 22.4762 4.0961 22.3241 4.05675C21.7009 3.89617 20.9247 3.69625 20.1541 4.05122C19.3836 4.4067 19.0271 5.12853 18.7408 5.70838C18.6703 5.85104 18.5718 6.04996 18.4971 6.16834C18.3588 6.16784 18.1412 6.14423 17.9849 6.12732C17.3448 6.05766 16.5481 5.97126 15.8358 6.43423C15.1256 6.89553 14.8749 7.65973 14.6736 8.27373C14.6236 8.42627 14.5537 8.63926 14.496 8.76735C14.3592 8.7866 14.1397 8.79464 13.9824 8.80017C13.3391 8.82294 12.5386 8.85157 11.899 9.41099C11.2625 9.96773 11.1219 10.7589 11.009 11.3945C10.9807 11.5539 10.9411 11.7766 10.9015 11.9119C10.7689 11.9507 10.5519 11.9901 10.3965 12.018C9.76311 12.1326 8.97447 12.2751 8.42024 12.9195C7.86969 13.56 7.84157 14.3622 7.81896 15.0068C7.81327 15.1696 7.8054 15.3975 7.78497 15.5373C7.65922 15.5949 7.44875 15.6652 7.29839 15.7153C6.68757 15.9191 5.92705 16.1727 5.46944 16.8895C5.01551 17.6008 5.1004 18.3983 5.16888 19.0391C5.1863 19.2021 5.21058 19.4304 5.20974 19.5718C5.09353 19.6469 4.89428 19.7471 4.75179 19.8187C4.17613 20.1081 3.45948 20.4682 3.10836 21.2428C2.75975 22.0114 2.95683 22.788 3.11506 23.412C3.15541 23.5717 3.21218 23.7953 3.2311 23.9354C3.12712 24.0267 2.94343 24.1551 2.81199 24.2469C2.28338 24.6162 1.62534 25.076 1.38791 25.8931C1.15266 26.7025 1.4579 27.4421 1.70287 28.0364C1.76583 28.1891 1.85423 28.4034 1.89275 28.5394C1.80283 28.6449 1.63874 28.7989 1.5217 28.9087C1.05119 29.3504 0.465484 29.9005 0.346434 30.7434C0.228556 31.5771 0.634934 32.2647 0.961442 32.8171C1.0455 32.9595 1.16354 33.159 1.22097 33.2883C1.1468 33.4055 1.00615 33.5812 0.905852 33.7066C0.502321 34.2112 0 34.8388 0 35.6899C0 36.5407 0.502321 37.1684 0.905685 37.6729C1.00615 37.7983 1.1468 37.9743 1.22097 38.0915C1.16354 38.2206 1.04566 38.4202 0.961442 38.5625C0.635101 39.1151 0.228556 39.8026 0.346434 40.6363C0.465484 41.479 1.05119 42.029 1.5217 42.4707C1.63874 42.5806 1.80266 42.7345 1.89275 42.8399C1.85423 42.9759 1.76583 43.1902 1.70287 43.3428C1.45757 43.9372 1.15249 44.6771 1.38791 45.486C1.62518 46.3033 2.28322 46.7631 2.81199 47.1326C2.94327 47.2244 3.12695 47.3528 3.2311 47.444C3.21201 47.5842 3.15541 47.8081 3.11489 47.9676C2.95649 48.5915 2.75975 49.3681 3.10819 50.1363C3.45948 50.9109 4.17596 51.2711 4.75162 51.5606C4.89411 51.6321 5.09337 51.7324 5.20957 51.8075C5.21041 51.9487 5.18613 52.1771 5.16855 52.34C5.10023 52.9808 5.01517 53.7783 5.46927 54.4896C5.92688 55.2064 6.68723 55.4601 7.29805 55.6639C7.44858 55.7141 7.65905 55.7842 7.78464 55.8418C7.80506 55.9815 7.8131 56.2094 7.81863 56.3723C7.84123 57.0169 7.86936 57.8191 8.42024 58.4598C8.97447 59.1044 9.76261 59.2466 10.396 59.3611C10.5514 59.3892 10.7686 59.4284 10.901 59.4674C10.9406 59.6026 10.9801 59.8253 11.0084 59.9847C11.1214 60.6203 11.2619 61.4114 11.8983 61.9682C12.5381 62.5277 13.3386 62.5564 13.9819 62.5791C14.0303 62.5808 14.0847 62.583 14.1407 62.5853L5.33565 78.1179C4.93999 78.8158 4.95975 79.6711 5.38722 80.3499C5.81487 81.0287 6.57438 81.4172 7.37759 81.3613L13.5707 80.9355C13.9799 80.9078 14.3748 81.065 14.6519 81.3681L18.8417 85.9484C19.5247 86.4297 19.725 86.7828 20.9803 86.5892C21.7579 86.3925 22.3623 85.7872 22.5576 85.0089L26.6011 68.8737C26.7087 68.8314 26.8129 68.7878 26.9125 68.746C27.0577 68.685 27.2601 68.6 27.3932 68.5599C27.497 68.6519 27.6446 68.8116 27.7506 68.9263C28.1899 69.4025 28.7368 69.9947 29.58 70.116C30.4162 70.2362 31.1034 69.824 31.6546 69.4924C31.7901 69.411 31.9789 69.2975 32.1055 69.2384C32.2207 69.3144 32.3876 69.4502 32.5079 69.5482C33.0104 69.9571 33.6356 70.4659 34.489 70.4659C35.3425 70.4659 35.9677 69.9571 36.4702 69.5482C36.5904 69.4504 36.7575 69.3144 36.8725 69.2384C36.9991 69.2975 37.188 69.411 37.3236 69.4926C37.8748 69.824 38.5617 70.2357 39.3979 70.116C40.2413 69.9947 40.7881 69.4025 41.2275 68.9263C41.3335 68.8116 41.481 68.6517 41.5848 68.5599C41.7181 68.6001 41.9204 68.685 42.0654 68.7458C42.463 68.9127 42.9263 69.1061 43.433 69.1438L47.4089 85.0091C47.604 85.7872 48.2082 86.3927 48.986 86.5892C49.5687 86.7215 50.428 86.6472 51.1246 85.9484L55.3142 81.3681C55.5917 81.065 55.987 80.9078 56.3956 80.9355L62.5889 81.3613C63.3867 81.4157 64.1519 81.0287 64.579 80.3499C65.0065 79.6711 65.0263 78.8158 64.6306 78.1178L63.1357 75.4808C62.7898 74.8709 62.0155 74.6566 61.4054 75.0025C60.7957 75.3483 60.5814 76.1229 60.9272 76.7329L62.089 78.7823L56.5697 78.4029C55.3842 78.3202 54.2435 78.7776 53.4411 79.6547L49.707 83.7367L45.7174 67.8157C45.7626 67.7514 45.8065 67.6877 45.8488 67.626C45.9381 67.4959 46.0625 67.3147 46.1527 67.2087C46.2899 67.2291 46.502 67.2839 46.6541 67.3232C47.2774 67.484 48.0535 67.6841 48.8241 67.3288C49.5947 66.9733 49.9511 66.2514 50.2375 65.6716C50.3079 65.5289 50.4064 65.3298 50.4811 65.2116C50.6195 65.212 50.8372 65.2356 50.9934 65.2527C51.6332 65.3218 52.4301 65.4082 53.1424 64.9457C53.4469 64.748 53.6666 64.4943 53.8346 64.2209L58.1621 71.855C58.3958 72.2672 58.8251 72.4986 59.2675 72.4986C59.4795 72.4986 59.6946 72.4454 59.8922 72.3334C60.502 71.9878 60.7164 71.2132 60.3706 70.6032L55.7889 62.5209C56.2306 62.4564 56.6856 62.3134 57.0794 61.969C57.716 61.4123 57.8565 60.6209 57.9695 59.9853C57.9978 59.8259 58.0373 59.6034 58.0768 59.4681C58.2095 59.4293 58.4265 59.3899 58.5818 59.3619C59.2153 59.2474 60.0039 59.1049 60.5581 58.4603C61.1087 57.8197 61.1368 57.0176 61.1594 56.373C61.1651 56.2102 61.173 55.9823 61.1934 55.8425C61.3192 55.7849 61.5296 55.7148 61.6802 55.6645C62.291 55.4608 63.0513 55.2072 63.5088 54.4906C63.963 53.779 63.878 52.9815 63.8097 52.3405C63.7922 52.1776 63.7678 51.9494 63.7688 51.808C63.8848 51.7329 64.0841 51.6327 64.2266 51.5611C64.8024 51.2719 65.5189 50.9117 65.8703 50.1368C66.2186 49.3684 66.0215 48.5919 65.8635 47.968C65.823 47.8084 65.7662 47.5845 65.7473 47.4445C65.8514 47.3533 66.0351 47.2249 66.1662 47.1331C66.695 46.7636 67.353 46.3038 67.5905 45.4868C67.8259 44.6773 67.5205 43.9375 67.2755 43.3431C67.2125 43.1906 67.1243 42.9766 67.0856 42.8404C67.1757 42.735 67.3396 42.5811 67.4567 42.4712C67.9274 42.0294 68.5129 41.4793 68.6319 40.6368C68.7498 39.8029 68.3434 39.1154 68.0169 38.563C67.9329 38.4205 67.8148 38.2208 67.7576 38.0917ZM20.2594 83.7369L16.5252 79.6549C15.7226 78.7778 14.5822 78.3205 13.3967 78.4031L7.8774 78.7825L15.7538 64.888C15.7807 64.9074 15.8072 64.927 15.8357 64.9456C16.548 65.4082 17.3443 65.3222 17.9846 65.2523C18.1408 65.2354 18.3585 65.2118 18.497 65.2113C18.5716 65.3297 18.6699 65.5286 18.7404 65.6714C19.0271 66.2514 19.3836 66.9731 20.1541 67.3286C20.9252 67.6842 21.7008 67.4838 22.3241 67.3231C22.4762 67.2837 22.6883 67.229 22.8255 67.2085C22.9157 67.3147 23.0401 67.496 23.1294 67.6258C23.3676 67.9727 23.6446 68.3743 24.0329 68.6793L20.2594 83.7369ZM66.0905 36.0872C65.7165 36.5547 65.251 37.1366 65.1971 37.909C65.1425 38.6888 65.5244 39.3351 65.8315 39.8545C65.9057 39.9801 66.0066 40.151 66.0678 40.2766C65.9735 40.3812 65.8265 40.5194 65.7186 40.6205C65.2823 41.0304 64.7393 41.5404 64.5762 42.2988C64.4128 43.0608 64.6986 43.754 64.9285 44.3112C64.9844 44.4465 65.0604 44.6312 65.1031 44.7648C64.9953 44.8542 64.8319 44.9684 64.712 45.0523C64.2207 45.3954 63.6096 45.8226 63.34 46.5514C63.0699 47.2815 63.2544 48.0082 63.4024 48.592C63.4384 48.7343 63.4877 48.9281 63.5109 49.0667C63.3921 49.139 63.2159 49.2276 63.0865 49.2926C62.5505 49.562 61.8836 49.8972 61.5122 50.5817C61.1415 51.2652 61.221 52.0106 61.2848 52.6096C61.3006 52.7556 61.3217 52.954 61.3252 53.0948C61.1978 53.1491 61.0126 53.2107 60.8764 53.2561C60.307 53.4461 59.5982 53.6825 59.1329 54.3084C58.6689 54.9323 58.6428 55.6818 58.6217 56.2839C58.6165 56.4301 58.6096 56.6288 58.5934 56.7686C58.4601 56.8036 58.2699 56.8381 58.1299 56.8634C57.5385 56.9704 56.8028 57.1032 56.2529 57.6579C55.7059 58.2098 55.5748 58.9479 55.4693 59.5411C55.4438 59.6844 55.4093 59.8792 55.3737 60.0153C55.2374 60.0307 55.046 60.0376 54.9049 60.0426C54.3041 60.0639 53.5561 60.0905 52.9327 60.562C52.3129 61.0307 52.0795 61.7429 51.8918 62.3151C51.8467 62.4526 51.7854 62.6393 51.7315 62.7689C51.5947 62.7643 51.406 62.7439 51.2667 62.7287C50.6683 62.6635 49.9237 62.5832 49.2392 62.9611C48.559 63.3363 48.2275 64.0077 47.9609 64.5474C47.8973 64.6763 47.8111 64.851 47.7394 64.9714C47.6051 64.9471 47.4226 64.9002 47.2877 64.8652C46.7046 64.7148 45.9786 64.5271 45.2462 64.8031C44.5197 65.0765 44.0961 65.693 43.7557 66.1887C43.6746 66.3067 43.565 66.4663 43.4774 66.5751C43.3479 66.5316 43.1753 66.4591 43.0472 66.4053C42.4913 66.1721 41.8 65.8817 41.0338 66.0487C40.2756 66.2143 39.7687 66.7635 39.3614 67.2048C39.2648 67.3098 39.1336 67.4517 39.0317 67.5466C38.9101 67.4848 38.7499 67.3885 38.6312 67.3172C38.1133 67.0058 37.4683 66.6186 36.6863 66.6739C35.9121 66.729 35.3328 67.2005 34.8673 67.5792C34.7554 67.6703 34.6034 67.7941 34.4885 67.8733C34.3737 67.7941 34.2216 67.6703 34.1098 67.5792C33.6443 67.2005 33.0651 66.729 32.2907 66.6739C32.2396 66.6702 32.1892 66.6685 32.1392 66.6685C31.4249 66.6685 30.8301 67.026 30.346 67.317C30.2273 67.3884 30.0671 67.4846 29.9454 67.5464C29.8434 67.4513 29.7123 67.3097 29.6157 67.2047C29.2083 66.7635 28.7014 66.2141 27.9431 66.0485C27.1782 65.8812 26.4857 66.1717 25.9296 66.4052C25.8015 66.4589 25.6289 66.5314 25.4995 66.5749C25.4119 66.4661 25.3021 66.3065 25.2212 66.1885C24.8808 65.693 24.4572 65.0762 23.7308 64.8027C22.9978 64.527 22.2722 64.7145 21.6892 64.8649C21.5543 64.8997 21.3719 64.9467 21.2373 64.971C21.166 64.8506 21.0794 64.6758 21.0158 64.5469C20.7492 64.0072 20.4175 63.336 19.7379 62.9609C19.0532 62.5827 18.3084 62.6634 17.71 62.7283C17.5707 62.7434 17.3821 62.7638 17.2452 62.7684C17.1911 62.6388 17.13 62.4524 17.0849 62.3148C17.0392 62.1749 16.9903 62.0269 16.9342 61.8761C16.9334 61.8737 16.9326 61.8714 16.9317 61.869C16.7578 61.4042 16.5103 60.9139 16.0443 60.5617C15.4207 60.09 14.6728 60.0634 14.072 60.0421C13.9309 60.0371 13.7395 60.0302 13.6032 60.0148C13.5677 59.8787 13.533 59.6839 13.5076 59.5406C13.4021 58.9474 13.271 58.2093 12.724 57.6574C12.1741 57.1027 11.4384 56.9697 10.847 56.8629C10.707 56.8376 10.5169 56.8033 10.3835 56.7681C10.3672 56.6281 10.3604 56.4294 10.3552 56.2832C10.3341 55.6811 10.3078 54.9318 9.84415 54.3079C9.37883 53.6819 8.67023 53.4454 8.10076 53.2554C7.96463 53.21 7.77928 53.1482 7.65185 53.0942C7.65554 52.9533 7.67664 52.7549 7.69221 52.6091C7.75617 52.01 7.8357 51.2644 7.46466 50.5809C7.09344 49.8967 6.42669 49.5615 5.89089 49.2921C5.76129 49.2271 5.58514 49.1385 5.46626 49.0662C5.48953 48.9276 5.53859 48.7338 5.57493 48.5917C5.72294 48.0076 5.90729 47.2808 5.63721 46.5508C5.36763 45.8222 4.75648 45.3949 4.26538 45.0518C4.14532 44.9679 3.9819 44.8536 3.87423 44.7643C3.9171 44.6307 3.99312 44.4464 4.04887 44.3109C4.27877 43.754 4.56476 43.0606 4.40117 42.2981C4.23842 41.5399 3.69507 41.0297 3.25856 40.6199C3.15072 40.5187 3.00388 40.3809 2.90961 40.2761C2.97073 40.1507 3.07186 39.9796 3.14604 39.854C3.45295 39.3347 3.83489 38.6883 3.7803 37.9088C3.72638 37.1361 3.2609 36.5544 2.88684 36.0869C2.79257 35.969 2.66347 35.8078 2.58528 35.6897C2.66364 35.5715 2.7929 35.4101 2.88701 35.2924C3.26107 34.8249 3.72638 34.2431 3.7803 33.4706C3.83489 32.6909 3.45295 32.0446 3.14587 31.5252C3.07169 31.3996 2.97073 31.2286 2.90944 31.103C3.00371 30.9984 3.15056 30.8604 3.25839 30.7593C3.69491 30.3494 4.23808 29.8392 4.401 29.081C4.56459 28.3188 4.2786 27.6253 4.04887 27.0681C3.99295 26.9328 3.91676 26.7483 3.87423 26.6146C3.9819 26.5252 4.14532 26.411 4.26504 26.3271C4.75631 25.9841 5.36763 25.5568 5.63721 24.8279C5.90729 24.098 5.72278 23.3713 5.57476 22.7875C5.53876 22.6451 5.4897 22.4514 5.46609 22.3128C5.58497 22.2404 5.76129 22.1519 5.89089 22.0867C6.42669 21.8173 7.09344 21.4823 7.46466 20.7981C7.8357 20.1143 7.75617 19.3687 7.69221 18.7696C7.67664 18.6237 7.65554 18.4253 7.65185 18.2845C7.77928 18.2304 7.96463 18.1686 8.10076 18.1232C8.67006 17.9334 9.37867 17.6969 9.84432 17.0709C10.3081 16.447 10.3342 15.6975 10.3553 15.0954C10.3605 14.9492 10.3674 14.7507 10.3836 14.6108C10.5169 14.5759 10.7071 14.5414 10.8471 14.5161C11.4385 14.4091 12.1743 14.2763 12.7241 13.7216C13.2712 13.1697 13.4024 12.4316 13.5077 11.8384C13.5332 11.695 13.5679 11.5003 13.6034 11.3642C13.7398 11.3488 13.931 11.3419 14.0722 11.3369C14.6731 11.3155 15.4209 11.2888 16.0445 10.8173C16.6642 10.3488 16.8976 9.63653 17.0853 9.06439C17.1303 8.92692 17.1916 8.74022 17.2455 8.61062C17.3823 8.61514 17.5712 8.63557 17.7105 8.65064C18.3084 8.71561 19.0532 8.79648 19.7379 8.4184C20.418 8.04317 20.7495 7.37173 21.0161 6.83207C21.0797 6.70314 21.1661 6.5285 21.2376 6.40811C21.3721 6.43239 21.5544 6.47928 21.6894 6.51427C22.2726 6.6648 22.9984 6.85233 23.731 6.57639C24.4573 6.30296 24.881 5.68628 25.2214 5.19066C25.3024 5.07261 25.4121 4.91304 25.4997 4.8042C25.6289 4.84774 25.8015 4.92024 25.9295 4.97399C26.4855 5.20757 27.1779 5.49925 27.9429 5.33064C28.7014 5.1652 29.2085 4.61583 29.6158 4.17446C29.7125 4.06964 29.8434 3.92782 29.9454 3.83288C30.0669 3.8945 30.2272 3.99095 30.346 4.06227C30.8638 4.37371 31.5088 4.76201 32.2909 4.70558C33.0649 4.65033 33.6443 4.17898 34.1098 3.80023C34.2216 3.70914 34.3737 3.5854 34.4885 3.50621C34.6035 3.5854 34.7554 3.70914 34.8674 3.80023C35.3329 4.17898 35.9121 4.65033 36.6863 4.70558C37.4683 4.76218 38.1133 4.37355 38.6312 4.06211C38.7499 3.99095 38.9099 3.8945 39.0317 3.83288C39.1338 3.92799 39.2648 4.06964 39.3615 4.17446C39.7689 4.61583 40.2758 5.1652 41.0341 5.3308C41.7993 5.49841 42.4917 5.20757 43.0476 4.97399C43.1755 4.92024 43.3483 4.8479 43.4776 4.8042C43.5651 4.91287 43.675 5.07278 43.7558 5.19066C44.0962 5.68611 44.5199 6.30296 45.2466 6.57656C45.9791 6.852 46.7048 6.6648 47.2878 6.51444C47.4226 6.47961 47.6051 6.43239 47.7396 6.40811C47.8111 6.52867 47.8976 6.70348 47.9613 6.83241C48.2278 7.37207 48.5595 8.04334 49.2395 8.41857C49.9238 8.79615 50.6684 8.71561 51.2669 8.65081C51.4063 8.63574 51.5949 8.61531 51.7319 8.61079C51.7859 8.74039 51.8471 8.92692 51.8921 9.06455C52.0796 9.63686 52.3132 10.3492 52.9329 10.8175C53.5565 11.289 54.3042 11.3158 54.9052 11.3372C55.0463 11.3422 55.2377 11.3489 55.374 11.3645C55.4095 11.5005 55.4442 11.6952 55.4696 11.8385C55.5749 12.4318 55.7062 13.17 56.2532 13.7219C56.8031 14.2766 57.5389 14.4096 58.1303 14.5164C58.2702 14.5417 58.4604 14.576 58.5937 14.6112C58.61 14.751 58.6168 14.9497 58.622 15.0959C58.6431 15.698 58.6692 16.4475 59.1331 17.0712C59.5984 17.6973 60.307 17.9337 60.8766 18.1237C61.0127 18.1691 61.1979 18.2309 61.3254 18.285C61.3218 18.4258 61.3007 18.6242 61.285 18.7702C61.2212 19.3692 61.1417 20.1148 61.5125 20.7983C61.8838 21.4824 62.5505 21.8176 63.0863 22.0869C63.2159 22.152 63.3922 22.2406 63.5111 22.3129C63.4877 22.4516 63.4386 22.6453 63.4024 22.7875C63.2543 23.3713 63.0699 24.0982 63.34 24.8284C63.6096 25.5571 64.2207 25.9842 64.712 26.3273C64.8321 26.411 64.9955 26.5254 65.103 26.6148C65.0601 26.7484 64.9841 26.9328 64.9283 27.0682C64.6984 27.6253 64.4124 28.3187 64.576 29.0812C64.739 29.8394 65.2821 30.3492 65.7186 30.7591C65.8265 30.8603 65.9733 30.9982 66.0676 31.103C66.0065 31.2285 65.9055 31.3996 65.8313 31.5252C65.5242 32.0444 65.1423 32.6909 65.1969 33.4705C65.2508 34.2431 65.7161 34.8247 66.0902 35.2922C66.1845 35.4099 66.3137 35.5714 66.3919 35.6896C66.3139 35.8081 66.1848 35.9694 66.0905 36.0872Z" fill="#298D3F"/>
<path d="M60.0515 27.3196C59.8367 26.6522 59.1212 26.2865 58.4543 26.5002C57.7869 26.715 57.4202 27.4301 57.6348 28.0974C58.0476 29.3795 58.8721 30.5358 59.6694 31.6541C60.666 33.0519 61.6074 34.3722 61.6074 35.6901C61.6074 37.008 60.666 38.3285 59.6694 39.7261C58.8721 40.8444 58.0476 42.0008 57.6348 43.2829C57.2038 44.6222 57.1901 46.0857 57.1771 47.501C57.1613 49.188 57.1464 50.7815 56.4271 51.7786C55.6977 52.7895 54.1936 53.2951 52.6009 53.8306C51.2751 54.2765 49.9041 54.7375 48.7851 55.5588C47.6827 56.368 46.8356 57.5309 46.0163 58.6554C45.0147 60.0301 44.0685 61.3288 42.8684 61.7217C41.7456 62.0893 40.2601 61.6179 38.6875 61.1188C37.3282 60.6876 35.9227 60.2416 34.4891 60.2416C33.0554 60.2416 31.6499 60.6876 30.2907 61.1188C28.7179 61.6179 27.2322 62.0894 26.1098 61.7217C24.9098 61.3288 23.9636 60.0301 22.9618 58.6554C22.1425 57.5309 21.2951 56.368 20.193 55.5588C19.0742 54.7375 17.7032 54.2763 16.3772 53.8306C14.7847 53.2951 13.2804 52.7891 12.551 51.7786C11.8315 50.7815 11.8168 49.1882 11.8012 47.501C11.7882 46.0858 11.7746 44.6222 11.3435 43.2829C10.9305 42.0008 10.1062 40.8444 9.30872 39.7261C8.31211 38.3281 7.37076 37.008 7.37076 35.6901C7.37076 34.3722 8.31211 33.0519 9.30872 31.6541C10.1062 30.5358 10.9305 29.3795 11.3435 28.0974C11.7746 26.758 11.7882 25.2944 11.8012 23.8792C11.817 22.1921 11.8317 20.5987 12.551 19.6016C13.2804 18.5908 14.7845 18.0851 16.377 17.5496C17.703 17.1037 19.074 16.6428 20.1928 15.8213C21.2953 15.0121 22.1427 13.8494 22.9618 12.7248C23.9636 11.3502 24.9096 10.0515 26.1098 9.65851C27.2327 9.29015 28.7179 9.76233 30.2907 10.2613C31.6499 10.6926 33.0554 11.1387 34.4891 11.1387C35.9227 11.1387 37.3282 10.6926 38.6875 10.2613C40.2602 9.76233 41.7463 9.29082 42.8683 9.65851C44.0685 10.0515 45.0147 11.3502 46.0163 12.7248C46.8358 13.8494 47.683 15.0123 48.7851 15.8215C49.9039 16.6428 51.275 17.1037 52.6009 17.5496C54.1934 18.0851 55.6977 18.591 56.4271 19.6016C56.8497 20.1875 57.0697 21.0289 57.1402 22.3301C57.1784 23.0298 57.775 23.5636 58.4766 23.5286C59.1765 23.4906 59.7131 22.8923 59.6751 22.1923C59.6086 20.9703 59.4134 19.4025 58.4856 18.1164C57.2794 16.4442 55.3121 15.7828 53.4098 15.1432C52.2156 14.7415 51.0877 14.3622 50.2874 13.7749C49.5026 13.1987 48.8057 12.2425 48.0681 11.2298C46.9289 9.66605 45.6376 7.89386 43.6583 7.24587C41.758 6.62316 39.8065 7.24252 37.9196 7.84145C36.6904 8.23142 35.5295 8.59996 34.4891 8.59996C33.4486 8.59996 32.2877 8.23159 31.0585 7.84145C29.1715 7.24252 27.22 6.62316 25.3199 7.2457C23.3405 7.89386 22.0494 9.66622 20.9102 11.2298C20.1724 12.2423 19.4755 13.1987 18.6907 13.7747C17.8905 14.3622 16.7625 14.7415 15.5681 15.1432C13.6658 15.7828 11.6989 16.4442 10.4925 18.1159C9.30068 19.7677 9.28142 21.8458 9.26284 23.8556C9.25095 25.1372 9.23973 26.3478 8.92678 27.3194C8.63494 28.2263 7.95814 29.1754 7.24183 30.1802C6.11228 31.7642 4.83203 33.5596 4.83203 35.69C4.83203 37.8203 6.11228 39.6158 7.24183 41.1997C7.95814 42.2046 8.63494 43.1536 8.92678 44.0605C9.23973 45.0321 9.25095 46.2427 9.26284 47.5243C9.28142 49.5341 9.30068 51.6122 10.4925 53.264C11.6989 54.9357 13.666 55.5973 15.5681 56.2367C16.7625 56.6382 17.8904 57.0175 18.6907 57.605C19.4757 58.1812 20.1724 59.1375 20.9102 60.1501C22.0494 61.7139 23.3407 63.4861 25.3199 64.1342C25.8799 64.3177 26.4446 64.3932 27.0107 64.3932C28.3649 64.3931 29.7277 63.9607 31.0585 63.5385C32.2876 63.1485 33.4486 62.78 34.4891 62.78C35.5295 62.78 36.6906 63.1483 37.9197 63.5385C39.8065 64.1371 41.7576 64.7561 43.6584 64.1342C45.6376 63.4861 46.9289 61.7137 48.0681 60.1501C48.8057 59.1376 49.5026 58.1812 50.2874 57.605C51.0876 57.0177 52.2156 56.6384 53.4098 56.2367C55.3121 55.5971 57.2794 54.9357 58.4856 53.264C59.6774 51.6122 59.6967 49.5341 59.7154 47.5243C59.7273 46.2427 59.7386 45.0321 60.0515 44.0605C60.3433 43.1536 61.02 42.2046 61.7365 41.1997C62.866 39.6158 64.1461 37.8203 64.1461 35.69C64.1461 33.5596 62.866 31.7642 61.7365 30.1802C61.02 29.1754 60.3433 28.2265 60.0515 27.3196Z" fill="#298D3F"/>
<path d="M18.3213 49.7799C17.8168 50.2667 17.8026 51.0702 18.2894 51.5747C22.5814 56.0225 28.3343 58.4721 34.4885 58.4721C46.9491 58.4721 57.0864 48.252 57.0864 35.6902C57.0864 23.1281 46.9491 12.9081 34.4885 12.9081C22.028 12.9081 11.8906 23.1281 11.8906 35.6902C11.8906 39.6321 12.9055 43.517 14.8254 46.9249C15.1694 47.5361 15.9439 47.7519 16.5542 47.4078C17.165 47.0637 17.3812 46.2896 17.0371 45.679C15.3309 42.6503 14.4292 39.1962 14.4292 35.69C14.4292 24.5278 23.4278 15.4465 34.4885 15.4465C45.5493 15.4465 54.5479 24.5278 54.5479 35.69C54.5479 46.8522 45.5491 55.9332 34.4884 55.9332C29.0295 55.9332 23.9252 53.7592 20.116 49.8118C19.6292 49.3074 18.8255 49.2925 18.3213 49.7799Z" fill="#298D3F"/>
<path d="M24.1373 32.5984C23.8937 33.3483 24.093 34.1562 24.6577 34.7069L28.2239 38.183L27.3822 43.0912C27.2485 43.8684 27.5622 44.6393 28.2003 45.103C28.8382 45.5665 29.6681 45.6267 30.3666 45.2597L34.7745 42.9422L39.1824 45.2597C39.5492 45.4764 40.5436 45.6699 41.3487 45.103C41.9868 44.6393 42.3004 43.8686 42.1668 43.0914L41.3251 38.183L44.8912 34.7068C45.456 34.1562 45.6553 33.3483 45.4116 32.5984C45.1678 31.8484 44.5317 31.3119 43.7511 31.1984L38.8229 30.4823L36.6188 26.0165C36.2697 25.3092 35.5631 24.87 34.7743 24.87C33.9857 24.87 33.2789 25.3094 32.9298 26.0165L30.7258 30.4823L25.7973 31.1984C25.0172 31.3118 24.3811 31.8482 24.1373 32.5984ZM31.3421 32.9582C32.0122 32.8606 32.5911 32.44 32.8904 31.833L34.7745 28.0155L36.6584 31.8327C36.9579 32.4398 37.5367 32.8606 38.2073 32.9582L42.4201 33.5704L39.3719 36.5418C38.8868 37.0143 38.6655 37.6951 38.78 38.3625L39.4997 42.5586L35.7317 40.5776C35.1321 40.2623 34.4167 40.2624 33.8174 40.5774L30.0493 42.5586L30.769 38.3625C30.8835 37.6951 30.6622 37.0143 30.1774 36.5419L27.1288 33.5704L31.3421 32.9582Z" fill="#298D3F"/>
<path d="M41.2917 28.5163C41.7023 28.5163 42.1052 28.3174 42.3496 27.9499L44.3738 24.9077C44.7623 24.3241 44.6039 23.5362 44.0202 23.1479C43.4366 22.7596 42.6485 22.9178 42.2604 23.5015L40.2362 26.5437C39.8477 27.1272 40.0061 27.9152 40.5898 28.3035C40.806 28.4473 41.0501 28.5163 41.2917 28.5163Z" fill="#298D3F"/>
<path d="M43.7679 39.0794C43.6085 39.7622 44.0328 40.4447 44.7154 40.6041L48.2739 41.4346C48.371 41.4572 48.4681 41.4681 48.5636 41.4681C49.1401 41.4681 49.6618 41.0726 49.7984 40.4871C49.9578 39.8043 49.5335 39.1218 48.8509 38.9624L45.2924 38.1319C44.6091 37.973 43.9273 38.3969 43.7679 39.0794Z" fill="#298D3F"/>
<path d="M28.3181 28.5163C28.5595 28.5163 28.8038 28.4473 29.02 28.3037C29.6037 27.9152 29.7621 27.1274 29.3736 26.5439L27.3496 23.5015C26.9613 22.9178 26.1735 22.7596 25.5898 23.1479C25.0061 23.5363 24.8477 24.3241 25.2362 24.9077L27.2604 27.9499C27.5045 28.3176 27.9075 28.5163 28.3181 28.5163Z" fill="#298D3F"/>
<path d="M19.8069 40.487C19.9435 41.0726 20.4653 41.4681 21.0418 41.4681C21.1374 41.4681 21.2345 41.4572 21.3314 41.4346L24.8899 40.6041C25.5725 40.4447 25.9967 39.7622 25.8374 39.0794C25.678 38.3969 24.9955 37.9731 24.3127 38.1318L20.7543 38.9623C20.072 39.1216 19.6477 39.8042 19.8069 40.487Z" fill="#298D3F"/>
<path d="M33.5078 46.8632V50.1529C33.5078 50.854 34.0761 51.4223 34.7772 51.4223C35.4783 51.4223 36.0465 50.854 36.0465 50.1529V46.8632C36.0465 46.1622 35.4783 45.5939 34.7772 45.5939C34.0759 45.5939 33.5078 46.1622 33.5078 46.8632Z" fill="#298D3F"/>
</svg>
