<svg width="79" height="79" viewBox="0 0 79 79" fill="none" xmlns="http://www.w3.org/2000/svg">
<path d="M46.9062 76.5312H32.0938L34.5625 56.7812H44.4375L46.9062 76.5312Z" fill="url(#paint0_linear)"/>
<path d="M54.3125 76.5312C54.3125 76.5312 46.9062 71.5938 39.5 71.5938C32.0938 71.5938 24.6875 76.5312 24.6875 76.5312H54.3125Z" fill="url(#paint1_linear)"/>
<path d="M74.0625 2.46875H4.9375C3.57405 2.46875 2.46875 3.57405 2.46875 4.9375V59.25C2.46875 60.6135 3.57405 61.7188 4.9375 61.7188H74.0625C75.426 61.7188 76.5312 60.6135 76.5312 59.25V4.9375C76.5312 3.57405 75.426 2.46875 74.0625 2.46875Z" fill="url(#paint2_linear)"/>
<path d="M2.46875 49.375V59.25C2.46875 59.9048 2.72885 60.5327 3.19183 60.9957C3.65481 61.4587 4.28275 61.7188 4.9375 61.7188H74.0625C74.7173 61.7188 75.3452 61.4587 75.8082 60.9957C76.2711 60.5327 76.5312 59.9048 76.5312 59.25V49.375H2.46875Z" fill="url(#paint3_linear)"/>
<path d="M52.4609 10.8008H16.6641C15.3006 10.8008 14.1953 11.9061 14.1953 13.2695V35.4883C14.1953 36.8517 15.3006 37.957 16.6641 37.957H52.4609C53.8244 37.957 54.9297 36.8517 54.9297 35.4883V13.2695C54.9297 11.9061 53.8244 10.8008 52.4609 10.8008Z" fill="url(#paint4_linear)"/>
<path d="M14.1953 16.9727H54.9297V22.0645H14.1953V16.9727Z" fill="url(#paint5_linear)"/>
<path d="M55.4697 40.7344C60.8809 40.7344 65.2676 36.3477 65.2676 30.9365C65.2676 25.5253 60.8809 21.1387 55.4697 21.1387C50.0585 21.1387 45.6719 25.5253 45.6719 30.9365C45.6719 36.3477 50.0585 40.7344 55.4697 40.7344Z" fill="url(#paint6_linear)"/>
<path d="M74.0625 0.925781H4.9375C3.8739 0.927006 2.85422 1.35006 2.10214 2.10214C1.35006 2.85422 0.927006 3.8739 0.925781 4.9375V59.25C0.927006 60.3136 1.35006 61.3333 2.10214 62.0854C2.85422 62.8374 3.8739 63.2605 4.9375 63.2617H32.1973L31.147 71.6604C28.5833 72.5816 26.1298 73.7847 23.8316 75.2475C23.5561 75.4312 23.347 75.6987 23.2352 76.0104C23.1234 76.3221 23.1149 76.6615 23.2109 76.9784C23.3068 77.2953 23.5022 77.573 23.7681 77.7703C24.034 77.9676 24.3564 78.0742 24.6875 78.0742H54.3125C54.6436 78.0742 54.966 77.9676 55.2319 77.7703C55.4978 77.573 55.6932 77.2953 55.7891 76.9784C55.8851 76.6615 55.8766 76.3221 55.7648 76.0104C55.653 75.6987 55.4439 75.4312 55.1684 75.2475C52.8702 73.7847 50.4167 72.5816 47.853 71.6604L46.8027 63.2617H74.0625C75.1261 63.2605 76.1458 62.8374 76.8979 62.0854C77.6499 61.3333 78.073 60.3136 78.0742 59.25V4.9375C78.073 3.8739 77.6499 2.85422 76.8979 2.10214C76.1458 1.35006 75.1261 0.927006 74.0625 0.925781ZM4.9375 4.01172H74.0625C74.308 4.01196 74.5433 4.10958 74.7169 4.28314C74.8904 4.45671 74.988 4.69204 74.9883 4.9375V47.832H4.01172V4.9375C4.01196 4.69204 4.10958 4.45671 4.28314 4.28314C4.45671 4.10958 4.69204 4.01196 4.9375 4.01172ZM32.0938 74.9883H31.0868C33.539 74.0019 36.5349 73.1367 39.5 73.1367C42.4545 73.1367 45.4491 74.0019 47.9029 74.9883H32.0938ZM44.6227 70.6927C41.2617 69.8368 37.7398 69.8368 34.3789 70.6927L35.3074 63.2617H43.6926L44.6227 70.6927ZM74.9883 59.25C74.988 59.4955 74.8904 59.7308 74.7169 59.9044C74.5433 60.0779 74.308 60.1755 74.0625 60.1758H4.9375C4.69204 60.1755 4.45671 60.0779 4.28314 59.9044C4.10958 59.7308 4.01196 59.4955 4.01172 59.25V50.918H74.9883V59.25Z" fill="#298D3F"/>
<path d="M37.0312 57.0898H41.9688C42.378 57.0898 42.7704 56.9273 43.0598 56.6379C43.3492 56.3486 43.5117 55.9561 43.5117 55.5469C43.5117 55.1377 43.3492 54.7452 43.0598 54.4558C42.7704 54.1665 42.378 54.0039 41.9688 54.0039H37.0312C36.622 54.0039 36.2296 54.1665 35.9402 54.4558C35.6508 54.7452 35.4883 55.1377 35.4883 55.5469C35.4883 55.9561 35.6508 56.3486 35.9402 56.6379C36.2296 56.9273 36.622 57.0898 37.0312 57.0898Z" fill="#298D3F"/>
<path d="M16.6641 39.5H48.048C49.399 40.6712 51.0078 41.5063 52.743 41.937C54.4783 42.3678 56.2909 42.382 58.0327 41.9785C59.7745 41.5749 61.3962 40.7652 62.7653 39.6152C64.1344 38.4653 65.2121 37.0079 65.9103 35.3619C66.6086 33.716 66.9077 31.9282 66.7831 30.1446C66.6586 28.361 66.1139 26.6321 65.1936 25.0992C64.2733 23.5663 63.0034 22.2729 61.4878 21.3244C59.9721 20.376 58.2537 19.7995 56.4727 19.642V13.2695C56.4715 12.2059 56.0484 11.1862 55.2963 10.4341C54.5443 9.68204 53.5245 9.259 52.4609 9.25781H16.6641C15.6005 9.259 14.5807 9.68204 13.8287 10.4341C13.0766 11.1862 12.6535 12.2059 12.6523 13.2695V35.4883C12.6535 36.5519 13.0766 37.5716 13.8287 38.3237C14.5807 39.0758 15.6005 39.4988 16.6641 39.5ZM15.7383 35.4883V23.6074H46.8254C45.3352 25.3587 44.4142 27.5226 44.1852 29.8106C43.9562 32.0987 44.4301 34.4022 45.5437 36.4141H16.6641C16.4186 36.4138 16.1833 36.3162 16.0097 36.1426C15.8361 35.9691 15.7385 35.7337 15.7383 35.4883ZM15.7383 18.5156H53.3867V19.7907C52.5618 19.944 51.7567 20.1891 50.9863 20.5215H15.7383V18.5156ZM63.7246 30.9365C63.7246 32.5692 63.2405 34.1652 62.3334 35.5227C61.4263 36.8802 60.1371 37.9383 58.6287 38.563C57.1204 39.1878 55.4606 39.3513 53.8593 39.0328C52.258 38.7143 50.7871 37.9281 49.6326 36.7736C48.4782 35.6191 47.692 34.1483 47.3735 32.547C47.0549 30.9457 47.2184 29.2859 47.8432 27.7775C48.468 26.2691 49.526 24.9799 50.8836 24.0728C52.2411 23.1658 53.8371 22.6816 55.4697 22.6816C57.6583 22.6841 59.7565 23.5546 61.3041 25.1022C62.8516 26.6497 63.7221 28.748 63.7246 30.9365ZM16.6641 12.3438H52.4609C52.7064 12.344 52.9417 12.4416 53.1153 12.6152C53.2889 12.7887 53.3865 13.0241 53.3867 13.2695V15.4297H15.7383V13.2695C15.7385 13.0241 15.8361 12.7887 16.0097 12.6152C16.1833 12.4416 16.4186 12.344 16.6641 12.3438Z" fill="#298D3F"/>
<path d="M31.7832 26.3848H19.2852C18.8759 26.3848 18.4835 26.5473 18.1941 26.8367C17.9047 27.1261 17.7422 27.5185 17.7422 27.9277C17.7422 28.337 17.9047 28.7294 18.1941 29.0188C18.4835 29.3081 18.8759 29.4707 19.2852 29.4707H31.7832C32.1924 29.4707 32.5849 29.3081 32.8742 29.0188C33.1636 28.7294 33.3262 28.337 33.3262 27.9277C33.3262 27.5185 33.1636 27.1261 32.8742 26.8367C32.5849 26.5473 32.1924 26.3848 31.7832 26.3848Z" fill="#298D3F"/>
<path d="M51.52 29.8774C51.3515 29.7628 51.1619 29.6828 50.9622 29.6418C50.7625 29.6009 50.5568 29.5999 50.3567 29.639C50.1567 29.678 49.9664 29.7563 49.7967 29.8693C49.6271 29.9824 49.4816 30.1279 49.3685 30.2974C49.2555 30.467 49.1771 30.6573 49.138 30.8573C49.0989 31.0574 49.0999 31.2632 49.1407 31.4628C49.1816 31.6625 49.2616 31.8521 49.3762 32.0207C49.4908 32.1892 49.6376 32.3334 49.8082 32.4449L53.5113 34.9137C53.8326 35.1278 54.2224 35.2138 54.6039 35.1546C54.9854 35.0953 55.3308 34.8953 55.572 34.5938L60.5095 28.422C60.6372 28.2639 60.7325 28.0821 60.7897 27.8871C60.847 27.6921 60.8652 27.4877 60.8432 27.2856C60.8213 27.0835 60.7596 26.8878 60.6618 26.7096C60.564 26.5315 60.4319 26.3744 60.2732 26.2474C60.1145 26.1205 59.9323 26.0261 59.737 25.9698C59.5417 25.9134 59.3372 25.8962 59.1352 25.9192C58.9333 25.9421 58.7379 26.0047 58.5602 26.1034C58.3825 26.202 58.226 26.3349 58.0998 26.4942L54.0452 31.5614L51.52 29.8774Z" fill="#298D3F"/>
<defs>
<linearGradient id="paint0_linear" x1="31.4766" y1="75.9141" x2="47.5234" y2="59.8672" gradientUnits="userSpaceOnUse">
<stop stop-color="#9D8B8B"/>
<stop offset="1" stop-color="#B9ACAC"/>
</linearGradient>
<linearGradient id="paint1_linear" x1="32.0938" y1="83.9375" x2="46.9062" y2="69.125" gradientUnits="userSpaceOnUse">
<stop stop-color="#816A6A"/>
<stop offset="0.0001" stop-color="#9D8B8B"/>
</linearGradient>
<linearGradient id="paint2_linear" x1="6.89491" y1="64.6988" x2="72.1051" y2="-0.511341" gradientUnits="userSpaceOnUse">
<stop stop-color="#E3DEDE"/>
<stop offset="1" stop-color="white"/>
</linearGradient>
<linearGradient id="paint3_linear" x1="8767.25" y1="6134.49" x2="10443.9" y2="-3925.13" gradientUnits="userSpaceOnUse">
<stop stop-color="white"/>
<stop offset="1" stop-color="#9D8B8B"/>
</linearGradient>
<linearGradient id="paint4_linear" x1="18.3129" y1="40.6285" x2="50.8121" y2="8.12929" gradientUnits="userSpaceOnUse">
<stop stop-color="#E87676"/>
<stop offset="1" stop-color="#F2B3B3"/>
</linearGradient>
<linearGradient id="paint5_linear" x1="6114.17" y1="1039.15" x2="6300.29" y2="-449.847" gradientUnits="userSpaceOnUse">
<stop stop-color="#F9F5EC"/>
<stop offset="1" stop-color="#9D8B8B"/>
</linearGradient>
<linearGradient id="paint6_linear" x1="48.5416" y1="37.8646" x2="62.3978" y2="24.0084" gradientUnits="userSpaceOnUse">
<stop offset="0.9999" stop-color="#FFBC7E"/>
<stop offset="1" stop-color="#B8E1E3"/>
</linearGradient>
</defs>
</svg>
