<svg width="84" height="76" viewBox="0 0 84 76" fill="none" xmlns="http://www.w3.org/2000/svg">
<path d="M78.5067 1.21082H15.109C14.685 1.21082 14.3046 1.47069 14.1503 1.86559L10.8125 10.4099V65.4092C10.8125 66.9338 12.0484 68.1697 13.573 68.1697H80.0428C81.5674 68.1697 82.8033 66.9338 82.8033 65.4092V10.4099L79.4655 1.86542C79.3112 1.47069 78.9306 1.21082 78.5067 1.21082Z" fill="#E1B7A3"/>
<path d="M80.0426 68.1696H13.573C12.0484 68.1696 10.8125 66.9338 10.8125 65.4091V10.4099H82.8031V65.4091C82.8031 66.9336 81.5673 68.1696 80.0426 68.1696Z" fill="#8E7066"/>
<path d="M75.5531 10.4099V60.114C75.5531 62.5904 73.5456 64.5978 71.0693 64.5978H13.573C12.0484 64.5978 10.8125 63.362 10.8125 61.8373V65.4091C10.8125 66.9338 12.0484 68.1696 13.573 68.1696H80.0428C81.5674 68.1696 82.8033 66.9338 82.8033 65.4091V10.4099H75.5531Z" fill="#298D3F"/>
<path d="M51.5394 36.5611C51.985 38.0109 51.1702 39.5339 49.7355 39.9778L37.844 43.6584L38.5452 43.9444L46.4807 47.18L59.6158 52.5358C61.2095 53.1857 61.9747 55.0043 61.3249 56.598C60.675 58.1917 58.8564 58.9569 57.2627 58.307L60.3088 59.5491C61.9025 60.199 62.6677 62.0176 62.0179 63.6113C61.368 65.205 59.5494 65.9702 57.9557 65.3203L54.9095 64.0782C56.4845 64.7205 57.2504 66.5044 56.6407 68.0845C56.0119 69.7144 54.1091 70.4827 52.4913 69.823L49.9511 68.7873C51.5448 69.4372 52.31 71.2558 51.6601 72.8495C51.0103 74.4432 49.1916 75.2084 47.5979 74.5585L24.5915 65.1779C22.3309 64.2562 20.343 62.773 18.8157 60.8684C17.2884 58.9639 15.3005 57.4805 13.0399 56.5588L3.5 52.6689L10.1678 36.3161L18.4262 39.6835C21.1907 40.8108 48.3028 34.7047 48.3028 34.7047C49.6966 34.412 51.121 35.1998 51.5394 36.5611Z" fill="#F5EFE2"/>
<path d="M51.5394 36.5611C51.985 38.0109 51.1702 39.5339 49.7355 39.9778L37.844 43.6584L38.5452 43.9444L46.4807 47.18L59.6158 52.5358C61.2095 53.1857 61.9747 55.0043 61.3249 56.598C60.675 58.1917 58.8564 58.9569 57.2627 58.307L60.3088 59.5491C61.9025 60.199 62.6677 62.0176 62.0179 63.6113C61.368 65.205 59.5494 65.9702 57.9557 65.3203L54.9095 64.0782C56.4845 64.7205 57.2504 66.5044 56.6407 68.0845C56.0119 69.7144 54.1091 70.4827 52.4913 69.823L49.9511 68.7873C51.5448 69.4372 52.31 71.2558 51.6601 72.8495C51.0103 74.4432 49.1916 75.2084 47.5979 74.5585L24.5915 65.1779C22.3309 64.2562 20.343 62.773 18.8157 60.8684C17.2884 58.9639 15.3005 57.4805 13.0399 56.5588L3.5 52.6689L10.1678 36.3161L18.4262 39.6835C21.1907 40.8108 48.3028 34.7047 48.3028 34.7047C49.6966 34.412 51.121 35.1998 51.5394 36.5611Z" fill="#F5EFE2"/>
<path d="M50.52 69.0874C50.3025 68.9529 50.0882 68.8413 49.8851 68.7585L38.2242 64.0038C37.6077 65.5158 38.3294 67.2417 39.8387 67.8647L49.0874 71.6821C49.977 72.0448 50.6773 73.0037 50.9623 73.8984C51.2573 73.6093 51.4993 73.2566 51.6652 72.8499C52.2328 71.4576 51.7208 69.8939 50.52 69.0874Z" fill="#F5EFE2"/>
<path d="M56.6444 68.0848C57.2444 66.5297 56.512 64.7772 54.9872 64.1099C54.9769 64.1055 54.9667 64.1011 54.9564 64.0967C54.9544 64.0958 54.9524 64.095 54.9505 64.094C54.9434 64.0911 54.9364 64.0881 54.9293 64.0852C54.9239 64.083 54.9186 64.0807 54.9132 64.0784L54.9141 64.0788C54.9137 64.0786 54.9136 64.0786 54.9132 64.0784L40.5762 58.2324C39.9659 59.7292 40.6884 61.437 42.1876 62.0413L54.9132 67.1704C55.4968 67.4083 56.0715 67.9948 56.4306 68.5276C56.5125 68.3885 56.5844 68.2407 56.6444 68.0848Z" fill="#F5EFE2"/>
<path d="M60.9724 57.243C61.1132 57.0471 61.2334 56.8315 61.3286 56.5982C61.9784 55.0045 61.2132 53.1859 59.6195 52.536L46.4844 47.18L38.5489 43.9444L37.8477 43.6584C39.6184 46.7259 42.3597 49.1168 45.6393 50.4541L59.6195 56.1546C60.3001 56.5055 60.69 56.8889 60.9724 57.243Z" fill="#F5EFE2"/>
<path d="M60.3121 59.5494L42.9289 52.4614C42.2944 54.0174 43.0431 55.793 44.6002 56.425L60.3121 62.8013C60.7654 62.986 61.2915 63.6629 61.6789 64.2368C61.8137 64.0462 61.9291 63.8373 62.0209 63.6117C62.671 62.0179 61.9058 60.1993 60.3121 59.5494Z" fill="#F5EFE2"/>
<path d="M9.16508 33.9108C9.41281 33.3031 10.1063 33.0114 10.714 33.2591L17.1565 35.8861C17.7642 36.1338 18.0559 36.8273 17.8082 37.435L9.93059 56.7551C9.68286 57.3628 8.98937 57.6545 8.38168 57.4068L1.93912 54.7798C1.33143 54.5321 1.03973 53.8386 1.28747 53.2308L9.16508 33.9108Z" fill="#666666"/>
<path d="M17.1569 35.8862L14.3775 34.7528L7.02538 52.7836C6.77764 53.3913 6.08415 53.683 5.4763 53.4352L1.81312 51.9416L1.28747 53.2308C1.03973 53.8385 1.33143 54.532 1.93912 54.7799L8.38168 57.4068C8.98937 57.6546 9.68286 57.3629 9.93075 56.7552L17.8085 37.4351C18.0563 36.8274 17.7646 36.1339 17.1569 35.8862Z" fill="#C4C4C4"/>
<path d="M52.8473 1.21082H40.7614L38.6328 10.4099V29.8413C38.6328 30.3719 39.2592 30.6537 39.6564 30.302L46.3962 24.3311C46.6292 24.1247 46.9795 24.1247 47.2124 24.3311L53.9523 30.302C54.3495 30.6539 54.9759 30.3719 54.9759 29.8413V10.4099L52.8473 1.21082Z" fill="#FFB125"/>
<path d="M53.9523 30.302L47.2124 24.3311C46.9795 24.1247 46.6292 24.1247 46.3962 24.3311L39.6564 30.302C39.2592 30.6537 38.6328 30.3718 38.6328 29.8413V10.4099H54.976V29.8413C54.9757 30.3718 54.3493 30.6537 53.9523 30.302Z" fill="#FF901D"/>
<path d="M63.6318 0.0113525H15.1063C14.1816 0.0113525 13.3669 0.567851 13.0304 1.42918L9.69253 9.97354C9.69007 9.97993 9.68876 9.9865 9.6863 9.99273C9.67383 10.026 9.663 10.06 9.65349 10.0948C9.65004 10.1074 9.64676 10.1199 9.64381 10.1325C9.63626 10.1645 9.63019 10.197 9.62527 10.2298C9.6233 10.2429 9.62084 10.2561 9.6192 10.2692C9.6151 10.3049 9.6128 10.341 9.61182 10.3776C9.61165 10.3868 9.6105 10.396 9.61034 10.4053C9.61034 10.4068 9.61018 10.4083 9.61018 10.4098V28.0317C9.61018 28.6942 10.1472 29.2312 10.8096 29.2312C11.4721 29.2312 12.0091 28.6942 12.0091 28.0317V11.6094H37.4341V29.8413C37.4341 30.5543 37.8541 31.204 38.5043 31.4965C38.7424 31.6037 38.9958 31.656 39.2477 31.656C39.6834 31.656 40.1144 31.4995 40.4524 31.1999L46.805 25.5719L53.1577 31.1997C53.6911 31.6727 54.4559 31.7891 55.1061 31.4965C55.7561 31.2038 56.1761 30.5543 56.1761 29.8413V11.6094H81.601V65.4092C81.601 66.2698 80.9006 66.9702 80.0399 66.9702H58.0469C58.0469 66.9566 58.0453 66.943 58.0451 66.9294C58.0438 66.8217 58.0399 66.7143 58.0307 66.6076C60.0957 67.1551 62.3022 66.0938 63.1297 64.0643C63.565 62.9968 63.5586 61.8237 63.1115 60.7613C63.0693 60.6612 63.0229 60.5641 62.974 60.4684C62.965 60.4509 62.9563 60.4332 62.9473 60.4158C62.8992 60.3246 62.848 60.2355 62.7941 60.1487C62.7836 60.1318 62.7727 60.1154 62.7621 60.0986C62.705 60.0095 62.6457 59.9221 62.5826 59.8379C62.5814 59.8363 62.5801 59.8348 62.579 59.8333C62.5163 59.7502 62.45 59.6701 62.3816 59.5918C62.3691 59.5776 62.3568 59.5631 62.3442 59.5489C62.2764 59.4734 62.2061 59.4004 62.1332 59.33C62.1189 59.3162 62.1045 59.3029 62.0901 59.2895C62.0138 59.2178 61.9357 59.1481 61.8543 59.0823C61.8515 59.0801 61.8487 59.078 61.8459 59.0759C61.7659 59.0114 61.6827 58.9504 61.5979 58.8916C61.5826 58.881 61.5675 58.8701 61.5519 58.8596C61.4671 58.8025 61.3802 58.7486 61.2909 58.6972C61.2835 58.693 61.2768 58.688 61.2693 58.6838C61.7762 58.2451 62.1764 57.6899 62.4369 57.051C62.8721 55.9835 62.8657 54.8104 62.4187 53.7478C62.0276 52.818 61.34 52.0703 60.4593 51.6063C60.3335 51.54 60.2037 51.4795 60.0703 51.4252L41.4021 43.8132L50.0919 41.1235C52.1592 40.4835 53.3236 38.2785 52.6873 36.2086C52.4499 35.4358 51.9792 34.7842 51.3712 34.3079C50.4664 33.599 49.2571 33.2789 48.0578 33.5307C48.0521 33.532 48.0465 33.533 48.0408 33.5345C47.9743 33.5494 41.3127 35.0473 34.3553 36.404C34.0467 36.4642 33.746 36.5222 33.4496 36.5793C33.2123 36.6249 32.9784 36.6699 32.7488 36.7135C32.6829 36.7262 32.6168 36.7386 32.5513 36.7511C32.1461 36.8281 31.7535 36.9017 31.3719 36.9726C31.2183 37.0011 31.0661 37.0294 30.9163 37.0569C22.1788 38.6665 19.7243 38.6954 19.0431 38.6032C19.0405 38.6029 19.0382 38.6026 19.0355 38.6021C19.0252 38.6006 19.015 38.5991 19.0055 38.5976C18.9986 38.5965 18.9922 38.5953 18.9858 38.5943C18.9812 38.5935 18.9763 38.5927 18.9719 38.5921C18.9294 38.5843 18.8963 38.5763 18.8707 38.5686L18.6741 38.4885L18.9191 37.8879C19.1599 37.2973 19.1563 36.6482 18.9091 36.0604C18.8472 35.9134 18.7719 35.7746 18.6846 35.6453C18.4228 35.2577 18.0525 34.9558 17.6095 34.7751L11.1671 32.1483C10.5767 31.9073 9.92747 31.9111 9.33964 32.1584C8.75164 32.4056 8.29538 32.8671 8.05454 33.4576L0.176764 52.778C-0.320345 53.9972 0.267162 55.3933 1.48631 55.8906L7.92887 58.5176C8.22303 58.6375 8.52737 58.6943 8.82711 58.6943C9.76932 58.6943 10.6641 58.1328 11.0413 57.208L11.1005 57.0628L12.5859 57.6684C12.5868 57.6687 12.5876 57.6692 12.5886 57.6695C14.0093 58.2488 15.3184 59.0754 16.4514 60.1011C16.6575 60.2876 16.8576 60.4807 17.0517 60.6801C17.2458 60.8794 17.4335 61.0851 17.6148 61.2968C17.7053 61.4026 17.7944 61.5101 17.8815 61.6188C19.5325 63.6775 21.6968 65.2924 24.1402 66.2887L25.8113 66.97H13.5703C12.7096 66.97 12.0093 66.2697 12.0093 65.409V62.374C12.0093 61.7115 11.4723 61.1746 10.8098 61.1746C10.1473 61.1746 9.61034 61.7115 9.61034 62.374V65.409C9.61034 67.5925 11.3866 69.369 13.5703 69.369H31.6947L47.1463 75.6693C47.6782 75.8862 48.2284 75.989 48.7703 75.9889C50.4731 75.9889 52.0905 74.9742 52.7721 73.3025C53.0517 72.6169 53.1415 71.9003 53.0661 71.2114C53.8699 71.3267 54.7032 71.2209 55.4585 70.8948C56.2262 70.5632 56.8624 70.0351 57.3142 69.3688H80.0401C82.2236 69.3688 84.0001 67.5925 84.0001 65.4088V10.4099C84.0001 10.4085 83.9999 10.407 83.9999 10.4055C83.9999 10.3963 83.9988 10.3871 83.9984 10.3778C83.9975 10.3412 83.9953 10.3051 83.9911 10.2693C83.9894 10.2562 83.9869 10.2431 83.985 10.23C83.9801 10.197 83.974 10.1645 83.9664 10.1327C83.9635 10.12 83.9602 10.1076 83.9568 10.0949C83.9472 10.0603 83.9364 10.0264 83.924 9.9929C83.9217 9.9865 83.9202 9.97993 83.9177 9.9737L80.5799 1.42901C80.2434 0.568015 79.4285 0.0115165 78.504 0.0115165H72.4265C71.764 0.0115165 71.227 0.548492 71.227 1.21097C71.227 1.87346 71.764 2.41043 72.4265 2.41043H78.3878L81.0442 9.21065H55.9303L54.3568 2.41043H63.6318C64.2942 2.41043 64.8312 1.87346 64.8312 1.21097C64.8312 0.548492 64.2942 0.0113525 63.6318 0.0113525ZM41.7158 2.41027H51.8946L53.4681 9.21048H40.1423L41.7158 2.41027ZM37.6799 9.21048H12.5661L15.2224 2.41027H39.2534L37.6799 9.21048ZM53.7774 28.5437L48.0086 23.4332C47.6655 23.1294 47.2354 22.9774 46.8054 22.9774C46.3752 22.9774 45.9449 23.1294 45.6018 23.4332L39.8332 28.5437V11.6094H53.7775V28.5437H53.7774ZM8.82415 56.2919L2.40227 53.6735L10.2717 34.374L16.6934 36.9926L8.82415 56.2919ZM56.7438 63.5307L55.3671 62.9692C55.3665 62.9689 55.3658 62.9687 55.3652 62.9684C55.3647 62.9682 55.3642 62.9679 55.3637 62.9678C55.3635 62.9678 55.3633 62.9676 55.3632 62.9676L41.0264 57.1219C40.4132 56.8719 39.7131 57.1662 39.4629 57.7798C39.2127 58.3932 39.5072 59.0933 40.1208 59.3435L54.4579 65.1893C54.5178 65.2138 54.5757 65.2408 54.6316 65.2705C54.6474 65.2789 54.662 65.2891 54.6774 65.2978C54.7168 65.3201 54.7563 65.3424 54.7936 65.3672C54.8114 65.3791 54.8279 65.3929 54.8452 65.4054C54.8782 65.429 54.9118 65.4523 54.943 65.4779C54.9619 65.4933 54.979 65.5106 54.9972 65.5266C55.0251 65.5514 55.0536 65.5754 55.0798 65.6016C55.0981 65.6197 55.1143 65.6395 55.1317 65.6582C55.1558 65.6841 55.1806 65.7096 55.2032 65.7368C55.2204 65.7576 55.2355 65.7798 55.2519 65.8013C55.2725 65.8282 55.2938 65.8546 55.3127 65.8825C55.3286 65.9058 55.3422 65.9304 55.3569 65.9542C55.374 65.9817 55.3921 66.0088 55.4076 66.0372C55.4218 66.0628 55.4336 66.0895 55.4465 66.1156C55.4603 66.1437 55.4752 66.1712 55.4877 66.1999C55.4997 66.2275 55.5094 66.2561 55.52 66.2841C55.5309 66.3125 55.5427 66.3404 55.5522 66.3693C55.5617 66.3983 55.5689 66.428 55.577 66.4574C55.585 66.4864 55.594 66.5149 55.6007 66.5443C55.6075 66.574 55.6117 66.6042 55.6172 66.6341C55.6226 66.6639 55.6288 66.6934 55.6327 66.7236C55.6367 66.7538 55.6382 66.7843 55.6406 66.8147C55.6431 66.8452 55.6467 66.8755 55.6477 66.9061C55.6487 66.9361 55.6472 66.9664 55.6468 66.9966C55.6465 67.0278 55.647 67.059 55.645 67.0903C55.6432 67.12 55.6388 67.1497 55.6355 67.1794C55.6321 67.2114 55.6295 67.2434 55.6242 67.2752C55.6194 67.3044 55.6121 67.3335 55.606 67.3626C55.5991 67.395 55.5934 67.4273 55.5847 67.4594C55.5771 67.4878 55.5669 67.516 55.5579 67.5443C55.5478 67.5764 55.5384 67.6086 55.5264 67.6402C55.5163 67.6621 55.5062 67.684 55.4969 67.7062C55.4948 67.7113 55.4936 67.7165 55.4916 67.7215C55.3041 68.1534 54.9581 68.4971 54.5066 68.6922C54.0095 68.9066 53.4404 68.9142 52.9449 68.7121L50.4047 67.6763C50.3929 67.6716 50.3809 67.6683 50.3691 67.6639C50.3572 67.6585 50.3458 67.6522 50.3337 67.6473L38.6728 62.8926C38.0591 62.6426 37.3593 62.9369 37.1093 63.5505C36.8591 64.1639 37.1536 64.864 37.767 65.1142L49.4279 69.8689C49.4404 69.8739 49.453 69.8776 49.4656 69.8822C49.477 69.8871 49.4875 69.8931 49.4991 69.8977C50.4777 70.2969 50.9494 71.4178 50.5504 72.3964C50.1513 73.3754 49.0309 73.8472 48.0518 73.4477L32.3846 67.0595C32.384 67.0591 32.3833 67.0588 32.3827 67.0585L25.0458 64.0668C23.7543 63.5402 22.555 62.8093 21.4963 61.91C20.8611 61.3704 20.2765 60.7705 19.7528 60.1175C19.2369 59.4742 18.6708 58.8742 18.0618 58.3228C16.7219 57.1099 15.174 56.1326 13.4942 55.4475C13.494 55.4475 13.4939 55.4473 13.4937 55.4473L12.0063 54.8409L14.9688 47.5754L17.7683 40.7096L17.9749 40.7938C18.1693 40.873 18.4466 40.9856 19.1927 41.0138C20.1249 41.0559 21.6671 40.9586 24.4299 40.5683C26.3092 40.3029 28.6145 39.919 31.3056 39.4238C31.3719 39.4117 31.4377 39.3996 31.5046 39.3873C31.6304 39.364 31.7576 39.3403 31.8852 39.3167C31.9845 39.2983 32.0842 39.2796 32.1848 39.2608C32.2993 39.2393 32.4143 39.2178 32.5302 39.196C32.653 39.1728 32.7774 39.1494 32.9024 39.1256C33.0025 39.1066 33.1024 39.0877 33.2035 39.0685C33.3559 39.0395 33.5109 39.0098 33.6665 38.9799C33.7465 38.9645 33.8258 38.9494 33.9065 38.934C34.1447 38.888 34.386 38.8414 34.6318 38.7937C41.5652 37.4451 48.2573 35.9441 48.558 35.8765C48.5881 35.8703 48.6181 35.8667 48.6481 35.8622C49.4186 35.7482 50.1734 36.1938 50.3944 36.9127C50.472 37.1654 50.481 37.4231 50.4321 37.6656C50.3247 38.1993 49.9368 38.6598 49.3825 38.8313L37.4909 42.5118C37.0068 42.6618 36.6691 43.0993 36.6473 43.6056C36.6253 44.1118 36.9236 44.5772 37.3928 44.7685L59.1645 53.6461C59.6386 53.8393 60.0091 54.2057 60.2076 54.6777C60.4061 55.1497 60.4091 55.6708 60.2156 56.1447C60.0222 56.6189 59.656 56.9893 59.184 57.1878C58.9481 57.2869 58.6999 57.3371 58.4513 57.3386C58.4477 57.3386 58.4441 57.3381 58.4405 57.3381C58.3821 57.3381 58.3238 57.3358 58.2656 57.3304C58.2484 57.3288 58.2313 57.3252 58.2141 57.3232C58.1696 57.3178 58.1252 57.3127 58.081 57.3042C58.0531 57.2987 58.0256 57.2905 57.9979 57.284C57.9647 57.2761 57.9314 57.2694 57.8986 57.2597C57.8646 57.2497 57.8313 57.2364 57.7979 57.2244C57.7713 57.2149 57.7442 57.207 57.718 57.1964L43.3796 51.3499C42.7662 51.0997 42.0663 51.3942 41.8161 52.0077C41.5659 52.6212 41.8604 53.3212 42.474 53.5714L59.8572 60.6594C59.9758 60.7076 60.0878 60.7669 60.1924 60.8358C60.5059 61.0425 60.7515 61.337 60.9003 61.691C61.074 62.104 61.098 62.5545 60.9716 62.9783C60.9536 63.0388 60.9324 63.0988 60.9083 63.1581C60.8834 63.2193 60.8557 63.2785 60.8253 63.3356C60.7546 63.4685 60.6685 63.5886 60.5723 63.698C60.5126 63.7659 60.4488 63.8292 60.3809 63.8873C60.37 63.8965 60.3602 63.907 60.3492 63.9159C59.9115 64.2738 59.3263 64.4277 58.7545 64.3122C58.6385 64.2888 58.5232 64.2555 58.4097 64.2092L56.7438 63.5307Z" fill="#298D3F"/>
</svg>
