<svg width="85" height="109" viewBox="0 0 85 109" fill="none" xmlns="http://www.w3.org/2000/svg">
<path d="M54.4944 40.4082L29.2738 40.914L8.8125 47.8194L42.4984 64.6433L76.1843 47.8181L54.4944 40.4082Z" fill="#F09300"/>
<path d="M75.4553 48.3884L42.5 64.646V106.739L75.4531 90.7744V48.2302L75.4553 48.3884Z" fill="#E68E04"/>
<path d="M9.51562 48.1563L9.54598 48.1628V90.7742L42.4991 106.739V64.6459L9.51562 48.1563Z" fill="#FFBC7E"/>
<path d="M27.3743 41.566C26.9953 41.1079 26.5259 40.733 25.9955 40.4646L23.8622 39.3893C23.1101 39.0093 22.485 38.4183 22.0634 37.6887C21.6418 36.9591 21.4419 36.1224 21.4883 35.281L21.6205 32.8724C21.6724 31.9438 21.4238 31.0232 20.9116 30.247L19.6021 28.2611C19.1354 27.5525 18.8867 26.7227 18.8867 25.8742C18.8867 25.0257 19.1354 24.1959 19.6021 23.4873L20.9116 21.5036C21.4235 20.7272 21.6721 19.8067 21.6205 18.8782L21.4883 16.4695C21.4417 15.6281 21.6414 14.7913 22.0631 14.0617C22.4847 13.332 23.1099 12.7411 23.8622 12.3612L25.9955 11.2838C26.8215 10.8663 27.4924 10.1955 27.9098 9.36945L28.9873 7.23834C29.3673 6.48611 29.9582 5.86084 30.6878 5.43888C31.4174 5.01693 32.254 4.81656 33.0956 4.86224L35.5042 4.99449C36.432 5.04607 37.3519 4.7975 38.1274 4.28556L40.1133 2.97828C40.8215 2.51057 41.6515 2.26123 42.5002 2.26123C43.3489 2.26123 44.1789 2.51057 44.8872 2.97828L46.873 4.28556C47.6486 4.7975 48.5684 5.04607 49.4962 4.99449L51.9049 4.86224C52.7464 4.81656 53.5831 5.01693 54.3126 5.43888C55.0422 5.86084 55.6331 6.48611 56.0132 7.23834L57.0906 9.36945C57.5081 10.1955 58.1789 10.8663 59.005 11.2838L61.1382 12.3612C61.8905 12.7411 62.5157 13.332 62.9374 14.0617C63.359 14.7913 63.5587 15.6281 63.5122 16.4695L63.3799 18.8782C63.3283 19.8067 63.5769 20.7272 64.0888 21.5036L65.3983 23.4873C65.865 24.1959 66.1137 25.0257 66.1137 25.8742C66.1137 26.7227 65.865 27.5525 65.3983 28.2611L64.0888 30.247C63.5766 31.0232 63.328 31.9438 63.3799 32.8724L63.5122 35.281C63.5585 36.1224 63.3586 36.9591 62.937 37.6887C62.5154 38.4183 61.8904 39.0093 61.1382 39.3893L59.005 40.4646C58.1783 40.8823 57.5074 41.554 57.0906 42.3811L56.0132 44.5122C55.6333 45.2645 55.0424 45.8897 54.3127 46.3113C53.5831 46.733 52.7463 46.9327 51.9049 46.8862L49.4962 46.7539C48.5684 46.7023 47.6486 46.9509 46.873 47.4628L44.8872 48.7723C44.1786 49.239 43.3487 49.4877 42.5002 49.4877C41.6517 49.4877 40.8219 49.239 40.1133 48.7723L38.1274 47.4628C37.3519 46.9509 36.432 46.7023 35.5042 46.7539L33.0956 46.8862C32.2541 46.9327 31.4174 46.733 30.6877 46.3113C29.958 45.8897 29.3671 45.2645 28.9873 44.5122L27.9098 42.3811C27.763 42.0898 27.5834 41.8163 27.3743 41.566Z" fill="#FB6771"/>
<path d="M42.501 10.3536C45.5706 10.3536 48.5714 11.2638 51.1237 12.9693C53.676 14.6747 55.6653 17.0986 56.84 19.9346C58.0147 22.7706 58.3221 25.8913 57.7232 28.902C57.1244 31.9126 55.6462 34.6781 53.4756 36.8487C51.305 39.0193 48.5395 40.4975 45.5289 41.0963C42.5182 41.6952 39.3975 41.3878 36.5615 40.2131C33.7255 39.0384 31.3016 37.0491 29.5961 34.4968C27.8907 31.9445 26.9805 28.9437 26.9805 25.8741C26.9804 23.8359 27.3818 21.8176 28.1618 19.9346C28.9417 18.0515 30.085 16.3405 31.5262 14.8993C32.9674 13.4581 34.6784 12.3148 36.5615 11.5349C38.4445 10.7549 40.4628 10.3535 42.501 10.3536Z" fill="#FBD301"/>
<path d="M47.0841 27.7385C47.6224 27.7383 48.1487 27.8977 48.5965 28.1966C49.0442 28.4956 49.3932 28.9205 49.5994 29.4178C49.8057 29.9151 49.8598 30.4623 49.755 30.9904C49.6501 31.5184 49.3911 32.0035 49.0106 32.3843C48.6301 32.7651 48.1452 33.0246 47.6172 33.1298C47.0893 33.235 46.542 33.1813 46.0445 32.9755C45.5471 32.7697 45.1219 32.421 44.8226 31.9735C44.5233 31.526 44.3635 30.9998 44.3633 30.4615C44.3631 29.7396 44.6496 29.0472 45.1598 28.5366C45.67 28.0259 46.3622 27.7389 47.0841 27.7385Z" fill="#7FD695"/>
<path d="M37.9144 18.5683C38.4524 18.5687 38.9782 18.7287 39.4254 19.0279C39.8725 19.3271 40.2209 19.7522 40.4265 20.2494C40.6321 20.7466 40.6857 21.2936 40.5805 21.8212C40.4752 22.3489 40.2159 22.8335 39.8353 23.2138C39.4548 23.5941 38.9699 23.853 38.4422 23.9578C37.9145 24.0626 37.3675 24.0086 36.8705 23.8026C36.3735 23.5966 35.9487 23.2479 35.6498 22.8005C35.3509 22.3531 35.1914 21.8271 35.1914 21.2891C35.1915 20.9316 35.2619 20.5777 35.3988 20.2475C35.5357 19.9172 35.7363 19.6172 35.9892 19.3646C36.2421 19.1119 36.5422 18.9115 36.8726 18.7749C37.2029 18.6383 37.5569 18.5681 37.9144 18.5683Z" fill="#7FD695"/>
<path d="M76.1859 47.8248L42.5 64.6461L49.5155 78.6772L83.0345 60.8521L76.1859 47.8248Z" fill="#FFBC7E"/>
<path d="M33.4813 25.8741C33.4817 22.3228 34.6999 18.879 36.9325 16.1172C39.1652 13.3555 42.2774 11.4428 45.7498 10.6983C43.4871 10.214 41.1447 10.2417 38.8941 10.7794C36.6435 11.3171 34.5416 12.3513 32.7423 13.8062C30.943 15.2612 29.4917 17.1 28.4948 19.1882C27.4979 21.2764 26.9805 23.561 26.9805 25.875C26.9805 28.1889 27.4979 30.4736 28.4948 32.5618C29.4917 34.65 30.943 36.4888 32.7423 37.9437C34.5416 39.3986 36.6435 40.4328 38.8941 40.9706C41.1447 41.5083 43.4871 41.536 45.7498 41.0516C42.2771 40.3071 39.1647 38.3942 36.932 35.6321C34.6993 32.87 33.4813 29.4258 33.4813 25.8741Z" fill="#FFBC7E"/>
<path d="M16.0237 51.6259L9.54688 48.1716V90.7744L16.0508 93.9253V51.6404L16.0204 51.6252L16.0237 51.6259Z" fill="#FFBC7E"/>
<path d="M16.0234 51.6258L16.0505 51.6403V51.6316L16.0234 51.6258Z" fill="#FFBC7E"/>
<path d="M8.81346 47.8248L1.96484 60.8521L35.4838 78.6772L42.4994 64.6461L8.81346 47.8248Z" fill="#FFB46F"/>
<path d="M8.81346 47.8248L1.96484 60.8521L8.47287 64.3131L15.3174 51.2936L8.81346 47.8248Z" fill="#FFD9CA"/>
<path d="M37.909 25.3111C38.7045 25.3111 39.4822 25.0752 40.1436 24.6332C40.8051 24.1912 41.3206 23.563 41.625 22.828C41.9295 22.093 42.0091 21.2843 41.8539 20.5041C41.6987 19.7238 41.3156 19.0071 40.753 18.4446C40.1905 17.8821 39.4738 17.499 38.6935 17.3439C37.9133 17.1887 37.1045 17.2684 36.3696 17.5728C35.6346 17.8773 35.0064 18.3929 34.5645 19.0544C34.1225 19.7158 33.8867 20.4935 33.8867 21.2891C33.8879 22.3554 34.3121 23.3778 35.0661 24.1318C35.8202 24.8858 36.8426 25.3099 37.909 25.3111ZM37.909 19.8695C38.1899 19.8695 38.4646 19.9528 38.6982 20.1089C38.9319 20.265 39.114 20.4869 39.2215 20.7465C39.329 21.0061 39.3571 21.2917 39.3023 21.5673C39.2475 21.8429 39.1122 22.096 38.9135 22.2947C38.7148 22.4934 38.4617 22.6287 38.1861 22.6835C37.9105 22.7383 37.6249 22.7102 37.3653 22.6027C37.1057 22.4951 36.8838 22.313 36.7277 22.0794C36.5716 21.8458 36.4883 21.5711 36.4883 21.2901C36.4883 20.9133 36.638 20.5518 36.9044 20.2853C37.1708 20.0187 37.5321 19.8687 37.909 19.8684V19.8695Z" fill="#298D3F"/>
<path d="M43.0625 30.4605C43.0625 31.256 43.2983 32.0337 43.7403 32.6952C44.1822 33.3567 44.8104 33.8723 45.5454 34.1767C46.2804 34.4812 47.0891 34.5609 47.8694 34.4057C48.6496 34.2505 49.3663 33.8674 49.9289 33.3049C50.4914 32.7423 50.8745 32.0256 51.0297 31.2454C51.1849 30.4651 51.1052 29.6563 50.8007 28.9214C50.4963 28.1864 49.9807 27.5582 49.3192 27.1163C48.6577 26.6743 47.8801 26.4384 47.0845 26.4385C46.0182 26.4397 44.9959 26.8638 44.2418 27.6178C43.4878 28.3718 43.0637 29.3942 43.0625 30.4605ZM48.5052 30.4605C48.5052 30.7415 48.4219 31.0162 48.2659 31.2498C48.1098 31.4835 47.8879 31.6656 47.6283 31.7732C47.3687 31.8807 47.0831 31.9089 46.8075 31.8541C46.5319 31.7993 46.2787 31.664 46.08 31.4654C45.8813 31.2667 45.746 31.0135 45.6912 30.7379C45.6363 30.4624 45.6644 30.1767 45.772 29.9171C45.8795 29.6575 46.0616 29.4356 46.2952 29.2795C46.5288 29.1234 46.8035 29.04 47.0845 29.04C47.4612 29.0404 47.8223 29.1901 48.0887 29.4564C48.3551 29.7227 48.5049 30.0838 48.5054 30.4605H48.5052Z" fill="#298D3F"/>
<path d="M35.6387 32.7334C35.7595 32.8542 35.9029 32.9501 36.0607 33.0154C36.2185 33.0808 36.3877 33.1145 36.5585 33.1145C36.7294 33.1145 36.8985 33.0808 37.0564 33.0154C37.2142 32.9501 37.3576 32.8542 37.4784 32.7334L49.3565 20.8555C49.4789 20.7351 49.5762 20.5916 49.6429 20.4334C49.7096 20.2752 49.7443 20.1053 49.745 19.9336C49.7457 19.7619 49.7124 19.5917 49.647 19.4329C49.5816 19.2742 49.4854 19.1299 49.364 19.0085C49.2426 18.8871 49.0983 18.7909 48.9395 18.7255C48.7808 18.6601 48.6106 18.6268 48.4389 18.6275C48.2672 18.6282 48.0973 18.6629 47.9391 18.7296C47.7808 18.7963 47.6374 18.8936 47.517 19.016L35.6389 30.8939C35.3949 31.1378 35.2579 31.4686 35.2578 31.8136C35.2578 32.1586 35.3948 32.4894 35.6387 32.7334Z" fill="#298D3F"/>
<path d="M42.4973 42.696C45.8243 42.696 49.0765 41.7094 51.8428 39.861C54.6091 38.0127 56.7651 35.3855 58.0383 32.3118C59.3115 29.2381 59.6446 25.8558 58.9955 22.5928C58.3465 19.3297 56.7444 16.3324 54.3919 13.9799C52.0393 11.6274 49.042 10.0253 45.779 9.37621C42.5159 8.72715 39.1337 9.06027 36.06 10.3334C32.9862 11.6066 30.3591 13.7627 28.5107 16.529C26.6623 19.2952 25.6758 22.5475 25.6758 25.8745C25.6808 30.3343 27.4547 34.6099 30.6083 37.7635C33.7618 40.917 38.0375 42.6909 42.4973 42.696ZM42.4973 11.6548C45.3097 11.6548 48.059 12.4888 50.3975 14.0513C52.7359 15.6138 54.5585 17.8346 55.6348 20.433C56.7111 23.0314 56.9927 25.8905 56.444 28.6489C55.8953 31.4073 54.5409 33.9411 52.5522 35.9298C50.5635 37.9185 48.0297 39.2727 45.2713 39.8214C42.5129 40.3701 39.6537 40.0884 37.0554 39.0121C34.457 37.9358 32.2362 36.1132 30.6737 33.7747C29.1112 31.4362 28.2773 28.6869 28.2773 25.8745C28.2816 22.1044 29.7811 18.49 32.447 15.8242C35.1128 13.1584 38.7272 11.659 42.4973 11.6548Z" fill="#298D3F"/>
<path d="M72.6133 25.8828C72.6133 26.2278 72.7503 26.5587 72.9943 26.8026C73.2382 27.0465 73.5691 27.1836 73.9141 27.1836H80.1082C80.4532 27.1836 80.784 27.0465 81.028 26.8026C81.2719 26.5587 81.4089 26.2278 81.4089 25.8828C81.4089 25.5378 81.2719 25.207 81.028 24.963C80.784 24.7191 80.4532 24.582 80.1082 24.582H73.9141C73.5691 24.582 73.2382 24.7191 72.9943 24.963C72.7503 25.207 72.6133 25.5378 72.6133 25.8828Z" fill="#298D3F"/>
<path d="M77.0081 12.7687L70.814 17.4082C70.5466 17.6181 70.372 17.9243 70.3276 18.2614C70.2831 18.5984 70.3724 18.9394 70.5763 19.2115C70.7802 19.4835 71.0825 19.6649 71.4184 19.7168C71.7544 19.7688 72.0973 19.6872 72.3739 19.4894L78.5682 14.85C78.8442 14.643 79.0266 14.3348 79.0754 13.9933C79.1242 13.6518 79.0353 13.3049 78.8283 13.0289C78.6213 12.7529 78.3132 12.5704 77.9717 12.5216C77.6301 12.4728 77.2832 12.5617 77.0072 12.7687H77.0081Z" fill="#298D3F"/>
<path d="M70.817 34.3402L77.0111 38.9797C77.1478 39.0821 77.3033 39.1567 77.4688 39.1991C77.6342 39.2415 77.8065 39.2509 77.9756 39.2267C78.1447 39.2026 78.3074 39.1454 78.4543 39.0583C78.6013 38.9713 78.7297 38.8562 78.8322 38.7195C78.9347 38.5828 79.0093 38.4273 79.0517 38.2619C79.0941 38.0964 79.1035 37.9242 79.0793 37.7551C79.0552 37.586 78.9979 37.4233 78.9109 37.2763C78.8239 37.1293 78.7087 37.0009 78.5721 36.8984L72.3777 32.259C72.1012 32.0612 71.7583 31.9796 71.4223 32.0315C71.0864 32.0835 70.7841 32.2649 70.5802 32.5369C70.3763 32.8089 70.287 33.15 70.3315 33.487C70.3759 33.824 70.5505 34.1303 70.8179 34.3402H70.817Z" fill="#298D3F"/>
<path d="M3.58203 25.8828C3.58203 26.2278 3.71908 26.5587 3.96302 26.8026C4.20696 27.0465 4.53782 27.1836 4.88281 27.1836H11.0769C11.4219 27.1836 11.7528 27.0465 11.9967 26.8026C12.2407 26.5587 12.3777 26.2278 12.3777 25.8828C12.3777 25.5378 12.2407 25.207 11.9967 24.963C11.7528 24.7191 11.4219 24.582 11.0769 24.582H4.88281C4.53782 24.582 4.20696 24.7191 3.96302 24.963C3.71908 25.207 3.58203 25.5378 3.58203 25.8828Z" fill="#298D3F"/>
<path d="M12.6209 32.258L6.42657 36.8974C6.15058 37.1044 5.96812 37.4126 5.91933 37.7541C5.87054 38.0956 5.95942 38.4425 6.16641 38.7185C6.37341 38.9945 6.68156 39.177 7.02308 39.2258C7.3646 39.2746 7.71152 39.1857 7.98751 38.9787L14.1816 34.3392C14.449 34.1293 14.6236 33.8231 14.668 33.486C14.7125 33.149 14.6232 32.808 14.4193 32.5359C14.2154 32.2639 13.9131 32.0825 13.5772 32.0305C13.2412 31.9786 12.8983 32.0602 12.6218 32.258H12.6209Z" fill="#298D3F"/>
<path d="M14.1777 17.409L7.9836 12.7687C7.70761 12.5617 7.36069 12.4728 7.01917 12.5216C6.67765 12.5704 6.3695 12.7529 6.16251 13.0289C5.95551 13.3049 5.86663 13.6518 5.91542 13.9933C5.96421 14.3348 6.14667 14.643 6.42266 14.85L12.617 19.4894C12.8935 19.6872 13.2365 19.7688 13.5724 19.7168C13.9084 19.6649 14.2106 19.4835 14.4145 19.2115C14.6184 18.9394 14.7077 18.5984 14.6633 18.2614C14.6188 17.9243 14.4442 17.6181 14.1768 17.4082L14.1777 17.409Z" fill="#298D3F"/>
<path d="M77.2995 47.2187C77.2333 47.0595 77.1289 46.9192 76.9954 46.8102C76.8619 46.7011 76.7036 46.6268 76.5344 46.5936L60.581 41.1262L61.7212 40.55C62.699 40.056 63.5117 39.2878 64.0599 38.3393C64.6082 37.3908 64.8681 36.3031 64.8079 35.2092L64.6754 32.8008C64.641 32.151 64.8149 31.5072 65.1719 30.9632L66.4809 28.978C67.0888 28.0574 67.4128 26.9784 67.4128 25.8752C67.4128 24.772 67.0888 23.6931 66.4809 22.7724L65.1721 20.7874C64.8151 20.2434 64.6412 19.5996 64.6757 18.9499L64.8081 16.5415C64.8683 15.4476 64.6085 14.3598 64.0603 13.4113C63.5122 12.4627 62.6994 11.6944 61.7216 11.2005L59.5898 10.1236C59.0105 9.83255 58.5403 9.36249 58.2492 8.78317L57.1721 6.6514C56.6781 5.67358 55.9099 4.86089 54.9614 4.31273C54.0129 3.76457 52.9252 3.50469 51.8313 3.56486L49.4227 3.69733C48.773 3.73165 48.1293 3.55764 47.5853 3.20065L45.6003 1.89184C44.6797 1.28392 43.6008 0.959839 42.4976 0.959839C41.3943 0.959839 40.3154 1.28392 39.3948 1.89184L37.4098 3.20065C36.8656 3.55711 36.2221 3.73107 35.5724 3.69733L33.1638 3.56486C32.0699 3.50419 30.9821 3.76379 30.0334 4.31188C29.0848 4.85997 28.3166 5.67276 27.8228 6.65075L26.7457 8.78252C26.4546 9.3619 25.9843 9.83197 25.4049 10.123L23.2735 11.1998C22.2956 11.6938 21.4829 12.462 20.9347 13.4106C20.3865 14.3591 20.1266 15.4469 20.1868 16.5408L20.3192 18.9492C20.3537 19.599 20.1798 20.2428 19.8228 20.7868L18.5138 22.772C17.9059 23.6926 17.5818 24.7715 17.5818 25.8747C17.5818 26.9779 17.9059 28.0568 18.5138 28.9774L19.8226 30.9626C20.1795 31.5066 20.3535 32.1504 20.319 32.8001L20.1866 35.2085C20.1264 36.3024 20.3863 37.3901 20.9344 38.3386C21.4826 39.2871 22.2953 40.0553 23.2731 40.5493L24.5051 41.1718L8.46023 46.5912C8.2905 46.6243 8.13158 46.6989 7.99761 46.8082C7.86364 46.9176 7.75877 47.0583 7.69233 47.218L0.828979 60.2473C0.673044 60.5549 0.644775 60.9117 0.750312 61.2401C0.855849 61.5685 1.08667 61.8419 1.39265 62.0012L8.24343 65.631V90.7744C8.23713 91.0162 8.29985 91.2547 8.42426 91.462C8.54867 91.6694 8.7296 91.837 8.94585 91.9451L41.9473 107.909C42.1209 107.995 42.3118 108.039 42.5054 108.039C42.7002 108.039 42.8925 107.995 43.0675 107.909L76.051 91.9451C76.267 91.8368 76.4476 91.6692 76.5716 91.4618C76.6957 91.2544 76.758 91.016 76.7512 90.7744V65.631L83.61 62.0012C83.9134 61.8394 84.1404 61.5642 84.2415 61.2356C84.3425 60.907 84.3093 60.5517 84.1492 60.2475L77.2995 47.2187ZM24.4464 38.2272C23.9199 37.9612 23.4823 37.5476 23.1871 37.0368C22.892 36.5261 22.752 35.9404 22.7844 35.3514L22.9171 32.9428C22.9808 31.7361 22.6576 30.5407 21.9946 29.5304L20.6861 27.5454C20.3587 27.0497 20.1842 26.4687 20.1842 25.8747C20.1842 25.2806 20.3587 24.6996 20.6861 24.2039L21.9949 22.2189C22.6578 21.2086 22.981 20.0131 22.9173 18.8063L22.7846 16.3979C22.7522 15.8089 22.8922 15.2231 23.1874 14.7124C23.4826 14.2016 23.9202 13.7879 24.4468 13.5219L26.5782 12.4451C27.6542 11.9046 28.5274 11.0316 29.0681 9.9556L30.1449 7.82362C30.411 7.29723 30.8247 6.85974 31.3354 6.5646C31.8461 6.26946 32.4317 6.12945 33.0207 6.16166L35.4291 6.29434C36.636 6.35868 37.8318 6.03553 38.8419 5.37208L40.8269 4.06306C41.3226 3.73578 41.9035 3.5613 42.4976 3.5613C43.0916 3.5613 43.6725 3.73578 44.1682 4.06306L46.1532 5.37208C47.1631 6.03515 48.3585 6.35827 49.5649 6.29434L51.9733 6.16166C52.5624 6.1293 53.1482 6.26925 53.6591 6.56439C54.1699 6.85954 54.5838 7.29711 54.85 7.82362L55.9268 9.95517C56.4674 11.0312 57.3405 11.9042 58.4165 12.4449L60.5483 13.5217C61.0748 13.7877 61.5125 14.2014 61.8076 14.7122C62.1028 15.223 62.2427 15.8087 62.2103 16.3977L62.0776 18.8061C62.0139 20.0129 62.3371 21.2084 63 22.2187L64.3086 24.2035C64.636 24.6993 64.8105 25.2803 64.8105 25.8743C64.8105 26.4684 64.636 27.0494 64.3086 27.5452L62.9998 29.5302C62.3368 30.5405 62.0137 31.7361 62.0774 32.9428L62.21 35.3512C62.2424 35.9402 62.1025 36.5259 61.8072 37.0367C61.512 37.5474 61.0744 37.961 60.5479 38.227L58.4165 39.304C57.3404 39.8445 56.4673 40.7175 55.9266 41.7935L54.8498 43.9255C54.583 44.4514 54.1692 44.8885 53.6586 45.1835C53.1481 45.4786 52.5628 45.6189 51.974 45.5875L49.5656 45.4548C48.3588 45.391 47.1632 45.7141 46.1527 46.377L44.1678 47.6858C43.6721 48.0132 43.0911 48.1878 42.4971 48.1878C41.9031 48.1878 41.3222 48.0132 40.8265 47.6858L38.8415 46.377C37.9176 45.7712 36.8372 45.4478 35.7324 45.4466C35.6314 45.4466 35.5299 45.4492 35.4289 45.4548L33.0205 45.5875C32.4314 45.6201 31.8456 45.4802 31.3349 45.185C30.8241 44.8898 30.4105 44.452 30.1447 43.9253L29.0679 41.7935C28.5272 40.7176 27.6541 39.8446 26.5782 39.304L24.4464 38.2272ZM41.1966 104.665L10.845 89.9586V67.0144L34.9034 79.8247C35.0857 79.9244 35.2902 79.9766 35.4981 79.9764C35.6298 79.9763 35.7607 79.9555 35.8859 79.9146C36.0507 79.8618 36.2032 79.7764 36.3343 79.6635C36.4654 79.5505 36.5725 79.4124 36.6492 79.2573L41.1966 70.1553V104.665ZM42.4928 63.1918L23.3405 53.6276C22.7552 53.3356 22.0456 53.4164 21.6807 54.0668C21.5778 54.2203 21.5087 54.3939 21.4781 54.5761C21.4475 54.7584 21.456 54.945 21.5032 55.1237C21.5504 55.3023 21.6351 55.4689 21.7517 55.6123C21.8683 55.7556 22.0141 55.8725 22.1794 55.9551L40.7508 65.2286L34.914 76.9023L3.71693 60.3123L9.37077 49.557L14.3571 52.0474C14.6658 52.2015 15.023 52.2267 15.3502 52.1174C15.6774 52.0082 15.9479 51.7734 16.102 51.4647C16.2561 51.1561 16.2813 50.7988 16.1721 50.4716C16.0628 50.1444 15.828 49.874 15.5194 49.7198L12.1904 48.0574L26.8242 43.1231L27.8226 45.0988C28.3161 46.077 29.0842 46.8901 30.0328 47.4383C30.9815 47.9865 32.0694 48.2461 33.1634 48.1853L35.572 48.0529C36.2216 48.019 36.8652 48.193 37.4093 48.5496L39.3943 49.8584C40.315 50.4663 41.3939 50.7904 42.4971 50.7904C43.6004 50.7904 44.6793 50.4663 45.5999 49.8584L47.5849 48.5496C48.1289 48.1927 48.7726 48.0187 49.4223 48.0529L51.8309 48.1853C52.9248 48.246 54.0127 47.9864 54.9613 47.4381C55.9099 46.8899 56.6781 46.077 57.1717 45.0988L58.2045 43.0548L72.8123 48.049L42.4928 63.1918ZM74.1497 89.9586L43.7981 104.665V70.1553L48.3493 79.2582C48.4574 79.4743 48.6234 79.656 48.8289 79.783C49.0343 79.91 49.2711 79.9773 49.5127 79.9773C49.7154 79.9774 49.9147 79.9251 50.0913 79.8255L74.1497 67.0144V89.9586ZM50.0798 76.9016L44.2428 65.2275L75.6239 49.557L81.2773 60.3121L50.0798 76.9016Z" fill="#298D3F"/>
<path d="M14.0977 71.8474C13.7527 71.8474 13.4218 71.9844 13.1779 72.2283C12.9339 72.4723 12.7969 72.8031 12.7969 73.1481V74.3128C12.7969 74.6578 12.9339 74.9886 13.1779 75.2326C13.4218 75.4765 13.7527 75.6135 14.0977 75.6135C14.4426 75.6135 14.7735 75.4765 15.0174 75.2326C15.2614 74.9886 15.3984 74.6578 15.3984 74.3128V73.1481C15.3984 72.8031 15.2614 72.4723 15.0174 72.2283C14.7735 71.9844 14.4426 71.8474 14.0977 71.8474Z" fill="#298D3F"/>
<path d="M14.0977 77.1849C13.7527 77.1849 13.4218 77.322 13.1779 77.5659C12.9339 77.8099 12.7969 78.1407 12.7969 78.4857V87.2764C12.7969 87.6214 12.9339 87.9522 13.1779 88.1962C13.4218 88.4401 13.7527 88.5772 14.0977 88.5772C14.4426 88.5772 14.7735 88.4401 15.0174 88.1962C15.2614 87.9522 15.3984 87.6214 15.3984 87.2764V78.4857C15.3984 78.1407 15.2614 77.8099 15.0174 77.5659C14.7735 77.322 14.4426 77.1849 14.0977 77.1849Z" fill="#298D3F"/>
</svg>
