<svg width="92" height="60" viewBox="0 0 92 60" fill="none" xmlns="http://www.w3.org/2000/svg">
<path d="M64.4378 2.34222H9.12245C8.27396 2.34222 7.58594 3.03025 7.58594 3.87873V36.1459H12.1955C13.8926 36.1459 15.2685 37.5216 15.2685 39.2189C15.2685 40.9161 13.8924 42.292 12.1955 42.292H7.58594V46.9015C7.58594 47.75 8.27396 48.438 9.12245 48.438H65.9743V3.87873C65.9743 3.03025 65.2863 2.34222 64.4378 2.34222Z" fill="#B4E66E"/>
<path d="M84.415 26.9269H65.9766V48.4384H90.561V33.0729C90.561 29.6786 87.8093 26.9269 84.415 26.9269Z" fill="#FFBC7E"/>
<path d="M65.9766 31.5365H82.6225C84.3198 31.5365 85.6955 32.9122 85.6955 34.6095V48.4383H65.9766V31.5365Z" fill="#F09300"/>
<path d="M78.2688 8.48853H65.9766V14.6347H82.8785V13.0982C82.8785 10.5522 80.8146 8.48853 78.2688 8.48853Z" fill="#FFBC7E"/>
<path d="M84.415 26.9271L81.3418 14.6349H65.9766V26.9271H84.415Z" fill="#F9F5EC"/>
<path d="M84.4141 33.0731H90.5603V39.2193H87.4873C85.7899 39.2193 84.4142 37.8436 84.4142 36.1463V33.0731H84.4141Z" fill="#F1F4FB"/>
<path d="M76.7323 37.6827C72.1014 37.6827 68.0724 40.246 65.9766 44.0288V48.4385H88.9183C88.1606 42.3764 82.9996 37.6827 76.7323 37.6827Z" fill="#E1A546"/>
<path d="M85.6953 41.574V48.4384H88.9184C88.5885 45.799 87.4228 43.4201 85.6953 41.574Z" fill="#F09300"/>
<path d="M76.7335 57.6577C80.9766 57.6577 84.4162 54.218 84.4162 49.975C84.4162 45.7319 80.9766 42.2922 76.7335 42.2922C72.4905 42.2922 69.0508 45.7319 69.0508 49.975C69.0508 54.218 72.4905 57.6577 76.7335 57.6577Z" fill="#5B5D6E"/>
<path d="M72.1226 19.2444H82.4942L81.3418 14.6349H65.9766V26.9271H70.5861V20.7809C70.5859 19.9324 71.2739 19.2444 72.1226 19.2444Z" fill="#F9F5EC"/>
<path d="M26.0244 37.6827C22.1444 37.6827 18.6897 39.4846 16.4372 42.2923H12.1956H7.58594V46.9018C7.58594 47.7503 8.27396 48.4383 9.12245 48.4383H65.9743V42.2921H35.6116C33.3591 39.4846 29.9044 37.6827 26.0244 37.6827Z" fill="#A0D755"/>
<path d="M26.0265 57.6577C30.2695 57.6577 33.7092 54.218 33.7092 49.975C33.7092 45.7319 30.2695 42.2922 26.0265 42.2922C21.7834 42.2922 18.3438 45.7319 18.3438 49.975C18.3438 54.218 21.7834 57.6577 26.0265 57.6577Z" fill="#5B5D6E"/>
<path d="M85.5596 25.5731L83.1772 16.0433C83.8285 15.905 84.3173 15.3271 84.3173 14.6348V13.0983C84.3173 9.76219 81.6031 7.04819 78.2672 7.04819H67.4155V3.87886C67.4155 2.23723 66.0801 0.901794 64.4385 0.901794H9.12309C7.48147 0.901794 6.14603 2.23723 6.14603 3.87886V30C6.14603 30.7955 6.79093 31.4406 7.58659 31.4406C8.38224 31.4406 9.02714 30.7957 9.02714 30V3.87886C9.02714 3.82585 9.07009 3.7829 9.12309 3.7829H64.4383C64.4913 3.7829 64.5342 3.82585 64.5342 3.87886V30.0004C64.5342 30.7959 65.1791 31.4409 65.9748 31.4409C66.7703 31.4409 67.4153 30.796 67.4153 30.0004V28.3674H84.4082C84.4095 28.3674 84.4107 28.3677 84.412 28.3677C84.4132 28.3677 84.4147 28.3676 84.4159 28.3676C86.507 28.3688 88.2824 29.7415 88.8923 31.6327H84.4131C83.6176 31.6327 82.9725 32.2776 82.9725 33.0732V36.1462C82.9725 38.6351 84.9972 40.6598 87.4861 40.6598H89.1187V46.9979H85.3521C84.1148 43.4254 80.7185 40.8517 76.7303 40.8517C72.7422 40.8517 69.3457 43.4252 68.1086 46.9979H67.415V36.1462C67.415 35.3508 66.7701 34.7057 65.9744 34.7057C65.1789 34.7057 64.5339 35.3506 64.5339 36.1462V46.9977H34.6468C33.4095 43.425 30.0132 40.8515 26.025 40.8515C22.0369 40.8515 18.6404 43.425 17.4033 46.9977H9.12309C9.07009 46.9977 9.02714 46.9548 9.02714 46.9018V43.7326H15.2693C16.0648 43.7326 16.7099 43.0877 16.7099 42.2921C16.7099 41.4966 16.065 40.8515 15.2693 40.8515H1.44055C0.645078 40.8515 0 41.4964 0 42.2921C0 43.0876 0.644899 43.7326 1.44055 43.7326H6.14621V46.9018C6.14621 48.5434 7.48165 49.8789 9.12327 49.8789H16.9045C16.9041 49.9108 16.9019 49.9426 16.9019 49.9748C16.9019 55.0053 20.9947 59.0979 26.025 59.0979C31.0554 59.0979 35.1481 55.0053 35.1481 49.9748C35.1481 49.9425 35.146 49.9108 35.1456 49.8789H67.6098C67.6094 49.9108 67.6072 49.9426 67.6072 49.9748C67.6072 55.0053 71.7 59.0979 76.7303 59.0979C81.7607 59.0979 85.8534 55.0053 85.8534 49.9748C85.8534 49.9425 85.8513 49.9108 85.8509 49.8789H90.5593C91.3548 49.8789 91.9998 49.234 91.9998 48.4383V33.0729C92 29.2795 89.201 26.1274 85.5596 25.5731ZM67.4155 16.0751H80.2156L82.5684 25.4865H67.4155V16.0751ZM78.2672 9.92911C80.0147 9.92911 81.4364 11.3508 81.4364 13.0983V13.1942H67.4155V9.92911H78.2672ZM26.025 56.2171C22.5831 56.2171 19.7829 53.4171 19.7829 49.975C19.7829 46.5329 22.5831 43.7328 26.025 43.7328C29.467 43.7328 32.2672 46.5329 32.2672 49.975C32.2672 53.4171 29.467 56.2171 26.025 56.2171ZM76.7307 56.2171C73.2888 56.2171 70.4885 53.4171 70.4885 49.975C70.4885 46.5329 73.2888 43.7328 76.7307 43.7328C80.1726 43.7328 82.9729 46.5329 82.9729 49.975C82.9729 53.4171 80.1726 56.2171 76.7307 56.2171ZM87.4864 37.7787C86.5862 37.7787 85.8538 37.0463 85.8538 36.1461V34.5134H89.1189V37.7785H87.4864V37.7787Z" fill="#298D3F"/>
<path d="M26.0278 46.9978C24.3862 46.9978 23.0508 48.3332 23.0508 49.9749C23.0508 51.6165 24.3862 52.9519 26.0278 52.9519C27.6695 52.9519 29.0049 51.6165 29.0049 49.9749C29.0049 48.3332 27.6695 46.9978 26.0278 46.9978Z" fill="#298D3F"/>
<path d="M76.731 46.9978C75.0894 46.9978 73.7539 48.3332 73.7539 49.9749C73.7539 51.6165 75.0894 52.9519 76.731 52.9519C78.3726 52.9519 79.708 51.6165 79.708 49.9749C79.708 48.3332 78.3726 46.9978 76.731 46.9978Z" fill="#298D3F"/>
<path d="M36.8789 42.2921C36.8789 43.0876 37.5238 43.7327 38.3195 43.7327H59.8308C60.6262 43.7327 61.2713 43.0878 61.2713 42.2921C61.2713 41.4966 60.6264 40.8516 59.8308 40.8516H38.3193C37.5238 40.8516 36.8789 41.4966 36.8789 42.2921Z" fill="#298D3F"/>
<path d="M4.51477 37.5867H22.9532C23.7487 37.5867 24.3938 36.9418 24.3938 36.1461C24.3938 35.3506 23.7489 34.7056 22.9532 34.7056H4.51477C3.7193 34.7056 3.07422 35.3505 3.07422 36.1461C3.07422 36.9418 3.7193 37.5867 4.51477 37.5867Z" fill="#298D3F"/>
<path d="M48.0545 15.1526L35.2442 27.9627L28.5802 21.2986C28.0176 20.736 27.1055 20.736 26.543 21.2986C25.9804 21.8612 25.9804 22.7731 26.543 23.3357L34.2258 31.0185C34.507 31.2998 34.8757 31.4404 35.2442 31.4404C35.6128 31.4404 35.9815 31.2998 36.2627 31.0185L50.0915 17.1897C50.6541 16.6271 50.6541 15.7152 50.0915 15.1526C49.5292 14.5902 48.6169 14.5902 48.0545 15.1526Z" fill="#298D3F"/>
</svg>
