<svg width="90" height="90" viewBox="0 0 90 90" fill="none" xmlns="http://www.w3.org/2000/svg">
<path d="M52.3074 1.26312C47.8447 1.26787 46.0208 4.864 45.8842 5.02203C45.3678 5.61388 44.681 5.73535 43.984 5.00867C41.5872 0.790974 35.8221 -0.0114671 32.3733 3.44211C30.9818 4.83535 30.2168 6.68439 30.2188 8.6491C30.2272 16.8857 37.4905 23.3891 44.6258 26.7569C44.7325 26.8071 44.8476 26.8324 44.9628 26.8324C45.0784 26.8324 45.1941 26.807 45.3011 26.7562C52.499 23.3407 59.6802 16.8171 59.672 8.61887C59.6676 4.56306 56.3643 1.26312 52.3074 1.26312Z" fill="#FB6771"/>
<path d="M33.7347 8.64891C33.7328 6.68438 34.498 4.83516 35.8893 3.44192C36.8886 2.44119 38.0829 1.80012 39.3327 1.49356C34.6513 0.350979 30.2142 3.91266 30.2188 8.64873C30.2272 16.8853 37.4905 23.3887 44.6258 26.7565C44.7325 26.8068 44.8476 26.8321 44.9628 26.8321C45.0784 26.8321 45.1941 26.8066 45.3011 26.7558C45.6307 26.5993 46.1152 26.3594 46.7083 26.0375C40.0658 22.5096 33.7426 16.3341 33.7347 8.64891Z" fill="#F09CBD"/>
<path d="M54.5883 50.413C54.9657 51.1544 55.6696 51.6122 56.4321 51.6122H77.9066V85.7895C77.9066 87.3569 76.7718 88.6273 75.3715 88.6273H44.8594V32.5406L54.5883 50.413Z" fill="#FFBC7E"/>
<path d="M44.8594 32.5406V88.6273H48.2562V38.7803L44.8594 32.5406Z" fill="#FFBC7E"/>
<path d="M35.2986 50.413C34.9212 51.1544 34.2173 51.6122 33.4548 51.6122H11.9805V85.7895C11.9805 87.3569 13.1153 88.6273 14.5156 88.6273H45.0277V32.5406L35.2986 50.413Z" fill="#FFBC7E"/>
<path d="M15.3771 85.7894V51.6121H11.9805V85.7894C11.9805 87.3568 13.1153 88.6272 14.5156 88.6272H17.9122C16.5121 88.6272 15.3771 87.3566 15.3771 85.7894Z" fill="#FFBC7E"/>
<path d="M85.8811 52.1824H56.0925C55.3301 52.1824 54.6261 51.7247 54.2487 50.9832L44.8594 32.5406H76.2393C77.2699 32.5406 78.2216 33.1595 78.7319 34.162L86.9034 50.2129C87.3508 51.0911 86.7841 52.1824 85.8811 52.1824Z" fill="#FFBC7E"/>
<path d="M58.091 50.9832L48.7016 32.5406H44.8594L54.2487 50.9832C54.6261 51.7247 55.33 52.1824 56.0925 52.1824H59.9347C59.1722 52.1824 58.4684 51.7247 58.091 50.9832Z" fill="#FB6771"/>
<path d="M4.00663 52.1824H33.7952C34.5576 52.1824 35.2616 51.7247 35.639 50.9832L45.0284 32.5406H13.6484C12.6178 32.5406 11.6661 33.1595 11.1558 34.162L2.98429 50.2129C2.5371 51.0911 3.10365 52.1824 4.00663 52.1824Z" fill="#FFBC7E"/>
<path d="M6.38071 50.2129L14.5523 34.162C15.0625 33.1597 16.0142 32.5406 17.0448 32.5406H13.6484C12.6178 32.5406 11.6661 33.1595 11.1558 34.162L2.98427 50.2129C2.53708 51.0911 3.1038 52.1826 4.00661 52.1826H7.40306C6.50024 52.1824 5.9337 51.0911 6.38071 50.2129Z" fill="#FB6771"/>
<path d="M88.134 49.6699L79.9788 33.6188C79.2446 32.1737 77.841 31.2764 76.3156 31.2764C73.5656 31.2764 16.4271 31.2764 13.6821 31.2764C12.1566 31.2764 10.7532 32.1737 10.0188 33.6188L1.86359 49.6699C1.4324 50.5186 1.47283 51.5487 1.96923 52.3575C2.42943 53.1075 3.21095 53.5551 4.05962 53.5551H10.6998V85.8436C10.6998 88.1353 12.4261 90 14.5483 90C15.419 90 74.579 90 75.4497 90C77.5717 90 79.2982 88.1355 79.2982 85.8436V71.9826C79.2982 71.2543 78.7081 70.664 77.9797 70.664C77.2512 70.664 76.6611 71.2541 76.6611 71.9826V85.8438C76.6611 86.6673 76.1064 87.3633 75.4495 87.3633H46.3173V38.1005L53.1938 51.6347C53.7955 52.8194 54.9511 53.5554 56.2092 53.5554H76.6608V65.83C76.6608 66.5583 77.2509 67.1486 77.9793 67.1486C78.7078 67.1486 79.2979 66.5585 79.2979 65.83V53.5554H85.938C86.7867 53.5554 87.568 53.1077 88.0284 52.3578C88.5248 51.5485 88.5654 50.5188 88.134 49.6699ZM4.21466 50.8646L12.3699 34.8134C12.6518 34.2583 13.1547 33.9134 13.6822 33.9134H42.8501C41.8424 35.8971 35.8133 47.7631 34.4531 50.4404V50.4406C34.3031 50.7354 34.0486 50.9185 33.7886 50.9185C33.0451 50.9185 5.00515 50.9185 4.20218 50.9185C4.20201 50.9018 4.20535 50.8832 4.21466 50.8646ZM13.3368 85.8438V53.5552H33.7885C35.0511 53.5552 36.2042 52.8152 36.8038 51.6347L43.6804 38.1004V87.3629H14.5485C13.8916 87.3633 13.3368 86.6673 13.3368 85.8438ZM56.2095 50.9183C55.9495 50.9183 55.6948 50.7352 55.5451 50.4402L47.148 33.9133H76.3159C76.8433 33.9133 77.346 34.2581 77.6283 34.8133L85.7835 50.8644C85.793 50.883 85.7961 50.9016 85.7961 50.9183C84.9918 50.9183 56.9536 50.9183 56.2095 50.9183Z" fill="#298D3F"/>
<path d="M41.2557 26.4867C41.466 26.6108 41.6966 26.6697 41.9242 26.6697C42.3755 26.6697 42.8151 26.4378 43.061 26.0208C43.4309 25.3938 43.2224 24.5852 42.5952 24.2154C39.2903 22.2662 31.6022 16.8528 31.5936 8.70235C31.5901 5.07106 34.7889 2.21638 38.442 2.70821C41.707 3.14819 42.8376 5.71354 43.0888 5.97546C44.2532 7.19011 45.8422 7.1945 46.9379 5.93907C47.2306 5.60069 48.644 2.64001 52.3639 2.63614C55.6939 2.63614 58.4066 5.34511 58.4102 8.67476C58.4182 16.4348 51.515 21.7395 47.3995 24.211C46.7753 24.5859 46.5731 25.3958 46.9481 26.0201C47.3232 26.6445 48.1328 26.8461 48.7572 26.4715C56.6892 21.7081 61.054 15.3866 61.0471 8.67194C61.0376 0.184873 49.8833 -3.42796 45.0013 4.09952C42.0626 -0.615459 35.4682 -1.41175 31.4973 2.56478C29.8569 4.20745 28.9548 6.38802 28.957 8.70499C28.9637 15.4 33.4463 21.8814 41.2557 26.4867Z" fill="#298D3F"/>
</svg>
