<svg width="68" height="90" viewBox="0 0 68 90" fill="none" xmlns="http://www.w3.org/2000/svg">
<path d="M19.1966 22.5C25.046 22.5 29.7878 17.7581 29.7878 11.9088C29.7878 6.05946 25.046 1.31763 19.1966 1.31763C13.3473 1.31763 8.60547 6.05946 8.60547 11.9088C8.60547 17.7581 13.3473 22.5 19.1966 22.5Z" fill="#FFBC7E"/>
<path d="M24.1152 2.5304C24.8882 4.00081 25.3279 5.67407 25.3279 7.45069C25.3279 13.3 20.586 18.0419 14.7367 18.0419C12.9601 18.0419 11.2868 17.6022 9.81641 16.8291C11.5886 20.1999 15.1222 22.5 19.1949 22.5C25.0442 22.5 29.786 17.7582 29.786 11.9089C29.786 7.83618 27.4859 4.30262 24.1152 2.5304Z" fill="#FFC250"/>
<path d="M19.1977 23.8177C12.6312 23.8177 7.28906 18.4753 7.28906 11.9088C7.28906 5.34234 12.6312 0 19.1977 0C25.7642 0 31.1065 5.34234 31.1065 11.9088C31.1065 18.4753 25.7642 23.8177 19.1977 23.8177ZM19.1977 2.63531C14.0844 2.63531 9.9242 6.79535 9.9242 11.9088C9.9242 17.0223 14.0842 21.1825 19.1977 21.1825C24.3112 21.1825 28.4714 17.0225 28.4714 11.9088C28.4712 6.79535 24.3112 2.63531 19.1977 2.63531Z" fill="#FFE07D"/>
<path d="M19.6574 6.93682L20.7079 9.06535C20.7829 9.2174 20.9281 9.32287 21.096 9.3473L23.4449 9.68867C23.8677 9.75002 24.0366 10.2696 23.7306 10.5679L22.031 12.2247C21.9095 12.3431 21.8539 12.5136 21.8828 12.681L22.2841 15.0205C22.3563 15.4415 21.9144 15.7626 21.5361 15.5638L19.4352 14.4592C19.2851 14.3803 19.1056 14.3803 18.9555 14.4592L16.8546 15.5638C16.4764 15.7626 16.0344 15.4415 16.1066 15.0205L16.5079 12.681C16.5366 12.5138 16.4812 12.3431 16.3597 12.2247L14.6601 10.5679C14.3542 10.2698 14.523 9.75019 14.9457 9.68867L17.2947 9.3473C17.4626 9.32287 17.6078 9.2174 17.6828 9.06535L18.7333 6.93682C18.9219 6.55361 19.4682 6.55361 19.6574 6.93682Z" fill="#F4FBFF"/>
<path d="M6.19531 59.5514L12.4888 87.1693C12.6904 88.0543 13.4776 88.6824 14.3855 88.6824H53.6213C54.529 88.6824 55.3162 88.0545 55.5179 87.1693L61.8114 59.5514H6.19531ZM22.1911 66.4004L21.1953 82.546C21.1742 82.8879 20.8906 83.1546 20.548 83.1546H18.0446C17.702 83.1546 17.4184 82.8881 17.3973 82.546L16.4015 66.4004C16.3785 66.0273 16.6749 65.712 17.0487 65.712H21.5438C21.9177 65.712 22.2141 66.0272 22.1911 66.4004ZM31.9958 66.4004L31 82.546C30.9789 82.8879 30.6953 83.1546 30.3527 83.1546H27.8493C27.5067 83.1546 27.2231 82.8881 27.202 82.546L26.2062 66.4004C26.1832 66.0273 26.4796 65.712 26.8535 65.712H31.3486C31.7224 65.712 32.0188 66.0272 31.9958 66.4004ZM41.8003 66.4004L40.8045 82.546C40.7834 82.8879 40.4999 83.1546 40.1573 83.1546H37.6538C37.3112 83.1546 37.0277 82.8881 37.0066 82.546L36.0108 66.4004C35.9878 66.0273 36.2841 65.712 36.658 65.712H41.1531C41.527 65.712 41.8234 66.0272 41.8003 66.4004ZM51.6051 66.4004L50.6093 82.546C50.5882 82.8879 50.3046 83.1546 49.962 83.1546H47.4586C47.116 83.1546 46.8324 82.8881 46.8113 82.546L45.8155 66.4004C45.7925 66.0273 46.0889 65.712 46.4627 65.712H50.9578C51.3317 65.712 51.6281 66.0272 51.6051 66.4004Z" fill="#B3E59F"/>
<path d="M44.4961 53.7659L54.0909 44.171L57.8394 47.9195L48.2445 57.5143L44.4961 53.7659Z" fill="#E4F6FF"/>
<path d="M46.7461 56.0131L56.3409 46.4182L57.8426 47.9199L48.2477 57.5147L46.7461 56.0131Z" fill="#D3EFFB"/>
<path d="M58.6741 37.7425L53.0276 43.3889C52.3762 44.0404 52.3762 45.0966 53.0276 45.7482L56.2334 48.954C56.8848 49.6054 57.9411 49.6054 58.5927 48.954L64.2392 43.3075C65.7758 41.7708 65.7758 39.2793 64.2392 37.7426C62.7023 36.2056 60.2108 36.2056 58.6741 37.7425ZM61.2101 39.4632C61.9621 39.4632 62.5717 40.0728 62.5717 40.8248C62.5717 41.5768 61.9621 42.1864 61.2101 42.1864C60.4581 42.1864 59.8485 41.5768 59.8485 40.8248C59.8485 40.0728 60.4581 39.4632 61.2101 39.4632Z" fill="#365E7D"/>
<path d="M58.5927 48.9538L64.2391 43.3074C65.3743 42.1722 65.6698 40.5161 65.1278 39.1086C64.9361 39.6065 64.6406 40.0733 64.2391 40.475L58.1467 46.5674C57.7415 46.9726 57.0846 46.9726 56.6795 46.5674L53.2644 43.1523L53.0278 43.3887C52.3762 44.0402 52.3762 45.0966 53.0278 45.7481L56.2335 48.9538C56.8849 49.6052 57.9412 49.6052 58.5927 48.9538Z" fill="#2B4D66"/>
<path d="M9.44922 47.6895L13.1977 43.941L22.7925 53.5358L19.0441 57.2843L9.44922 47.6895Z" fill="#E4F6FF"/>
<path d="M11.7773 45.3634L13.199 43.9418L22.7938 53.5366L21.3722 54.9582L11.7773 45.3634Z" fill="#D3EFFB"/>
<path d="M3.30095 37.7423C1.76427 39.2789 1.76427 41.7705 3.30095 43.3071L8.94739 48.9536C9.59883 49.605 10.6551 49.605 11.3067 48.9536L14.5124 45.7479C15.1639 45.0964 15.1639 44.0401 14.5124 43.3885L8.866 37.7421C7.32932 36.2054 4.8378 36.2054 3.30095 37.7423ZM7.69161 40.8248C7.69161 41.5768 7.082 42.1864 6.33001 42.1864C5.57802 42.1864 4.96841 41.5768 4.96841 40.8248C4.96841 40.0728 5.57802 39.4632 6.33001 39.4632C7.08182 39.463 7.69161 40.0726 7.69161 40.8248Z" fill="#365E7D"/>
<path d="M14.5124 43.3889L8.86594 37.7425C7.72037 36.5969 6.04465 36.3065 4.62891 36.8689C5.1123 37.0608 5.56564 37.3512 5.95693 37.7425L11.6034 43.3889C12.2548 44.0404 12.2548 45.0966 11.6034 45.7481L8.67258 48.6789L8.9475 48.9538C9.59894 49.6052 10.6552 49.6052 11.3068 48.9538L14.5126 45.7481C15.1638 45.0966 15.1638 44.0404 14.5124 43.3889Z" fill="#2B4D66"/>
<path d="M57.9218 59.5514L52.3496 84.0041C52.1479 84.8892 51.3608 85.5173 50.4529 85.5173H12.1094L12.4859 87.1693C12.6875 88.0543 13.4747 88.6824 14.3826 88.6824H53.6184C54.5261 88.6824 55.3132 88.0545 55.515 87.1693L61.8085 59.5514H57.9218Z" fill="#95D6A4"/>
<path d="M64.1468 61.0056H3.85156C2.88072 61.0056 2.09375 60.2186 2.09375 59.2478V54.3572C2.09375 53.3863 2.88072 52.5994 3.85156 52.5994H64.1468C65.1177 52.5994 65.9046 53.3863 65.9046 54.3572V59.2478C65.9046 60.2186 65.1177 61.0056 64.1468 61.0056Z" fill="#B3E59F"/>
<path d="M64.1479 52.5996H62.9392V57.5132C62.9392 57.8043 62.7033 58.0402 62.4122 58.0402H2.09375V59.2489C2.09375 60.2192 2.88037 61.0056 3.85051 61.0056H64.1479C65.1182 61.0056 65.9046 60.219 65.9046 59.2489V54.3564C65.9048 53.3861 65.1182 52.5996 64.1479 52.5996Z" fill="#95D6A4"/>
<path d="M33.7906 43.9274C42.395 43.9274 49.3703 36.9521 49.3703 28.3477C49.3703 19.7433 42.395 12.7681 33.7906 12.7681C25.1862 12.7681 18.2109 19.7433 18.2109 28.3477C18.2109 36.9521 25.1862 43.9274 33.7906 43.9274Z" fill="#FFBC7E"/>
<path d="M41.7227 14.9388C43.0997 17.2623 43.893 19.9727 43.893 22.8694C43.893 31.4737 36.9179 38.4491 28.3134 38.4491C25.4167 38.4491 22.7063 37.6558 20.3828 36.2787C23.0963 40.8567 28.0845 43.9278 33.7921 43.9278C42.3964 43.9278 49.3718 36.9526 49.3718 28.3481C49.3718 22.6403 46.3007 17.6522 41.7227 14.9388Z" fill="#FFC250"/>
<path d="M33.7885 46.8938C23.5621 46.8938 15.2422 38.5741 15.2422 28.3477C15.2422 18.1212 23.5619 9.80151 33.7885 9.80151C44.0148 9.80151 52.3347 18.1212 52.3347 28.3477C52.3347 38.5741 44.0149 46.8938 33.7885 46.8938ZM33.7885 14.4497C26.125 14.4497 19.8904 20.6843 19.8904 28.3477C19.8904 36.011 26.125 42.2456 33.7885 42.2456C41.4519 42.2456 47.6865 36.011 47.6865 28.3477C47.6865 20.6843 41.4519 14.4497 33.7885 14.4497Z" fill="#FFE07D"/>
<path d="M45.5566 14.024C48.1933 17.2278 49.7787 21.3279 49.7787 25.7915C49.7787 36.018 41.4589 44.3377 31.2325 44.3377C26.7689 44.3377 22.6686 42.7523 19.4648 40.1156C22.869 44.2521 28.0263 46.8943 33.7891 46.8943C44.0153 46.8943 52.3352 38.5745 52.3352 28.3481C52.3352 22.5853 49.6931 17.4282 45.5566 14.024Z" fill="#FFBC7E"/>
<path d="M34.4717 21.0342L36.017 24.1653C36.1274 24.389 36.341 24.5442 36.588 24.5801L40.0433 25.0821C40.6652 25.1725 40.9136 25.9368 40.4636 26.3753L37.9633 28.8126C37.7845 28.9868 37.7029 29.2378 37.7451 29.4837L38.3354 32.925C38.4416 33.5444 37.7915 34.0167 37.2352 33.7242L34.1448 32.0995C33.9238 31.9833 33.66 31.9833 33.4392 32.0995L30.3488 33.7242C29.7924 34.0167 29.1424 33.5444 29.2486 32.925L29.8389 29.4837C29.881 29.2378 29.7995 28.9868 29.6207 28.8126L27.1204 26.3753C26.6704 25.9366 26.9188 25.1725 27.5407 25.0821L30.996 24.5801C31.243 24.5442 31.4564 24.389 31.567 24.1653L33.1122 21.0342C33.39 20.4707 34.1937 20.4707 34.4717 21.0342Z" fill="#F4FBFF"/>
<path d="M14.6812 22.9271C14.1916 24.6509 13.9294 26.4693 13.9294 28.3479C13.9294 39.3008 22.8403 48.2117 33.7932 48.2117C44.7461 48.2117 53.6568 39.3008 53.6568 28.3479C53.6568 23.834 52.1752 19.5769 49.3723 16.0371C48.9206 15.4665 48.0918 15.3705 47.5215 15.8221C46.9509 16.2738 46.8546 17.1025 47.3064 17.673C49.7369 20.7427 51.0217 24.4339 51.0217 28.3481C51.0217 37.848 43.2929 45.5766 33.7934 45.5766C24.2934 45.5766 16.5649 37.8478 16.5649 28.3481C16.5649 18.8483 24.2936 11.1196 33.7934 11.1196C37.0836 11.1196 40.2846 12.0546 43.0498 13.8233C43.6622 14.2154 44.4777 14.0365 44.8699 13.4234C45.2619 12.8102 45.0827 11.9955 44.4698 11.6033C41.2799 9.56285 37.5879 8.48426 33.7935 8.48426C32.7323 8.48426 31.6907 8.56881 30.6741 8.72982C30.0499 6.47754 28.7692 4.43971 26.9795 2.89371C24.819 1.02762 22.0554 0 19.1977 0C12.6312 0 7.28906 5.34234 7.28906 11.9088C7.28906 14.5183 8.11752 16.9961 9.68514 19.0742C10.9706 20.7786 12.7174 22.1178 14.6812 22.9271ZM17.2819 11.2811L16.7461 10.7589L17.4867 10.6513C18.084 10.5643 18.5999 10.1893 18.8665 9.64863L19.1977 8.97768L19.5292 9.64916C19.7962 10.1897 20.312 10.5645 20.9091 10.6513L21.6495 10.7589L21.1139 11.2811C20.6811 11.7028 20.4843 12.3098 20.5866 12.9036L20.679 13.4423C20.6361 13.4801 20.5936 13.5179 20.5511 13.5559L20.0508 13.2929C19.7836 13.1527 19.4907 13.0823 19.1977 13.0823C18.9047 13.0823 18.6118 13.1527 18.3446 13.2929L17.6825 13.6412L17.809 12.9036C17.911 12.3086 17.7138 11.7021 17.2819 11.2811ZM19.1977 2.63531C23.3999 2.63531 26.9766 5.38277 28.1049 9.31553C27.0973 9.61717 26.1224 9.99563 25.1885 10.4463C25.2247 10.1786 25.2042 9.90158 25.1168 9.63229C24.8995 8.96379 24.3326 8.48566 23.6369 8.38477L21.7054 8.10404L20.8416 6.35361C20.5305 5.72344 19.9008 5.3318 19.1979 5.3318C18.4949 5.3318 17.8651 5.72326 17.5542 6.35361L16.6904 8.10404L14.7585 8.38477C14.063 8.48584 13.4961 8.96379 13.2788 9.63229C13.0615 10.3008 13.2394 11.0208 13.7425 11.5114L15.1403 12.8739L14.8104 14.7976C14.6916 15.4905 14.9711 16.1775 15.5395 16.5906C15.8609 16.824 16.2369 16.9427 16.6153 16.9427C16.9066 16.9427 17.1994 16.8724 17.4701 16.7302L17.8296 16.5412C16.9366 17.7455 16.1769 19.054 15.5713 20.4446C12.2025 19.0058 9.9242 15.6289 9.9242 11.909C9.9242 6.79535 14.0844 2.63531 19.1977 2.63531Z" fill="#298D3F"/>
<path d="M26.8487 64.3945C26.3087 64.3945 25.7865 64.6202 25.4165 65.0137C25.0464 65.4073 24.8533 65.9422 24.8865 66.4815L25.8823 82.627C25.9461 83.6617 26.8081 84.472 27.8445 84.472H30.3482C31.3846 84.472 32.2466 83.6617 32.3104 82.6268L33.3062 66.4813C33.3062 66.4813 33.3062 66.4813 33.3062 66.4812C33.3395 65.942 33.1463 65.407 32.7763 65.0134C32.4064 64.62 31.8843 64.3943 31.344 64.3943H26.8487V64.3945ZM29.7187 81.8369H28.4737L27.5605 67.0298H30.6321L29.7187 81.8369Z" fill="#298D3F"/>
<path d="M51.9198 82.6271L52.9156 66.4816C52.9156 66.4816 52.9156 66.4816 52.9156 66.4814C52.9488 65.9423 52.7556 65.4074 52.3856 65.0138C52.0156 64.6202 51.4935 64.3945 50.9532 64.3945H46.4581C45.9179 64.3945 45.3959 64.6202 45.0258 65.0136C44.6558 65.4072 44.4626 65.9423 44.4959 66.4816L45.4917 82.6271C45.5555 83.6617 46.4175 84.4721 47.4539 84.4721H49.9574C50.994 84.4723 51.856 83.6619 51.9198 82.6271ZM48.0832 81.837L47.17 67.0298H50.2416L49.3284 81.837H48.0832Z" fill="#298D3F"/>
<path d="M36.6536 64.3945C36.1134 64.3945 35.5914 64.6202 35.2212 65.0137C34.8511 65.4073 34.658 65.9422 34.6912 66.4815L35.687 82.627C35.7508 83.6617 36.6128 84.472 37.6494 84.472H40.1529C41.1893 84.472 42.0513 83.6617 42.1151 82.6268L43.1109 66.4819C43.1443 65.9426 42.9513 65.4075 42.5815 65.0139C42.2114 64.6202 41.6892 64.3943 41.1487 64.3943H36.6536V64.3945ZM39.5236 81.8369H38.2785L37.3653 67.0298H40.4369L39.5236 81.8369Z" fill="#298D3F"/>
<path d="M17.044 64.3945C16.5039 64.3945 15.9818 64.6202 15.6118 65.0136C15.2418 65.4071 15.0486 65.9422 15.0818 66.4815L16.0776 82.627C16.1414 83.6617 17.0034 84.472 18.0398 84.472H20.5433C21.5799 84.472 22.4419 83.6617 22.5057 82.6268L23.5015 66.4813C23.5015 66.4813 23.5015 66.4813 23.5015 66.4812C23.5348 65.942 23.3416 65.4071 22.9716 65.0136C22.6015 64.62 22.0795 64.3943 21.5393 64.3943H17.044V64.3945ZM19.9142 81.8369H18.6691L17.756 67.0298H20.8276L19.9142 81.8369Z" fill="#298D3F"/>
<path d="M64.1491 51.2818H56.3545L56.9199 50.7163C57.0817 50.743 57.246 50.7597 57.4132 50.7597C58.2105 50.7597 58.9606 50.4491 59.5245 49.8852L65.1711 44.2388C67.2191 42.1907 67.219 38.8584 65.1709 36.8104C64.1788 35.8183 62.8598 35.272 61.4567 35.272C60.0536 35.272 58.7347 35.8183 57.7424 36.8104L52.0961 42.4567C51.5321 43.0208 51.2215 43.7705 51.2215 44.5682C51.2215 44.7606 51.2404 44.9503 51.2758 45.1352L45.1292 51.2816H22.4106L16.264 45.1352C16.2994 44.9501 16.3183 44.7606 16.3183 44.5682C16.3183 43.7706 16.0077 43.0208 15.4438 42.4569L9.79738 36.8104C8.80527 35.8183 7.48621 35.272 6.08312 35.272C4.68004 35.272 3.36115 35.8183 2.36887 36.8104H2.36869C0.32084 38.8584 0.320664 42.1907 2.36887 44.2388L8.01531 49.885C8.57922 50.4491 9.3291 50.7597 10.1266 50.7597C10.2938 50.7597 10.4581 50.743 10.6199 50.7163L11.1854 51.2818H3.85176C2.15652 51.2818 0.777344 52.661 0.777344 54.3562V59.2487C0.777344 60.9439 2.15652 62.3231 3.85176 62.3231H5.47264L11.2013 87.4618C11.5417 88.9561 12.8498 89.9999 14.3825 89.9999H43.3742C44.102 89.9999 44.6919 89.41 44.6919 88.6822C44.6919 87.9545 44.102 87.3646 43.3742 87.3646H14.3826C14.0879 87.3646 13.8363 87.164 13.7709 86.8764L8.17562 62.3231H20.3761C21.1038 62.3231 21.6937 61.7332 21.6937 61.0055C21.6937 60.2777 21.1038 59.6878 20.3761 59.6878H3.85193C3.60971 59.6878 3.41266 59.4908 3.41266 59.2485V54.356C3.41266 54.1138 3.60953 53.9167 3.85193 53.9167H64.1491C64.3913 53.9167 64.5884 54.1138 64.5884 54.356V59.2485C64.5884 59.4908 64.3915 59.6878 64.1491 59.6878H26.8891C26.1614 59.6878 25.5715 60.2777 25.5715 61.0055C25.5715 61.7332 26.1614 62.3231 26.8891 62.3231H59.8253L54.2301 86.8763C54.1646 87.1637 53.9128 87.3646 53.6182 87.3646H49.548C48.8203 87.3646 48.2304 87.9545 48.2304 88.6822C48.2304 89.41 48.8203 89.9999 49.548 89.9999H53.6182C55.1507 89.9999 56.459 88.9563 56.7995 87.462L62.5281 62.3231H64.1491C65.8444 62.3231 67.2235 60.9439 67.2235 59.2487V54.3562C67.2235 52.661 65.8444 51.2818 64.1491 51.2818ZM53.9596 44.3203L59.6061 38.6739C60.1003 38.1796 60.7576 37.9073 61.4567 37.9073C62.1558 37.9073 62.8132 38.1796 63.3075 38.6739C64.3281 39.6945 64.3281 41.3549 63.3075 42.3755L57.6609 48.0219C57.5761 48.1068 57.4793 48.1246 57.4132 48.1246C57.3467 48.1246 57.2501 48.1068 57.1653 48.0219L53.9594 44.8162C53.8745 44.7313 53.8568 44.6346 53.8568 44.5683C53.8568 44.5019 53.8745 44.4052 53.9596 44.3203ZM52.7773 47.3608L54.6629 49.2464L52.6275 51.2818H48.8561L52.7773 47.3608ZM4.2325 42.3755C3.21191 41.3549 3.21191 39.6945 4.2325 38.6739H4.23232C4.7268 38.1796 5.38422 37.9073 6.0833 37.9073C6.78238 37.9073 7.43963 38.1796 7.93393 38.6739L13.5805 44.3203C13.6654 44.4052 13.6832 44.5019 13.6832 44.5682C13.6832 44.6344 13.6654 44.7311 13.5804 44.816L10.3746 48.0217C10.2899 48.1066 10.1931 48.1244 10.1268 48.1244C10.0605 48.1244 9.96385 48.1066 9.87895 48.0217L4.2325 42.3755ZM12.8771 49.2464L14.7627 47.3608L18.6837 51.2818H14.9124L12.8771 49.2464Z" fill="#298D3F"/>
<path d="M33.79 13.1322C25.4 13.1322 18.5742 19.958 18.5742 28.3478C18.5742 36.7377 25.4 43.5634 33.79 43.5634C42.1799 43.5634 49.0057 36.7377 49.0057 28.3478C49.0057 19.958 42.1799 13.1322 33.79 13.1322ZM33.79 40.9283C26.8532 40.9283 21.2095 35.2847 21.2095 28.3478C21.2095 21.411 26.8532 15.7675 33.79 15.7675C40.7269 15.7675 46.3703 21.4111 46.3703 28.348C46.3703 35.2849 40.7271 40.9283 33.79 40.9283Z" fill="#298D3F"/>
<path d="M40.2311 23.7783L37.067 23.3185L35.6518 20.4511C35.2995 19.7374 34.5862 19.2939 33.7902 19.2939C32.9943 19.2939 32.281 19.7374 31.9287 20.4511L30.5137 23.3185L27.3494 23.7781C26.5618 23.8926 25.9196 24.434 25.6735 25.1911C25.4274 25.948 25.6287 26.7634 26.1988 27.3189L28.4887 29.551L27.948 32.7024C27.8137 33.4867 28.1301 34.2647 28.774 34.7325C29.4179 35.2004 30.2558 35.2609 30.9602 34.8905L33.7902 33.4027L36.6203 34.8905C36.9267 35.0517 37.2584 35.1311 37.5884 35.1311C38.0169 35.1311 38.4427 34.9968 38.8065 34.7326C39.4504 34.2647 39.767 33.4869 39.6323 32.7022L39.092 29.5508L41.3815 27.3191C41.9516 26.7634 42.1529 25.9481 41.9071 25.1909C41.6609 24.4341 41.0187 23.8927 40.2311 23.7783ZM37.042 27.8691C36.5525 28.346 36.3294 29.0329 36.4449 29.7065L36.8434 32.0307L34.756 30.9333C34.1515 30.6153 33.4294 30.6155 32.8242 30.9333L30.7371 32.0307L31.1358 29.7058C31.2509 29.0324 31.0275 28.3458 30.5385 27.8693L28.8499 26.2232L31.1838 25.8842C31.8598 25.7857 32.4441 25.3614 32.7466 24.7486L33.7902 22.634L34.8335 24.7479C35.1357 25.3609 35.72 25.7855 36.3967 25.8842L38.7302 26.2232L37.042 27.8691Z" fill="#298D3F"/>
<path d="M6.33053 42.1867C7.08262 42.1867 7.6923 41.577 7.6923 40.8249C7.6923 40.0728 7.08262 39.4631 6.33053 39.4631C5.57844 39.4631 4.96875 40.0728 4.96875 40.8249C4.96875 41.577 5.57844 42.1867 6.33053 42.1867Z" fill="#298D3F"/>
<path d="M61.2094 42.1867C61.9615 42.1867 62.5712 41.577 62.5712 40.8249C62.5712 40.0728 61.9615 39.4631 61.2094 39.4631C60.4573 39.4631 59.8477 40.0728 59.8477 40.8249C59.8477 41.577 60.4573 42.1867 61.2094 42.1867Z" fill="#298D3F"/>
</svg>
