<svg width="98" height="98" viewBox="0 0 98 98" fill="none" xmlns="http://www.w3.org/2000/svg">
<g clip-path="url(#clip0)">
<path fill-rule="evenodd" clip-rule="evenodd" d="M82.6876 13.7784C85.8613 13.7784 88.4338 11.2069 88.4338 8.03988C88.4338 4.86732 85.8613 2.29578 82.6876 2.29578C79.5139 2.29578 76.9414 4.86732 76.9414 8.03988C76.9414 11.2071 79.5139 13.7784 82.6876 13.7784Z" fill="#F09300"/>
<path fill-rule="evenodd" clip-rule="evenodd" d="M29.7221 53.1801L23.0405 42.9276C0.245173 25.0719 -8.98099 58.2396 17.7565 55.0668L29.7221 53.1801Z" fill="#F09300"/>
<path fill-rule="evenodd" clip-rule="evenodd" d="M39.5271 42.9332C56.2813 21.8716 23.2128 12.2758 26.42 41.0463L31.9935 50.6476L39.5271 42.9332Z" fill="#F09300"/>
<path fill-rule="evenodd" clip-rule="evenodd" d="M20.8268 53.3524L30.2032 51.5713L36.289 44.7364L34.3345 41.2354C33.967 40.5732 33.4382 40.0609 32.8257 39.7103C31.6453 39.0367 30.142 38.9757 28.8724 39.6825L26.4224 41.0461L23.0425 42.9274L20.4256 44.3913C19.2117 45.0649 18.488 46.2838 18.3821 47.575C18.3153 48.3375 18.4712 49.1279 18.8721 49.8458L20.8268 53.3524Z" fill="#FECE85"/>
<path fill-rule="evenodd" clip-rule="evenodd" d="M41.9407 54.8719L58.344 45.7327C59.6971 44.9757 60.1871 43.2559 59.4354 41.9032L56.5232 36.6824C55.766 35.3299 54.0454 34.8401 52.6924 35.5971L39.5296 42.933L36.2891 44.7364V51.5713L41.9407 54.8719Z" fill="#B4E66E"/>
<path fill-rule="evenodd" clip-rule="evenodd" d="M42.403 95.7039L46.5289 77.0134L42.403 59.3137H33.9731L23.6555 58.4231L21.5898 66.2154V92.0415C21.5898 94.0564 23.238 95.7039 25.2536 95.7039H42.403Z" fill="#BAF16D"/>
<path fill-rule="evenodd" clip-rule="evenodd" d="M10.0763 72.6329L26.4796 63.4881L26.9474 56.6531L20.8281 53.3525L17.7601 55.0668L4.41906 62.4974C3.07156 63.2488 2.58156 64.9686 3.33322 66.3211L6.24546 71.5474C6.99711 72.8944 8.72322 73.3842 10.0763 72.6329Z" fill="#B4E66E"/>
<path fill-rule="evenodd" clip-rule="evenodd" d="M76.9216 92.0413V68.2079V61.3617C76.9216 60.2374 75.9973 59.3135 74.8726 59.3135H56.1085L51.2031 77.5141L56.1085 95.7036H73.2579C75.2734 95.7036 76.9216 94.0562 76.9216 92.0413Z" fill="#BAF16D"/>
<path fill-rule="evenodd" clip-rule="evenodd" d="M39.5305 42.9331C51.0285 28.4783 39.0572 19.4225 31.457 24.4653C37.721 24.8159 43.1443 32.3189 35.3768 43.1058L36.29 44.7365L39.5305 42.9331Z" fill="#F09300"/>
<path fill-rule="evenodd" clip-rule="evenodd" d="M23.0391 42.9274C10.0323 32.7418 1.44653 39.1594 1.42969 45.9666C4.13579 42.0481 10.4499 40.1836 19.0079 45.716C19.3532 45.1816 19.8263 44.7198 20.4222 44.3913L23.0391 42.9274Z" fill="#F09300"/>
<path fill-rule="evenodd" clip-rule="evenodd" d="M35.3747 43.1054L34.3334 41.2352C33.9659 40.5729 33.4371 40.0607 32.8246 39.71C31.6442 39.0365 30.1408 38.9754 28.8713 39.6823L26.4213 41.0459L24.0938 42.3426C25.3632 41.6358 26.8611 41.697 28.0471 42.3704C28.6596 42.7211 29.1884 43.2386 29.5559 43.8955L31.5104 47.4021L36.2877 44.736L35.3747 43.1054Z" fill="#FDB440"/>
<path fill-rule="evenodd" clip-rule="evenodd" d="M58.3423 45.7325C59.6954 44.9755 60.1854 43.2557 59.4337 41.903L56.5215 36.6824C55.7643 35.3299 54.0437 34.8401 52.6907 35.5971L46.1094 39.2651C47.4624 38.508 49.183 38.9979 49.9346 40.3503L52.8467 45.5711C53.5983 46.9236 53.1139 48.638 51.7721 49.3948L58.3423 45.7325Z" fill="#B4E66E"/>
<path fill-rule="evenodd" clip-rule="evenodd" d="M41.9381 54.8721L36.2866 44.7366L20.8242 53.3527L26.4757 63.4882C31.6371 60.6105 36.7764 57.7497 41.9381 54.8721Z" fill="#F09300"/>
<path fill-rule="evenodd" clip-rule="evenodd" d="M42.4023 59.3135H56.1107V95.7036H42.4023V59.3135Z" fill="#F09300"/>
<path fill-rule="evenodd" clip-rule="evenodd" d="M76.9222 68.2079V61.3617C76.9222 60.2374 75.9979 59.3135 74.8732 59.3135H66.6046C67.7293 59.3135 68.6536 60.2374 68.6536 61.3617V68.2079V92.0413C68.6536 94.0562 66.9999 95.7036 64.9844 95.7036H73.2585C75.2742 95.7036 76.9222 94.0562 76.9222 92.0413V68.2079Z" fill="#B4E66E"/>
<path fill-rule="evenodd" clip-rule="evenodd" d="M65.2802 14.8026L68.0977 11.4075C68.6767 10.7508 68.6378 10.5559 67.7859 10.3444L63.4094 9.25913C62.9138 9.13663 62.8861 9.00303 62.6411 8.60242L60.4305 4.91211C59.9851 4.16065 59.7122 4.16065 59.2612 4.91211L57.0507 8.60242C56.8112 9.00322 56.7779 9.13683 56.2823 9.25913L51.9058 10.3444C51.0594 10.5559 51.015 10.7508 51.594 11.4075L54.4171 14.8026C54.7178 15.1644 54.7624 15.5874 54.7233 16.0996L54.3836 20.2964C54.2889 21.1646 54.4726 21.2705 55.2857 20.942L59.1332 19.339C59.534 19.1721 60.1633 19.1721 60.5586 19.339L64.4116 20.942C65.2245 21.2705 65.4027 21.1646 65.3079 20.2964L64.9739 16.0996C64.9349 15.5874 64.9739 15.1644 65.2802 14.8026Z" fill="#FECE85"/>
<path fill-rule="evenodd" clip-rule="evenodd" d="M60.0067 11.3016C59.4333 14.9751 58.2138 18.1756 56.7383 20.3352L59.1326 19.3389C59.5334 19.172 60.1627 19.172 60.558 19.3389L64.411 20.942C65.2239 21.2704 65.4021 21.1646 65.3074 20.2964L64.9734 16.0996C64.9343 15.5876 64.9734 15.1646 65.2796 14.8026L68.0971 11.4075C68.6761 10.7507 68.6373 10.5559 67.7853 10.3444L63.4088 9.25911C62.9132 9.13661 62.8855 9.00301 62.6405 8.60239L60.4299 4.91208C60.3576 4.78958 60.2908 4.68947 60.2295 4.61157C60.441 6.60947 60.3853 8.90271 60.0067 11.3016Z" fill="#FDB440"/>
<path fill-rule="evenodd" clip-rule="evenodd" d="M93.3531 47.8034L96.1704 44.4082C96.755 43.7515 96.7106 43.5566 95.8586 43.3451L91.4821 42.2599C90.9921 42.1374 90.9588 42.0038 90.7194 41.6032L88.5088 37.9128C88.0579 37.1614 87.7849 37.1614 87.3395 37.9128L85.1234 41.6032C84.884 42.004 84.8507 42.1376 84.3607 42.2599L79.9842 43.3451C79.1322 43.5566 79.0878 43.7515 79.6724 44.4082L82.4899 47.8034C82.7961 48.1651 82.8352 48.5881 82.7961 49.1002L82.4566 53.2914C82.3676 54.1651 82.5456 54.271 83.3587 53.9425L87.2061 52.3395C87.6069 52.1726 88.2363 52.1726 88.6371 52.3395L92.4845 53.9425C93.2974 54.271 93.4756 54.1651 93.3866 53.2914L93.0471 49.1002C93.008 48.5881 93.0469 48.1651 93.3531 47.8034Z" fill="#FECE85"/>
<path fill-rule="evenodd" clip-rule="evenodd" d="M88.0865 44.3023C87.5075 47.9758 86.2936 51.1763 84.8125 53.3359L87.2068 52.3397C87.6076 52.1728 88.237 52.1728 88.6378 52.3397L92.4852 53.9427C93.2981 54.2712 93.4763 54.1653 93.3873 53.2915L93.0478 49.1003C93.0087 48.5883 93.0478 48.1653 93.354 47.8035L96.1713 44.4084C96.7559 43.7517 96.7115 43.5568 95.8595 43.3453L91.483 42.26C90.993 42.1375 90.9597 42.0039 90.7203 41.6033L88.5097 37.913C88.4374 37.7905 88.3706 37.6904 88.3038 37.6069C88.5208 39.6102 88.4596 41.9034 88.0865 44.3023Z" fill="#FDB440"/>
<path fill-rule="evenodd" clip-rule="evenodd" d="M88.4317 8.04012C88.4317 4.86756 85.8592 2.29602 82.6855 2.29602C81.6387 2.29602 80.6587 2.57433 79.8125 3.06413C81.5331 4.05485 82.6855 5.91398 82.6855 8.04012C82.6855 10.1607 81.5329 12.0198 79.8125 13.0106C80.6589 13.5004 81.6389 13.7787 82.6855 13.7787C85.8592 13.7785 88.4317 11.2071 88.4317 8.04012Z" fill="#F09300"/>
<path d="M74.8743 57.8782H39.4986L59.0439 46.9857C61.087 45.8426 61.825 43.25 60.6879 41.2043L57.7747 35.9812C56.6293 33.935 54.0342 33.2012 51.9925 34.3431L43.8621 38.8735C44.8182 36.9549 45.4133 35.0735 45.6334 33.2464C46.0001 30.204 45.3097 27.458 43.6368 25.3053C40.9179 21.8066 36.1705 20.6436 32.0914 22.4767C31.3683 22.8017 31.0456 23.6514 31.3706 24.3747C31.6956 25.0976 32.5452 25.4205 33.2685 25.0955C36.1352 23.807 39.4667 24.6178 41.3698 27.067C44.1027 30.5839 43.0544 36.0849 38.5764 41.8189L36.8427 42.7849L35.588 40.5372C35.2659 39.9582 34.8476 39.4531 34.3557 39.036C34.6606 37.2104 35.5107 34.8477 36.4505 33.3044C36.8628 32.6272 36.6482 31.744 35.971 31.3317C35.2938 30.9192 34.4107 31.1342 33.9984 31.8112C32.987 33.472 32.1105 35.7735 31.6697 37.8097C30.4673 37.6177 29.2465 37.8294 28.1724 38.4283L27.676 38.7051C27.4791 34.5628 28.1212 31.0961 29.5683 28.596C29.9654 27.9098 29.7312 27.0316 29.045 26.6344C28.3592 26.2376 27.4806 26.4715 27.0834 27.1577C25.1633 30.4756 24.4315 34.8779 24.9014 40.2518L23.1678 41.2182C15.8431 35.7733 8.6759 34.6601 3.8672 38.2675C0.385908 40.8789 -0.925608 45.5 0.677994 49.5052C2.31413 53.5913 6.40525 56.0796 12.0414 56.605L3.71772 61.2432C1.67579 62.3818 0.939455 64.9725 2.07717 67.0194L4.9898 72.2469C5.76595 73.6377 7.21643 74.4226 8.70959 74.4226C9.40899 74.4226 10.1178 74.2504 10.771 73.8876C10.7716 73.8875 10.7722 73.8871 10.7728 73.8867L20.153 68.6592V92.0414C20.153 94.8524 22.4405 97.1393 25.2523 97.1393H73.2596C76.0714 97.1393 78.3591 94.8524 78.3591 92.0414V61.362C78.3589 59.4411 76.7957 57.8782 74.8743 57.8782ZM27.0335 61.5381L22.7793 53.9087L35.7337 46.6902L39.9875 54.3188L33.5099 57.9288C33.2787 57.9908 33.0708 58.1087 32.9014 58.2679L27.0335 61.5381ZM53.3924 36.8502C53.6041 36.7317 53.834 36.6754 54.0612 36.6754C54.5451 36.6754 55.0157 36.9305 55.2686 37.3817L58.1795 42.6008C58.5485 43.2646 58.3074 44.1077 57.6443 44.4787L42.4955 52.921L38.2419 45.2923L53.3924 36.8502ZM29.5706 40.9365C29.9557 40.7217 30.3814 40.6126 30.814 40.6126C31.0526 40.6126 31.2932 40.6459 31.5302 40.7131C32.1965 40.9022 32.7466 41.3356 33.0802 41.9354L34.3343 44.182L21.3809 51.4001L20.1249 49.1467C19.8776 48.7036 19.7708 48.2065 19.8092 47.7083C19.8106 47.6945 19.8123 47.6809 19.8133 47.6671C19.8282 47.5082 19.8565 47.3494 19.9013 47.1922C20.0902 46.528 20.524 45.9791 21.1236 45.6457L29.5706 40.9365ZM3.34333 48.4383C2.22149 45.6363 3.14522 42.3986 5.59005 40.5648C9.11097 37.9237 14.55 38.764 20.3942 42.765L19.7273 43.1367C18.6715 43.7237 17.8596 44.6264 17.386 45.7201C15.4903 45.1231 13.788 44.7954 11.3493 44.5284C10.5605 44.4427 9.85229 45.0111 9.76596 45.7992C9.67964 46.5874 10.2487 47.2962 11.0367 47.3825C13.7193 47.6761 15.2974 48.0415 16.9747 48.6036C17.0624 49.2776 17.2769 49.9349 17.6173 50.5449L18.8733 52.7983L17.306 53.6717C10.1819 54.4505 4.97162 52.5053 3.34333 48.4383ZM9.3753 71.3791C8.72012 71.7416 7.86013 71.4991 7.49722 70.8491L4.58594 65.6239C4.2169 64.9601 4.45482 64.12 5.11575 63.7515L18.3938 56.3525C18.4359 56.3317 18.4767 56.3091 18.5161 56.2844L20.2715 55.3063L24.5257 62.9358L20.9135 64.949C20.9058 64.953 20.8983 64.9574 20.8907 64.9616L9.3753 71.3791ZM23.0241 92.0416V67.0594L34.3467 60.7493H40.9661V73.4625C40.9661 74.2553 41.6089 74.8981 42.4017 74.8981C43.1945 74.8981 43.8372 74.2553 43.8372 73.4625V60.7493H54.6745V94.2684H43.8372V80.264C43.8372 79.4712 43.1945 78.8284 42.4017 78.8284C41.6089 78.8284 40.9661 79.4712 40.9661 80.264V94.2684H25.2523C24.0236 94.2684 23.0241 93.2694 23.0241 92.0416ZM75.4878 92.0416C75.4878 93.2694 74.4883 94.2684 73.2596 94.2684H57.5457V60.7493H74.8743C75.2068 60.7493 75.4878 61.0299 75.4878 61.362V92.0416Z" fill="#298D3F"/>
<path d="M69.6113 25.7162C69.6304 25.8927 71.4523 43.4456 65.3062 50.1081C64.7685 50.6909 64.8053 51.5991 65.3879 52.1366C65.6639 52.3911 66.0129 52.5169 66.361 52.5169C66.7479 52.5169 67.1336 52.3615 67.4166 52.0547C74.4376 44.4436 72.5496 26.1806 72.4657 25.4067C72.3804 24.6185 71.6726 24.0496 70.884 24.134C70.0958 24.2198 69.5259 24.928 69.6113 25.7162Z" fill="#298D3F"/>
<path d="M82.7405 23.5829C80.3119 27.3015 79.5404 30.6203 79.5086 30.7598C79.3333 31.532 79.8166 32.2987 80.5883 32.4756C80.6961 32.5001 80.8034 32.512 80.9095 32.512C81.5631 32.512 82.1544 32.0618 82.3077 31.398C82.3146 31.3681 83.0251 28.365 85.2002 25.0674C88.0623 20.7284 91.9965 17.9356 96.8932 16.7667C97.6644 16.5828 98.1404 15.8083 97.9563 15.0371C97.7724 14.266 96.9981 13.7901 96.2268 13.9741C90.6383 15.308 85.9747 18.6306 82.7405 23.5829Z" fill="#298D3F"/>
<path d="M53.2965 15.6968C53.3015 15.7316 53.308 15.8151 53.2952 15.9835L52.9571 20.1604C52.9091 20.6033 52.8142 21.5948 53.6234 22.2071C54.4465 22.8299 55.4133 22.4395 55.8407 22.267L59.6772 20.668C59.7532 20.6435 59.9406 20.6427 60.0099 20.6642L63.8769 22.2728C64.1201 22.3711 64.5562 22.5472 65.0416 22.5472C65.3784 22.5472 65.7392 22.4624 66.0757 22.2077C66.8827 21.5969 66.7883 20.6052 66.7403 20.1612L66.4084 15.9902C66.3956 15.8222 66.4002 15.7368 66.4046 15.6989L69.1916 12.3403C69.5136 11.9747 70.1492 11.2346 69.8499 10.2748C69.5461 9.30116 68.5569 9.05559 68.1343 8.9507L63.897 7.89969L61.6684 4.17971C61.4634 3.83384 60.9191 2.91547 59.8556 2.9126C59.8539 2.9126 59.8522 2.9126 59.8506 2.9126C58.79 2.9126 58.2405 3.8279 58.0334 4.17301C58.0332 4.17339 58.033 4.17377 58.0328 4.17416L55.8215 7.86581L55.8014 7.89988L51.561 8.95147C51.1395 9.05674 50.1523 9.30346 49.8495 10.277C49.5509 11.2365 50.208 12.0021 50.5066 12.3411L53.2965 15.6968ZM56.6293 10.6525C57.5865 10.4159 57.9318 9.9418 58.2285 9.43534L59.8485 6.72924L61.4835 9.45831C61.7789 9.95424 62.1222 10.4188 63.0666 10.6521L66.2139 11.4327L64.1871 13.875C63.5208 14.6625 63.494 15.5355 63.5457 16.2132L63.7773 19.1218L61.1198 18.0163C60.3649 17.6974 59.3459 17.6964 58.5837 18.0136L55.9216 19.123L56.1574 16.2084C56.2041 15.5946 56.1894 14.6858 55.5235 13.8848L53.4845 11.4325L56.6293 10.6525Z" fill="#298D3F"/>
<path d="M97.2623 45.344C97.5649 45.0037 98.2232 44.2404 97.9261 43.2805C97.6239 42.3035 96.6312 42.057 96.2071 41.9517L91.9757 40.9023L89.7427 37.1739C89.5356 36.8289 88.9861 35.9135 87.9255 35.9135C87.9238 35.9135 87.9221 35.9135 87.9205 35.9135C86.8609 35.9163 86.3165 36.8284 86.1098 37.1769L83.8943 40.8665L83.8732 40.9023L79.6414 41.9517C79.2177 42.0568 78.225 42.3034 77.9228 43.2803C77.6259 44.2402 78.284 45.0035 78.5866 45.3437L81.3716 48.6998C81.376 48.7375 81.3808 48.8213 81.3683 48.9842L81.0299 53.1605C80.9849 53.6021 80.8929 54.6018 81.7042 55.2114C82.5256 55.8285 83.4881 55.4398 83.9136 55.2677L87.7506 53.6687C87.8287 53.6436 88.0204 53.6436 88.088 53.6647L91.9498 55.2734C92.1929 55.3716 92.6286 55.5477 93.1142 55.5477C93.4497 55.5477 93.8091 55.4635 94.1451 55.2112C94.9564 54.6016 94.8644 53.6021 94.8194 53.1603L94.4816 48.9909C94.4687 48.823 94.4733 48.7377 94.4777 48.6996L97.2623 45.344ZM92.2603 46.8759C91.5938 47.6631 91.567 48.5363 91.6187 49.2162L91.8543 52.1236L89.1919 51.0143C88.4337 50.6984 87.4148 50.6986 86.6569 51.0143L83.9944 52.1236L84.2306 49.2091C84.2819 48.5363 84.2551 47.6631 83.5976 46.8864L81.5622 44.4333L84.7118 43.6522C85.6616 43.4149 86.0053 42.9421 86.301 42.4373L87.9267 39.7288L89.4903 42.3392L89.5483 42.4373C89.8438 42.9423 90.1877 43.415 91.14 43.6528L94.2873 44.4333L92.2603 46.8759Z" fill="#298D3F"/>
<path d="M82.6857 15.2142C86.6457 15.2142 89.8674 11.9959 89.8674 8.04012C89.8674 4.08127 86.6457 0.860474 82.6857 0.860474C78.7257 0.860474 75.5039 4.08127 75.5039 8.04012C75.5039 11.9959 78.7257 15.2142 82.6857 15.2142ZM82.6857 3.73157C85.0625 3.73157 86.9963 5.66439 86.9963 8.04012C86.9963 10.4128 85.0625 12.3431 82.6857 12.3431C80.3088 12.3431 78.3752 10.4128 78.3752 8.04012C78.375 5.66439 80.3088 3.73157 82.6857 3.73157Z" fill="#298D3F"/>
</g>
<defs>
<clipPath id="clip0">
<rect width="98" height="98" fill="white"/>
</clipPath>
</defs>
</svg>
