<svg width="87" height="83" viewBox="0 0 87 83" fill="none" xmlns="http://www.w3.org/2000/svg">
<path d="M57.841 9.75049H46.3398V16.3869H57.841V9.75049Z" fill="#298D3F"/>
<path d="M46.0386 9.7505H58.1426C60.3709 9.7505 62.1773 7.94414 62.1773 5.71583C62.1773 3.48751 60.3709 1.68115 58.1426 1.68115H46.0386C43.8103 1.68115 42.0039 3.48751 42.0039 5.71583C42.0039 7.94414 43.8103 9.7505 46.0386 9.7505Z" fill="#F09300"/>
<path d="M52.1172 80.9415C69.9435 80.9415 84.3946 66.4904 84.3946 48.6641C84.3946 30.8378 69.9435 16.3867 52.1172 16.3867C34.2909 16.3867 19.8398 30.8378 19.8398 48.6641C19.8398 66.4904 34.2909 80.9415 52.1172 80.9415Z" fill="#B4E66E"/>
<path d="M52.1166 73.0619C65.5911 73.0619 76.5144 62.1386 76.5144 48.6641C76.5144 35.1895 65.5911 24.2662 52.1166 24.2662C38.642 24.2662 27.7188 35.1895 27.7188 48.6641C27.7188 62.1386 38.642 73.0619 52.1166 73.0619Z" fill="white"/>
<path d="M52.1169 52.2072C54.0735 52.2072 55.6597 50.621 55.6597 48.6644C55.6597 46.7078 54.0735 45.1217 52.1169 45.1217C50.1604 45.1217 48.5742 46.7078 48.5742 48.6644C48.5742 50.621 50.1604 52.2072 52.1169 52.2072Z" fill="#FF838E"/>
<path d="M85.9058 45.2865C85.1329 37.5134 81.6603 30.1852 76.1271 24.6519C71.3984 19.9234 65.6107 16.8848 59.5207 15.5337V11.2623C62.008 10.6435 63.8569 8.39195 63.8569 5.71579C63.8569 2.56403 61.2929 0 58.1412 0H46.0371C42.8854 0 40.3213 2.56403 40.3213 5.71579C40.3213 8.39178 42.1702 10.6433 44.6574 11.2623V15.5456C38.5861 16.9024 32.8175 19.9368 28.1023 24.652C27.0705 25.6839 26.119 26.7664 25.248 27.8914C25.2058 27.8882 25.1636 27.885 25.1205 27.885H13.1408C12.2125 27.885 11.4596 28.6376 11.4596 29.5661C11.4596 30.4946 12.2125 31.2472 13.1408 31.2472H22.9605C21.7279 33.3108 20.734 35.4779 19.9775 37.7087H1.68111C0.752803 37.7087 0 38.4614 0 39.3898C0 40.3183 0.752803 41.071 1.68111 41.071H19.0275C18.543 43.1977 18.265 45.3622 18.1932 47.5327H10.7591C9.83082 47.5327 9.07801 48.2853 9.07801 49.2138C9.07801 50.1422 9.83082 50.8949 10.7591 50.8949H18.2468C18.3887 53.0709 18.7385 55.2355 19.2965 57.3566H8.40557C7.47726 57.3566 6.72446 58.1092 6.72446 59.0377C6.72446 59.9662 7.47726 60.7188 8.40557 60.7188H20.3694C22.0186 65.0815 24.5959 69.1704 28.1023 72.6769C33.6409 78.2155 40.9766 81.689 48.7578 82.4578C49.8684 82.5674 50.9798 82.6217 52.0896 82.6217C58.6497 82.6217 65.1264 80.7232 70.6219 77.1445C71.3999 76.6378 71.62 75.5963 71.1133 74.8183C70.6066 74.0403 69.5652 73.8202 68.7871 74.3269C56.7576 82.1604 40.647 80.4667 30.4798 70.2995C18.5503 58.37 18.5503 38.9593 30.4798 27.0296C42.4091 15.1003 61.8198 15.1003 73.7495 27.0296C83.9032 37.1836 85.6062 53.2804 77.7986 65.304C77.2929 66.0827 77.5143 67.124 78.2928 67.6295C79.0719 68.1352 80.1128 67.9138 80.6183 67.1351C84.7898 60.7107 86.6676 52.9516 85.9058 45.2865ZM43.6836 5.71596C43.6836 4.41814 44.7393 3.3624 46.0371 3.3624H58.1412C59.439 3.3624 60.4947 4.41814 60.4947 5.71596C60.4947 7.01377 59.439 8.06951 58.1412 8.06951H57.8396H46.3386H46.0371C44.7393 8.06951 43.6836 7.01361 43.6836 5.71596ZM48.0197 14.9676V11.4317H56.1584V14.9616C53.4559 14.6401 50.7217 14.6422 48.0197 14.9676Z" fill="#298D3F"/>
<path d="M74.9389 69.8064C74.4951 69.8064 74.0631 69.9863 73.7505 70.299C73.4362 70.6116 73.2578 71.0454 73.2578 71.4875C73.2578 71.9296 73.4362 72.3633 73.7505 72.676C74.0631 72.9904 74.4953 73.1686 74.9389 73.1686C75.381 73.1686 75.8131 72.9904 76.1274 72.676C76.4401 72.3633 76.62 71.9296 76.62 71.4875C76.62 71.0454 76.4403 70.6116 76.1274 70.299C75.8131 69.9863 75.3809 69.8064 74.9389 69.8064Z" fill="#298D3F"/>
<path d="M52.1141 22.5851C37.7342 22.5851 26.0352 34.284 26.0352 48.664C26.0352 63.0441 37.7342 74.743 52.1141 74.743C66.494 74.743 78.1931 63.0441 78.1931 48.664C78.1931 34.284 66.494 22.5851 52.1141 22.5851ZM52.1141 71.3808C39.588 71.3808 29.3974 61.19 29.3974 48.664C29.3974 36.1381 39.588 25.9473 52.1141 25.9473C64.6403 25.9473 74.8308 36.1381 74.8308 48.664C74.8308 61.19 64.6403 71.3808 52.1141 71.3808Z" fill="#298D3F"/>
<path d="M62.749 35.6528L54.4224 43.9791C53.7261 43.6349 52.9429 43.4403 52.1149 43.4403C51.2868 43.4403 50.5037 43.6349 49.8074 43.9791L46.0809 40.2526C45.4243 39.5961 44.3601 39.5961 43.7033 40.2526C43.0468 40.9091 43.0468 41.9736 43.7033 42.6301L47.4298 46.3566C47.0854 47.0529 46.891 47.8361 46.891 48.6641C46.891 51.5445 49.2343 53.888 52.1149 53.888C54.9955 53.888 57.3388 51.5445 57.3388 48.6641C57.3388 47.8361 57.1443 47.0529 56.8 46.3566L64.8821 38.2745L65.1264 38.0302C65.7829 37.3737 65.7829 36.3092 65.1264 35.6528C64.4699 34.9963 63.4058 34.9963 62.749 35.6528ZM52.1149 50.5259C51.0884 50.5259 50.2533 49.6907 50.2533 48.6642C50.2533 47.6378 51.0884 46.8026 52.1149 46.8026C53.1414 46.8026 53.9766 47.6378 53.9766 48.6642C53.9766 49.6907 53.1414 50.5259 52.1149 50.5259Z" fill="#298D3F"/>
<path d="M70.0902 47.0034H68.5327C67.6044 47.0034 66.8516 47.756 66.8516 48.6845C66.8516 49.613 67.6044 50.3656 68.5327 50.3656H70.0902C71.0185 50.3656 71.7713 49.613 71.7713 48.6845C71.7713 47.756 71.0185 47.0034 70.0902 47.0034Z" fill="#298D3F"/>
<path d="M35.6994 46.9626H34.142C33.2137 46.9626 32.4609 47.7153 32.4609 48.6437C32.4609 49.5722 33.2137 50.3248 34.142 50.3248H35.6994C36.6277 50.3248 37.3805 49.5722 37.3805 48.6437C37.3805 47.7153 36.6277 46.9626 35.6994 46.9626Z" fill="#298D3F"/>
<path d="M52.1381 33.9282C53.0664 33.9282 53.8192 33.1756 53.8192 32.2471V30.6898C53.8192 29.7613 53.0664 29.0087 52.1381 29.0087C51.2098 29.0087 50.457 29.7613 50.457 30.6898V32.2471C50.457 33.1756 51.2098 33.9282 52.1381 33.9282Z" fill="#298D3F"/>
<path d="M52.0912 63.3999C51.1629 63.3999 50.4102 64.1525 50.4102 65.081V66.6384C50.4102 67.5668 51.1629 68.3194 52.0912 68.3194C53.0195 68.3194 53.7723 67.5668 53.7723 66.6384V65.081C53.7723 64.1525 53.0195 63.3999 52.0912 63.3999Z" fill="#298D3F"/>
<path d="M1.68109 57.356C1.23896 57.356 0.805241 57.5358 0.492559 57.8485C0.179876 58.1612 0 58.5949 0 59.037C0 59.4809 0.179708 59.9129 0.492559 60.2256C0.805409 60.5383 1.23896 60.7181 1.68109 60.7181C2.12321 60.7181 2.55693 60.5383 2.86945 60.2256C3.18213 59.9129 3.36217 59.4792 3.36217 59.037C3.36217 58.5949 3.1823 58.1612 2.86945 57.8485C2.55693 57.5358 2.12321 57.356 1.68109 57.356Z" fill="#298D3F"/>
</svg>
