<svg xmlns="http://www.w3.org/2000/svg" width="31.22" height="31.188" viewBox="0 0 31.22 31.188">
  <defs>
    <style>
      .cls-1 {
        fill: #fff;
        fill-rule: evenodd;
      }
    </style>
  </defs>
  <path id="action.svg" class="cls-1" d="M1413.45,306.344a15.594,15.594,0,1,1,15.61-15.594A15.6,15.6,0,0,1,1413.45,306.344Zm0-29.063a13.469,13.469,0,1,0,13.46,13.469A13.458,13.458,0,0,0,1413.45,277.281Zm5,21.719a3.607,3.607,0,1,1,3.55-3.607A3.579,3.579,0,0,1,1418.45,299Zm-0.02-5.2a1.608,1.608,0,1,0,1.58,1.608A1.588,1.588,0,0,0,1418.43,293.8Zm-10.94,4.1a0.982,0.982,0,0,1-1.4,0,1.019,1.019,0,0,1,0-1.414l13.42-13.576a0.982,0.982,0,0,1,1.4,0,1.019,1.019,0,0,1,0,1.414Zm1.06-8.681a3.607,3.607,0,1,1,3.55-3.607A3.579,3.579,0,0,1,1408.55,289.214Zm0.01-5.229a1.608,1.608,0,1,0,1.58,1.608A1.588,1.588,0,0,0,1408.56,283.985Z" transform="translate(-1397.84 -275.156)"/>
</svg>
