<svg width="92" height="92" viewBox="0 0 92 92" fill="none" xmlns="http://www.w3.org/2000/svg">
<circle cx="46" cy="46" r="46" fill="white"/>
<path d="M42.2299 44.3641C42.5107 44.3641 42.7887 44.3088 43.0481 44.2013C43.3075 44.0939 43.5432 43.9364 43.7418 43.7378C43.9403 43.5393 44.0978 43.3036 44.2052 43.0442C44.3127 42.7848 44.368 42.5068 44.368 42.226C44.368 41.9452 44.3127 41.6672 44.2052 41.4078C44.0978 41.1484 43.9403 40.9127 43.7418 40.7141C43.5432 40.5156 43.3075 40.3581 43.0481 40.2506C42.7887 40.1432 42.5107 40.0879 42.2299 40.0879C41.6628 40.0879 41.119 40.3132 40.718 40.7141C40.3171 41.1151 40.0918 41.6589 40.0918 42.226C40.0918 42.793 40.3171 43.3369 40.718 43.7378C41.119 44.1388 41.6628 44.3641 42.2299 44.3641Z" fill="#F78914"/>
<path fill-rule="evenodd" clip-rule="evenodd" d="M31.5494 53.6345V67.875H51.8699V60.142H56.9678C57.2861 60.142 57.5901 60.0791 57.8667 59.9663L55.0405 57.767H49.4949V65.5H33.9232V52.6774L33.2582 51.9874C31.3107 49.9627 27.5 45.2306 27.5 39.3453C27.5 37.4097 28.2303 34.4445 30.4284 31.9947C32.3676 29.8322 35.6213 27.88 41.0411 27.5499V35.9218C40.1039 36.0993 39.2182 36.4838 38.4485 37.047C37.6787 37.6102 37.0443 38.338 36.5914 39.1775C36.1386 40.0169 35.8787 40.9468 35.8307 41.8994C35.7827 42.852 35.9478 43.8033 36.3139 44.684C36.6801 45.5647 37.2382 46.3526 37.9474 46.9904C38.6566 47.6281 39.4992 48.0996 40.4137 48.3705C41.3282 48.6414 42.2917 48.7049 43.2338 48.5563C44.176 48.4078 45.0732 48.0509 45.8599 47.5117L62.5681 60.4828C62.4651 61.0765 62.5659 61.6875 62.854 62.2167C63.1421 62.7459 63.6006 63.1622 64.155 63.398C64.7095 63.6338 65.3274 63.6753 65.9084 63.5157C66.4895 63.3561 66.9995 63.0048 67.3557 62.5188C67.7119 62.0328 67.8933 61.4407 67.8706 60.8386C67.8479 60.2365 67.6224 59.6597 67.2306 59.202C66.8388 58.7442 66.3038 58.4323 65.7124 58.3169C65.1211 58.2014 64.508 58.2893 63.9729 58.5662L47.545 45.8113C48.1395 44.9302 48.5057 43.9153 48.6109 42.8577C48.716 41.8001 48.5567 40.733 48.1473 39.7522C47.7379 38.7714 47.0913 37.9077 46.2654 37.2387C45.4396 36.5696 44.4605 36.1163 43.4161 35.9194V27.5083C46.4359 27.5641 48.5282 27.9691 50.1112 28.5628C51.7879 29.1922 53.0312 30.0816 54.2841 31.243L54.4527 31.3998C55.6806 32.5374 56.0463 32.877 56.2541 33.4304L61.2808 46.8135H56.9678V50.243L59.3428 52.0896V49.1885H61.2808C61.6646 49.189 62.0428 49.0964 62.383 48.9187C62.7231 48.7409 63.0151 48.4833 63.2338 48.1679C63.4525 47.8525 63.5914 47.4888 63.6387 47.1079C63.6859 46.727 63.64 46.3403 63.505 45.9811L58.4771 32.5944C58.0627 31.49 57.2611 30.7537 56.2518 29.8275C56.1339 29.7193 56.0164 29.6109 55.8991 29.5021C53.0906 26.8967 49.8951 25.125 42.6976 25.125C28.6946 25.125 25.125 34.4766 25.125 39.3453C25.125 46.1936 29.4986 51.5065 31.5494 53.6345ZM42.2286 46.2625C42.7588 46.2626 43.2838 46.1582 43.7737 45.9554C44.2636 45.7526 44.7087 45.4552 45.0837 45.0804C45.4587 44.7055 45.7561 44.2605 45.9591 43.7706C46.1621 43.2808 46.2666 42.7558 46.2667 42.2256C46.2667 41.6954 46.1624 41.1703 45.9595 40.6805C45.7567 40.1906 45.4594 39.7454 45.0845 39.3705C44.7097 38.9955 44.2646 38.698 43.7748 38.4951C43.285 38.2921 42.76 38.1876 42.2297 38.1875C41.1589 38.1875 40.132 38.6129 39.3748 39.3701C38.6176 40.1272 38.1922 41.1542 38.1922 42.225C38.1922 43.2958 38.6176 44.3228 39.3748 45.0799C40.132 45.8371 41.1589 46.2625 42.2297 46.2625H42.2286Z" fill="#F78914"/>
</svg>
