<svg xmlns="http://www.w3.org/2000/svg" width="35.97" height="34" viewBox="0 0 35.97 34">
  <defs>
    <style>
      .cls-1 {
        fill: #298d3f;
        fill-rule: evenodd;
      }
    </style>
  </defs>
  <path id="cart.svg" class="cls-1" d="M1361.99,90h-1.01L1359,101a1.185,1.185,0,0,1-1,1h-20a1.053,1.053,0,0,0-1.03,1.027A1.007,1.007,0,0,0,1338,104h18a3,3,0,1,1-3,3,3.049,3.049,0,0,1,0-1l-10.25.009a2.949,2.949,0,1,1-5.57-.1,2.993,2.993,0,0,1-.35-5.645L1335,90h-1a0.927,0.927,0,0,1-.99-0.919V87.09a3,3,0,0,1,1.05-2.277l-0.78-4.033a0.992,0.992,0,0,0-.54-0.7,2.989,2.989,0,1,1,.05-2.051,2.978,2.978,0,0,1,2.43,2.363L1336,84h23.98a3.187,3.187,0,0,1,3,3.09v1.992A0.933,0.933,0,0,1,1361.99,90ZM1356,108a1,1,0,1,0-1-1A1,1,0,0,0,1356,108Zm-16,0a1,1,0,0,0,0-2,1.057,1.057,0,0,0-1.05,1.011A1.038,1.038,0,0,0,1340,108Zm-10.03-30.008a1,1,0,1,0,.99,1A1,1,0,0,0,1329.97,77.992ZM1339,100h18l1.98-10H1337Zm20.98-14H1336a1.093,1.093,0,0,0-1.01,1.09L1335,88h25.98l0.01-.91A1.093,1.093,0,0,0,1359.98,86Z" transform="translate(-1327 -76)"/>
</svg>
