<svg width="92" height="92" viewBox="0 0 92 92" fill="none" xmlns="http://www.w3.org/2000/svg">
<circle cx="46" cy="46" r="46" fill="white"/>
<path d="M46 64.375C42.3658 64.375 38.8132 63.2973 35.7914 61.2783C32.7697 59.2592 30.4145 56.3894 29.0237 53.0318C27.633 49.6742 27.2691 45.9796 27.9781 42.4152C28.6871 38.8508 30.4371 35.5767 33.0069 33.0069C35.5767 30.4371 38.8508 28.6871 42.4152 27.9781C45.9796 27.2691 49.6742 27.633 53.0318 29.0237C56.3894 30.4145 59.2592 32.7697 61.2783 35.7914C63.2973 38.8132 64.375 42.3658 64.375 46C64.375 50.8734 62.4391 55.5471 58.9931 58.9931C55.5471 62.4391 50.8734 64.375 46 64.375ZM46 30.25C42.885 30.25 39.8399 31.1737 37.2498 32.9044C34.6597 34.635 32.641 37.0948 31.4489 39.9727C30.2568 42.8507 29.9449 46.0175 30.5526 49.0727C31.1604 52.1279 32.6604 54.9343 34.8631 57.1369C37.0658 59.3396 39.8721 60.8397 42.9273 61.4474C45.9825 62.0551 49.1493 61.7432 52.0273 60.5511C54.9052 59.359 57.365 57.3403 59.0957 54.7502C60.8263 52.1602 61.75 49.1151 61.75 46C61.75 41.8228 60.0906 37.8168 57.1369 34.8631C54.1832 31.9094 50.1772 30.25 46 30.25Z" fill="#F09300"/>
<path d="M52.0244 53.875L44.6875 46.5381V34.1875H47.3125V45.4487L53.875 52.0244L52.0244 53.875Z" fill="#F09300"/>
</svg>
