<svg xmlns="http://www.w3.org/2000/svg" width="31" height="20.969" viewBox="0 0 31 20.969">
  <defs>
    <style>
      .cls-1 {
        fill: #fff;
        fill-rule: evenodd;
      }
    </style>
  </defs>
  <path id="delivery.svg" class="cls-1" d="M606.465,296H605.6l-0.078-.013V296H605a4,4,0,0,1-8,0c0-.031.008-0.06,0.009-0.091H586.991c0,0.031.009,0.06,0.009,0.091a4,4,0,0,1-8,0h-0.769l-0.863-.091A1.283,1.283,0,0,1,576,294.514V288a0.909,0.909,0,0,1,.475-0.829,0.077,0.077,0,0,0,0-.015h0a0.093,0.093,0,0,1,0-.023s0,0,0-.008h0c0-.011,0-0.021,0-0.031h0c0-.011,0-0.021,0-0.032h0a0.093,0.093,0,0,1,0-.023s0,0,0-.008h0c0-.011,0-0.021,0-0.031h0a2.226,2.226,0,0,1,.433-1.363,2.632,2.632,0,0,1,.326-0.371,1.642,1.642,0,0,1-.311-1.028,1.679,1.679,0,0,1-.92-1.5c0-.006,0-0.011,0-0.016s0-.01,0-0.016,0-.01,0-0.016,0-.01,0-0.015,0-.011,0-0.016,0-.01,0-0.015,0-.01,0-0.016,0-.01,0-0.016,0-.01,0-0.015,0-.011,0-0.016,0-.01,0-0.015,0-.011,0-0.016,0-.01,0-0.016h0s0-.009,0-0.013h0c0-.006,0-0.011,0-0.016s0-.01,0-0.016,0-.01,0-0.015,0-.01,0-0.016,0-.01,0-0.016,0-.01,0-0.015,0-.01,0-0.016,0-.009,0-0.014h0c0-.006,0-0.011,0-0.016s0-.01,0-0.016,0-.01,0-0.015,0-.011,0-0.016h0s0-.009,0-0.015,0-.01,0-0.015a24.1,24.1,0,0,0,1.729-3.065,1.578,1.578,0,0,1,1-.2c0.011,0,.021,0,0.032,0h0.03a0.226,0.226,0,0,0,.026,0h0.006c0.01,0,.021,0,0.032,0h0.03a0.226,0.226,0,0,0,.026,0,0.008,0.008,0,0,0,0,0,0.225,0.225,0,0,0,.026,0,0.012,0.012,0,0,0,.006,0c0.01,0,.021,0,0.032,0s0.022,0,.032,0,0.026,0,.039,0h0.038l0.05,0c0.016,0,.033,0,0.05,0,0.041,0.006.08,0.014,0.121,0.023,0.011,0,.02.009,0.031,0.011a0.285,0.285,0,0,1,.031.012c0.023,0.007.044,0.016,0.066,0.024,0.04,0.015.08,0.027,0.119,0.044s0.081,0.024.12,0.044h0a1.563,1.563,0,0,1,.416-0.142,1.473,1.473,0,0,1,.44-0.025,0.134,0.134,0,0,1,.02,0,0.148,0.148,0,0,1,.021,0,0.162,0.162,0,0,1,.022,0h0.027a0.281,0.281,0,0,0,.029,0,0.1,0.1,0,0,1,.017,0h0.016c0.01,0,.02,0,0.03,0a0.086,0.086,0,0,1,.016,0h0.015a0.086,0.086,0,0,1,.016,0h0.017a0.28,0.28,0,0,0,.029,0,0.1,0.1,0,0,1,.017,0h0.014a0.1,0.1,0,0,1,.017,0h0.015a0.086,0.086,0,0,1,.016,0,1.5,1.5,0,0,1,.251.025l0.055,0.013a1.45,1.45,0,0,1,.435.165,1.656,1.656,0,0,1,.786,1.281,2.994,2.994,0,0,1,2.48-1.439h0.438a2.439,2.439,0,0,1,2.08,1.432,1.527,1.527,0,0,0,.933.87,1.227,1.227,0,0,0,.182.039,1.983,1.983,0,0,0,.377-0.046,1.409,1.409,0,0,0,.384-0.146,3.92,3.92,0,0,1,1.535-.6h0.031a0.022,0.022,0,0,0,.008,0h0.18c0.01,0,.019,0,0.029,0h0.064c0.007,0,.012,0,0.019,0h0.035l0.009,0a0.179,0.179,0,0,1,.023,0h0a1.094,1.094,0,0,1,1.046-.629h6.891a0.469,0.469,0,0,1,0,.938h-0.314L601,286l4.793,1.391A1.46,1.46,0,0,1,607,288.843v6.173A1.111,1.111,0,0,1,606.465,296Zm-16.16-9a3.106,3.106,0,0,0-2.889-2.838l-0.054,0c-0.065.005-.129,0.014-0.193,0.023s-0.135.031-.2,0.048a2.819,2.819,0,0,0-.276.079c-0.093.033-.184,0.068-0.274,0.109-0.045.021-.088,0.044-0.132,0.067a3.069,3.069,0,0,0-.575.391,3.2,3.2,0,0,0-.244.236,3.136,3.136,0,0,0-.39.5c-0.023.037-.044,0.075-0.066,0.113s-0.044.087-.064,0.131l0.008,0.016h0v0c0.187,0.355.393,0.742,0.584,1.116H590.3ZM583,299a3,3,0,1,0-3-3A3,3,0,0,0,583,299Zm-4.109-12a4.685,4.685,0,0,1-.306-0.973h-0.043a0.324,0.324,0,0,1-.052-0.007,1.973,1.973,0,0,0-.736.969s0,0.007,0,.011h1.138Zm3.177-4.574a0.847,0.847,0,0,0-.6-0.53,0.4,0.4,0,0,1-.258-0.192,0.409,0.409,0,0,1-.033-0.325,0.069,0.069,0,0,1,0-.013,0.11,0.11,0,0,1,0-.018,0.059,0.059,0,0,1,0-.013,0.11,0.11,0,0,1,0-.018,0.051,0.051,0,0,1,0-.013,0.11,0.11,0,0,1,0-.018,0.068,0.068,0,0,1,0-.014,0.111,0.111,0,0,1,0-.017,0.059,0.059,0,0,1,0-.014,0.11,0.11,0,0,1,0-.018,0.059,0.059,0,0,1,0-.013,0.11,0.11,0,0,1,0-.018,0.078,0.078,0,0,1,0-.014,0.1,0.1,0,0,1,0-.017,0.068,0.068,0,0,1,0-.014,0.11,0.11,0,0,1,0-.018,0.069,0.069,0,0,1,0-.013s0-.006,0-0.009a0.014,0.014,0,0,1,0-.009,0.059,0.059,0,0,1,0-.013,0.11,0.11,0,0,1,0-.018,0.051,0.051,0,0,1,0-.013,0.124,0.124,0,0,1,0-.018,0.068,0.068,0,0,1,0-.014s0-.006,0-0.009a0.011,0.011,0,0,1,0-.008,0.059,0.059,0,0,1,0-.014,0.11,0.11,0,0,1,0-.018,0.059,0.059,0,0,1,0-.013,0.11,0.11,0,0,1,0-.018v0a0.842,0.842,0,0,0-.381-0.569,0.553,0.553,0,0,0-.229-0.063,0.8,0.8,0,0,0-.378.23,0.393,0.393,0,0,1-.292.133s-0.01,0-.015,0-0.01,0-.016,0-0.01,0-.015,0-0.011,0-.016,0-0.01,0-.016,0-0.01,0-.015,0-0.011,0-.016,0-0.01,0-.016,0-0.01,0-.015,0l-0.008,0-0.008,0s-0.01,0-.016,0l0,0h0l-0.008,0c-0.006,0-.01,0-0.016,0h-0.008l-0.007,0c-0.006,0-.011,0-0.016,0s-0.01,0-.016,0-0.01,0-.015,0l-0.008,0-0.008,0s-0.01,0-.015,0h-0.008l-0.008,0c-0.006,0-.01,0-0.016,0s-0.01,0-.015,0-0.011,0-.016,0-0.01,0-.016,0-0.01,0-.015,0-0.01,0-.016,0-0.01,0-.015,0-0.011,0-.016,0a0.393,0.393,0,0,1-.292-0.133,0.788,0.788,0,0,0-.389-0.233,0.679,0.679,0,0,0-.218.066,0.835,0.835,0,0,0-.381.6,0.017,0.017,0,0,0,0,.007,0.11,0.11,0,0,0,0,.018,0.059,0.059,0,0,0,0,.013,0.11,0.11,0,0,0,0,.018,0.068,0.068,0,0,0,0,.014,0.1,0.1,0,0,0,0,.018,0.069,0.069,0,0,0,0,.013,0.014,0.014,0,0,1,0,.009,0.014,0.014,0,0,0,0,.009,0.059,0.059,0,0,0,0,.013,0.11,0.11,0,0,0,0,.018,0.059,0.059,0,0,0,0,.013,0.11,0.11,0,0,0,0,.018v0h0s0,0.006,0,.009a0.011,0.011,0,0,1,0,.008,0.014,0.014,0,0,0,0,.009h0a0.068,0.068,0,0,0,0,.014,0.11,0.11,0,0,0,0,.018,0.059,0.059,0,0,0,0,.013,0.014,0.014,0,0,1,0,.009,0,0,0,0,0,0,0s0,0,0,.006a0.059,0.059,0,0,0,0,.013,0.014,0.014,0,0,1,0,.009,0.014,0.014,0,0,0,0,.009s0,0,0,.007a0.02,0.02,0,0,0,0,.007,0.11,0.11,0,0,0,0,.018,0.069,0.069,0,0,0,0,.013,0.014,0.014,0,0,1,0,.009,0.011,0.011,0,0,0,0,.008h0a0.059,0.059,0,0,0,0,.013,0.11,0.11,0,0,0,0,.018,0.059,0.059,0,0,0,0,.013,0.41,0.41,0,0,1-.034.325,0.4,0.4,0,0,1-.258.192,0.812,0.812,0,0,0-.185.077,0.9,0.9,0,0,0-.1.049,0.877,0.877,0,0,0-.178.161c-0.01.012-.018,0.025-0.028,0.037a0.782,0.782,0,0,0-.123.365l0.009,0.027a0.85,0.85,0,0,0,.6.531,0.4,0.4,0,0,1,.258.192,0.41,0.41,0,0,1,.034.325,0.059,0.059,0,0,0,0,.013,0.016,0.016,0,0,0,0,.01,0.019,0.019,0,0,0,0,.008,0.017,0.017,0,0,0,0,.007s0,0,0,.007a0.11,0.11,0,0,0,0,.018,0.051,0.051,0,0,0,0,.013,0.11,0.11,0,0,0,0,.018,0.013,0.013,0,0,0,0,.006s0,0,0,.007a0.11,0.11,0,0,0,0,.018,0.059,0.059,0,0,0,0,.014,0.1,0.1,0,0,0,0,.017,0.068,0.068,0,0,0,0,.014v0a0.017,0.017,0,0,0,0,.007,0.029,0.029,0,0,1,0,.015s0,0,0,.007a0.11,0.11,0,0,0,0,.018c0,0.006,0,.012,0,0.018a0.032,0.032,0,0,1,0,.013c0,0.006,0,.013,0,0.019a0.025,0.025,0,0,1,0,.012c0,0.006,0,.012,0,0.019a0.027,0.027,0,0,1,0,.013,0.059,0.059,0,0,0,0,.013,0.11,0.11,0,0,0,0,.018c0,0.006,0,.012,0,0.018a0.032,0.032,0,0,1,0,.013c0,0.006,0,.012,0,0.019a0.025,0.025,0,0,1,0,.012c0,0.006,0,.013,0,0.019a0.025,0.025,0,0,1,0,.012,0.129,0.129,0,0,0,0,.039h0a0.932,0.932,0,0,0,.073.19,0.835,0.835,0,0,0,.31.344c0.018,0.01.038,0.012,0.056,0.021a1.554,1.554,0,0,1,.381-0.756,1.764,1.764,0,0,0-.533-0.415,0.389,0.389,0,0,1-.211-0.435h0c0-.01,0-0.021,0-0.031h0c0-.01,0-0.021,0-0.031h0c0-.009,0-0.021,0-0.031h0c0-.009,0-0.021,0-0.031h0c0-.01,0-0.021,0-0.031h0c0-.01,0-0.022,0-0.031h0c0-.01,0-0.022,0-0.032h0a0.41,0.41,0,0,1,0-.308,0.386,0.386,0,0,1,.448-0.229,0.226,0.226,0,0,1,.026,0c0.011,0,.021,0,0.032,0s0.011,0,.017,0,0.011,0,.018,0a0.108,0.108,0,0,1,.019,0,0.137,0.137,0,0,1,.019,0c0.009,0,.018,0,0.028,0l0.015,0a0.136,0.136,0,0,1,.02,0l0.013,0a0.11,0.11,0,0,1,.018,0,0.251,0.251,0,0,1,.027,0l0.016,0a0.136,0.136,0,0,1,.02,0l0.013,0a0.11,0.11,0,0,1,.018,0l0.013,0a0.11,0.11,0,0,1,.018,0,0.34,0.34,0,0,1,.153.025,1.819,1.819,0,0,1,.19.119c0.043,0.025.085,0.051,0.127,0.079,0.064,0.043.111,0.106,0.173,0.153l0.062,0.055c0.047,0.038.087,0.081,0.134,0.118a0.94,0.94,0,0,1-.031-0.132,2.357,2.357,0,0,1-.017-0.481c0-.035-0.008-0.073,0-0.107a0,0,0,0,0,0,0c0-.009,0-0.019,0-0.028a0,0,0,0,0,0,0c0-.009,0-0.02,0-0.029a0,0,0,0,0,0,0c0-.009,0-0.02,0-0.029a0,0,0,0,0,0,0h0c0-.01,0-0.02,0-0.029a0,0,0,0,0,0,0c0-.01,0-0.02,0-0.029a0,0,0,0,0,0,0c0-.009,0-0.019,0-0.029s0,0,0,0,0-.02,0-0.029a0,0,0,0,0,0,0,0.086,0.086,0,0,0,0-.016,0.062,0.062,0,0,1,0-.013,0,0,0,0,0,0,0c0-.009,0-0.019,0-0.029s0,0,0,0v0c0-.009,0-0.018,0-0.027a0,0,0,0,0,0,0c0-.01,0-0.02,0-0.029a0,0,0,0,0,0,0h0c0-.009,0-0.019,0-0.028a0,0,0,0,0,0,0c0-.009,0-0.019,0-0.028a0,0,0,0,0,0,0c0-.01,0-0.02,0-0.029a0.4,0.4,0,0,1,.44-0.347l0,0a0.228,0.228,0,0,1,.026,0l0.006,0a0.2,0.2,0,0,1,.025,0l0.006,0a0.11,0.11,0,0,1,.026,0l0,0a0.228,0.228,0,0,1,.026,0l0,0a0.228,0.228,0,0,1,.026,0l0.006,0a0.211,0.211,0,0,1,.025,0l0.006,0a0.228,0.228,0,0,1,.026,0l0,0a0.228,0.228,0,0,1,.026,0l0,0a0.228,0.228,0,0,1,.026,0l0.006,0h0.013a0.025,0.025,0,0,1,.012,0l0.006,0a0.228,0.228,0,0,1,.026,0l0,0a0.228,0.228,0,0,1,.026,0l0.007,0c0.008,0,.016,0,0.024,0s0.006,0,.009,0a0.192,0.192,0,0,1,.022,0,0.4,0.4,0,0,1,.34.45,2.08,2.08,0,0,0,.135.876,1.206,1.206,0,0,1,.193-0.03l0.015,0,0.016,0,0.015,0,0.017,0,0.014,0,0.017,0,0.015,0,0.016,0,0.015,0h0.016l0.015,0h0.017l0.014,0,0.017,0,0.018,0,0.013,0,0.015,0,0.016,0,0.018,0,0.013,0,0.018,0,0.014,0,0.014,0,0.017,0,0.018,0,0.013,0,0.018,0,0.014,0a1.042,1.042,0,0,1,.2.023,0.84,0.84,0,0,0,.061-0.211Zm0.541,2.656a0.388,0.388,0,0,1-.2.053c-0.006,0-.01,0-0.016,0s-0.01,0-.015,0-0.011,0-.016,0-0.01,0-.016,0-0.01,0-.015,0h0l-0.012,0s-0.01,0-.016,0h0l-0.012,0c-0.006,0-.01,0-0.016,0s-0.01,0-.015,0-0.011,0-.016,0-0.01,0-.016,0-0.01,0-.015,0h0l-0.012,0s-0.01,0-.016,0l-0.007,0-0.008,0c-0.006,0-.01,0-0.016,0s-0.01,0-.015,0l-0.01,0-0.006,0-0.008,0-0.008,0-0.009,0-0.006,0c-0.006,0-.011,0-0.016,0s-0.01,0-.016,0-0.01,0-.015,0-0.01,0-.016,0-0.01,0-.015,0-0.011,0-.016,0-0.01,0-.016,0a0.388,0.388,0,0,1-.361-0.531c0-.009,0-0.019,0-0.028s0-.019,0-0.029a0.245,0.245,0,0,1,0-.027c0-.01-0.006-0.019,0-0.028s0-.019,0-0.028,0-.018,0-0.027l0-.007a0.1,0.1,0,0,1,0-.024l0-.007a0.1,0.1,0,0,1,0-.024l0-.008a0.1,0.1,0,0,1,0-.024l0-.007a0.1,0.1,0,0,1,0-.024l0-.007a0.1,0.1,0,0,1,0-.024l0-.007a0.1,0.1,0,0,1,0-.024l0-.007a0.107,0.107,0,0,1,0-.025,0.386,0.386,0,0,1,.025-0.064,0.394,0.394,0,0,1,.133-0.178,0.815,0.815,0,0,0-.154-0.037c-0.031.006-.061,0.009-0.092,0.017a1.623,1.623,0,0,0-.189.042,3.238,3.238,0,0,0-.562.273,1.7,1.7,0,0,0-.953,1.066,2.253,2.253,0,0,0,.068.4c0.032,0.119.078,0.249,0.127,0.382l0.236-.139a0.369,0.369,0,0,1,.2-0.047c0.012,0,.023,0,0.034,0h0.011a0.113,0.113,0,0,1,.018,0,0.1,0.1,0,0,1,.024,0,0.009,0.009,0,0,1,.007,0c0.012,0,.023,0,0.034,0h0.011a0.057,0.057,0,0,1,.018,0,0.1,0.1,0,0,1,.024,0,0.015,0.015,0,0,1,.007,0,0.1,0.1,0,0,1,.024,0,0.017,0.017,0,0,1,.007,0c0.012,0,.023,0,0.034,0a0.429,0.429,0,0,1,.08.012l0.018,0a0.033,0.033,0,0,1,.017,0l0,0a0.264,0.264,0,0,1,.028,0l0,0a0.143,0.143,0,0,1,.029,0c0.01,0,.019,0,0.028,0l0,0a0.264,0.264,0,0,1,.028,0l0,0a0.264,0.264,0,0,1,.028,0,0.27,0.27,0,0,1,.072.036,0.008,0.008,0,0,1,0,0c0-.009,0-0.019,0-0.028a0.264,0.264,0,0,1,0-.028,0.219,0.219,0,0,1,0-.027,0.015,0.015,0,0,0,0-.007,0.1,0.1,0,0,1,0-.024,0.021,0.021,0,0,0,0-.007,0.1,0.1,0,0,1,0-.024,0.036,0.036,0,0,0,0-.007,0.105,0.105,0,0,1,0-.024,0.036,0.036,0,0,0,0-.007,0.107,0.107,0,0,1,0-.025,0.015,0.015,0,0,0,0-.007,0.1,0.1,0,0,1,0-.024,0.015,0.015,0,0,0,0-.007,0.1,0.1,0,0,1,0-.024,0.036,0.036,0,0,0,0-.007,0.1,0.1,0,0,1,0-.024,0.364,0.364,0,0,1,.025-0.065,0.369,0.369,0,0,1,.155-0.206l0,0a0.378,0.378,0,0,1,.2-0.047,0.207,0.207,0,0,1,.035,0h0.01c0.006,0,.012,0,0.018,0a0.086,0.086,0,0,1,.023,0l0.008,0a0.207,0.207,0,0,1,.035,0h0.01a0.1,0.1,0,0,1,.017,0,0.1,0.1,0,0,1,.024,0l0.008,0a0.086,0.086,0,0,1,.023,0l0.008,0a0.207,0.207,0,0,1,.035,0,0.289,0.289,0,0,1,.078.012l0.019,0a0.049,0.049,0,0,1,.017,0,0,0,0,0,0,0,0c0.009,0,.019,0,0.028,0a0.013,0.013,0,0,0,0,0c0.01,0,.02,0,0.029,0s0.019,0,.028,0l0,0c0.01,0,.019,0,0.029,0a0,0,0,0,0,0,0c0.009,0,.019,0,0.028,0a0.386,0.386,0,0,1,.081.041,0.372,0.372,0,0,1,.066.054,0.346,0.346,0,0,1,.1.084,0.4,0.4,0,0,1,.021.329,0.281,0.281,0,0,1,0,.029,0.266,0.266,0,0,1,0,.028c0,0.01,0,.019,0,0.028s0,0.019,0,.028a0.264,0.264,0,0,1,0,.028,0.251,0.251,0,0,1,0,.027,0.015,0.015,0,0,0,0,.007,0.1,0.1,0,0,1,0,.024,0.036,0.036,0,0,0,0,.007,0.1,0.1,0,0,1,0,.024s0,0.009-.006.014a0.055,0.055,0,0,1,0,.022,0.251,0.251,0,0,1,0,.027,0.021,0.021,0,0,0,0,.007,0.1,0.1,0,0,1,0,.024,0.036,0.036,0,0,0,0,.007,0.105,0.105,0,0,1,0,.024,0.026,0.026,0,0,0,0,.008,0.1,0.1,0,0,1,0,.024,0.392,0.392,0,0,1-.18.27l0,0a0.388,0.388,0,0,1-.2.053c-0.005,0-.01,0-0.016,0s-0.01,0-.015,0-0.011,0-.016,0-0.01,0-.015,0-0.011,0-.016,0-0.01,0-.016,0-0.01,0-.015,0-0.011,0-.016,0l-0.008,0-0.008,0s-0.01,0-.015,0l-0.008,0h0l-0.007,0s-0.01,0-.015,0-0.011,0-.016,0-0.01,0-.016,0-0.01,0-.015,0-0.011,0-.016,0l-0.008,0h0l-0.007,0s-0.01,0-.015,0-0.01,0-.016,0-0.01,0-.016,0-0.01,0-.015,0-0.01,0-.016,0-0.01,0-.015,0-0.011,0-.016,0-0.01,0-.016,0-0.01,0-.015,0-0.01,0-.016,0-0.01,0-.015,0a0.287,0.287,0,0,1-.164-0.07,0.027,0.027,0,0,1,0,.015c0,0.01.006,0.019,0,.028s0,0.019,0,.028,0,0.018,0,.027a0.036,0.036,0,0,1,0,.007,0.1,0.1,0,0,1,0,.024,0.015,0.015,0,0,1,0,.007,0.105,0.105,0,0,1,0,.024s0,0.009,0,.014a0.055,0.055,0,0,1,0,.022c0,0.009,0,.018,0,0.027a0.036,0.036,0,0,1,0,.007,0.1,0.1,0,0,1,0,.024,0.015,0.015,0,0,1,0,.007,0.1,0.1,0,0,1,0,.024,0.026,0.026,0,0,1,0,.008,0.1,0.1,0,0,1,0,.023,0.421,0.421,0,0,1-.107.162h1.887a0.459,0.459,0,0,1-.009-0.137,0.281,0.281,0,0,1,0-.029,0.266,0.266,0,0,1,0-.028c0-.01,0-0.019,0-0.028s0-.019,0-0.028,0-.019,0-0.027,0-.019,0-0.028l0-.007a0.1,0.1,0,0,1,0-.024l0-.007a0.1,0.1,0,0,1,0-.024l0-.007a0.1,0.1,0,0,1,0-.024l0-.007a0.107,0.107,0,0,1,0-.025l0-.007a0.1,0.1,0,0,1,0-.024l0-.007a0.1,0.1,0,0,1,0-.024l0-.007a0.1,0.1,0,0,1,0-.024,0.364,0.364,0,0,1,.025-0.065,0.369,0.369,0,0,1,.155-0.206l0.282-.167c-0.051-.093-0.1-0.185-0.154-0.279a8.816,8.816,0,0,0-.5-0.8Zm7.5-2.721a2.493,2.493,0,0,1-1.262.341l-0.019,0-0.012,0-0.02,0-0.011,0-0.02,0h-0.011l-0.02,0h-0.012l-0.019,0-0.012,0h-0.02l-0.011,0h-0.02l-0.012,0-0.019,0H588.6l-0.019,0-0.012,0-0.02,0-0.011,0-0.02,0-0.011,0-0.02,0-0.012,0-0.019,0h-0.017l-0.015,0-0.011,0a2.388,2.388,0,0,1-.751-0.119,2.336,2.336,0,0,1-1.408-1.3,1.674,1.674,0,0,0-1.233-.92,1.315,1.315,0,0,0-.248.037l-0.057.011a3.141,3.141,0,0,0-1.485,1.375c0,0.006,0,.012,0,0.018a1.73,1.73,0,0,1,.045.192,1.419,1.419,0,0,1,.071.308,0.138,0.138,0,0,1,0,.02,0.045,0.045,0,0,1,0,.011,0.077,0.077,0,0,1,0,.015c0,0.006,0,.011,0,0.017s0,0.009,0,.014,0,0.011,0,.017,0,0.01,0,.015,0,0.011,0,.016,0,0.01,0,.015,0,0.011,0,.016,0,0.01,0,.015,0,0.011,0,.016,0,0.008,0,.011a0.009,0.009,0,0,0,0,0s0,0.01,0,.016,0,0.01,0,.015,0,0.01,0,.016,0,0.01,0,.015,0,0.011,0,.016,0,0.01,0,.016,0,0.01,0,.016,0,0.009,0,.015,0,0.01,0,.016,0,0.01,0,.015,0,0.011,0,.016,0,0.01,0,.015,0,0.011,0,.016,0,0.01,0,.016,0,0.01,0,.016c0,0.025-.016.047-0.018,0.073s-0.007.023-.009,0.036-0.013.048-.017,0.073-0.009.037-.014,0.056a1.645,1.645,0,0,1-.044.181c-0.01.029-.011,0.062-0.022,0.09a0.281,0.281,0,0,0-.008.031,3.316,3.316,0,0,1,.274.271l0.013,0.015a7.2,7.2,0,0,1,.665.939,3.893,3.893,0,0,1,1.236-1.111c-0.014-.04-0.028-0.08-0.044-0.122-0.037-.1-0.093-0.2-0.143-0.308a2.7,2.7,0,0,0-.13-0.249,0.3,0.3,0,0,1-.019-0.155c0-.008,0-0.015,0-0.022a0.487,0.487,0,0,1-.015-0.12s0-.01,0-0.016,0-.009,0-0.014,0-.01,0-0.014,0-.009,0-0.013,0-.008,0-0.012,0-.007,0-0.011a0.36,0.36,0,0,1,.006-0.08,0.036,0.036,0,0,1,0-.014c0-.009-0.006-0.017,0-0.026a0.021,0.021,0,0,0,0-.006c0-.009-0.006-0.017,0-0.025a0.016,0.016,0,0,0,0-.007,0.2,0.2,0,0,1,0-.024,0.025,0.025,0,0,0,0-.007,0.2,0.2,0,0,1,0-.024,0.025,0.025,0,0,0,0-.007,0.217,0.217,0,0,1,0-.025,0.021,0.021,0,0,0,0-.006c0-.009-0.006-0.017,0-0.025a0.061,0.061,0,0,0,0-.006,0.037,0.037,0,0,0,0-.011,0.45,0.45,0,0,1-.077.023c-0.006,0-.012,0-0.018,0s-0.009,0-.013,0-0.012,0-.018,0-0.009,0-.014,0l-0.009,0h-0.008s-0.009,0-.014,0-0.012,0-.018,0-0.008,0-.013,0-0.011,0-.017,0-0.009,0-.014,0h0c-0.006,0-.012,0-0.018,0s-0.009,0-.014,0-0.012,0-.018,0-0.008,0-.013,0-0.012,0-.018,0-0.008,0-.013,0l-0.009,0h-0.016l-0.006,0c-0.006,0-.012,0-0.018,0s-0.009,0-.014,0-0.011,0-.018,0-0.008,0-.013,0-0.012,0-.018,0-0.008,0-.013,0-0.012,0-.018,0-0.009,0-.013,0-0.012,0-.018,0-0.009,0-.014,0a0.384,0.384,0,0,1-.16-0.036l-0.015-.007a0.386,0.386,0,0,1-.2-0.428v0a0,0,0,0,0,0,0v0h0a0,0,0,0,0,0,0c0-.01,0-0.021,0-0.031h0c0-.009,0-0.02,0-0.03h0c0-.009,0-0.021,0-0.03a0,0,0,0,0,0,0c0-.01,0-0.021,0-0.03s0,0,0,0,0-.02,0-0.03h0c0-.009,0-0.02,0-0.03h0c0-.009,0-0.02,0-0.03a0,0,0,0,0,0,0,0.409,0.409,0,0,1,.006-0.309,0.385,0.385,0,0,1,.443-0.223,0.244,0.244,0,0,1,.027,0c0.011,0,.021,0,0.032,0s0.011,0,.017,0,0.012,0,.019,0,0.013,0,.02,0,0.013,0,.02,0,0.017,0,.026,0a0.044,0.044,0,0,1,.016,0l0.021,0,0.012,0a0.125,0.125,0,0,1,.019,0c0.008,0,.017,0,0.026,0a0.041,0.041,0,0,1,.016,0c0.007,0,.013,0,0.02,0s0.009,0,.013,0a0.108,0.108,0,0,1,.019,0l0.012,0a0.125,0.125,0,0,1,.019,0,0.358,0.358,0,0,1,.157.028l0.022,0.01a0.385,0.385,0,0,1,.2.424s0,0,0,0,0,0,0,0v0s0,0,0,0a0,0,0,0,0,0,0v0c0,0.009,0,.02,0,0.03h0c0,0.01,0,.02,0,0.03v0a0.39,0.39,0,0,1,0,.059,0,0,0,0,0,0,0v0c0,0.009,0,.02,0,0.03h0c0,0.009,0,.02,0,0.03h0c0,0.01,0,.021,0,0.03v0a0.4,0.4,0,0,1,0,.172,0.29,0.29,0,0,1,.131-0.029h0.013l0.03,0c0.006,0,.012,0,0.019,0h0.014l0.01,0,0.007,0h0.014l0.029,0a0.048,0.048,0,0,1,.02,0h0.014l0.01,0,0.007,0h0.014l0.01,0,0.007,0h0.014a0.3,0.3,0,0,1,.042.006,0.387,0.387,0,0,1,.046.006,0.08,0.08,0,0,0,.015,0,0.037,0.037,0,0,1,.018,0l0.008,0a0.264,0.264,0,0,1,.028,0c0.008,0,.018,0,0.026,0l0,0c0.009,0,.018,0,0.027,0l0,0c0.009,0,.018,0,0.027,0a0.376,0.376,0,0,1,.077.034,0.342,0.342,0,0,1,.066.049,0.346,0.346,0,0,1,.107.079,4.59,4.59,0,0,1,.5,1.126,3.1,3.1,0,0,1,.564-0.065h0.438a3.85,3.85,0,0,1,3.329,1.95l0.009-1.162a0.842,0.842,0,0,0-.116.04,0.387,0.387,0,0,1-.187.049,0.088,0.088,0,0,1-.015,0,0.142,0.142,0,0,1-.016,0,0.1,0.1,0,0,1-.016,0,0.075,0.075,0,0,1-.016,0,0.131,0.131,0,0,1-.015,0,0.075,0.075,0,0,1-.016,0,0.015,0.015,0,0,1-.007,0l-0.008,0a0.1,0.1,0,0,1-.016,0,0.088,0.088,0,0,1-.015,0,0.142,0.142,0,0,1-.016,0,0.019,0.019,0,0,1-.008,0l-0.008,0a0.075,0.075,0,0,1-.016,0,0.131,0.131,0,0,1-.015,0,0.075,0.075,0,0,1-.016,0,0.088,0.088,0,0,1-.015,0,0.1,0.1,0,0,1-.016,0,0.088,0.088,0,0,1-.015,0,0.142,0.142,0,0,1-.016,0,0.026,0.026,0,0,1-.008,0l-0.008,0a0.075,0.075,0,0,1-.016,0,0.131,0.131,0,0,1-.015,0,0.075,0.075,0,0,1-.016,0,0.088,0.088,0,0,1-.015,0,0.142,0.142,0,0,1-.016,0,0.026,0.026,0,0,1-.008,0l-0.007,0a0.142,0.142,0,0,1-.016,0,0.1,0.1,0,0,1-.016,0,0.075,0.075,0,0,1-.016,0,0.392,0.392,0,0,1-.345-0.211,0.4,0.4,0,0,1-.016-0.325,0.283,0.283,0,0,1,0-.029c0-.01,0-0.02,0-0.029s0-.02,0-0.029,0-.019,0-0.028-0.005-.02,0-0.029,0-.019,0-0.028l0,0a0.122,0.122,0,0,1,0-.026l0-.006a0.107,0.107,0,0,1,0-.025l0-.006a0.109,0.109,0,0,1,0-.026l0,0a0.115,0.115,0,0,1,0-.026l0,0a0.122,0.122,0,0,1,0-.026l0-.006a0.107,0.107,0,0,1,0-.025l0-.006a0.107,0.107,0,0,1,0-.025,0.416,0.416,0,0,1,.027-0.066,0.365,0.365,0,0,1,.16-0.2,1.869,1.869,0,0,1,.938-0.237l0-.4A3.894,3.894,0,0,0,590.114,282.361ZM598,282h-5v4a1.694,1.694,0,0,0,1,1h6Zm3,11a3,3,0,1,0,3,3A3,3,0,0,0,601,293Zm5.079-3.033h-1.048V291a0.53,0.53,0,0,0,.524.534h0.524v-1.57ZM601,298a2,2,0,1,1,2-2A2,2,0,0,1,601,298Zm-18-4a2,2,0,1,1-2,2A2,2,0,0,1,583,294Z" transform="translate(-576 -279.031)"/>
</svg>
