<svg width="92" height="92" viewBox="0 0 92 92" fill="none" xmlns="http://www.w3.org/2000/svg">
<circle cx="46" cy="46" r="46" fill="white"/>
<path d="M62.9609 46.5H60.6094C60.4246 46.5 60.2734 46.6512 60.2734 46.8359V60.2734H32.7266V32.7266H46.1641C46.3488 32.7266 46.5 32.5754 46.5 32.3906V30.0391C46.5 29.8543 46.3488 29.7031 46.1641 29.7031H31.0469C30.3036 29.7031 29.7031 30.3036 29.7031 31.0469V61.9531C29.7031 62.6964 30.3036 63.2969 31.0469 63.2969H61.9531C62.6964 63.2969 63.2969 62.6964 63.2969 61.9531V46.8359C63.2969 46.6512 63.1457 46.5 62.9609 46.5Z" fill="#F87B11"/>
<path d="M39.9451 47.4616L39.8653 52.4545C39.8611 52.8282 40.1634 53.1348 40.5372 53.1348H40.5539L45.509 53.013C45.593 53.0088 45.677 52.9752 45.7358 52.9164L63.2003 35.4896C63.3305 35.3595 63.3305 35.1453 63.2003 35.0151L57.9807 29.7997C57.9135 29.7325 57.8295 29.7031 57.7414 29.7031C57.6532 29.7031 57.5692 29.7367 57.502 29.7997L40.0416 47.2265C39.981 47.2899 39.9465 47.3739 39.9451 47.4616ZM42.6116 48.4526L57.7414 33.3564L59.6394 35.2503L44.5012 50.3549L42.5822 50.4011L42.6116 48.4526Z" fill="#F87B11"/>
</svg>
