<svg width="84" height="66" viewBox="0 0 84 66" fill="none" xmlns="http://www.w3.org/2000/svg">
<g clip-path="url(#clip0)">
<path d="M56.1995 16.4392L37.137 5.95486C36.8555 5.80001 36.5394 5.71881 36.2182 5.71881C35.8969 5.71881 35.5808 5.80001 35.2993 5.95486L16.2368 16.4392C15.938 16.6038 15.6887 16.8455 15.5152 17.1393C15.3416 17.433 15.25 17.7679 15.25 18.1091C15.25 18.4503 15.3416 18.7852 15.5152 19.0789C15.6887 19.3727 15.938 19.6144 16.2368 19.779L34.3119 29.7201V50.1532L28.5245 46.9697L26.6869 50.3076L35.2993 55.0446C35.5807 55.1998 35.8968 55.2812 36.2182 55.2812C36.5395 55.2812 36.8556 55.1998 37.137 55.0446L56.1995 44.5602C56.4985 44.3958 56.7478 44.154 56.9215 43.8603C57.0952 43.5666 57.1869 43.2316 57.1869 42.8904V18.1091C57.1869 17.7679 57.0952 17.4329 56.9215 17.1392C56.7478 16.8454 56.4985 16.6037 56.1995 16.4392ZM36.2182 9.80167L51.3252 18.1091L36.2182 26.4165L21.1111 18.1091L36.2182 9.80167ZM53.3744 41.7638L38.1244 50.1513V29.7182L53.3744 21.3307V41.7638Z" fill="#298D3F"/>
<path d="M19.0625 30.5H3.8125V26.6875H19.0625V30.5Z" fill="#298D3F"/>
<path d="M22.875 45.75H7.625V41.9375H22.875V45.75Z" fill="#298D3F"/>
<path d="M26.6875 38.125H11.4375V34.3125H26.6875V38.125Z" fill="#298D3F"/>
<rect x="47" y="27" width="33" height="28" fill="white"/>
</g>
<path d="M61.25 40H71V42.1667H61.25V40Z" fill="#298D3F"/>
<path d="M61.25 44.3333H71V46.5H61.25V44.3333Z" fill="#298D3F"/>
<path d="M61.25 48.6667H71V50.8334H61.25V48.6667Z" fill="#298D3F"/>
<path d="M61.25 53H71V55.1667H61.25V53Z" fill="#298D3F"/>
<path d="M56.918 35.6667H59.0846V37.8334H56.918V35.6667Z" fill="#298D3F"/>
<path d="M56.918 40H59.0846V42.1667H56.918V40Z" fill="#298D3F"/>
<path d="M56.918 44.3333H59.0846V46.5H56.918V44.3333Z" fill="#298D3F"/>
<path d="M56.918 48.6667H59.0846V50.8334H56.918V48.6667Z" fill="#298D3F"/>
<path d="M56.918 53H59.0846V55.1667H56.918V53Z" fill="#298D3F"/>
<path d="M61.25 35.6667V37.8334H70.6317C70.2053 37.1625 69.8804 36.4324 69.6675 35.6667H61.25Z" fill="#298D3F"/>
<path d="M75.3333 41.3217V61.6667H53.6667V31.3334H69.6783C69.8879 30.5682 70.2091 29.8381 70.6317 29.1667H53.6667C53.092 29.1667 52.5409 29.395 52.1346 29.8013C51.7283 30.2076 51.5 30.7587 51.5 31.3334V61.6667C51.5 62.2413 51.7283 62.7924 52.1346 63.1987C52.5409 63.6051 53.092 63.8334 53.6667 63.8334H75.3333C75.908 63.8334 76.4591 63.6051 76.8654 63.1987C77.2717 62.7924 77.5 62.2413 77.5 61.6667V41.625C76.7674 41.6222 76.0386 41.5201 75.3333 41.3217Z" fill="#298D3F"/>
<path d="M77.4987 38.9166C80.4902 38.9166 82.9154 36.4915 82.9154 33.5C82.9154 30.5084 80.4902 28.0833 77.4987 28.0833C74.5072 28.0833 72.082 30.5084 72.082 33.5C72.082 36.4915 74.5072 38.9166 77.4987 38.9166Z" fill="#298D3F"/>
<defs>
<clipPath id="clip0">
<rect width="61" height="61" fill="white"/>
</clipPath>
</defs>
</svg>
