<?xml version="1.0" encoding="UTF-8" standalone="no"?>
<!-- Generator: Adobe Illustrator 17.1.0, SVG Export Plug-In . SVG Version: 6.00 Build 0)  -->

<svg
   xmlns:dc="http://purl.org/dc/elements/1.1/"
   xmlns:cc="http://creativecommons.org/ns#"
   xmlns:rdf="http://www.w3.org/1999/02/22-rdf-syntax-ns#"
   xmlns:svg="http://www.w3.org/2000/svg"
   xmlns="http://www.w3.org/2000/svg"
   xmlns:sodipodi="http://sodipodi.sourceforge.net/DTD/sodipodi-0.dtd"
   xmlns:inkscape="http://www.inkscape.org/namespaces/inkscape"
   version="1.1"
   id="Слой_1"
   sodipodi:docname="logo.svg"
   inkscape:version="0.92.4 (5da689c313, 2019-01-14)"
   x="0px"
   y="0px"
   viewBox="0 0 150 16.129033"
   enable-background="new 0 0 124.4 153.5"
   xml:space="preserve"
   width="150"
   height="16.129032"><metadata
     id="metadata12"><rdf:RDF><cc:Work
         rdf:about=""><dc:format>image/svg+xml</dc:format><dc:type
           rdf:resource="http://purl.org/dc/dcmitype/StillImage" /><dc:title></dc:title></cc:Work></rdf:RDF></metadata><defs
     id="defs10" /><sodipodi:namedview
     inkscape:cy="46.244927"
     inkscape:cx="56.511385"
     inkscape:zoom="3.1714397"
     fit-margin-left="0"
     fit-margin-top="0"
     showgrid="false"
     guidetolerance="10"
     gridtolerance="10"
     objecttolerance="10"
     borderopacity="1"
     pagecolor="#ffffff"
     bordercolor="#666666"
     id="namedview21"
     inkscape:current-layer="Слой_1"
     inkscape:window-maximized="1"
     inkscape:window-y="-8"
     inkscape:window-x="-8"
     fit-margin-bottom="0"
     fit-margin-right="0"
     inkscape:window-height="962"
     inkscape:window-width="1280"
     inkscape:pageshadow="2"
     inkscape:pageopacity="0" /><g
     id="g3"
     transform="matrix(1.6129032,0,0,1.6129032,-404.67741,-727.90321)"><path
       id="path11"
       inkscape:connector-curvature="0"
       d="m 250.9,458.8 v 0.1 c 0,0.1 0,0.1 0,0.2 0,0.1 0,0.1 0,0.1 0.2,0 0.4,0 0.6,0 0.2,0 0.5,0 0.7,0 0.4,0 0.7,0 0.9,0 0.3,0 0.5,0 0.6,0 v -0.1 c 0,-0.1 0,-0.1 0,-0.2 0,-0.1 0,-0.1 0,-0.1 -0.1,0 -0.2,0 -0.3,0 -0.1,0 -0.2,0 -0.3,-0.1 -0.1,0 -0.2,-0.1 -0.2,-0.1 -0.1,0 -0.1,-0.1 -0.1,-0.1 0,-0.1 0,-0.1 0,-0.2 0,-0.1 0,-0.2 0.1,-0.3 0,-0.1 0.1,-0.3 0.1,-0.4 0.1,-0.2 0.1,-0.3 0.2,-0.5 0.1,-0.2 0.1,-0.3 0.2,-0.5 0,0 0,-0.1 0.1,-0.1 h 0.1 c 0.1,0 0.1,0 0.2,0 0.1,0 0.2,0 0.3,0 0.1,0 0.3,0 0.5,0 0.1,0 0.3,0 0.4,0 0.1,0 0.3,0 0.4,0 0.1,0 0.2,0 0.3,0 0,0 0,0 0.1,0 0,0 0,0 0,0.1 0,0.1 0.1,0.3 0.2,0.4 0.1,0.2 0.1,0.3 0.2,0.5 0.1,0.2 0.1,0.3 0.2,0.5 0.1,0.2 0.1,0.3 0.1,0.4 v 0.1 c 0,0.1 -0.1,0.1 -0.1,0.1 -0.1,0 -0.2,0.1 -0.3,0.1 -0.1,0 -0.2,0 -0.4,0.1 v 0.1 c 0,0.1 0,0.1 0,0.2 0,0.1 0,0.1 0,0.1 0.1,0 0.3,0 0.4,0 0.2,0 0.4,0 0.6,0 0.2,0 0.5,0 0.8,0 0.4,0 0.8,0 1,0 0.3,0 0.5,0 0.7,0 v -0.1 c 0,-0.1 0,-0.1 0,-0.2 0,-0.1 0,-0.1 0,-0.1 -0.2,0 -0.4,-0.1 -0.5,-0.1 -0.1,0 -0.3,-0.1 -0.3,-0.2 -0.1,-0.1 -0.2,-0.2 -0.2,-0.3 -0.1,-0.1 -0.2,-0.3 -0.2,-0.6 -0.1,-0.2 -0.2,-0.4 -0.3,-0.7 -0.1,-0.3 -0.2,-0.6 -0.3,-0.9 -0.1,-0.3 -0.2,-0.7 -0.4,-1 -0.1,-0.4 -0.2,-0.7 -0.4,-1 -0.1,-0.3 -0.2,-0.6 -0.3,-0.9 -0.1,-0.3 -0.2,-0.5 -0.2,-0.7 0,-0.1 -0.1,-0.2 -0.1,-0.4 0,-0.1 -0.1,-0.2 -0.1,-0.3 -0.1,0 -0.1,0 -0.2,0 -0.1,0 -0.2,0 -0.3,0 -0.1,0 -0.2,0 -0.3,0 -0.1,0 -0.2,0 -0.3,0 0,0.1 0,0.1 0,0.2 0,0.1 -0.1,0.2 -0.1,0.3 0,0.1 -0.1,0.2 -0.1,0.3 0,0.1 -0.1,0.3 -0.2,0.6 -0.1,0.2 -0.2,0.5 -0.3,0.8 -0.1,0.3 -0.2,0.6 -0.4,1 -0.1,0.3 -0.3,0.7 -0.4,1 -0.1,0.3 -0.3,0.7 -0.4,1 -0.1,0.3 -0.2,0.6 -0.4,0.9 -0.1,0.2 -0.2,0.4 -0.2,0.5 -0.1,0.1 -0.2,0.2 -0.3,0.3 -0.1,0.1 -0.2,0.1 -0.4,0.2 -0.3,-0.1 -0.5,0 -0.7,0 z m 3.7,-5.5 c 0,0.1 0.1,0.3 0.2,0.4 0.1,0.2 0.1,0.3 0.2,0.5 0.1,0.2 0.1,0.4 0.2,0.6 0.1,0.2 0.1,0.4 0.2,0.5 0.1,0.2 0.1,0.3 0.1,0.4 v 0 0 c 0,0 -0.1,0 -0.2,0 -0.1,0 -0.2,0 -0.3,0 -0.1,0 -0.2,0 -0.4,0 -0.2,0 -0.4,0 -0.5,0 -0.1,0 -0.2,0 -0.3,0 v 0 c 0,0 0,0 0,-0.1 0,-0.2 0.1,-0.3 0.2,-0.5 0.1,-0.2 0.1,-0.4 0.2,-0.6 0.1,-0.2 0.2,-0.4 0.2,-0.7 0,-0.2 0.1,-0.3 0.2,-0.5 v 0 0 z m 4.6,5.5 v 0.1 c 0,0.1 0,0.1 0,0.2 0,0.1 0,0.1 0,0.1 0.2,0 0.4,0 0.6,0 0.2,0 0.4,0 0.6,0 0.2,0 0.4,0 0.6,0 0.3,0 0.7,0 1,0 0.3,0 0.6,0 0.9,0 v -0.1 c 0,-0.1 0,-0.1 0,-0.2 0,-0.1 0,-0.1 0,-0.1 -0.2,0 -0.3,0 -0.5,-0.1 -0.1,0 -0.3,0 -0.4,-0.1 -0.1,0 -0.2,-0.1 -0.3,-0.2 -0.1,-0.1 -0.1,-0.2 -0.1,-0.4 0,-0.2 0,-0.4 0,-0.6 0,-0.2 0,-0.5 0,-0.7 0,-0.2 0,-0.5 0,-0.7 0,-0.3 0,-0.5 0,-0.7 0,-0.2 0,-0.5 0,-0.7 0,-0.3 0,-0.5 0,-0.8 0,-0.3 0,-0.5 0,-0.7 0,-0.2 0,-0.4 0,-0.6 v -0.1 l 0.1,-0.1 c 0.1,0 0.1,0 0.2,0 0.1,0 0.2,0 0.4,0 0.1,0 0.3,0 0.4,0 0.1,0 0.3,0 0.4,0 0.1,0 0.2,0 0.3,0 0.1,0 0.2,0 0.3,0.1 0.1,0.1 0.2,0.2 0.2,0.3 0,0.1 0.1,0.2 0.1,0.3 0,0.1 0.1,0.3 0.1,0.4 0,0.1 0.1,0.3 0.1,0.4 h 0.1 c 0.1,0 0.1,0 0.2,0 0.1,0 0.1,0 0.1,0 0,-0.2 0,-0.4 0,-0.6 0,-0.2 0,-0.4 0.1,-0.6 0,-0.2 0,-0.4 0.1,-0.5 0,-0.2 0,-0.3 0.1,-0.4 0,0 0,0 0,-0.1 0,0 0,0 -0.1,0 -0.1,0 -0.3,0 -0.5,0.1 -0.2,0 -0.5,0 -0.9,0 H 261 c -0.2,0 -0.5,0 -0.7,0 -0.2,0 -0.4,0 -0.6,0 -0.2,0 -0.3,0 -0.5,0 v 0.1 c 0,0.1 0,0.1 0,0.2 0,0.1 0,0.1 0,0.1 0.1,0 0.3,0 0.4,0.1 0.1,0 0.2,0 0.3,0.1 0.1,0 0.2,0.1 0.2,0.1 0,0 0.1,0.1 0.1,0.2 0,0.1 0,0.2 0,0.3 0,0.1 0,0.3 0,0.6 0,0.2 0,0.5 0,0.8 0,0.3 0,0.7 0,1.2 0,0.2 0,0.4 0,0.6 0,0.2 0,0.4 0,0.7 0,0.2 0,0.4 0,0.6 0,0.2 0,0.4 0,0.5 0,0.1 0,0.3 0,0.3 0,0.1 0,0.2 0,0.3 0,0.1 -0.1,0.1 -0.1,0.2 -0.1,0 -0.1,0.1 -0.2,0.1 -0.1,0 -0.2,0 -0.3,0 -0.2,0 -0.3,0 -0.4,0 z m 9.9,-2.6 c 0.1,0 0.2,0 0.2,0 0.1,0 0.2,0 0.3,0 0.2,0 0.5,0 0.8,-0.1 0.3,-0.1 0.5,-0.2 0.7,-0.3 0.2,-0.1 0.4,-0.3 0.6,-0.5 0.2,-0.2 0.3,-0.4 0.4,-0.7 0.1,-0.3 0.2,-0.6 0.2,-0.9 0,-0.3 0,-0.5 -0.1,-0.7 -0.1,-0.2 -0.2,-0.4 -0.3,-0.6 -0.1,-0.2 -0.3,-0.3 -0.4,-0.4 -0.1,-0.1 -0.3,-0.2 -0.4,-0.2 -0.1,-0.1 -0.3,-0.1 -0.4,-0.1 -0.1,0 -0.3,0 -0.4,-0.1 -0.1,0 -0.2,0 -0.3,0 -0.2,0 -0.4,0 -0.6,0 -0.2,0 -0.4,0 -0.5,0 -0.2,0 -0.4,0 -0.5,0 -0.2,0 -0.4,0 -0.6,0 -0.2,0 -0.4,0 -0.6,0 -0.2,0 -0.4,0 -0.6,0 -0.2,0 -0.3,0 -0.4,0 v 0.1 c 0,0.1 0,0.1 0,0.2 0,0.1 0,0.1 0,0.1 0.1,0 0.2,0 0.3,0 0.1,0 0.2,0 0.3,0.1 0.1,0 0.2,0.1 0.2,0.1 0.1,0.1 0.1,0.1 0.1,0.2 0,0.1 0,0.2 0,0.3 0,0.1 0,0.3 0,0.5 0,0.2 0,0.5 0,0.8 0,0.3 0,0.7 0,1.1 0,0.7 0,1.3 0,1.8 0,0.5 0,0.8 0,1 0,0.1 0,0.2 0,0.3 0,0.1 -0.1,0.2 -0.1,0.2 -0.1,0.1 -0.1,0.1 -0.2,0.1 -0.1,0 -0.2,0 -0.3,0.1 -0.1,0 -0.2,0 -0.3,0.1 v 0.1 c 0,0.1 0,0.1 0,0.2 0,0.1 0,0.1 0,0.1 0.2,0 0.4,0 0.6,0 0.2,0 0.4,0 0.6,0 0.2,0 0.4,0 0.6,0 0.2,0 0.3,0 0.5,0 0.2,0 0.3,0 0.5,0 0.2,0 0.3,0 0.5,0 0.2,0 0.3,0 0.4,0 V 459 c 0,-0.1 0,-0.1 0,-0.2 0,-0.1 0,-0.1 0,-0.1 -0.3,0 -0.6,-0.1 -0.8,-0.1 -0.1,0 -0.2,-0.1 -0.2,-0.1 -0.1,-0.1 -0.1,-0.1 -0.1,-0.2 0,-0.1 0,-0.2 0,-0.3 0,-0.2 0,-0.4 0,-0.6 0,-0.2 0,-0.5 0,-0.8 0,-0.3 0,-0.5 0,-0.8 0,-0.3 0,-0.5 0,-0.7 0,-0.4 0,-0.8 0,-1.1 0,-0.3 0,-0.6 0,-0.8 0,-0.2 0,-0.4 0,-0.5 0,-0.1 0,-0.3 0,-0.3 v -0.1 -0.1 h 0.1 c 0.1,0 0.1,0 0.2,0 h 0.1 c 0.4,0 0.7,0.1 0.9,0.2 0.3,0.2 0.4,0.4 0.6,0.7 0.1,0.3 0.2,0.6 0.2,1 0,0.4 -0.1,0.7 -0.2,1 -0.1,0.2 -0.3,0.4 -0.5,0.6 -0.1,0.1 -0.2,0.1 -0.3,0.1 -0.1,0 -0.2,0 -0.4,0 -0.1,0 -0.2,0 -0.2,0 -0.1,0 -0.1,0 -0.2,0 v 0 c 0,0 0,0 0,0.1 v 0.1 c 0,0 0,0.1 0.1,0.1 -0.1,0 -0.1,0.1 -0.1,0.1 z m 8.3,3.2 c 0.4,0 0.8,-0.1 1.2,-0.2 0.4,-0.1 0.8,-0.3 1.1,-0.5 0.3,-0.2 0.7,-0.5 0.9,-0.9 0.3,-0.3 0.4,-0.7 0.6,-1.2 0.1,-0.4 0.2,-0.9 0.2,-1.4 0,-0.4 -0.1,-0.8 -0.2,-1.2 -0.1,-0.4 -0.3,-0.7 -0.5,-1.1 -0.2,-0.3 -0.5,-0.6 -0.8,-0.8 -0.3,-0.2 -0.7,-0.4 -1.1,-0.6 -0.4,-0.1 -0.9,-0.2 -1.4,-0.2 -0.4,0 -0.8,0.1 -1.2,0.2 -0.4,0.1 -0.7,0.3 -1.1,0.5 -0.3,0.2 -0.6,0.4 -0.8,0.7 -0.2,0.2 -0.4,0.5 -0.6,0.8 -0.1,0.3 -0.3,0.6 -0.3,0.9 -0.1,0.3 -0.1,0.6 -0.1,1 0,0.3 0,0.7 0.1,1 0.1,0.3 0.2,0.7 0.3,1 0.2,0.3 0.4,0.6 0.6,0.9 0.2,0.2 0.5,0.4 0.8,0.6 0.3,0.2 0.6,0.3 1,0.4 0.4,0.1 0.8,0.1 1.3,0.1 z m 0.4,-0.6 c -0.3,0 -0.5,0 -0.7,-0.1 -0.2,-0.1 -0.4,-0.2 -0.6,-0.3 -0.2,-0.2 -0.4,-0.4 -0.6,-0.7 -0.2,-0.3 -0.3,-0.5 -0.4,-0.8 -0.1,-0.3 -0.2,-0.6 -0.2,-0.9 0,-0.3 -0.1,-0.6 -0.1,-0.9 0,-0.4 0,-0.8 0.1,-1.1 0.1,-0.4 0.2,-0.7 0.3,-1 0.2,-0.3 0.4,-0.5 0.6,-0.7 0.1,-0.1 0.3,-0.2 0.5,-0.2 0.2,0 0.4,-0.1 0.5,-0.1 0.3,0 0.5,0 0.7,0.1 0.2,0.1 0.4,0.2 0.6,0.4 0.2,0.2 0.4,0.4 0.5,0.6 0.2,0.2 0.3,0.5 0.4,0.8 0.1,0.3 0.2,0.6 0.2,0.9 0,0.3 0.1,0.6 0.1,1 0,0.4 0,0.7 -0.1,1.1 -0.1,0.3 -0.1,0.7 -0.3,0.9 -0.1,0.3 -0.3,0.5 -0.5,0.7 -0.1,0.1 -0.3,0.2 -0.5,0.3 -0.1,0 -0.3,0 -0.5,0 z m 35.4,-5.7 v 0 c 0,-0.1 0,-0.1 0,0 0,-0.1 0,-0.1 0,0 0.4,0 0.7,0.2 1,0.4 0.2,0.2 0.4,0.5 0.5,0.9 0.1,0.3 0.1,0.7 0.1,1.1 0,0.4 0,0.8 -0.1,1.1 -0.1,0.3 -0.2,0.5 -0.3,0.7 -0.1,0.2 -0.3,0.3 -0.5,0.4 -0.2,0.1 -0.4,0.1 -0.6,0.2 0,0 0,0 -0.1,0 0,0 0,0 0,-0.1 z m -1.5,4.6 v 0 c 0,0 0,0.1 0,0 -0.4,0 -0.6,-0.2 -0.9,-0.4 -0.2,-0.2 -0.4,-0.5 -0.6,-0.9 -0.1,-0.4 -0.2,-0.8 -0.2,-1.3 0,-0.4 0,-0.7 0.1,-0.9 0.1,-0.3 0.2,-0.5 0.3,-0.6 0.1,-0.2 0.3,-0.3 0.5,-0.4 0.2,-0.1 0.4,-0.1 0.6,-0.2 v 0 c 0,0 0,0 0,0.1 v 4.6 z m 2.4,1.4 c -0.1,0 -0.3,0 -0.4,0 -0.1,0 -0.2,0 -0.3,0 -0.1,0 -0.2,-0.1 -0.2,-0.1 0,-0.1 -0.1,-0.2 -0.1,-0.3 0,-0.1 0,-0.2 0,-0.3 0.1,0 0.3,0 0.5,-0.1 0.2,0 0.4,-0.1 0.6,-0.1 0.2,-0.1 0.4,-0.1 0.6,-0.2 0.2,-0.1 0.4,-0.2 0.5,-0.3 0.3,-0.2 0.6,-0.5 0.7,-0.9 0.2,-0.4 0.3,-0.8 0.3,-1.3 0,-0.4 -0.1,-0.8 -0.2,-1.1 -0.1,-0.3 -0.3,-0.6 -0.5,-0.8 -0.2,-0.2 -0.4,-0.4 -0.7,-0.5 -0.3,-0.1 -0.5,-0.2 -0.9,-0.3 -0.3,-0.1 -0.6,-0.1 -0.9,-0.1 0,-0.1 0,-0.2 0,-0.3 0,-0.1 0,-0.2 0.1,-0.2 0,-0.1 0.1,-0.1 0.2,-0.1 0.1,0 0.1,0 0.2,0 0.1,0 0.2,0 0.3,0 V 452 c 0,-0.1 0,-0.1 0,-0.2 0,-0.1 0,-0.1 0,-0.1 -0.1,0 -0.3,0 -0.4,0 -0.2,0 -0.4,0 -0.5,0 -0.2,0 -0.4,0 -0.5,0 -0.2,0 -0.4,0 -0.6,0 -0.2,0 -0.4,0 -0.6,0 -0.2,0 -0.3,0 -0.5,0 0,0 0,0 0,0.1 0,0.1 0,0.1 0,0.2 0,0.1 0,0.1 0,0.1 0.1,0 0.2,0 0.3,0 0.1,0 0.1,0 0.2,0 0.1,0 0.2,0.1 0.2,0.1 0.1,0.1 0.1,0.1 0.1,0.2 0,0.1 0,0.2 0,0.4 -0.2,0 -0.4,0 -0.6,0.1 -0.2,0 -0.4,0.1 -0.7,0.2 -0.2,0.1 -0.4,0.2 -0.6,0.3 -0.3,0.2 -0.5,0.3 -0.7,0.5 -0.2,0.2 -0.3,0.5 -0.4,0.7 -0.1,0.3 -0.2,0.6 -0.2,1 0,0.6 0.1,1.1 0.4,1.5 0.3,0.4 0.6,0.7 1.1,0.9 0.5,0.2 1,0.3 1.7,0.4 0,0.1 0,0.2 0,0.3 0,0.1 0,0.2 -0.1,0.2 -0.1,0.1 -0.1,0.1 -0.3,0.1 -0.1,0 -0.1,0 -0.2,0 -0.1,0 -0.2,0 -0.3,0 v 0.1 c 0,0.1 0,0.1 0,0.2 0,0.1 0,0.1 0,0.1 0.2,0 0.3,0 0.5,0 0.2,0 0.4,0 0.6,0 0.2,0 0.4,0 0.6,0 0.1,0 0.3,0 0.4,0 0.1,0 0.3,0 0.4,0 0.2,0 0.3,0 0.4,0 0.1,0 0.2,0 0.3,0 v -0.1 c 0,-0.1 0,-0.1 0,-0.2 0.3,0 0.3,0 0.2,0 z m 7.5,0.3 c 0.4,0 0.8,-0.1 1.2,-0.2 0.4,-0.1 0.8,-0.3 1.1,-0.5 0.3,-0.2 0.7,-0.5 0.9,-0.9 0.3,-0.3 0.4,-0.7 0.6,-1.2 0.1,-0.4 0.2,-0.9 0.2,-1.4 0,-0.4 -0.1,-0.8 -0.2,-1.2 -0.1,-0.4 -0.3,-0.7 -0.5,-1.1 -0.2,-0.3 -0.5,-0.6 -0.8,-0.8 -0.3,-0.2 -0.7,-0.4 -1.1,-0.6 -0.4,-0.1 -0.9,-0.2 -1.4,-0.2 -0.4,0 -0.8,0.1 -1.2,0.2 -0.4,0.1 -0.7,0.3 -1.1,0.5 -0.3,0.2 -0.6,0.4 -0.8,0.7 -0.2,0.2 -0.4,0.5 -0.6,0.8 -0.1,0.3 -0.3,0.6 -0.3,0.9 -0.1,0.3 -0.1,0.6 -0.1,1 0,0.3 0,0.7 0.1,1 0.1,0.3 0.2,0.7 0.3,1 0.2,0.3 0.4,0.6 0.6,0.9 0.2,0.2 0.5,0.4 0.8,0.6 0.3,0.2 0.6,0.3 1,0.4 0.5,0.1 0.9,0.1 1.3,0.1 z m 0.4,-0.6 c -0.3,0 -0.5,0 -0.7,-0.1 -0.2,-0.1 -0.4,-0.2 -0.6,-0.3 -0.2,-0.2 -0.4,-0.4 -0.6,-0.7 -0.2,-0.3 -0.3,-0.5 -0.4,-0.8 -0.1,-0.3 -0.2,-0.6 -0.2,-0.9 0,-0.3 -0.1,-0.6 -0.1,-0.9 0,-0.4 0,-0.8 0.1,-1.1 0.1,-0.4 0.2,-0.7 0.3,-1 0.2,-0.3 0.4,-0.5 0.6,-0.7 0.1,-0.1 0.3,-0.2 0.5,-0.2 0.2,0 0.4,-0.1 0.5,-0.1 0.3,0 0.5,0 0.7,0.1 0.2,0.1 0.4,0.2 0.6,0.4 0.2,0.2 0.4,0.4 0.5,0.6 0.2,0.2 0.3,0.5 0.4,0.8 0.1,0.3 0.2,0.6 0.2,0.9 0,0.3 0.1,0.6 0.1,1 0,0.4 0,0.7 -0.1,1.1 -0.1,0.3 -0.1,0.7 -0.3,0.9 -0.1,0.3 -0.3,0.5 -0.5,0.7 -0.1,0.1 -0.3,0.2 -0.5,0.3 -0.1,0 -0.3,0 -0.5,0 z"
       style="fill:#7c8b46" /><path
       id="path13"
       inkscape:connector-curvature="0"
       d="m 326.7,452 c 0.1,0 0.3,0 0.4,0.1 0.1,0 0.2,0 0.3,0.1 0.1,0 0.1,0 0.2,0.1 0,0 0.1,0.1 0.1,0.2 0,0.1 0,0.2 0,0.3 0,0.1 0,0.2 0,0.4 0,0.2 0,0.4 0,0.6 0,0.2 0,0.5 0,0.8 0,0.3 0,0.6 0,0.9 0,0.3 0,0.5 0,0.8 0,0.3 0,0.5 0,0.7 0,0.2 0,0.4 0,0.6 0,0.2 0,0.3 0,0.3 0,0.2 0,0.3 0,0.4 0,0.1 -0.1,0.2 -0.1,0.3 -0.1,0.1 -0.1,0.1 -0.3,0.1 -0.1,0 -0.1,0 -0.2,0 -0.1,0 -0.1,0 -0.2,0 -0.1,0 -0.1,0 -0.2,0 v 0.1 c 0,0.1 0,0.1 0,0.2 0,0.1 0,0.1 0,0.1 0.1,0 0.3,0 0.6,0 0.3,0 0.7,0 1.1,0 0.5,0 0.9,0 1.2,0 0.3,0 0.5,0 0.6,0 V 459 c 0,-0.1 0,-0.1 0,-0.2 0,-0.1 0,-0.1 0,-0.1 -0.1,0 -0.3,0 -0.4,-0.1 -0.1,0 -0.2,0 -0.3,-0.1 -0.1,0 -0.2,-0.1 -0.2,-0.1 0,-0.1 -0.1,-0.1 -0.1,-0.2 0,-0.1 0,-0.2 0,-0.3 0,-0.1 0,-0.3 0,-0.4 0,-0.2 0,-0.4 0,-0.6 0,-0.2 0,-0.4 0,-0.6 0,-0.2 0,-0.4 0,-0.6 v 0 0 c 0,0 0.1,0 0.2,0 0.1,0 0.3,0 0.5,0 0.2,0 0.6,0 1,0 0.1,0 0.3,0 0.5,0 0.2,0 0.3,0 0.5,0 0.1,0 0.3,0 0.4,0 0.1,0 0.2,0 0.3,0 0,0 0,0 0.1,0 0,0 0,0 0,0.1 0,0.2 0,0.4 0,0.6 0,0.2 0,0.4 0,0.6 0,0.2 0,0.4 0,0.6 0,0.2 0,0.3 0,0.5 0,0.2 0,0.3 -0.1,0.4 -0.1,0.1 -0.1,0.1 -0.2,0.2 -0.1,0 -0.2,0 -0.3,0.1 -0.1,0 -0.2,0 -0.4,0 v 0.1 c 0,0.1 0,0.1 0,0.2 0,0.1 0,0.1 0,0.1 0.1,0 0.2,0 0.4,0 0.2,0 0.4,0 0.6,0 0.2,0 0.5,0 0.7,0 0.4,0 0.8,0 1.1,0 0.3,0 0.5,0 0.7,0 v -0.1 c 0,-0.1 0,-0.1 0,-0.2 0,-0.1 0,-0.1 0,-0.1 -0.1,0 -0.2,0 -0.3,0 -0.1,0 -0.2,0 -0.2,0 -0.1,0 -0.1,0 -0.2,-0.1 -0.1,0 -0.2,-0.1 -0.2,-0.2 0,-0.1 -0.1,-0.2 -0.1,-0.4 0,-0.1 0,-0.3 0,-0.5 0,-0.2 0,-0.4 0,-0.6 0,-0.2 0,-0.5 0,-0.7 0,-0.2 0,-0.5 0,-0.7 0,-0.4 0,-0.7 0,-1 0,-0.3 0,-0.5 0,-0.7 0,-0.2 0,-0.4 0,-0.6 0,-0.2 0,-0.3 0,-0.5 0,-0.1 0,-0.2 0,-0.3 0,-0.1 0.1,-0.1 0.1,-0.2 0,0 0.1,-0.1 0.2,-0.1 0.1,0 0.2,-0.1 0.3,-0.1 0.1,0 0.2,0 0.3,-0.1 v -0.1 c 0,-0.1 0,-0.1 0,-0.2 0,-0.1 0,-0.1 0,-0.1 -0.1,0 -0.2,0 -0.4,0 -0.2,0 -0.3,0 -0.5,0 -0.2,0 -0.5,0 -0.8,0 -0.3,0 -0.5,0 -0.7,0 -0.2,0 -0.4,0 -0.6,0 -0.2,0 -0.3,0 -0.5,0 v 0.1 c 0,0.1 0,0.1 0,0.2 0,0.1 0,0.1 0,0.1 0.1,0 0.3,0 0.4,0.1 0.1,0 0.2,0 0.3,0.1 0.1,0 0.2,0.1 0.2,0.2 0,0.1 0.1,0.2 0.1,0.3 0,0.2 0,0.3 0,0.5 0,0.2 0,0.4 0,0.6 0,0.2 0,0.4 0,0.6 0,0.2 0,0.4 0,0.5 0,0 0,0 0,0.1 v 0 c 0,0 -0.1,0 -0.3,0 -0.1,0 -0.3,0 -0.5,0 -0.2,0 -0.5,0 -0.8,0 -0.4,0 -0.7,0 -0.9,0 -0.2,0 -0.4,0 -0.5,0 -0.1,0 -0.2,0 -0.3,0 -0.1,0 -0.1,0 -0.1,0 v 0 c 0,0 0,0 0,-0.1 0,-0.4 0,-0.8 0,-1.2 0,-0.4 0,-0.7 0,-0.9 0,-0.1 0,-0.2 0,-0.3 0,-0.1 0.1,-0.1 0.1,-0.2 0,0 0.1,-0.1 0.2,-0.1 0.1,0 0.2,0 0.3,-0.1 0.1,0 0.2,0 0.3,-0.1 v -0.1 c 0,-0.1 0,-0.1 0,-0.2 0,-0.1 0,-0.1 0,-0.1 -0.1,0 -0.2,0 -0.4,0 -0.2,0 -0.3,0 -0.6,0 -0.2,0 -0.5,0 -0.8,0 -0.4,0 -0.8,0 -1.1,0 -0.3,0 -0.5,0 -0.6,0 v 0.1 c 0,0.1 0,0.1 0,0.2 0,0.1 0,0.1 0.1,0.1 z m 9.2,6.6 c 0,0.1 0.1,0.2 0.1,0.4 0,0.2 0.1,0.3 0.1,0.5 0,0.2 0.1,0.4 0.1,0.6 0,0.2 0.1,0.4 0.1,0.6 0,0.2 0,0.4 0.1,0.6 0,0 0,0 0.1,0 0,0 0.1,0 0.2,0 0.1,0 0.1,0 0.2,0 h 0.1 c 0,-0.2 0,-0.3 0.1,-0.5 0,-0.2 0.1,-0.4 0.1,-0.6 0,-0.2 0.1,-0.4 0.1,-0.5 0,-0.2 0.1,-0.3 0.1,-0.4 0,0 0,0 0.1,-0.1 h 0.1 0.1 4.5 c 0.1,0 0.1,0 0.2,0 l 0.1,0.1 v 0 c 0,0.1 0.1,0.3 0.1,0.5 0,0.2 0.1,0.4 0.1,0.7 0,0.3 0.1,0.5 0.1,0.8 0,0 0,0 0.1,0 h 0.1 c 0.1,0 0.1,0 0.1,0 h 0.1 c 0,-0.2 0.1,-0.4 0.1,-0.7 0,-0.2 0.1,-0.5 0.2,-0.7 0.1,-0.2 0.1,-0.5 0.2,-0.7 0.1,-0.2 0.1,-0.4 0.2,-0.6 v 0 0 c -0.1,0 -0.1,0 -0.2,0 -0.1,0 -0.2,0 -0.3,0 -0.1,0 -0.2,0 -0.2,0 h -0.1 c 0,0 -0.1,0 -0.1,-0.1 0,0 0,0 0,-0.1 -0.1,-0.1 -0.1,-0.3 -0.2,-0.5 -0.1,-0.2 -0.2,-0.5 -0.3,-0.8 -0.1,-0.3 -0.3,-0.6 -0.4,-1 -0.1,-0.3 -0.3,-0.7 -0.4,-1.1 -0.1,-0.4 -0.3,-0.7 -0.4,-1.1 -0.1,-0.3 -0.3,-0.7 -0.4,-1 -0.1,-0.3 -0.2,-0.6 -0.3,-0.8 0,-0.1 -0.1,-0.2 -0.1,-0.3 0,-0.1 0,-0.1 -0.1,-0.2 0,-0.1 0,-0.1 0,-0.2 0,0 -0.1,0 -0.2,0 -0.1,0 -0.2,0 -0.3,0 -0.1,0 -0.2,0 -0.3,0 -0.1,0 -0.1,0 -0.2,0 0,0.1 0,0.2 -0.1,0.3 0,0.1 -0.1,0.2 -0.1,0.3 0,0.1 -0.1,0.2 -0.1,0.3 -0.1,0.3 -0.2,0.7 -0.4,1 -0.1,0.4 -0.3,0.8 -0.4,1.1 -0.1,0.4 -0.3,0.8 -0.4,1.1 -0.1,0.4 -0.3,0.7 -0.4,1 -0.1,0.3 -0.2,0.6 -0.3,0.8 -0.1,0.2 -0.2,0.4 -0.2,0.5 0,0 0,0.1 -0.1,0.1 l -0.1,0.1 -0.1,0.1 c -0.1,0 -0.1,0 -0.2,0 -0.1,0 -0.1,0 -0.2,0 -0.2,0.5 -0.3,0.5 -0.4,0.5 z m 3.3,-4.9 c 0,0.1 0.1,0.2 0.2,0.4 0.1,0.2 0.2,0.4 0.3,0.7 0.1,0.3 0.2,0.6 0.3,0.9 0.1,0.3 0.2,0.6 0.3,0.9 0.1,0.3 0.2,0.6 0.3,0.8 0.1,0.3 0.2,0.5 0.2,0.6 0.1,0.2 0.1,0.3 0.1,0.3 v 0.1 0 c -0.1,0 -0.2,0 -0.4,0 -0.2,0 -0.4,0 -0.6,0 -0.2,0 -0.4,0 -0.7,0 -0.2,0 -0.5,0 -0.7,0 -0.2,0 -0.4,0 -0.6,0 -0.2,0 -0.3,0 -0.4,0 0,0 0,0 -0.1,0 v -0.1 c 0,-0.1 0.1,-0.2 0.1,-0.4 0.1,-0.2 0.1,-0.4 0.2,-0.7 0.1,-0.3 0.2,-0.5 0.3,-0.8 0.1,-0.3 0.2,-0.6 0.3,-0.9 0.1,-0.3 0.2,-0.6 0.3,-0.8 0.1,-0.3 0.2,-0.5 0.2,-0.7 0.3,-0.1 0.3,-0.2 0.4,-0.3 v 0 0 z"
       style="fill:#7c8b46" /><path
       id="path15"
       inkscape:connector-curvature="0"
       d="m 289.1,453.7 v 0 c 0.1,0 0.2,0 0.2,0 0.1,0 0.1,0 0.1,0 h 0.1 c 0,-0.2 0,-0.3 0,-0.5 0,-0.2 0,-0.4 0,-0.6 0,-0.2 0,-0.4 0.1,-0.5 0,-0.2 0,-0.3 0.1,-0.4 -0.2,0 -0.4,0 -0.7,-0.1 -0.3,0 -0.5,-0.1 -0.9,-0.1 -0.3,0 -0.6,0 -1,0 -0.5,0 -1,0 -1.4,0.1 -0.4,0.1 -0.8,0.2 -1.1,0.4 -0.3,0.2 -0.6,0.4 -0.9,0.6 -0.3,0.2 -0.5,0.5 -0.6,0.8 -0.2,0.3 -0.3,0.6 -0.4,0.9 -0.1,0.3 -0.1,0.7 -0.1,1 0,0.9 0.2,1.6 0.5,2.2 0.3,0.6 0.8,1.1 1.5,1.4 0.6,0.3 1.4,0.5 2.4,0.5 0.3,0 0.6,0 0.8,0 0.2,0 0.4,-0.1 0.6,-0.1 0.2,0 0.3,-0.1 0.5,-0.1 0.1,-0.1 0.2,-0.2 0.3,-0.3 0.1,-0.1 0.2,-0.3 0.3,-0.5 0.1,-0.2 0.2,-0.3 0.3,-0.5 0.1,-0.2 0.1,-0.3 0.2,-0.5 0,0 0,-0.1 -0.1,-0.1 l -0.1,-0.1 h -0.1 c -0.1,0.2 -0.2,0.3 -0.3,0.5 -0.1,0.2 -0.2,0.3 -0.3,0.4 -0.1,0.1 -0.2,0.2 -0.3,0.3 -0.1,0.1 -0.3,0.2 -0.4,0.2 -0.1,0.1 -0.3,0.1 -0.4,0.1 -0.1,0 -0.3,0 -0.4,0 -0.4,0 -0.8,-0.1 -1.1,-0.2 -0.3,-0.1 -0.6,-0.3 -0.8,-0.5 -0.2,-0.2 -0.4,-0.5 -0.6,-0.8 -0.1,-0.3 -0.3,-0.6 -0.3,-1 -0.1,-0.3 -0.1,-0.7 -0.1,-1.1 0,-0.7 0.1,-1.3 0.3,-1.8 0.2,-0.5 0.5,-0.9 0.8,-1.1 0.4,-0.2 0.8,-0.4 1.3,-0.4 0.3,0 0.5,0 0.8,0.1 0.3,0 0.5,0.1 0.7,0.2 0.2,0.1 0.3,0.2 0.4,0.3 0.1,0.1 0.2,0.3 0.2,0.5 -0.2,0.3 -0.2,0.5 -0.1,0.8 z m 1.6,-1.7 c 0.1,0 0.2,0 0.4,0 0.1,0 0.2,0 0.3,0.1 0.1,0 0.1,0.1 0.2,0.1 0,0 0.1,0.1 0.1,0.2 0,0.1 0,0.2 0,0.3 0,0.1 0,0.2 0,0.4 0,0.2 0,0.4 0,0.6 0,0.2 0,0.4 0,0.7 0,0.2 0,0.5 0,0.7 0,0.7 0,1.3 0,1.8 0,0.5 0,0.9 0,1.2 0,0.1 0,0.3 0,0.3 0,0.1 -0.1,0.2 -0.1,0.2 -0.1,0 -0.1,0.1 -0.2,0.1 -0.1,0 -0.2,0 -0.4,0.1 -0.2,0 -0.3,0 -0.5,0.1 v 0.1 c 0,0.1 0,0.1 0,0.2 0,0.1 0,0.1 0,0.1 0.2,0 0.4,0 0.7,0 0.2,0 0.5,0 0.7,0 0.2,0 0.5,0 0.7,0 0.4,0 0.9,0 1.2,0 0.4,0 0.8,0 1.1,0 0.4,0 0.7,0 1.1,0 0.2,0 0.3,0 0.4,0 0.1,0 0.2,0 0.2,-0.1 l 0.1,-0.1 c 0,-0.1 0.1,-0.2 0.1,-0.3 0,-0.1 0.1,-0.3 0.1,-0.4 0,-0.1 0.1,-0.3 0.1,-0.4 0,-0.1 0.1,-0.3 0.1,-0.4 0,-0.1 0,-0.2 0.1,-0.3 l -0.1,-0.1 c -0.1,0 -0.1,0 -0.2,-0.1 -0.1,0 -0.1,0 -0.1,0 -0.1,0.1 -0.1,0.3 -0.2,0.4 -0.1,0.1 -0.1,0.3 -0.2,0.4 -0.1,0.1 -0.2,0.2 -0.2,0.3 -0.1,0.1 -0.2,0.2 -0.2,0.2 -0.1,0.1 -0.2,0.1 -0.3,0.1 -0.1,0 -0.3,0 -0.4,0 -0.2,0 -0.3,0 -0.5,0 -0.2,0 -0.3,0 -0.5,0 -0.2,0 -0.3,0 -0.4,0 -0.1,0 -0.2,0 -0.3,0 -0.1,0 -0.1,-0.1 -0.2,-0.1 -0.1,-0.1 -0.1,-0.2 -0.1,-0.3 0,-0.2 0,-0.3 0,-0.5 0,-0.2 0,-0.4 0,-0.6 0,-0.2 0,-0.4 0,-0.6 0,-0.2 0,-0.4 0,-0.6 0,0 0,0 0,-0.1 0,0 0,0 0.1,0 0.1,0 0.2,0 0.4,0 0.2,0 0.3,0 0.5,0 0.2,0 0.3,0 0.5,0 0.1,0 0.2,0 0.3,0 0.1,0 0.2,0.1 0.3,0.1 0.1,0.1 0.1,0.1 0.1,0.2 v 0.1 0.1 c 0,0.1 0,0.1 0.1,0.2 h 0.1 c 0.1,0 0.1,0 0.2,0 0.1,0 0.1,0 0.1,0 0,-0.1 0,-0.2 0,-0.4 0,-0.1 0,-0.3 0,-0.4 0,-0.1 0,-0.3 0,-0.4 0,-0.1 0,-0.3 0,-0.4 0,-0.1 0,-0.3 0,-0.4 0,-0.1 0,-0.2 0,-0.3 h -0.1 c -0.1,0 -0.1,0 -0.2,0 -0.1,0 -0.1,0 -0.1,0 0,0.1 0,0.2 -0.1,0.2 0,0.1 0,0.2 -0.1,0.2 0,0.1 -0.1,0.2 -0.1,0.3 -0.1,0.1 -0.2,0.1 -0.3,0.1 -0.1,0 -0.2,0 -0.4,0 -0.1,0 -0.3,0 -0.5,0 -0.2,0 -0.3,0 -0.5,0 -0.1,0 -0.3,0 -0.4,0 0,0 0,0 -0.1,0 0,0 0,0 0,-0.1 0,-0.2 0,-0.5 0,-0.8 0,-0.3 0,-0.6 0,-0.9 0,-0.3 0,-0.6 0,-0.8 0,0 0,0 0,-0.1 v -0.1 c 0,0 0,0 0.1,0 0,0 0.1,0 0.2,0 0.1,0 0.2,0 0.4,0 0.2,0 0.3,0 0.5,0 0.2,0 0.3,0 0.4,0 0.1,0 0.2,0 0.3,0 0.1,0 0.2,0 0.3,0.1 0.1,0.1 0.2,0.1 0.2,0.3 0,0.1 0.1,0.2 0.1,0.3 0,0.1 0.1,0.3 0.1,0.5 h 0.1 c 0.1,0 0.1,0 0.2,0 0.1,0 0.1,0 0.1,0 0,-0.2 0,-0.3 0,-0.5 0,-0.2 0,-0.3 0,-0.5 0,-0.2 0,-0.3 0.1,-0.5 0,-0.1 0,-0.3 0.1,-0.4 v 0 0 c -0.1,0 -0.3,0 -0.5,0 -0.2,0 -0.4,0 -0.5,0 -0.2,0 -0.4,0 -0.5,0 h -2.5 c -0.2,0 -0.4,0 -0.6,0 -0.2,0 -0.4,0 -0.6,0 -0.2,0 -0.4,0 -0.5,0 0,0 0,0 0,0.1 0,0.1 0,0.1 0,0.2 0.1,0.3 0.1,0.3 0.1,0.3 z m 7.1,0 c 0.2,0 0.4,0.1 0.5,0.1 0.1,0 0.3,0.1 0.4,0.1 0.1,0 0.2,0.1 0.2,0.1 0,0.1 0.1,0.1 0.1,0.2 0,0.1 0,0.2 0,0.2 0,0.2 0,0.4 0,0.7 0,0.3 0,0.6 -0.1,0.9 0,0.3 -0.1,0.7 -0.1,1 0,0.3 -0.1,0.7 -0.1,1 0,0.3 -0.1,0.6 -0.1,0.9 0,0.3 -0.1,0.5 -0.1,0.6 0,0.2 -0.1,0.3 -0.1,0.4 0,0.1 -0.1,0.2 -0.2,0.3 -0.1,0.1 -0.2,0.1 -0.3,0.1 -0.1,0 -0.2,0 -0.3,0.1 -0.1,0 -0.2,0 -0.3,0 v 0.1 c 0,0.1 0,0.1 0,0.2 0,0.1 0,0.1 0,0.1 0.1,0 0.3,0 0.4,0 0.2,0 0.3,0 0.5,0 0.2,0 0.4,0 0.5,0 0.4,0 0.7,0 1,0 0.3,0 0.5,0 0.7,0 V 459 c 0,-0.1 0,-0.1 0,-0.2 0,-0.1 0,-0.1 0,-0.1 -0.2,0 -0.3,0 -0.4,-0.1 -0.1,0 -0.2,0 -0.3,-0.1 -0.1,0 -0.2,-0.1 -0.3,-0.1 -0.1,-0.1 -0.1,-0.1 -0.1,-0.2 0,-0.1 0,-0.2 0,-0.4 0,-0.2 0,-0.4 0,-0.6 0,-0.2 0,-0.5 0,-0.8 0,-0.3 0,-0.6 0,-0.9 0,-0.3 0,-0.6 0,-0.9 0,-0.3 0,-0.5 0,-0.8 0,-0.2 0,-0.5 0,-0.6 v 0 0 c 0.2,0.4 0.4,0.9 0.6,1.3 0.2,0.5 0.4,0.9 0.6,1.3 0.2,0.4 0.4,0.9 0.5,1.3 0.2,0.4 0.3,0.8 0.4,1.1 0.1,0.3 0.2,0.6 0.3,0.8 0,0 0,0 0.1,0 0,0 0.1,0 0.2,0 0.1,0 0.1,0 0.2,0 h 0.1 c 0.1,-0.2 0.1,-0.4 0.2,-0.6 0.1,-0.2 0.2,-0.5 0.3,-0.8 0.1,-0.3 0.3,-0.6 0.4,-0.9 0.1,-0.3 0.3,-0.7 0.4,-1 0.2,-0.3 0.3,-0.6 0.4,-1 0.1,-0.3 0.3,-0.6 0.4,-0.8 0.1,-0.2 0.2,-0.4 0.3,-0.6 v 0 0 c 0,0.2 0,0.4 0,0.7 0,0.3 0,0.5 0,0.8 0,0.3 0,0.6 0,0.9 0,0.3 0,0.6 0,0.9 0,0.3 0,0.5 0,0.8 0,0.2 0,0.4 0,0.6 0,0.2 0,0.3 -0.1,0.4 0,0.1 -0.1,0.2 -0.2,0.2 -0.1,0 -0.2,0.1 -0.3,0.1 -0.1,0 -0.2,0 -0.4,0.1 v 0.1 c 0,0.1 0,0.1 0,0.2 0,0.1 0,0.1 0,0.1 0.2,0 0.5,0 0.8,0 0.3,0 0.6,0 0.9,0 0.4,0 0.6,0 0.9,0 0.2,0 0.4,0 0.6,0 0.2,0 0.3,0 0.4,0 v -0.1 c 0,-0.1 0,-0.1 0,-0.2 0,-0.1 0,-0.1 0,-0.1 -0.1,0 -0.3,0 -0.4,-0.1 -0.1,0 -0.2,0 -0.3,-0.1 -0.1,0 -0.2,-0.1 -0.3,-0.1 -0.1,-0.1 -0.1,-0.1 -0.1,-0.2 0,-0.1 0,-0.2 0,-0.3 0,-0.1 0,-0.3 0,-0.5 0,-0.2 0,-0.5 0,-0.7 0,-0.3 0,-0.6 0,-0.9 0,-0.3 0,-0.6 0,-0.9 0,-0.3 0,-0.6 0,-0.9 0,-0.3 0,-0.5 0,-0.7 0,-0.2 0,-0.4 0,-0.5 0,-0.1 0,-0.2 0,-0.3 0,-0.1 0,-0.1 0.1,-0.2 0,-0.1 0.1,-0.1 0.2,-0.1 0.1,0 0.2,0 0.3,-0.1 0.1,0 0.3,0 0.4,-0.1 0,0 0,0 0,-0.1 v -0.1 -0.1 -0.1 c -0.2,0 -0.3,0 -0.5,0 -0.2,0 -0.3,0 -0.5,0 -0.2,0 -0.4,0 -0.7,0 -0.2,0 -0.5,0 -0.9,0 0,0.1 0,0.2 -0.1,0.3 0,0.1 -0.1,0.3 -0.1,0.4 -0.1,0.2 -0.2,0.4 -0.3,0.6 -0.1,0.2 -0.2,0.5 -0.4,0.8 -0.1,0.3 -0.3,0.6 -0.4,0.9 -0.1,0.3 -0.3,0.6 -0.4,0.8 -0.1,0.3 -0.2,0.5 -0.3,0.7 -0.1,0.2 -0.2,0.3 -0.2,0.4 v 0 0 c 0,-0.1 -0.1,-0.2 -0.2,-0.4 -0.1,-0.2 -0.2,-0.4 -0.3,-0.6 -0.1,-0.2 -0.2,-0.5 -0.4,-0.8 -0.1,-0.3 -0.3,-0.6 -0.4,-0.8 -0.1,-0.3 -0.3,-0.6 -0.4,-0.8 -0.1,-0.3 -0.2,-0.5 -0.3,-0.7 -0.1,-0.1 -0.1,-0.3 -0.1,-0.4 0,-0.1 -0.1,-0.2 -0.1,-0.4 -0.4,0 -0.8,0 -1.1,0 -0.3,0 -0.6,0 -0.9,0 -0.3,0 -0.5,0 -0.8,0 0,0 0,0 0,0.1 0,0.1 0,0.1 0,0.2 0.4,0 0.4,0 0.4,0 z"
       style="fill:#d2ab67" /></g></svg>