<?xml version="1.0" encoding="UTF-8" standalone="no"?>
<!-- Generator: Adobe Illustrator 17.1.0, SVG Export Plug-In . SVG Version: 6.00 Build 0)  -->

<svg
   xmlns:dc="http://purl.org/dc/elements/1.1/"
   xmlns:cc="http://creativecommons.org/ns#"
   xmlns:rdf="http://www.w3.org/1999/02/22-rdf-syntax-ns#"
   xmlns:svg="http://www.w3.org/2000/svg"
   xmlns="http://www.w3.org/2000/svg"
   xmlns:sodipodi="http://sodipodi.sourceforge.net/DTD/sodipodi-0.dtd"
   xmlns:inkscape="http://www.inkscape.org/namespaces/inkscape"
   version="1.1"
   id="Слой_1"
   sodipodi:docname="logo.svg"
   inkscape:version="0.91 r13725"
   x="0px"
   y="0px"
   viewBox="0 0 150 102.60126"
   enable-background="new 0 0 124.4 153.5"
   xml:space="preserve"
   width="150"
   height="102.60126"><metadata
     id="metadata12"><rdf:RDF><cc:Work
         rdf:about=""><dc:format>image/svg+xml</dc:format><dc:type
           rdf:resource="http://purl.org/dc/dcmitype/StillImage" /><dc:title></dc:title></cc:Work></rdf:RDF></metadata><defs
     id="defs10" /><sodipodi:namedview
     inkscape:cy="46.244928"
     inkscape:cx="56.511388"
     inkscape:zoom="3.1714397"
     fit-margin-left="0"
     fit-margin-top="0"
     showgrid="false"
     guidetolerance="10"
     gridtolerance="10"
     objecttolerance="10"
     borderopacity="1"
     pagecolor="#ffffff"
     bordercolor="#666666"
     id="namedview21"
     inkscape:current-layer="Слой_1"
     inkscape:window-maximized="1"
     inkscape:window-y="-8"
     inkscape:window-x="1272"
     fit-margin-bottom="0"
     fit-margin-right="0"
     inkscape:window-height="1018"
     inkscape:window-width="1920"
     inkscape:pageshadow="2"
     inkscape:pageopacity="0" /><g
     id="g3"
     transform="matrix(1.6129032,0,0,1.6129032,-404.67741,-641.43099)"><path
       id="path11"
       inkscape:connector-curvature="0"
       d="m 250.9,458.8 0,0.1 c 0,0.1 0,0.1 0,0.2 0,0.1 0,0.1 0,0.1 0.2,0 0.4,0 0.6,0 0.2,0 0.5,0 0.7,0 0.4,0 0.7,0 0.9,0 0.3,0 0.5,0 0.6,0 l 0,-0.1 c 0,-0.1 0,-0.1 0,-0.2 0,-0.1 0,-0.1 0,-0.1 -0.1,0 -0.2,0 -0.3,0 -0.1,0 -0.2,0 -0.3,-0.1 -0.1,0 -0.2,-0.1 -0.2,-0.1 -0.1,0 -0.1,-0.1 -0.1,-0.1 0,-0.1 0,-0.1 0,-0.2 0,-0.1 0,-0.2 0.1,-0.3 0,-0.1 0.1,-0.3 0.1,-0.4 0.1,-0.2 0.1,-0.3 0.2,-0.5 0.1,-0.2 0.1,-0.3 0.2,-0.5 0,0 0,-0.1 0.1,-0.1 l 0.1,0 c 0.1,0 0.1,0 0.2,0 0.1,0 0.2,0 0.3,0 0.1,0 0.3,0 0.5,0 0.1,0 0.3,0 0.4,0 0.1,0 0.3,0 0.4,0 0.1,0 0.2,0 0.3,0 0,0 0,0 0.1,0 0,0 0,0 0,0.1 0,0.1 0.1,0.3 0.2,0.4 0.1,0.2 0.1,0.3 0.2,0.5 0.1,0.2 0.1,0.3 0.2,0.5 0.1,0.2 0.1,0.3 0.1,0.4 l 0,0.1 c 0,0.1 -0.1,0.1 -0.1,0.1 -0.1,0 -0.2,0.1 -0.3,0.1 -0.1,0 -0.2,0 -0.4,0.1 l 0,0.1 c 0,0.1 0,0.1 0,0.2 0,0.1 0,0.1 0,0.1 0.1,0 0.3,0 0.4,0 0.2,0 0.4,0 0.6,0 0.2,0 0.5,0 0.8,0 0.4,0 0.8,0 1,0 0.3,0 0.5,0 0.7,0 l 0,-0.1 c 0,-0.1 0,-0.1 0,-0.2 0,-0.1 0,-0.1 0,-0.1 -0.2,0 -0.4,-0.1 -0.5,-0.1 -0.1,0 -0.3,-0.1 -0.3,-0.2 -0.1,-0.1 -0.2,-0.2 -0.2,-0.3 -0.1,-0.1 -0.2,-0.3 -0.2,-0.6 -0.1,-0.2 -0.2,-0.4 -0.3,-0.7 -0.1,-0.3 -0.2,-0.6 -0.3,-0.9 -0.1,-0.3 -0.2,-0.7 -0.4,-1 -0.1,-0.4 -0.2,-0.7 -0.4,-1 -0.1,-0.3 -0.2,-0.6 -0.3,-0.9 -0.1,-0.3 -0.2,-0.5 -0.2,-0.7 0,-0.1 -0.1,-0.2 -0.1,-0.4 0,-0.1 -0.1,-0.2 -0.1,-0.3 -0.1,0 -0.1,0 -0.2,0 -0.1,0 -0.2,0 -0.3,0 -0.1,0 -0.2,0 -0.3,0 -0.1,0 -0.2,0 -0.3,0 0,0.1 0,0.1 0,0.2 0,0.1 -0.1,0.2 -0.1,0.3 0,0.1 -0.1,0.2 -0.1,0.3 0,0.1 -0.1,0.3 -0.2,0.6 -0.1,0.2 -0.2,0.5 -0.3,0.8 -0.1,0.3 -0.2,0.6 -0.4,1 -0.1,0.3 -0.3,0.7 -0.4,1 -0.1,0.3 -0.3,0.7 -0.4,1 -0.1,0.3 -0.2,0.6 -0.4,0.9 -0.1,0.2 -0.2,0.4 -0.2,0.5 -0.1,0.1 -0.2,0.2 -0.3,0.3 -0.1,0.1 -0.2,0.1 -0.4,0.2 -0.3,-0.1 -0.5,0 -0.7,0 l 0,0 0,0 z m 3.7,-5.5 c 0,0.1 0.1,0.3 0.2,0.4 0.1,0.2 0.1,0.3 0.2,0.5 0.1,0.2 0.1,0.4 0.2,0.6 0.1,0.2 0.1,0.4 0.2,0.5 0.1,0.2 0.1,0.3 0.1,0.4 l 0,0 0,0 c 0,0 -0.1,0 -0.2,0 -0.1,0 -0.2,0 -0.3,0 -0.1,0 -0.2,0 -0.4,0 -0.2,0 -0.4,0 -0.5,0 -0.1,0 -0.2,0 -0.3,0 l 0,0 c 0,0 0,0 0,-0.1 0,-0.2 0.1,-0.3 0.2,-0.5 0.1,-0.2 0.1,-0.4 0.2,-0.6 0.1,-0.2 0.2,-0.4 0.2,-0.7 0,-0.2 0.1,-0.3 0.2,-0.5 l 0,0 0,0 0,0 0,0 z m 4.6,5.5 0,0.1 c 0,0.1 0,0.1 0,0.2 0,0.1 0,0.1 0,0.1 0.2,0 0.4,0 0.6,0 0.2,0 0.4,0 0.6,0 0.2,0 0.4,0 0.6,0 0.3,0 0.7,0 1,0 0.3,0 0.6,0 0.9,0 l 0,-0.1 c 0,-0.1 0,-0.1 0,-0.2 0,-0.1 0,-0.1 0,-0.1 -0.2,0 -0.3,0 -0.5,-0.1 -0.1,0 -0.3,0 -0.4,-0.1 -0.1,0 -0.2,-0.1 -0.3,-0.2 -0.1,-0.1 -0.1,-0.2 -0.1,-0.4 0,-0.2 0,-0.4 0,-0.6 0,-0.2 0,-0.5 0,-0.7 0,-0.2 0,-0.5 0,-0.7 0,-0.3 0,-0.5 0,-0.7 0,-0.2 0,-0.5 0,-0.7 0,-0.3 0,-0.5 0,-0.8 0,-0.3 0,-0.5 0,-0.7 0,-0.2 0,-0.4 0,-0.6 l 0,-0.1 0.1,-0.1 c 0.1,0 0.1,0 0.2,0 0.1,0 0.2,0 0.4,0 0.1,0 0.3,0 0.4,0 0.1,0 0.3,0 0.4,0 0.1,0 0.2,0 0.3,0 0.1,0 0.2,0 0.3,0.1 0.1,0.1 0.2,0.2 0.2,0.3 0,0.1 0.1,0.2 0.1,0.3 0,0.1 0.1,0.3 0.1,0.4 0,0.1 0.1,0.3 0.1,0.4 l 0.1,0 c 0.1,0 0.1,0 0.2,0 0.1,0 0.1,0 0.1,0 0,-0.2 0,-0.4 0,-0.6 0,-0.2 0,-0.4 0.1,-0.6 0,-0.2 0,-0.4 0.1,-0.5 0,-0.2 0,-0.3 0.1,-0.4 0,0 0,0 0,-0.1 0,0 0,0 -0.1,0 -0.1,0 -0.3,0 -0.5,0.1 -0.2,0 -0.5,0 -0.9,0 l -2.4,0 c -0.2,0 -0.5,0 -0.7,0 -0.2,0 -0.4,0 -0.6,0 -0.2,0 -0.3,0 -0.5,0 l 0,0.1 c 0,0.1 0,0.1 0,0.2 0,0.1 0,0.1 0,0.1 0.1,0 0.3,0 0.4,0.1 0.1,0 0.2,0 0.3,0.1 0.1,0 0.2,0.1 0.2,0.1 0,0 0.1,0.1 0.1,0.2 0,0.1 0,0.2 0,0.3 0,0.1 0,0.3 0,0.6 0,0.2 0,0.5 0,0.8 0,0.3 0,0.7 0,1.2 0,0.2 0,0.4 0,0.6 0,0.2 0,0.4 0,0.7 0,0.2 0,0.4 0,0.6 0,0.2 0,0.4 0,0.5 0,0.1 0,0.3 0,0.3 0,0.1 0,0.2 0,0.3 0,0.1 -0.1,0.1 -0.1,0.2 -0.1,0 -0.1,0.1 -0.2,0.1 -0.1,0 -0.2,0 -0.3,0 -0.2,0 -0.3,0 -0.4,0 l 0,0 0,0 z m 9.9,-2.6 c 0.1,0 0.2,0 0.2,0 0.1,0 0.2,0 0.3,0 0.2,0 0.5,0 0.8,-0.1 0.3,-0.1 0.5,-0.2 0.7,-0.3 0.2,-0.1 0.4,-0.3 0.6,-0.5 0.2,-0.2 0.3,-0.4 0.4,-0.7 0.1,-0.3 0.2,-0.6 0.2,-0.9 0,-0.3 0,-0.5 -0.1,-0.7 -0.1,-0.2 -0.2,-0.4 -0.3,-0.6 -0.1,-0.2 -0.3,-0.3 -0.4,-0.4 -0.1,-0.1 -0.3,-0.2 -0.4,-0.2 -0.1,-0.1 -0.3,-0.1 -0.4,-0.1 -0.1,0 -0.3,0 -0.4,-0.1 -0.1,0 -0.2,0 -0.3,0 -0.2,0 -0.4,0 -0.6,0 -0.2,0 -0.4,0 -0.5,0 -0.2,0 -0.4,0 -0.5,0 -0.2,0 -0.4,0 -0.6,0 -0.2,0 -0.4,0 -0.6,0 -0.2,0 -0.4,0 -0.6,0 -0.2,0 -0.3,0 -0.4,0 l 0,0.1 c 0,0.1 0,0.1 0,0.2 0,0.1 0,0.1 0,0.1 0.1,0 0.2,0 0.3,0 0.1,0 0.2,0 0.3,0.1 0.1,0 0.2,0.1 0.2,0.1 0.1,0.1 0.1,0.1 0.1,0.2 0,0.1 0,0.2 0,0.3 0,0.1 0,0.3 0,0.5 0,0.2 0,0.5 0,0.8 0,0.3 0,0.7 0,1.1 0,0.7 0,1.3 0,1.8 0,0.5 0,0.8 0,1 0,0.1 0,0.2 0,0.3 0,0.1 -0.1,0.2 -0.1,0.2 -0.1,0.1 -0.1,0.1 -0.2,0.1 -0.1,0 -0.2,0 -0.3,0.1 -0.1,0 -0.2,0 -0.3,0.1 l 0,0.1 c 0,0.1 0,0.1 0,0.2 0,0.1 0,0.1 0,0.1 0.2,0 0.4,0 0.6,0 0.2,0 0.4,0 0.6,0 0.2,0 0.4,0 0.6,0 0.2,0 0.3,0 0.5,0 0.2,0 0.3,0 0.5,0 0.2,0 0.3,0 0.5,0 0.2,0 0.3,0 0.4,0 l 0,-0.1 c 0,-0.1 0,-0.1 0,-0.2 0,-0.1 0,-0.1 0,-0.1 -0.3,0 -0.6,-0.1 -0.8,-0.1 -0.1,0 -0.2,-0.1 -0.2,-0.1 -0.1,-0.1 -0.1,-0.1 -0.1,-0.2 0,-0.1 0,-0.2 0,-0.3 0,-0.2 0,-0.4 0,-0.6 0,-0.2 0,-0.5 0,-0.8 0,-0.3 0,-0.5 0,-0.8 0,-0.3 0,-0.5 0,-0.7 0,-0.4 0,-0.8 0,-1.1 0,-0.3 0,-0.6 0,-0.8 0,-0.2 0,-0.4 0,-0.5 0,-0.1 0,-0.3 0,-0.3 l 0,-0.1 0,-0.1 0.1,0 c 0.1,0 0.1,0 0.2,0 l 0.1,0 c 0.4,0 0.7,0.1 0.9,0.2 0.3,0.2 0.4,0.4 0.6,0.7 0.1,0.3 0.2,0.6 0.2,1 0,0.4 -0.1,0.7 -0.2,1 -0.1,0.2 -0.3,0.4 -0.5,0.6 -0.1,0.1 -0.2,0.1 -0.3,0.1 -0.1,0 -0.2,0 -0.4,0 -0.1,0 -0.2,0 -0.2,0 -0.1,0 -0.1,0 -0.2,0 l 0,0 c 0,0 0,0 0,0.1 l 0,0.1 c 0,0 0,0.1 0.1,0.1 -0.1,0 -0.1,0.1 -0.1,0.1 l 0,0 0,0 z m 8.3,3.2 c 0.4,0 0.8,-0.1 1.2,-0.2 0.4,-0.1 0.8,-0.3 1.1,-0.5 0.3,-0.2 0.7,-0.5 0.9,-0.9 0.3,-0.3 0.4,-0.7 0.6,-1.2 0.1,-0.4 0.2,-0.9 0.2,-1.4 0,-0.4 -0.1,-0.8 -0.2,-1.2 -0.1,-0.4 -0.3,-0.7 -0.5,-1.1 -0.2,-0.3 -0.5,-0.6 -0.8,-0.8 -0.3,-0.2 -0.7,-0.4 -1.1,-0.6 -0.4,-0.1 -0.9,-0.2 -1.4,-0.2 -0.4,0 -0.8,0.1 -1.2,0.2 -0.4,0.1 -0.7,0.3 -1.1,0.5 -0.3,0.2 -0.6,0.4 -0.8,0.7 -0.2,0.2 -0.4,0.5 -0.6,0.8 -0.1,0.3 -0.3,0.6 -0.3,0.9 -0.1,0.3 -0.1,0.6 -0.1,1 0,0.3 0,0.7 0.1,1 0.1,0.3 0.2,0.7 0.3,1 0.2,0.3 0.4,0.6 0.6,0.9 0.2,0.2 0.5,0.4 0.8,0.6 0.3,0.2 0.6,0.3 1,0.4 0.4,0.1 0.8,0.1 1.3,0.1 l 0,0 0,0 z m 0.4,-0.6 c -0.3,0 -0.5,0 -0.7,-0.1 -0.2,-0.1 -0.4,-0.2 -0.6,-0.3 -0.2,-0.2 -0.4,-0.4 -0.6,-0.7 -0.2,-0.3 -0.3,-0.5 -0.4,-0.8 -0.1,-0.3 -0.2,-0.6 -0.2,-0.9 0,-0.3 -0.1,-0.6 -0.1,-0.9 0,-0.4 0,-0.8 0.1,-1.1 0.1,-0.4 0.2,-0.7 0.3,-1 0.2,-0.3 0.4,-0.5 0.6,-0.7 0.1,-0.1 0.3,-0.2 0.5,-0.2 0.2,0 0.4,-0.1 0.5,-0.1 0.3,0 0.5,0 0.7,0.1 0.2,0.1 0.4,0.2 0.6,0.4 0.2,0.2 0.4,0.4 0.5,0.6 0.2,0.2 0.3,0.5 0.4,0.8 0.1,0.3 0.2,0.6 0.2,0.9 0,0.3 0.1,0.6 0.1,1 0,0.4 0,0.7 -0.1,1.1 -0.1,0.3 -0.1,0.7 -0.3,0.9 -0.1,0.3 -0.3,0.5 -0.5,0.7 -0.1,0.1 -0.3,0.2 -0.5,0.3 -0.1,0 -0.3,0 -0.5,0 l 0,0 0,0 z m 35.4,-5.7 0,0 c 0,-0.1 0,-0.1 0,0 0,-0.1 0,-0.1 0,0 0.4,0 0.7,0.2 1,0.4 0.2,0.2 0.4,0.5 0.5,0.9 0.1,0.3 0.1,0.7 0.1,1.1 0,0.4 0,0.8 -0.1,1.1 -0.1,0.3 -0.2,0.5 -0.3,0.7 -0.1,0.2 -0.3,0.3 -0.5,0.4 -0.2,0.1 -0.4,0.1 -0.6,0.2 0,0 0,0 -0.1,0 0,0 0,0 0,-0.1 l 0,-4.7 0,0 z m -1.5,4.6 0,0 c 0,0 0,0.1 0,0 -0.4,0 -0.6,-0.2 -0.9,-0.4 -0.2,-0.2 -0.4,-0.5 -0.6,-0.9 -0.1,-0.4 -0.2,-0.8 -0.2,-1.3 0,-0.4 0,-0.7 0.1,-0.9 0.1,-0.3 0.2,-0.5 0.3,-0.6 0.1,-0.2 0.3,-0.3 0.5,-0.4 0.2,-0.1 0.4,-0.1 0.6,-0.2 l 0,0 c 0,0 0,0 0,0.1 l 0,4.6 0.2,0 0,0 z m 2.4,1.4 c -0.1,0 -0.3,0 -0.4,0 -0.1,0 -0.2,0 -0.3,0 -0.1,0 -0.2,-0.1 -0.2,-0.1 0,-0.1 -0.1,-0.2 -0.1,-0.3 0,-0.1 0,-0.2 0,-0.3 0.1,0 0.3,0 0.5,-0.1 0.2,0 0.4,-0.1 0.6,-0.1 0.2,-0.1 0.4,-0.1 0.6,-0.2 0.2,-0.1 0.4,-0.2 0.5,-0.3 0.3,-0.2 0.6,-0.5 0.7,-0.9 0.2,-0.4 0.3,-0.8 0.3,-1.3 0,-0.4 -0.1,-0.8 -0.2,-1.1 -0.1,-0.3 -0.3,-0.6 -0.5,-0.8 -0.2,-0.2 -0.4,-0.4 -0.7,-0.5 -0.3,-0.1 -0.5,-0.2 -0.9,-0.3 -0.3,-0.1 -0.6,-0.1 -0.9,-0.1 0,-0.1 0,-0.2 0,-0.3 0,-0.1 0,-0.2 0.1,-0.2 0,-0.1 0.1,-0.1 0.2,-0.1 0.1,0 0.1,0 0.2,0 0.1,0 0.2,0 0.3,0 l 0,-0.1 c 0,-0.1 0,-0.1 0,-0.2 0,-0.1 0,-0.1 0,-0.1 -0.1,0 -0.3,0 -0.4,0 -0.2,0 -0.4,0 -0.5,0 -0.2,0 -0.4,0 -0.5,0 -0.2,0 -0.4,0 -0.6,0 -0.2,0 -0.4,0 -0.6,0 -0.2,0 -0.3,0 -0.5,0 0,0 0,0 0,0.1 0,0.1 0,0.1 0,0.2 0,0.1 0,0.1 0,0.1 0.1,0 0.2,0 0.3,0 0.1,0 0.1,0 0.2,0 0.1,0 0.2,0.1 0.2,0.1 0.1,0.1 0.1,0.1 0.1,0.2 0,0.1 0,0.2 0,0.4 -0.2,0 -0.4,0 -0.6,0.1 -0.2,0 -0.4,0.1 -0.7,0.2 -0.2,0.1 -0.4,0.2 -0.6,0.3 -0.3,0.2 -0.5,0.3 -0.7,0.5 -0.2,0.2 -0.3,0.5 -0.4,0.7 -0.1,0.3 -0.2,0.6 -0.2,1 0,0.6 0.1,1.1 0.4,1.5 0.3,0.4 0.6,0.7 1.1,0.9 0.5,0.2 1,0.3 1.7,0.4 0,0.1 0,0.2 0,0.3 0,0.1 0,0.2 -0.1,0.2 -0.1,0.1 -0.1,0.1 -0.3,0.1 -0.1,0 -0.1,0 -0.2,0 -0.1,0 -0.2,0 -0.3,0 l 0,0.1 c 0,0.1 0,0.1 0,0.2 0,0.1 0,0.1 0,0.1 0.2,0 0.3,0 0.5,0 0.2,0 0.4,0 0.6,0 0.2,0 0.4,0 0.6,0 0.1,0 0.3,0 0.4,0 0.1,0 0.3,0 0.4,0 0.2,0 0.3,0 0.4,0 0.1,0 0.2,0 0.3,0 l 0,-0.1 c 0,-0.1 0,-0.1 0,-0.2 0.3,0 0.3,0 0.2,0 l 0,0 0,0 z m 7.5,0.3 c 0.4,0 0.8,-0.1 1.2,-0.2 0.4,-0.1 0.8,-0.3 1.1,-0.5 0.3,-0.2 0.7,-0.5 0.9,-0.9 0.3,-0.3 0.4,-0.7 0.6,-1.2 0.1,-0.4 0.2,-0.9 0.2,-1.4 0,-0.4 -0.1,-0.8 -0.2,-1.2 -0.1,-0.4 -0.3,-0.7 -0.5,-1.1 -0.2,-0.3 -0.5,-0.6 -0.8,-0.8 -0.3,-0.2 -0.7,-0.4 -1.1,-0.6 -0.4,-0.1 -0.9,-0.2 -1.4,-0.2 -0.4,0 -0.8,0.1 -1.2,0.2 -0.4,0.1 -0.7,0.3 -1.1,0.5 -0.3,0.2 -0.6,0.4 -0.8,0.7 -0.2,0.2 -0.4,0.5 -0.6,0.8 -0.1,0.3 -0.3,0.6 -0.3,0.9 -0.1,0.3 -0.1,0.6 -0.1,1 0,0.3 0,0.7 0.1,1 0.1,0.3 0.2,0.7 0.3,1 0.2,0.3 0.4,0.6 0.6,0.9 0.2,0.2 0.5,0.4 0.8,0.6 0.3,0.2 0.6,0.3 1,0.4 0.5,0.1 0.9,0.1 1.3,0.1 l 0,0 0,0 z m 0.4,-0.6 c -0.3,0 -0.5,0 -0.7,-0.1 -0.2,-0.1 -0.4,-0.2 -0.6,-0.3 -0.2,-0.2 -0.4,-0.4 -0.6,-0.7 -0.2,-0.3 -0.3,-0.5 -0.4,-0.8 -0.1,-0.3 -0.2,-0.6 -0.2,-0.9 0,-0.3 -0.1,-0.6 -0.1,-0.9 0,-0.4 0,-0.8 0.1,-1.1 0.1,-0.4 0.2,-0.7 0.3,-1 0.2,-0.3 0.4,-0.5 0.6,-0.7 0.1,-0.1 0.3,-0.2 0.5,-0.2 0.2,0 0.4,-0.1 0.5,-0.1 0.3,0 0.5,0 0.7,0.1 0.2,0.1 0.4,0.2 0.6,0.4 0.2,0.2 0.4,0.4 0.5,0.6 0.2,0.2 0.3,0.5 0.4,0.8 0.1,0.3 0.2,0.6 0.2,0.9 0,0.3 0.1,0.6 0.1,1 0,0.4 0,0.7 -0.1,1.1 -0.1,0.3 -0.1,0.7 -0.3,0.9 -0.1,0.3 -0.3,0.5 -0.5,0.7 -0.1,0.1 -0.3,0.2 -0.5,0.3 -0.1,0 -0.3,0 -0.5,0 l 0,0 0,0 z"
       style="fill:#349040" /><path
       id="path13"
       inkscape:connector-curvature="0"
       d="m 326.7,452 c 0.1,0 0.3,0 0.4,0.1 0.1,0 0.2,0 0.3,0.1 0.1,0 0.1,0 0.2,0.1 0,0 0.1,0.1 0.1,0.2 0,0.1 0,0.2 0,0.3 0,0.1 0,0.2 0,0.4 0,0.2 0,0.4 0,0.6 0,0.2 0,0.5 0,0.8 0,0.3 0,0.6 0,0.9 0,0.3 0,0.5 0,0.8 0,0.3 0,0.5 0,0.7 0,0.2 0,0.4 0,0.6 0,0.2 0,0.3 0,0.3 0,0.2 0,0.3 0,0.4 0,0.1 -0.1,0.2 -0.1,0.3 -0.1,0.1 -0.1,0.1 -0.3,0.1 -0.1,0 -0.1,0 -0.2,0 -0.1,0 -0.1,0 -0.2,0 -0.1,0 -0.1,0 -0.2,0 l 0,0.1 c 0,0.1 0,0.1 0,0.2 0,0.1 0,0.1 0,0.1 0.1,0 0.3,0 0.6,0 0.3,0 0.7,0 1.1,0 0.5,0 0.9,0 1.2,0 0.3,0 0.5,0 0.6,0 l 0,-0.1 c 0,-0.1 0,-0.1 0,-0.2 0,-0.1 0,-0.1 0,-0.1 -0.1,0 -0.3,0 -0.4,-0.1 -0.1,0 -0.2,0 -0.3,-0.1 -0.1,0 -0.2,-0.1 -0.2,-0.1 0,-0.1 -0.1,-0.1 -0.1,-0.2 0,-0.1 0,-0.2 0,-0.3 0,-0.1 0,-0.3 0,-0.4 0,-0.2 0,-0.4 0,-0.6 0,-0.2 0,-0.4 0,-0.6 0,-0.2 0,-0.4 0,-0.6 l 0,0 0,0 c 0,0 0.1,0 0.2,0 0.1,0 0.3,0 0.5,0 0.2,0 0.6,0 1,0 0.1,0 0.3,0 0.5,0 0.2,0 0.3,0 0.5,0 0.1,0 0.3,0 0.4,0 0.1,0 0.2,0 0.3,0 0,0 0,0 0.1,0 0,0 0,0 0,0.1 0,0.2 0,0.4 0,0.6 0,0.2 0,0.4 0,0.6 0,0.2 0,0.4 0,0.6 0,0.2 0,0.3 0,0.5 0,0.2 0,0.3 -0.1,0.4 -0.1,0.1 -0.1,0.1 -0.2,0.2 -0.1,0 -0.2,0 -0.3,0.1 -0.1,0 -0.2,0 -0.4,0 l 0,0.1 c 0,0.1 0,0.1 0,0.2 0,0.1 0,0.1 0,0.1 0.1,0 0.2,0 0.4,0 0.2,0 0.4,0 0.6,0 0.2,0 0.5,0 0.7,0 0.4,0 0.8,0 1.1,0 0.3,0 0.5,0 0.7,0 l 0,-0.1 c 0,-0.1 0,-0.1 0,-0.2 0,-0.1 0,-0.1 0,-0.1 -0.1,0 -0.2,0 -0.3,0 -0.1,0 -0.2,0 -0.2,0 -0.1,0 -0.1,0 -0.2,-0.1 -0.1,0 -0.2,-0.1 -0.2,-0.2 0,-0.1 -0.1,-0.2 -0.1,-0.4 0,-0.1 0,-0.3 0,-0.5 0,-0.2 0,-0.4 0,-0.6 0,-0.2 0,-0.5 0,-0.7 0,-0.2 0,-0.5 0,-0.7 0,-0.4 0,-0.7 0,-1 0,-0.3 0,-0.5 0,-0.7 0,-0.2 0,-0.4 0,-0.6 0,-0.2 0,-0.3 0,-0.5 0,-0.1 0,-0.2 0,-0.3 0,-0.1 0.1,-0.1 0.1,-0.2 0,0 0.1,-0.1 0.2,-0.1 0.1,0 0.2,-0.1 0.3,-0.1 0.1,0 0.2,0 0.3,-0.1 l 0,-0.1 c 0,-0.1 0,-0.1 0,-0.2 0,-0.1 0,-0.1 0,-0.1 -0.1,0 -0.2,0 -0.4,0 -0.2,0 -0.3,0 -0.5,0 -0.2,0 -0.5,0 -0.8,0 -0.3,0 -0.5,0 -0.7,0 -0.2,0 -0.4,0 -0.6,0 -0.2,0 -0.3,0 -0.5,0 l 0,0.1 c 0,0.1 0,0.1 0,0.2 0,0.1 0,0.1 0,0.1 0.1,0 0.3,0 0.4,0.1 0.1,0 0.2,0 0.3,0.1 0.1,0 0.2,0.1 0.2,0.2 0,0.1 0.1,0.2 0.1,0.3 0,0.2 0,0.3 0,0.5 0,0.2 0,0.4 0,0.6 0,0.2 0,0.4 0,0.6 0,0.2 0,0.4 0,0.5 0,0 0,0 0,0.1 l 0,0 c 0,0 -0.1,0 -0.3,0 -0.1,0 -0.3,0 -0.5,0 -0.2,0 -0.5,0 -0.8,0 -0.4,0 -0.7,0 -0.9,0 -0.2,0 -0.4,0 -0.5,0 -0.1,0 -0.2,0 -0.3,0 -0.1,0 -0.1,0 -0.1,0 l 0,0 c 0,0 0,0 0,-0.1 0,-0.4 0,-0.8 0,-1.2 0,-0.4 0,-0.7 0,-0.9 0,-0.1 0,-0.2 0,-0.3 0,-0.1 0.1,-0.1 0.1,-0.2 0,0 0.1,-0.1 0.2,-0.1 0.1,0 0.2,0 0.3,-0.1 0.1,0 0.2,0 0.3,-0.1 l 0,-0.1 c 0,-0.1 0,-0.1 0,-0.2 0,-0.1 0,-0.1 0,-0.1 -0.1,0 -0.2,0 -0.4,0 -0.2,0 -0.3,0 -0.6,0 -0.2,0 -0.5,0 -0.8,0 -0.4,0 -0.8,0 -1.1,0 -0.3,0 -0.5,0 -0.6,0 l 0,0.1 c 0,0.1 0,0.1 0,0.2 0,0.1 0,0.1 0.1,0.1 l 0,0 0,0 z m 9.2,6.6 c 0,0.1 0.1,0.2 0.1,0.4 0,0.2 0.1,0.3 0.1,0.5 0,0.2 0.1,0.4 0.1,0.6 0,0.2 0.1,0.4 0.1,0.6 0,0.2 0,0.4 0.1,0.6 0,0 0,0 0.1,0 0,0 0.1,0 0.2,0 0.1,0 0.1,0 0.2,0 l 0.1,0 c 0,-0.2 0,-0.3 0.1,-0.5 0,-0.2 0.1,-0.4 0.1,-0.6 0,-0.2 0.1,-0.4 0.1,-0.5 0,-0.2 0.1,-0.3 0.1,-0.4 0,0 0,0 0.1,-0.1 l 0.1,0 0.1,0 4.5,0 c 0.1,0 0.1,0 0.2,0 l 0.1,0.1 0,0 c 0,0.1 0.1,0.3 0.1,0.5 0,0.2 0.1,0.4 0.1,0.7 0,0.3 0.1,0.5 0.1,0.8 0,0 0,0 0.1,0 l 0.1,0 c 0.1,0 0.1,0 0.1,0 l 0.1,0 c 0,-0.2 0.1,-0.4 0.1,-0.7 0,-0.2 0.1,-0.5 0.2,-0.7 0.1,-0.2 0.1,-0.5 0.2,-0.7 0.1,-0.2 0.1,-0.4 0.2,-0.6 l 0,0 0,0 c -0.1,0 -0.1,0 -0.2,0 -0.1,0 -0.2,0 -0.3,0 -0.1,0 -0.2,0 -0.2,0 l -0.1,0 c 0,0 -0.1,0 -0.1,-0.1 0,0 0,0 0,-0.1 -0.1,-0.1 -0.1,-0.3 -0.2,-0.5 -0.1,-0.2 -0.2,-0.5 -0.3,-0.8 -0.1,-0.3 -0.3,-0.6 -0.4,-1 -0.1,-0.3 -0.3,-0.7 -0.4,-1.1 -0.1,-0.4 -0.3,-0.7 -0.4,-1.1 -0.1,-0.3 -0.3,-0.7 -0.4,-1 -0.1,-0.3 -0.2,-0.6 -0.3,-0.8 0,-0.1 -0.1,-0.2 -0.1,-0.3 0,-0.1 0,-0.1 -0.1,-0.2 0,-0.1 0,-0.1 0,-0.2 0,0 -0.1,0 -0.2,0 -0.1,0 -0.2,0 -0.3,0 -0.1,0 -0.2,0 -0.3,0 -0.1,0 -0.1,0 -0.2,0 0,0.1 0,0.2 -0.1,0.3 0,0.1 -0.1,0.2 -0.1,0.3 0,0.1 -0.1,0.2 -0.1,0.3 -0.1,0.3 -0.2,0.7 -0.4,1 -0.1,0.4 -0.3,0.8 -0.4,1.1 -0.1,0.4 -0.3,0.8 -0.4,1.1 -0.1,0.4 -0.3,0.7 -0.4,1 -0.1,0.3 -0.2,0.6 -0.3,0.8 -0.1,0.2 -0.2,0.4 -0.2,0.5 0,0 0,0.1 -0.1,0.1 l -0.1,0.1 -0.1,0.1 c -0.1,0 -0.1,0 -0.2,0 -0.1,0 -0.1,0 -0.2,0 -0.2,0.5 -0.3,0.5 -0.4,0.5 l 0,0 0,0 z m 3.3,-4.9 c 0,0.1 0.1,0.2 0.2,0.4 0.1,0.2 0.2,0.4 0.3,0.7 0.1,0.3 0.2,0.6 0.3,0.9 0.1,0.3 0.2,0.6 0.3,0.9 0.1,0.3 0.2,0.6 0.3,0.8 0.1,0.3 0.2,0.5 0.2,0.6 0.1,0.2 0.1,0.3 0.1,0.3 l 0,0.1 0,0 c -0.1,0 -0.2,0 -0.4,0 -0.2,0 -0.4,0 -0.6,0 -0.2,0 -0.4,0 -0.7,0 -0.2,0 -0.5,0 -0.7,0 -0.2,0 -0.4,0 -0.6,0 -0.2,0 -0.3,0 -0.4,0 0,0 0,0 -0.1,0 l 0,-0.1 c 0,-0.1 0.1,-0.2 0.1,-0.4 0.1,-0.2 0.1,-0.4 0.2,-0.7 0.1,-0.3 0.2,-0.5 0.3,-0.8 0.1,-0.3 0.2,-0.6 0.3,-0.9 0.1,-0.3 0.2,-0.6 0.3,-0.8 0.1,-0.3 0.2,-0.5 0.2,-0.7 0.3,-0.1 0.3,-0.2 0.4,-0.3 l 0,0 0,0 0,0 0,0 z"
       style="fill:#349040" /><path
       id="path15"
       inkscape:connector-curvature="0"
       d="m 289.1,453.7 0,0 c 0.1,0 0.2,0 0.2,0 0.1,0 0.1,0 0.1,0 l 0.1,0 c 0,-0.2 0,-0.3 0,-0.5 0,-0.2 0,-0.4 0,-0.6 0,-0.2 0,-0.4 0.1,-0.5 0,-0.2 0,-0.3 0.1,-0.4 -0.2,0 -0.4,0 -0.7,-0.1 -0.3,0 -0.5,-0.1 -0.9,-0.1 -0.3,0 -0.6,0 -1,0 -0.5,0 -1,0 -1.4,0.1 -0.4,0.1 -0.8,0.2 -1.1,0.4 -0.3,0.2 -0.6,0.4 -0.9,0.6 -0.3,0.2 -0.5,0.5 -0.6,0.8 -0.2,0.3 -0.3,0.6 -0.4,0.9 -0.1,0.3 -0.1,0.7 -0.1,1 0,0.9 0.2,1.6 0.5,2.2 0.3,0.6 0.8,1.1 1.5,1.4 0.6,0.3 1.4,0.5 2.4,0.5 0.3,0 0.6,0 0.8,0 0.2,0 0.4,-0.1 0.6,-0.1 0.2,0 0.3,-0.1 0.5,-0.1 0.1,-0.1 0.2,-0.2 0.3,-0.3 0.1,-0.1 0.2,-0.3 0.3,-0.5 0.1,-0.2 0.2,-0.3 0.3,-0.5 0.1,-0.2 0.1,-0.3 0.2,-0.5 0,0 0,-0.1 -0.1,-0.1 l -0.1,-0.1 -0.1,0 c -0.1,0.2 -0.2,0.3 -0.3,0.5 -0.1,0.2 -0.2,0.3 -0.3,0.4 -0.1,0.1 -0.2,0.2 -0.3,0.3 -0.1,0.1 -0.3,0.2 -0.4,0.2 -0.1,0.1 -0.3,0.1 -0.4,0.1 -0.1,0 -0.3,0 -0.4,0 -0.4,0 -0.8,-0.1 -1.1,-0.2 -0.3,-0.1 -0.6,-0.3 -0.8,-0.5 -0.2,-0.2 -0.4,-0.5 -0.6,-0.8 -0.1,-0.3 -0.3,-0.6 -0.3,-1 -0.1,-0.3 -0.1,-0.7 -0.1,-1.1 0,-0.7 0.1,-1.3 0.3,-1.8 0.2,-0.5 0.5,-0.9 0.8,-1.1 0.4,-0.2 0.8,-0.4 1.3,-0.4 0.3,0 0.5,0 0.8,0.1 0.3,0 0.5,0.1 0.7,0.2 0.2,0.1 0.3,0.2 0.4,0.3 0.1,0.1 0.2,0.3 0.2,0.5 -0.2,0.3 -0.2,0.5 -0.1,0.8 l 0,0 0,0 z m 1.6,-1.7 c 0.1,0 0.2,0 0.4,0 0.1,0 0.2,0 0.3,0.1 0.1,0 0.1,0.1 0.2,0.1 0,0 0.1,0.1 0.1,0.2 0,0.1 0,0.2 0,0.3 0,0.1 0,0.2 0,0.4 0,0.2 0,0.4 0,0.6 0,0.2 0,0.4 0,0.7 0,0.2 0,0.5 0,0.7 0,0.7 0,1.3 0,1.8 0,0.5 0,0.9 0,1.2 0,0.1 0,0.3 0,0.3 0,0.1 -0.1,0.2 -0.1,0.2 -0.1,0 -0.1,0.1 -0.2,0.1 -0.1,0 -0.2,0 -0.4,0.1 -0.2,0 -0.3,0 -0.5,0.1 l 0,0.1 c 0,0.1 0,0.1 0,0.2 0,0.1 0,0.1 0,0.1 0.2,0 0.4,0 0.7,0 0.2,0 0.5,0 0.7,0 0.2,0 0.5,0 0.7,0 0.4,0 0.9,0 1.2,0 0.4,0 0.8,0 1.1,0 0.4,0 0.7,0 1.1,0 0.2,0 0.3,0 0.4,0 0.1,0 0.2,0 0.2,-0.1 l 0.1,-0.1 c 0,-0.1 0.1,-0.2 0.1,-0.3 0,-0.1 0.1,-0.3 0.1,-0.4 0,-0.1 0.1,-0.3 0.1,-0.4 0,-0.1 0.1,-0.3 0.1,-0.4 0,-0.1 0,-0.2 0.1,-0.3 l -0.1,-0.1 c -0.1,0 -0.1,0 -0.2,-0.1 -0.1,0 -0.1,0 -0.1,0 -0.1,0.1 -0.1,0.3 -0.2,0.4 -0.1,0.1 -0.1,0.3 -0.2,0.4 -0.1,0.1 -0.2,0.2 -0.2,0.3 -0.1,0.1 -0.2,0.2 -0.2,0.2 -0.1,0.1 -0.2,0.1 -0.3,0.1 -0.1,0 -0.3,0 -0.4,0 -0.2,0 -0.3,0 -0.5,0 -0.2,0 -0.3,0 -0.5,0 -0.2,0 -0.3,0 -0.4,0 -0.1,0 -0.2,0 -0.3,0 -0.1,0 -0.1,-0.1 -0.2,-0.1 -0.1,-0.1 -0.1,-0.2 -0.1,-0.3 0,-0.2 0,-0.3 0,-0.5 0,-0.2 0,-0.4 0,-0.6 0,-0.2 0,-0.4 0,-0.6 0,-0.2 0,-0.4 0,-0.6 0,0 0,0 0,-0.1 0,0 0,0 0.1,0 0.1,0 0.2,0 0.4,0 0.2,0 0.3,0 0.5,0 0.2,0 0.3,0 0.5,0 0.1,0 0.2,0 0.3,0 0.1,0 0.2,0.1 0.3,0.1 0.1,0.1 0.1,0.1 0.1,0.2 l 0,0.1 0,0.1 c 0,0.1 0,0.1 0.1,0.2 l 0.1,0 c 0.1,0 0.1,0 0.2,0 0.1,0 0.1,0 0.1,0 0,-0.1 0,-0.2 0,-0.4 0,-0.1 0,-0.3 0,-0.4 0,-0.1 0,-0.3 0,-0.4 0,-0.1 0,-0.3 0,-0.4 0,-0.1 0,-0.3 0,-0.4 0,-0.1 0,-0.2 0,-0.3 l -0.1,0 c -0.1,0 -0.1,0 -0.2,0 -0.1,0 -0.1,0 -0.1,0 0,0.1 0,0.2 -0.1,0.2 0,0.1 0,0.2 -0.1,0.2 0,0.1 -0.1,0.2 -0.1,0.3 -0.1,0.1 -0.2,0.1 -0.3,0.1 -0.1,0 -0.2,0 -0.4,0 -0.1,0 -0.3,0 -0.5,0 -0.2,0 -0.3,0 -0.5,0 -0.1,0 -0.3,0 -0.4,0 0,0 0,0 -0.1,0 0,0 0,0 0,-0.1 0,-0.2 0,-0.5 0,-0.8 0,-0.3 0,-0.6 0,-0.9 0,-0.3 0,-0.6 0,-0.8 0,0 0,0 0,-0.1 l 0,-0.1 c 0,0 0,0 0.1,0 0,0 0.1,0 0.2,0 0.1,0 0.2,0 0.4,0 0.2,0 0.3,0 0.5,0 0.2,0 0.3,0 0.4,0 0.1,0 0.2,0 0.3,0 0.1,0 0.2,0 0.3,0.1 0.1,0.1 0.2,0.1 0.2,0.3 0,0.1 0.1,0.2 0.1,0.3 0,0.1 0.1,0.3 0.1,0.5 l 0.1,0 c 0.1,0 0.1,0 0.2,0 0.1,0 0.1,0 0.1,0 0,-0.2 0,-0.3 0,-0.5 0,-0.2 0,-0.3 0,-0.5 0,-0.2 0,-0.3 0.1,-0.5 0,-0.1 0,-0.3 0.1,-0.4 l 0,0 0,0 c -0.1,0 -0.3,0 -0.5,0 -0.2,0 -0.4,0 -0.5,0 -0.2,0 -0.4,0 -0.5,0 l -2.5,0 c -0.2,0 -0.4,0 -0.6,0 -0.2,0 -0.4,0 -0.6,0 -0.2,0 -0.4,0 -0.5,0 0,0 0,0 0,0.1 0,0.1 0,0.1 0,0.2 0.1,0.3 0.1,0.3 0.1,0.3 l 0,0 0,0 z m 7.1,0 c 0.2,0 0.4,0.1 0.5,0.1 0.1,0 0.3,0.1 0.4,0.1 0.1,0 0.2,0.1 0.2,0.1 0,0.1 0.1,0.1 0.1,0.2 0,0.1 0,0.2 0,0.2 0,0.2 0,0.4 0,0.7 0,0.3 0,0.6 -0.1,0.9 0,0.3 -0.1,0.7 -0.1,1 0,0.3 -0.1,0.7 -0.1,1 0,0.3 -0.1,0.6 -0.1,0.9 0,0.3 -0.1,0.5 -0.1,0.6 0,0.2 -0.1,0.3 -0.1,0.4 0,0.1 -0.1,0.2 -0.2,0.3 -0.1,0.1 -0.2,0.1 -0.3,0.1 -0.1,0 -0.2,0 -0.3,0.1 -0.1,0 -0.2,0 -0.3,0 l 0,0.1 c 0,0.1 0,0.1 0,0.2 0,0.1 0,0.1 0,0.1 0.1,0 0.3,0 0.4,0 0.2,0 0.3,0 0.5,0 0.2,0 0.4,0 0.5,0 0.4,0 0.7,0 1,0 0.3,0 0.5,0 0.7,0 l 0,-0.1 c 0,-0.1 0,-0.1 0,-0.2 0,-0.1 0,-0.1 0,-0.1 -0.2,0 -0.3,0 -0.4,-0.1 -0.1,0 -0.2,0 -0.3,-0.1 -0.1,0 -0.2,-0.1 -0.3,-0.1 -0.1,-0.1 -0.1,-0.1 -0.1,-0.2 0,-0.1 0,-0.2 0,-0.4 0,-0.2 0,-0.4 0,-0.6 0,-0.2 0,-0.5 0,-0.8 0,-0.3 0,-0.6 0,-0.9 0,-0.3 0,-0.6 0,-0.9 0,-0.3 0,-0.5 0,-0.8 0,-0.2 0,-0.5 0,-0.6 l 0,0 0,0 c 0.2,0.4 0.4,0.9 0.6,1.3 0.2,0.5 0.4,0.9 0.6,1.3 0.2,0.4 0.4,0.9 0.5,1.3 0.2,0.4 0.3,0.8 0.4,1.1 0.1,0.3 0.2,0.6 0.3,0.8 0,0 0,0 0.1,0 0,0 0.1,0 0.2,0 0.1,0 0.1,0 0.2,0 l 0.1,0 c 0.1,-0.2 0.1,-0.4 0.2,-0.6 0.1,-0.2 0.2,-0.5 0.3,-0.8 0.1,-0.3 0.3,-0.6 0.4,-0.9 0.1,-0.3 0.3,-0.7 0.4,-1 0.2,-0.3 0.3,-0.6 0.4,-1 0.1,-0.3 0.3,-0.6 0.4,-0.8 0.1,-0.2 0.2,-0.4 0.3,-0.6 l 0,0 0,0 c 0,0.2 0,0.4 0,0.7 0,0.3 0,0.5 0,0.8 0,0.3 0,0.6 0,0.9 0,0.3 0,0.6 0,0.9 0,0.3 0,0.5 0,0.8 0,0.2 0,0.4 0,0.6 0,0.2 0,0.3 -0.1,0.4 0,0.1 -0.1,0.2 -0.2,0.2 -0.1,0 -0.2,0.1 -0.3,0.1 -0.1,0 -0.2,0 -0.4,0.1 l 0,0.1 c 0,0.1 0,0.1 0,0.2 0,0.1 0,0.1 0,0.1 0.2,0 0.5,0 0.8,0 0.3,0 0.6,0 0.9,0 0.4,0 0.6,0 0.9,0 0.2,0 0.4,0 0.6,0 0.2,0 0.3,0 0.4,0 l 0,-0.1 c 0,-0.1 0,-0.1 0,-0.2 0,-0.1 0,-0.1 0,-0.1 -0.1,0 -0.3,0 -0.4,-0.1 -0.1,0 -0.2,0 -0.3,-0.1 -0.1,0 -0.2,-0.1 -0.3,-0.1 -0.1,-0.1 -0.1,-0.1 -0.1,-0.2 0,-0.1 0,-0.2 0,-0.3 0,-0.1 0,-0.3 0,-0.5 0,-0.2 0,-0.5 0,-0.7 0,-0.3 0,-0.6 0,-0.9 0,-0.3 0,-0.6 0,-0.9 0,-0.3 0,-0.6 0,-0.9 0,-0.3 0,-0.5 0,-0.7 0,-0.2 0,-0.4 0,-0.5 0,-0.1 0,-0.2 0,-0.3 0,-0.1 0,-0.1 0.1,-0.2 0,-0.1 0.1,-0.1 0.2,-0.1 0.1,0 0.2,0 0.3,-0.1 0.1,0 0.3,0 0.4,-0.1 0,0 0,0 0,-0.1 l 0,-0.1 0,-0.1 0,-0.1 c -0.2,0 -0.3,0 -0.5,0 -0.2,0 -0.3,0 -0.5,0 -0.2,0 -0.4,0 -0.7,0 -0.2,0 -0.5,0 -0.9,0 0,0.1 0,0.2 -0.1,0.3 0,0.1 -0.1,0.3 -0.1,0.4 -0.1,0.2 -0.2,0.4 -0.3,0.6 -0.1,0.2 -0.2,0.5 -0.4,0.8 -0.1,0.3 -0.3,0.6 -0.4,0.9 -0.1,0.3 -0.3,0.6 -0.4,0.8 -0.1,0.3 -0.2,0.5 -0.3,0.7 -0.1,0.2 -0.2,0.3 -0.2,0.4 l 0,0 0,0 c 0,-0.1 -0.1,-0.2 -0.2,-0.4 -0.1,-0.2 -0.2,-0.4 -0.3,-0.6 -0.1,-0.2 -0.2,-0.5 -0.4,-0.8 -0.1,-0.3 -0.3,-0.6 -0.4,-0.8 -0.1,-0.3 -0.3,-0.6 -0.4,-0.8 -0.1,-0.3 -0.2,-0.5 -0.3,-0.7 -0.1,-0.1 -0.1,-0.3 -0.1,-0.4 0,-0.1 -0.1,-0.2 -0.1,-0.4 -0.4,0 -0.8,0 -1.1,0 -0.3,0 -0.6,0 -0.9,0 -0.3,0 -0.5,0 -0.8,0 0,0 0,0 0,0.1 0,0.1 0,0.1 0,0.2 0.4,0 0.4,0 0.4,0 l 0,0 0,0 z"
       style="fill:#d2ab67" /><path
       id="path17"
       inkscape:connector-curvature="0"
       d="m 292.4,422.2 -0.2,0 c -5.4,0 -9,-1.9 -11.4,-5.2 -2.8,-3.9 -2.3,-11.2 -5.2,-14.2 8.3,-0.4 16.7,0.2 18.5,10.1 0.5,2.9 0.1,6 -0.2,7.8 -0.3,-0.6 -0.6,-1.3 -1,-1.8 -1.4,-2.4 -2.9,-4.3 -4.5,-5.2 l -1.5,-0.8 1,1.4 c 1.8,2.2 3.4,5 4.5,7.9 l 0,0 0,0 z m 3.1,15.5 c 0.3,-8.4 -2.2,-17 -7.3,-23.8 3.2,1.8 5.9,7.6 7.9,12.9 0.4,-6 3.8,-15.3 9,-20.2 -5.1,6.3 -6.9,14.2 -7.4,22.1 0.5,-1.2 1.2,-2.3 2,-3.3 4.3,-4.8 9.1,-2.4 13.5,0.6 -2.6,0.6 -4.8,4.8 -7.6,6 -2.5,1.1 -5.8,0.8 -8,-1 -0.1,2.2 -0.1,4.4 0,6.6 -0.1,0 -0.3,0 -0.4,0 -0.7,0 -1.2,0 -1.7,0.1 l 0,0 0,0 z m 3.5,-17 0.4,0 c 6.3,0 10.6,-2.2 13.4,-6.2 3.3,-4.7 2.7,-13.3 6.2,-16.7 -9.8,-0.5 -19.7,0.2 -21.8,11.9 -0.6,3.4 -0.2,6.9 0.2,9 0.4,-1.1 0.8,-2.2 1.3,-3.3 1.5,-3.5 3.6,-6.8 6,-9.1 l 4.3,-4.2 -3.8,4.7 c -3.3,4 -5.2,8.8 -6.2,13.9 l 0,0 0,0 z m 8.9,8.6 c -1.4,2.3 -6,3.6 -9.7,1.7 2.4,1.8 7.8,1.7 9.7,-1.7 l 0,0 z m 3.6,-3.8 c -3.1,-1.9 -6,-2.7 -8.3,-1.8 -1.9,0.7 -3.5,2.3 -5.1,4.7 4.7,-5.2 7.8,-5.3 13.4,-2.9 l 0,0 0,0 z m 2.5,-17.6 c 0,5 -6,11.4 -13.7,11.9 5.5,0.6 14,-4.8 13.7,-11.9 l 0,0 z m 2,-9.4 c -6.7,-0.1 -12,1.4 -14.8,5 -2.3,2.9 -3.4,6.9 -3.5,12.2 2.5,-12.4 7.2,-15.5 18.3,-17.2 l 0,0 z m -36.6,12.7 c 0,4.2 5,9.6 11.5,10 -4.7,0.5 -11.7,-4.1 -11.5,-10 l 0,0 z m -1,-7.8 c 5.5,-0.1 9.9,1.2 12.2,4.2 1.9,2.4 2.8,5.7 2.9,10.1 -2.1,-10.3 -5.9,-12.8 -15.1,-14.3 l 0,0 0,0 z"
       style="fill:#349040" /><path
       id="path19"
       inkscape:connector-curvature="0"
       d="m 297.3,436.9 c 15.7,0 29.3,3.4 35.7,8.4 -7.4,-4.3 -20.6,-7.1 -35.7,-7.1 -15.1,0 -28.3,2.8 -35.7,7.1 6.4,-5 20,-8.4 35.7,-8.4 l 0,0 z"
       style="fill:#d2ab67" /></g></svg>