<svg xmlns="http://www.w3.org/2000/svg" width="26" height="26" viewBox="0 0 26 26">
  <defs>
    <style>
      .cls-1 {
        fill: #fff;
        fill-rule: evenodd;
      }
    </style>
  </defs>
  <path id="min-order.svg" class="cls-1" d="M824.137,285.411l1.837,1.837-7.347,7.348L814.033,290l1.837-1.837,2.756,2.755Zm8.858-3.2V297.8a5.212,5.212,0,0,1-5.2,5.2H812.21a5.211,5.211,0,0,1-5.2-5.2V282.21a5.211,5.211,0,0,1,5.2-5.2H827.8A5.212,5.212,0,0,1,833,282.21ZM829.747,290A9.743,9.743,0,1,0,820,299.747,9.742,9.742,0,0,0,829.747,290Z" transform="translate(-807 -277)"/>
</svg>
