<svg xmlns="http://www.w3.org/2000/svg" width="24.5" height="24.5" viewBox="0 0 24.5 24.5">
  <defs>
    <style>
      .cls-1 {
        fill: #298d3f;
        fill-rule: evenodd;
      }
    </style>
  </defs>
  <path id="phone.svg" class="cls-1" d="M975.438,87.919c0.011,0.056.026,0.112,0.036,0.168a0.671,0.671,0,0,1-.559.78,0.924,0.924,0,0,1-.117.01,0.669,0.669,0,0,1-.258-0.056,0.634,0.634,0,0,1-.125.046,0.924,0.924,0,0,1-.117.01,0.681,0.681,0,0,1-.675-0.567,11.611,11.611,0,0,0-9.478-9.452,0.687,0.687,0,0,1-.564-0.79,0.7,0.7,0,0,1,.053-0.136,0.658,0.658,0,0,1-.053-0.364,0.683,0.683,0,0,1,.787-0.557c0.057,0.01.112,0.025,0.169,0.035a0.645,0.645,0,0,1,.331-0.035,13,13,0,0,1,10.606,10.576A0.641,0.641,0,0,1,975.438,87.919Zm-11.257-6.557c0.057,0.01.112,0.024,0.169,0.035a0.677,0.677,0,0,1,.331-0.035,7.892,7.892,0,0,1,6.44,6.423,0.67,0.67,0,0,1-.036.331c0.011,0.056.026,0.112,0.036,0.169a0.685,0.685,0,0,1-.564.79,0.908,0.908,0,0,1-.117.01,0.351,0.351,0,0,0-.383-0.01,0.908,0.908,0,0,1-.117.01,0.681,0.681,0,0,1-.675-0.567,6.53,6.53,0,0,0-5.323-5.309,0.677,0.677,0,0,1-.554-0.79,0.717,0.717,0,0,1,.051-0.13,0.663,0.663,0,0,1-.051-0.37A0.689,0.689,0,0,1,964.181,81.362Zm-4.051,5.013c-0.324.327-.659,0.664-1.01,0.994a10.966,10.966,0,0,0,1.2,1.819,17.406,17.406,0,0,0,4.18,3.8c0.147,0.091.32,0.177,0.5,0.269l0.062,0.032,1.434-1.425a2.451,2.451,0,0,1,1.737-.78,2.064,2.064,0,0,1,.248.027,2.154,2.154,0,0,1,.252-0.027,2.371,2.371,0,0,1,1.717.785l2.788,2.791a2.431,2.431,0,0,1,.782,1.738,2.374,2.374,0,0,1-.026.252,2.294,2.294,0,0,1,.026.248,2.523,2.523,0,0,1-.767,1.752c-0.218.228-.442,0.446-0.66,0.654a11.6,11.6,0,0,0-.889.916c0,0.011-.015.016-0.02,0.026a3.832,3.832,0,0,1-2.931,1.256c-0.1,0-.213,0-0.32-0.01l-0.034,0c-0.05,0-.1.014-0.146,0.014-0.1,0-.213,0-0.32-0.01a12.415,12.415,0,0,1-4.469-1.317,23.9,23.9,0,0,1-7.96-6.215,21.812,21.812,0,0,1-3.885-6.464,9.171,9.171,0,0,1-.661-3.479,6.353,6.353,0,0,1,.011-0.779,3.7,3.7,0,0,1,1.1-2.355l1.727-1.737,0.01-.01a2.49,2.49,0,0,1,1.727-.744,2.166,2.166,0,0,1,.249.026,2.2,2.2,0,0,1,.251-0.026,2.4,2.4,0,0,1,1.7.744c0.331,0.3.651,0.628,0.955,0.942,0.153,0.162.315,0.324,0.473,0.481l1.386,1.383a2.981,2.981,0,0,1,0,4.005C960.414,86.086,960.272,86.233,960.13,86.375Zm-1.039-2.968-1.386-1.383c-0.163-.167-0.325-0.329-0.483-0.491-0.31-.319-0.6-0.618-0.914-0.907l-0.015-.015a1.258,1.258,0,0,0-.49-0.312,1.337,1.337,0,0,0-.524.317l-1.732,1.727a2.322,2.322,0,0,0-.7,1.5c-0.007.085,0,.175,0,0.261a8.336,8.336,0,0,0,.572,2.41,20.556,20.556,0,0,0,3.657,6.073,22.549,22.549,0,0,0,7.5,5.855,11.185,11.185,0,0,0,3.866,1.176,2.425,2.425,0,0,0,1.739-.791,13.4,13.4,0,0,1,.98-1.013c0.219-.213.422-0.405,0.62-0.618a1.37,1.37,0,0,0,.344-0.548,1.309,1.309,0,0,0-.349-0.538l-2.8-2.791-0.01-.01a1.185,1.185,0,0,0-.482-0.326,1.368,1.368,0,0,0-.516.336l-1.737,1.733a1.09,1.09,0,0,1-.772.35,1.025,1.025,0,0,1-.262-0.035,0.944,0.944,0,0,1-.238.035,1.1,1.1,0,0,1-.5-0.127c-0.021-.01-0.041-0.025-0.061-0.035-0.147-.091-0.32-0.177-0.5-0.269a7.019,7.019,0,0,1-.625-0.339,18.632,18.632,0,0,1-4.51-4.093l0-.005a11.115,11.115,0,0,1-1.641-2.669l-0.015-.046a1.142,1.142,0,0,1-.04-0.649,1,1,0,0,1,.3-1,0.1,0.1,0,0,1,.026-0.025c0.441-.4.848-0.8,1.274-1.236,0.148-.142.29-0.289,0.437-0.436a1.391,1.391,0,0,0,.357-0.535A1.392,1.392,0,0,0,959.091,83.407Z" transform="translate(-950.969 -77)"/>
</svg>
