<svg xmlns="http://www.w3.org/2000/svg" width="19" height="24" viewBox="0 0 19 24">
  <defs>
    <style>
      .cls-1 {
        fill: #fff;
        fill-rule: evenodd;
      }
    </style>
  </defs>
  <path id="ruble.svg" class="cls-1" d="M1239.11,289.819a7.948,7.948,0,0,1-4.63,1.5,1.919,1.919,0,0,1-1.12.364h-3.58v2h5.75a1.844,1.844,0,1,1,0,3.687h-5.75v2.182a2.609,2.609,0,0,1-.57,1.823,2.034,2.034,0,0,1-2.92.006,2.557,2.557,0,0,1-.56-1.8v-2.209h-1.89a1.844,1.844,0,0,1,0-3.687h1.89v-2h-1.81a1.922,1.922,0,0,1,0-3.844h1.81v-6.737a4.427,4.427,0,0,1,.61-2.534,2.815,2.815,0,0,1,1.95-.567h5.2a13.73,13.73,0,0,1,3.55.351,5.354,5.354,0,0,1,2.13,1.121,7.909,7.909,0,0,1,1.36,2.56,6.682,6.682,0,0,1,.46,2.553C1240.99,286.608,1240.36,288.779,1239.11,289.819Zm-3.01-7.28c-0.58-.586-1.78-0.878-3.59-0.878h-2.73v6.05h2.73a8.244,8.244,0,0,0,2.4-.3,2.822,2.822,0,0,0,1.47-.973,2.922,2.922,0,0,0,.5-1.769A2.975,2.975,0,0,0,1236.1,282.539Z" transform="translate(-1222 -278)"/>
</svg>
