<svg width="28" height="25" viewBox="0 0 28 25" fill="none" xmlns="http://www.w3.org/2000/svg">
<path d="M17.9375 0H11.8125C11.5706 0 11.375 0.196 11.375 0.4375C11.375 0.679 11.5706 0.875 11.8125 0.875H17.9375C18.1794 0.875 18.375 0.679 18.375 0.4375C18.375 0.196 18.1794 0 17.9375 0Z" fill="#298D3F"/>
<path d="M15.75 0C15.5081 0 15.3125 0.196 15.3125 0.4375V2.625C15.3125 2.8665 15.5081 3.0625 15.75 3.0625C15.9919 3.0625 16.1875 2.8665 16.1875 2.625V0.4375C16.1875 0.196 15.9919 0 15.75 0Z" fill="#298D3F"/>
<path d="M15.75 2.1875H14C13.7581 2.1875 13.5625 2.3835 13.5625 2.625C13.5625 2.8665 13.7581 3.0625 14 3.0625H15.75C15.9919 3.0625 16.1875 2.8665 16.1875 2.625C16.1875 2.3835 15.9919 2.1875 15.75 2.1875Z" fill="#298D3F"/>
<path d="M14 0C13.7581 0 13.5625 0.196 13.5625 0.4375V2.625C13.5625 2.8665 13.7581 3.0625 14 3.0625C14.2419 3.0625 14.4375 2.8665 14.4375 2.625V0.4375C14.4375 0.196 14.2419 0 14 0Z" fill="#298D3F"/>
<path d="M11.8125 8.75H6.5625C6.32056 8.75 6.125 8.946 6.125 9.1875C6.125 9.429 6.32056 9.625 6.5625 9.625H11.8125C12.0544 9.625 12.25 9.429 12.25 9.1875C12.25 8.946 12.0544 8.75 11.8125 8.75Z" fill="#298D3F"/>
<path d="M17.9375 7.875C17.6956 7.875 17.5 8.071 17.5 8.3125V15.75C17.5 15.9919 17.6956 16.1875 17.9375 16.1875C18.1794 16.1875 18.375 15.9919 18.375 15.75V8.3125C18.375 8.071 18.1794 7.875 17.9375 7.875Z" fill="#298D3F"/>
<path d="M27.5621 18.8125H26.2588C26.0169 18.8125 25.8213 19.0081 25.8213 19.25C25.8213 19.4919 26.0169 19.6875 26.2588 19.6875H27.5621C27.804 19.6875 27.9996 19.4919 27.9996 19.25C27.9996 19.0081 27.804 18.8125 27.5621 18.8125Z" fill="#298D3F"/>
<path d="M27.5625 18.8125C27.3206 18.8125 27.125 19.0081 27.125 19.25V21C27.125 21.2419 27.3206 21.4375 27.5625 21.4375C27.8044 21.4375 28 21.2419 28 21V19.25C28 19.0081 27.8044 18.8125 27.5625 18.8125Z" fill="#298D3F"/>
<path d="M4.375 20.5625C4.37457 20.5625 4.37413 20.5625 4.37369 20.5625L1.31119 20.5717C1.06925 20.5726 0.874128 20.7686 0.875003 21.0105C0.875878 21.252 1.07144 21.4467 1.3125 21.4467C1.31294 21.4467 1.31338 21.4467 1.31382 21.4467L4.37632 21.4375C4.61825 21.4366 4.81338 21.2406 4.8125 20.9987C4.81163 20.7572 4.61607 20.5625 4.375 20.5625Z" fill="#298D3F"/>
<path d="M27.125 16.625H26.6875C26.4456 16.625 26.25 16.8206 26.25 17.0625C26.25 17.3044 26.4456 17.5 26.6875 17.5H27.125C27.3669 17.5 27.5625 17.3044 27.5625 17.0625C27.5625 16.8206 27.3669 16.625 27.125 16.625Z" fill="#298D3F"/>
<path d="M27.125 13.5625C26.8831 13.5625 26.6875 13.7581 26.6875 14V19.25C26.6875 19.4919 26.8831 19.6875 27.125 19.6875C27.3669 19.6875 27.5625 19.4919 27.5625 19.25V14C27.5625 13.7581 27.3669 13.5625 27.125 13.5625Z" fill="#298D3F"/>
<path d="M24.5 7.875H17.9375C17.6956 7.875 17.5 8.071 17.5 8.3125C17.5 8.554 17.6956 8.75 17.9375 8.75H24.5C24.7419 8.75 24.9375 8.554 24.9375 8.3125C24.9375 8.071 24.7419 7.875 24.5 7.875Z" fill="#298D3F"/>
<path d="M27.5223 13.8167L24.8973 8.12919C24.7963 7.91 24.5373 7.81419 24.3168 7.91525C24.0971 8.01631 24.0018 8.27663 24.1028 8.49581L26.7278 14.1833C26.8018 14.3434 26.9601 14.4375 27.1255 14.4375C27.1868 14.4375 27.2489 14.4248 27.3084 14.3973C27.528 14.2962 27.6234 14.0359 27.5223 13.8167Z" fill="#298D3F"/>
<path d="M1.3125 18.8125C1.07056 18.8125 0.875 19.0081 0.875 19.25V21.0276C0.875 21.2695 1.07056 21.4651 1.3125 21.4651C1.55444 21.4651 1.75 21.2691 1.75 21.0276V19.25C1.75 19.0081 1.55444 18.8125 1.3125 18.8125Z" fill="#298D3F"/>
<path d="M0.4375 13.125C0.195563 13.125 0 13.3206 0 13.5625V19.25C0 19.4919 0.195563 19.6875 0.4375 19.6875C0.679438 19.6875 0.875 19.4919 0.875 19.25V13.5625C0.875 13.3206 0.679438 13.125 0.4375 13.125Z" fill="#298D3F"/>
<path d="M17.9375 13.125H0.4375C0.195563 13.125 0 13.3206 0 13.5625C0 13.8044 0.195563 14 0.4375 14H17.9375C18.1794 14 18.375 13.8044 18.375 13.5625C18.375 13.3206 18.1794 13.125 17.9375 13.125Z" fill="#298D3F"/>
<path d="M2.625 18.8125H0.4375C0.195563 18.8125 0 19.0081 0 19.25C0 19.4919 0.195563 19.6875 0.4375 19.6875H2.625C2.86694 19.6875 3.0625 19.4919 3.0625 19.25C3.0625 19.0081 2.86694 18.8125 2.625 18.8125Z" fill="#298D3F"/>
<path d="M7 17.9375C5.31169 17.9375 3.9375 19.3117 3.9375 21C3.9375 22.6883 5.31169 24.0625 7 24.0625C8.68831 24.0625 10.0625 22.6883 10.0625 21C10.0625 19.3117 8.68831 17.9375 7 17.9375ZM7 23.1875C5.79381 23.1875 4.8125 22.2062 4.8125 21C4.8125 19.7938 5.79381 18.8125 7 18.8125C8.20619 18.8125 9.1875 19.7938 9.1875 21C9.1875 22.2062 8.20619 23.1875 7 23.1875Z" fill="#298D3F"/>
<path d="M7 19.6875C6.27637 19.6875 5.6875 20.2764 5.6875 21C5.6875 21.7236 6.27637 22.3125 7 22.3125C7.72362 22.3125 8.3125 21.7236 8.3125 21C8.3125 20.2764 7.72362 19.6875 7 19.6875ZM7 21.4375C6.7585 21.4375 6.5625 21.2415 6.5625 21C6.5625 20.7585 6.7585 20.5625 7 20.5625C7.2415 20.5625 7.4375 20.7585 7.4375 21C7.4375 21.2415 7.2415 21.4375 7 21.4375Z" fill="#298D3F"/>
<path d="M21.4375 19.6875C20.7139 19.6875 20.125 20.2764 20.125 21C20.125 21.7236 20.7139 22.3125 21.4375 22.3125C22.1611 22.3125 22.75 21.7236 22.75 21C22.75 20.2764 22.1611 19.6875 21.4375 19.6875ZM21.4375 21.4375C21.196 21.4375 21 21.2415 21 21C21 20.7585 21.196 20.5625 21.4375 20.5625C21.679 20.5625 21.875 20.7585 21.875 21C21.875 21.2415 21.679 21.4375 21.4375 21.4375Z" fill="#298D3F"/>
<path d="M21.4375 17.9375C19.7492 17.9375 18.375 19.3117 18.375 21C18.375 22.6883 19.7492 24.0625 21.4375 24.0625C23.1258 24.0625 24.5 22.6883 24.5 21C24.5 19.3117 23.1258 17.9375 21.4375 17.9375ZM21.4375 23.1875C20.2313 23.1875 19.25 22.2062 19.25 21C19.25 19.7938 20.2313 18.8125 21.4375 18.8125C22.6437 18.8125 23.625 19.7938 23.625 21C23.625 22.2062 22.6437 23.1875 21.4375 23.1875Z" fill="#298D3F"/>
<path d="M18.8234 20.5625H9.625C9.38306 20.5625 9.1875 20.7581 9.1875 21C9.1875 21.2419 9.38306 21.4375 9.625 21.4375H18.8234C19.0654 21.4375 19.2609 21.2419 19.2609 21C19.2609 20.7581 19.0654 20.5625 18.8234 20.5625Z" fill="#298D3F"/>
<path d="M27.5625 20.5625H24.0625C23.8206 20.5625 23.625 20.7581 23.625 21C23.625 21.2419 23.8206 21.4375 24.0625 21.4375H27.5625C27.8044 21.4375 28 21.2419 28 21C28 20.7581 27.8044 20.5625 27.5625 20.5625Z" fill="#298D3F"/>
<path d="M27.125 13.5625H21.875C21.6331 13.5625 21.4375 13.7581 21.4375 14C21.4375 14.2419 21.6331 14.4375 21.875 14.4375H27.125C27.3669 14.4375 27.5625 14.2419 27.5625 14C27.5625 13.7581 27.3669 13.5625 27.125 13.5625Z" fill="#298D3F"/>
<path d="M21.875 13.5625C21.1514 13.5625 20.5625 12.9736 20.5625 12.25C20.5625 12.0085 20.3669 11.8125 20.125 11.8125C19.8831 11.8125 19.6875 12.0085 19.6875 12.25C19.6875 13.4562 20.6688 14.4375 21.875 14.4375C22.1169 14.4375 22.3125 14.2419 22.3125 14C22.3125 13.7581 22.1169 13.5625 21.875 13.5625Z" fill="#298D3F"/>
<path d="M20.125 7.875C19.8831 7.875 19.6875 8.071 19.6875 8.3125V12.25C19.6875 12.4919 19.8831 12.6875 20.125 12.6875C20.3669 12.6875 20.5625 12.4919 20.5625 12.25V8.3125C20.5625 8.071 20.3669 7.875 20.125 7.875Z" fill="#298D3F"/>
<path d="M17.9375 0C17.6956 0 17.5 0.196 17.5 0.4375V13.5625C17.5 13.8044 17.6956 14 17.9375 14C18.1794 14 18.375 13.8044 18.375 13.5625V0.4375C18.375 0.196 18.1794 0 17.9375 0Z" fill="#298D3F"/>
<path d="M11.8125 0C11.5706 0 11.375 0.196 11.375 0.4375V13.5625C11.375 13.8044 11.5706 14 11.8125 14C12.0544 14 12.25 13.8044 12.25 13.5625V0.4375C12.25 0.196 12.0544 0 11.8125 0Z" fill="#298D3F"/>
<path d="M6.5625 3.5C6.32056 3.5 6.125 3.696 6.125 3.9375V13.5625C6.125 13.8044 6.32056 14 6.5625 14C6.80444 14 7 13.8044 7 13.5625V3.9375C7 3.696 6.80444 3.5 6.5625 3.5Z" fill="#298D3F"/>
<path d="M9.1875 8.75C8.94556 8.75 8.75 8.946 8.75 9.1875V10.5C8.75 10.7415 8.94556 10.9375 9.1875 10.9375C9.42944 10.9375 9.625 10.7415 9.625 10.5V9.1875C9.625 8.946 9.42944 8.75 9.1875 8.75Z" fill="#298D3F"/>
<path d="M11.8125 3.5H6.5625C6.32056 3.5 6.125 3.696 6.125 3.9375C6.125 4.179 6.32056 4.375 6.5625 4.375H11.8125C12.0544 4.375 12.25 4.179 12.25 3.9375C12.25 3.696 12.0544 3.5 11.8125 3.5Z" fill="#298D3F"/>
<path d="M9.1875 3.5C8.94556 3.5 8.75 3.696 8.75 3.9375V4.8125C8.75 5.054 8.94556 5.25 9.1875 5.25C9.42944 5.25 9.625 5.054 9.625 4.8125V3.9375C9.625 3.696 9.42944 3.5 9.1875 3.5Z" fill="#298D3F"/>
<path d="M1.3125 6.5625C1.07056 6.5625 0.875 6.7585 0.875 7V13.5625C0.875 13.8044 1.07056 14 1.3125 14C1.55444 14 1.75 13.8044 1.75 13.5625V7C1.75 6.7585 1.55444 6.5625 1.3125 6.5625Z" fill="#298D3F"/>
<path d="M6.5625 6.5625H1.3125C1.07056 6.5625 0.875 6.7585 0.875 7C0.875 7.2415 1.07056 7.4375 1.3125 7.4375H6.5625C6.80444 7.4375 7 7.2415 7 7C7 6.7585 6.80444 6.5625 6.5625 6.5625Z" fill="#298D3F"/>
<path d="M3.0625 6.5625C2.82056 6.5625 2.625 6.7585 2.625 7V8.3125C2.625 8.554 2.82056 8.75 3.0625 8.75C3.30444 8.75 3.5 8.554 3.5 8.3125V7C3.5 6.7585 3.30444 6.5625 3.0625 6.5625Z" fill="#298D3F"/>
<path d="M4.8125 7.875H3.0625C2.82056 7.875 2.625 8.071 2.625 8.3125C2.625 8.554 2.82056 8.75 3.0625 8.75H4.8125C5.05444 8.75 5.25 8.554 5.25 8.3125C5.25 8.071 5.05444 7.875 4.8125 7.875Z" fill="#298D3F"/>
<path d="M4.8125 6.5625C4.57056 6.5625 4.375 6.7585 4.375 7V8.3125C4.375 8.554 4.57056 8.75 4.8125 8.75C5.05444 8.75 5.25 8.554 5.25 8.3125V7C5.25 6.7585 5.05444 6.5625 4.8125 6.5625Z" fill="#298D3F"/>
</svg>
