<svg width="102" height="102" viewBox="0 0 102 102" fill="none" xmlns="http://www.w3.org/2000/svg">
<path fill-rule="evenodd" clip-rule="evenodd" d="M52.6748 62.199L76.7726 37.9221C77.6971 36.9924 77.693 35.4891 76.7634 34.5645C76.3002 34.1039 75.6946 33.8671 75.0892 33.8671H70.9192V5.97655C70.9192 3.78515 69.1262 1.99219 66.9348 1.99219H35.0599C32.8685 1.99219 31.0756 3.78515 31.0756 5.97655V33.8671H26.9123C25.5973 33.8671 24.5312 34.9331 24.5312 36.2481C24.5312 36.9673 24.85 37.612 25.3542 38.0485L49.3173 62.1899C50.2417 63.1194 51.7452 63.1236 52.6748 62.199Z" fill="#B4E66E"/>
<path fill-rule="evenodd" clip-rule="evenodd" d="M48.6004 70.854C36.1431 72.4011 9.36184 60.8327 2.08939 95.5478C1.57999 97.9799 3.14942 100.008 5.00952 100.008H25.0586C27.4717 100.008 28.5535 98.9156 29.0486 97.0681L30.9204 93.4254L44.5587 93.5766C53.5303 93.676 56.0878 93.1758 64.486 89.8082C76.1618 85.1264 93.0908 77.4642 96.8635 76.0456C102.35 73.9191 100.294 66.0759 93.4938 67.7822L71.2192 73.7867C71.4332 73.2649 71.52 72.6838 71.4388 72.0345C71.1473 69.7055 68.9957 68.0376 66.6577 68.3281C64.4173 68.6066 50.8408 70.5759 48.6004 70.854Z" fill="#ECE0C7" fill-opacity="0.51"/>
<path d="M101.708 69.9415C100.818 67.1429 97.7168 64.6696 93.0097 65.85C92.9983 65.8528 92.9872 65.8556 92.976 65.8588L73.3054 71.1612C72.5962 68.0713 69.6334 65.9514 66.4125 66.3508C65.2761 66.4921 61.4316 67.0383 57.3614 67.6167C53.4765 68.1687 49.4592 68.7395 48.3552 68.8765C45.9235 69.1787 42.6872 68.9227 39.2605 68.652C38.0516 68.5566 36.8011 68.4576 35.5217 68.3769C34.4211 68.3048 33.4774 69.1417 33.408 70.2398C33.3387 71.3379 34.1728 72.2844 35.2709 72.3535C36.519 72.4322 37.7532 72.5298 38.9467 72.624C42.5808 72.9113 46.0131 73.1824 48.8462 72.8304C49.985 72.689 53.8402 72.1411 57.922 71.5612C61.796 71.0106 65.8021 70.4416 66.9037 70.3045C68.1578 70.1505 69.3067 71.0357 69.4625 72.2816C69.5119 72.6758 69.643 73.7229 66.888 74.986C61.222 77.5836 55.1833 79.8072 50.3208 81.0864C49.2566 81.3663 48.6211 82.4558 48.901 83.5199C49.1807 84.5841 50.27 85.2194 51.3345 84.9397C56.4089 83.6049 62.6833 81.297 68.5487 78.6077C70.5869 77.6734 71.83 76.5849 72.5556 75.4896L93.9948 69.7103C96.3559 69.1232 97.567 70.0671 97.9104 71.1482C98.2417 72.1901 97.8258 73.5323 96.1515 74.1847C94.4829 74.8132 90.49 76.5502 85.4382 78.748C78.7367 81.6633 70.3966 85.2915 63.7449 87.9586C55.5639 91.2394 53.2374 91.6762 44.581 91.5838L30.9427 91.4328C30.9353 91.4326 30.928 91.4326 30.9206 91.4326C30.1747 91.4326 29.4904 91.8498 29.1487 92.5142L27.2769 96.1567C27.2123 96.2828 27.1611 96.415 27.1245 96.5517C26.848 97.5837 26.4999 98.015 25.059 98.015H5.0101C4.79216 98.015 4.55768 97.8801 4.36683 97.6452C4.20407 97.4448 3.84627 96.879 4.03951 95.9558C6.43869 84.5036 11.1665 77.409 18.4936 74.267C19.5048 73.8333 19.973 72.6621 19.5393 71.6508C19.1056 70.6398 17.935 70.1714 16.9231 70.6051C8.31473 74.2967 2.82488 82.3218 0.13982 95.1389C-0.243475 96.9691 0.169902 98.7981 1.27397 100.157C2.22484 101.328 3.58649 101.999 5.0099 101.999H25.059C28.0752 101.999 30.094 100.549 30.9114 97.8016L32.1298 95.4305L44.5369 95.5678C53.6854 95.6716 56.5884 95.1209 65.2277 91.6565C71.933 88.9679 80.3025 85.327 87.0275 82.4014C91.8407 80.3075 95.9975 78.4992 97.5652 77.9097C97.5714 77.9073 97.5777 77.9049 97.5841 77.9025C101.474 76.3956 102.603 72.7569 101.708 69.9415Z" fill="#298D3F"/>
<path d="M43.0312 24.472C46.3267 24.472 49.0078 21.7909 49.0078 18.4954C49.0078 15.1999 46.3267 12.5189 43.0312 12.5189C39.7358 12.5189 37.0547 15.1999 37.0547 18.4954C37.0547 21.7909 39.7358 24.472 43.0312 24.472ZM43.0312 16.5032C44.1297 16.5032 45.0234 17.3969 45.0234 18.4954C45.0234 19.5939 44.1297 20.4876 43.0312 20.4876C41.9328 20.4876 41.0391 19.5939 41.0391 18.4954C41.0391 17.3969 41.9328 16.5032 43.0312 16.5032Z" fill="#298D3F"/>
<path d="M52.9922 34.433C52.9922 37.7286 55.6733 40.4097 58.9688 40.4097C62.2642 40.4097 64.9453 37.7286 64.9453 34.433C64.9453 31.1375 62.2642 28.4566 58.9688 28.4566C55.6733 28.4566 52.9922 31.1375 52.9922 34.433ZM60.9609 34.433C60.9609 35.5317 60.0672 36.4254 58.9688 36.4254C57.8703 36.4254 56.9766 35.5317 56.9766 34.433C56.9766 33.3345 57.8703 32.441 58.9688 32.441C60.0672 32.441 60.9609 33.3345 60.9609 34.433Z" fill="#298D3F"/>
<path d="M43.1018 40.1427C43.4156 40.3238 43.7581 40.4101 44.0959 40.4101C44.7844 40.4101 45.4542 40.0527 45.8232 39.4136L59.6252 15.5074C60.1755 14.5545 59.8489 13.3363 58.8961 12.786C57.943 12.2356 56.7248 12.5625 56.1748 13.5152L42.3727 37.4214C41.8226 38.3743 42.149 39.5925 43.1018 40.1427Z" fill="#298D3F"/>
<path d="M23.9891 39.4974L47.9086 63.5944C48.731 64.4213 49.8261 64.8787 50.9925 64.8821H51.005C52.1669 64.8821 53.2598 64.4311 54.0927 63.6025L78.1901 39.3262C79.8869 37.6193 79.8791 34.8498 78.1722 33.1521C77.3443 32.3285 76.2505 31.8751 75.0931 31.8751H72.915V5.97654C72.915 2.68108 70.234 0 66.9385 0H35.0636C31.7682 0 29.0871 2.68108 29.0871 5.97654V31.8749H26.9162C24.5049 31.8749 22.543 33.8368 22.543 36.2479C22.543 37.4888 23.0689 38.6682 23.9891 39.4974ZM26.9162 35.8592H31.0793C32.1793 35.8592 33.0714 34.9671 33.0714 33.8671V5.97654C33.0714 4.87805 33.9651 3.98436 35.0636 3.98436H66.9385C68.037 3.98436 68.9307 4.87805 68.9307 5.97654V33.8671C68.9307 34.9671 69.8228 35.8592 70.9229 35.8592H75.0931C75.1495 35.8592 75.2594 35.8746 75.3624 35.977C75.5118 36.1256 75.5126 36.368 75.364 36.5175C75.3636 36.5178 75.3632 36.5184 75.3626 36.5188L51.2736 60.7866C51.1816 60.8782 51.0768 60.8976 51.0046 60.8976C51.0042 60.8976 51.0038 60.8976 51.0034 60.8976C50.9313 60.8974 50.8257 60.8776 50.7349 60.7862L26.7718 36.645C26.7363 36.6095 26.6999 36.5752 26.662 36.5424C26.6116 36.4987 26.5269 36.4025 26.5269 36.2477C26.5273 36.0336 26.7016 35.8592 26.9162 35.8592Z" fill="#298D3F"/>
<path d="M26.4328 68.3709C25.3327 68.3709 24.4414 69.263 24.4414 70.3631C24.4414 71.4632 25.3339 72.3553 26.4342 72.3553C27.5343 72.3553 28.4264 71.4632 28.4264 70.3631C28.4264 69.263 27.5343 68.3709 26.4342 68.3709H26.4328Z" fill="#298D3F"/>
</svg>
