<svg width="59" height="87" viewBox="0 0 59 87" fill="none" xmlns="http://www.w3.org/2000/svg">
<path d="M47.4552 72.4933H3.7952C2.39593 72.4933 1.26172 71.3591 1.26172 69.9598V4.30686C1.26172 2.90759 2.39593 1.77338 3.7952 1.77338H47.4552C48.8544 1.77338 49.9887 2.90759 49.9887 4.30686V69.9598C49.9887 71.3589 48.8544 72.4933 47.4552 72.4933Z" fill="#F9F5EC"/>
<path d="M47.458 1.77338H40.7539C42.1532 1.77338 43.2874 2.90759 43.2874 4.30686V69.9598C43.2874 71.3591 42.1532 72.4933 40.7539 72.4933H47.458C48.8573 72.4933 49.9915 71.3591 49.9915 69.9598V4.30686C49.9915 2.90759 48.8573 1.77338 47.458 1.77338Z" fill="#60B7FF"/>
<path d="M10.6328 15.0769C10.8129 15.0364 10.9994 15.0131 11.1918 15.0131H49.9877V4.3068C49.9877 3.68564 49.7634 3.11752 49.3924 2.67694L10.6328 15.0769Z" fill="#F09300"/>
<path d="M54.8536 85.733H11.1936C9.79437 85.733 8.66016 84.5988 8.66016 83.1995V17.5465C8.66016 16.1473 9.79437 15.0131 11.1936 15.0131H54.8536C56.2529 15.0131 57.3871 16.1473 57.3871 17.5465V83.1995C57.3871 84.5988 56.2527 85.733 54.8536 85.733Z" fill="#F9F5EC"/>
<path d="M14.7422 34.5182V22.2772C14.7422 21.6241 15.2716 21.0947 15.9247 21.0947H29.13C29.7831 21.0947 30.3125 21.6241 30.3125 22.2772V34.5182C30.3125 35.1713 29.7831 35.7008 29.13 35.7008H15.9247C15.2716 35.7008 14.7422 35.1713 14.7422 34.5182Z" fill="#298D3F"/>
<path d="M14.7422 78.4688V66.2278C14.7422 65.5747 15.2716 65.0453 15.9247 65.0453H29.13C29.7831 65.0453 30.3125 65.5747 30.3125 66.2278V78.4688C30.3125 79.1219 29.7831 79.6514 29.13 79.6514H15.9247C15.2716 79.6514 14.7422 79.1219 14.7422 78.4688Z" fill="#298D3F"/>
<path d="M14.7422 57.1767V44.9357C14.7422 44.2826 15.2716 43.7532 15.9247 43.7532H29.13C29.7831 43.7532 30.3125 44.2826 30.3125 44.9357V57.1767C30.3125 57.8298 29.7831 58.3593 29.13 58.3593H15.9247C15.2716 58.3593 14.7422 57.8298 14.7422 57.1767Z" fill="#FFBC7E"/>
<path d="M54.8525 15.0131H48.1484C49.5477 15.0131 50.6819 16.1473 50.6819 17.5465V83.1995C50.6819 84.5986 49.5477 85.733 48.1484 85.733H54.8525C56.2518 85.733 57.386 84.5988 57.386 83.1995V17.5465C57.386 16.1474 56.2516 15.0131 54.8525 15.0131Z" fill="#C4C4C4"/>
<path d="M49.3972 2.677L44.2461 4.32494V15.0131H49.9925V4.30703C49.9925 3.68587 49.7682 3.11775 49.3972 2.677Z" fill="#FFBC7E"/>
<path d="M47.4605 0.506348H17.0465C16.3468 0.506348 15.7795 1.07362 15.7795 1.77334C15.7795 2.47306 16.3468 3.04034 17.0465 3.04034H44.1044L10.3103 13.8519C8.59361 14.2642 7.39756 15.7892 7.39756 17.5464V71.2261H3.80065C3.10228 71.2261 2.53416 70.658 2.53416 69.9596V4.30683C2.53416 3.60846 3.10228 3.04034 3.80065 3.04034H11.134C11.8337 3.04034 12.401 2.47306 12.401 1.77334C12.401 1.07362 11.8337 0.506348 11.134 0.506348H3.80065C1.70504 0.506348 0 2.21122 0 4.30683V69.9598C0 72.0554 1.70487 73.7603 3.80048 73.7603H7.39739V83.1994C7.39739 85.295 9.10226 86.9999 11.1979 86.9999H54.8578C56.9535 86.9999 58.6583 85.295 58.6583 83.1994V78.662C58.6583 77.9623 58.0911 77.395 57.3913 77.395C56.6916 77.395 56.1243 77.9623 56.1243 78.662V83.1994C56.1243 83.8978 55.5562 84.4659 54.8578 84.4659H11.198C10.4997 84.4659 9.93155 83.8978 9.93155 83.1994V72.4933C9.93155 70.6612 9.93155 19.862 9.93155 17.5466C9.93155 16.8538 10.5034 16.2801 11.198 16.2801H54.858C55.5564 16.2801 56.1245 16.8482 56.1245 17.5466V72.7496C56.1245 73.4493 56.6918 74.0166 57.3915 74.0166C58.0912 74.0166 58.6585 73.4493 58.6585 72.7496V17.5464C58.6585 15.4508 56.9536 13.7459 54.858 13.7459H51.2611V4.30683C51.2609 2.22439 49.5721 0.506348 47.4605 0.506348V0.506348ZM18.9571 13.7461L48.7244 4.22287C48.7261 4.25023 48.7271 4.27811 48.7271 4.30683V13.7459H18.9571V13.7461Z" fill="#298D3F"/>
<path d="M31.5848 22.2775C31.5848 20.9268 30.4859 19.8279 29.1353 19.8279H15.93C14.5794 19.8279 13.4805 20.9268 13.4805 22.2775V34.5185C13.4805 35.8691 14.5794 36.968 15.93 36.968H29.1353C30.4859 36.968 31.5848 35.8691 31.5848 34.5185V22.2775ZM29.0508 34.4339H16.0145V22.3618H29.0508V34.4339Z" fill="#298D3F"/>
<path d="M29.1353 63.7784H15.93C14.5794 63.7784 13.4805 64.8773 13.4805 66.228V78.469C13.4805 79.8196 14.5794 80.9185 15.93 80.9185H29.1353C30.4859 80.9185 31.5848 79.8196 31.5848 78.469V66.228C31.5848 64.8773 30.4859 63.7784 29.1353 63.7784ZM29.0508 78.3845H16.0145V66.3124H29.0508V78.3845Z" fill="#298D3F"/>
<path d="M31.5848 44.9357C31.5848 43.5851 30.4859 42.4862 29.1353 42.4862H15.93C14.5794 42.4862 13.4805 43.5851 13.4805 44.9357V57.1768C13.4805 58.5274 14.5794 59.6263 15.93 59.6263H29.1353C30.4859 59.6263 31.5848 58.5274 31.5848 57.1768V44.9357ZM29.0508 57.0923H16.0145V45.0202H29.0508V57.0923Z" fill="#298D3F"/>
<path d="M51.3106 24.7366H35.6537C34.954 24.7366 34.3867 25.3039 34.3867 26.0036C34.3867 26.7033 34.954 27.2706 35.6537 27.2706H51.3106C52.0103 27.2706 52.5776 26.7033 52.5776 26.0036C52.5776 25.3039 52.0103 24.7366 51.3106 24.7366Z" fill="#298D3F"/>
<path d="M35.6537 32.0591H41.5101C42.2098 32.0591 42.7771 31.4918 42.7771 30.7921C42.7771 30.0924 42.2098 29.5251 41.5101 29.5251H35.6537C34.954 29.5251 34.3867 30.0924 34.3867 30.7921C34.3867 31.4918 34.954 32.0591 35.6537 32.0591Z" fill="#298D3F"/>
<path d="M51.3106 47.3949H35.6537C34.954 47.3949 34.3867 47.9622 34.3867 48.6619C34.3867 49.3616 34.954 49.9289 35.6537 49.9289H51.3106C52.0103 49.9289 52.5776 49.3616 52.5776 48.6619C52.5776 47.9622 52.0103 47.3949 51.3106 47.3949Z" fill="#298D3F"/>
<path d="M35.6537 54.7176H41.5101C42.2098 54.7176 42.7771 54.1503 42.7771 53.4506C42.7771 52.7509 42.2098 52.1836 41.5101 52.1836H35.6537C34.954 52.1836 34.3867 52.7509 34.3867 53.4506C34.3867 54.1503 34.954 54.7176 35.6537 54.7176Z" fill="#298D3F"/>
<path d="M52.5776 69.9541C52.5776 69.2544 52.0103 68.6871 51.3106 68.6871H35.6537C34.954 68.6871 34.3867 69.2544 34.3867 69.9541C34.3867 70.6538 34.954 71.2211 35.6537 71.2211H51.3106C52.0103 71.2211 52.5776 70.6538 52.5776 69.9541Z" fill="#298D3F"/>
<path d="M35.6537 73.4757C34.954 73.4757 34.3867 74.043 34.3867 74.7427C34.3867 75.4424 34.954 76.0097 35.6537 76.0097H41.5101C42.2098 76.0097 42.7771 75.4424 42.7771 74.7427C42.7771 74.043 42.2098 73.4757 41.5101 73.4757H35.6537Z" fill="#298D3F"/>
</svg>
